<?xml version="1.0" encoding="UTF-8" standalone="no"?>
<!DOCTYPE svg PUBLIC "-//W3C//DTD SVG 1.1//EN"
 "http://www.w3.org/Graphics/SVG/1.1/DTD/svg11.dtd">
<!-- Generated by graphviz version 2.47.3 (20210619.1520)
 -->
<!-- Title: dependencies Pages: 1 -->
<svg width="412pt" height="174pt"
 viewBox="0.00 0.00 412.00 173.80" xmlns="http://www.w3.org/2000/svg" xmlns:xlink="http://www.w3.org/1999/xlink">
<g id="graph0" class="graph" transform="scale(1 1) rotate(0) translate(4 169.8)">
<title>dependencies</title>
<polygon fill="white" stroke="transparent" points="-4,4 -4,-169.8 408,-169.8 408,4 -4,4"/>
<text text-anchor="middle" x="202" y="-8.2" font-family="sans-serif" font-size="14.00">dependencies</text>
<g id="clust1" class="cluster">
<title>cluster_CoreModule</title>
<polygon fill="none" stroke="black" stroke-dasharray="1,5" points="8,-32.8 8,-157.8 396,-157.8 396,-32.8 8,-32.8"/>
</g>
<g id="clust3" class="cluster">
<title>cluster_CoreModule_imports</title>
<polygon fill="none" stroke="black" points="16,-40.8 16,-92.8 388,-92.8 388,-40.8 16,-40.8"/>
</g>
<!-- AuthModule -->
<g id="node1" class="node">
<title>AuthModule</title>
<polygon fill="#8dd3c7" stroke="black" points="379.55,-84.8 376.55,-88.8 355.55,-88.8 352.55,-84.8 292.45,-84.8 292.45,-48.8 379.55,-48.8 379.55,-84.8"/>
<text text-anchor="middle" x="336" y="-62.6" font-family="Times,serif" font-size="14.00">AuthModule</text>
</g>
<!-- CoreModule -->
<g id="node4" class="node">
<title>CoreModule</title>
<polygon fill="#8dd3c7" stroke="black" points="272.26,-149.8 269.26,-153.8 248.26,-153.8 245.26,-149.8 185.74,-149.8 185.74,-113.8 272.26,-113.8 272.26,-149.8"/>
<text text-anchor="middle" x="229" y="-127.6" font-family="Times,serif" font-size="14.00">CoreModule</text>
</g>
<!-- AuthModule&#45;&gt;CoreModule -->
<g id="edge1" class="edge">
<title>AuthModule&#45;&gt;CoreModule</title>
<path fill="none" stroke="black" d="M336,-84.91C336,-104.14 336,-131.8 336,-131.8 336,-131.8 282.52,-131.8 282.52,-131.8"/>
<polygon fill="black" stroke="black" points="282.52,-128.3 272.52,-131.8 282.52,-135.3 282.52,-128.3"/>
</g>
<!-- IconsModule -->
<g id="node2" class="node">
<title>IconsModule</title>
<polygon fill="#8dd3c7" stroke="black" points="273.87,-84.8 270.87,-88.8 249.87,-88.8 246.87,-84.8 184.13,-84.8 184.13,-48.8 273.87,-48.8 273.87,-84.8"/>
<text text-anchor="middle" x="229" y="-62.6" font-family="Times,serif" font-size="14.00">IconsModule</text>
</g>
<!-- IconsModule&#45;&gt;CoreModule -->
<g id="edge2" class="edge">
<title>IconsModule&#45;&gt;CoreModule</title>
<path fill="none" stroke="black" d="M229,-84.91C229,-84.91 229,-103.79 229,-103.79"/>
<polygon fill="black" stroke="black" points="225.5,-103.79 229,-113.79 232.5,-103.79 225.5,-103.79"/>
</g>
<!-- TranslocoCoreModule -->
<g id="node3" class="node">
<title>TranslocoCoreModule</title>
<polygon fill="#8dd3c7" stroke="black" points="166.24,-84.8 163.24,-88.8 142.24,-88.8 139.24,-84.8 23.76,-84.8 23.76,-48.8 166.24,-48.8 166.24,-84.8"/>
<text text-anchor="middle" x="95" y="-62.6" font-family="Times,serif" font-size="14.00">TranslocoCoreModule</text>
</g>
<!-- TranslocoCoreModule&#45;&gt;CoreModule -->
<g id="edge3" class="edge">
<title>TranslocoCoreModule&#45;&gt;CoreModule</title>
<path fill="none" stroke="black" d="M95,-84.91C95,-104.14 95,-131.8 95,-131.8 95,-131.8 175.49,-131.8 175.49,-131.8"/>
<polygon fill="black" stroke="black" points="175.49,-135.3 185.49,-131.8 175.49,-128.3 175.49,-135.3"/>
</g>
</g>
</svg>
