<?xml version="1.0" encoding="UTF-8" standalone="no"?>
<!DOCTYPE svg PUBLIC "-//W3C//DTD SVG 1.1//EN"
 "http://www.w3.org/Graphics/SVG/1.1/DTD/svg11.dtd">
<!-- Generated by graphviz version 2.47.3 (20210619.1520)
 -->
<!-- Title: dependencies Pages: 1 -->
<svg width="12806pt" height="174pt"
 viewBox="0.00 0.00 12806.00 173.80" xmlns="http://www.w3.org/2000/svg" xmlns:xlink="http://www.w3.org/1999/xlink">
<g id="graph0" class="graph" transform="scale(1 1) rotate(0) translate(4 169.8)">
<title>dependencies</title>
<polygon fill="white" stroke="transparent" points="-4,4 -4,-169.8 12802,-169.8 12802,4 -4,4"/>
<text text-anchor="middle" x="6399" y="-8.2" font-family="sans-serif" font-size="14.00">dependencies</text>
<g id="clust1" class="cluster">
<title>cluster_PageLayoutsModule</title>
<polygon fill="none" stroke="black" stroke-dasharray="1,5" points="8,-32.8 8,-157.8 12790,-157.8 12790,-32.8 8,-32.8"/>
</g>
<g id="clust47" class="cluster">
<title>cluster_PageLayoutsModule_imports</title>
<polygon fill="none" stroke="black" points="12164,-40.8 12164,-92.8 12782,-92.8 12782,-40.8 12164,-40.8"/>
</g>
<g id="clust2" class="cluster">
<title>cluster_PageLayoutsModule_declarations</title>
<polygon fill="none" stroke="black" points="16,-40.8 16,-92.8 12156,-92.8 12156,-40.8 16,-40.8"/>
</g>
<!-- CardedFullwidthContentScrollComponent -->
<g id="node1" class="node">
<title>CardedFullwidthContentScrollComponent</title>
<polygon fill="#ffffb3" stroke="black" points="12147.98,-84.8 11894.02,-84.8 11894.02,-48.8 12147.98,-48.8 12147.98,-84.8"/>
<text text-anchor="middle" x="12021" y="-62.6" font-family="Times,serif" font-size="14.00">CardedFullwidthContentScrollComponent</text>
</g>
<!-- PageLayoutsModule -->
<g id="node45" class="node">
<title>PageLayoutsModule</title>
<polygon fill="#8dd3c7" stroke="black" points="6849.86,-149.8 6846.86,-153.8 6825.86,-153.8 6822.86,-149.8 6718.14,-149.8 6718.14,-113.8 6849.86,-113.8 6849.86,-149.8"/>
<text text-anchor="middle" x="6784" y="-127.6" font-family="Times,serif" font-size="14.00">PageLayoutsModule</text>
</g>
<!-- CardedFullwidthContentScrollComponent&#45;&gt;PageLayoutsModule -->
<g id="edge1" class="edge">
<title>CardedFullwidthContentScrollComponent&#45;&gt;PageLayoutsModule</title>
<path fill="none" stroke="black" d="M12021,-84.81C12021,-107.29 12021,-142.8 12021,-142.8 12021,-142.8 6860.22,-142.8 6860.22,-142.8"/>
<polygon fill="black" stroke="black" points="6860.22,-139.3 6850.22,-142.8 6860.21,-146.3 6860.22,-139.3"/>
</g>
<!-- CardedFullwidthNormalScrollComponent -->
<g id="node2" class="node">
<title>CardedFullwidthNormalScrollComponent</title>
<polygon fill="#ffffb3" stroke="black" points="11876.41,-84.8 11623.59,-84.8 11623.59,-48.8 11876.41,-48.8 11876.41,-84.8"/>
<text text-anchor="middle" x="11750" y="-62.6" font-family="Times,serif" font-size="14.00">CardedFullwidthNormalScrollComponent</text>
</g>
<!-- CardedFullwidthNormalScrollComponent&#45;&gt;PageLayoutsModule -->
<g id="edge2" class="edge">
<title>CardedFullwidthNormalScrollComponent&#45;&gt;PageLayoutsModule</title>
<path fill="none" stroke="black" d="M11750,-85.09C11750,-107.01 11750,-140.8 11750,-140.8 11750,-140.8 6859.98,-140.8 6859.98,-140.8"/>
<polygon fill="black" stroke="black" points="6859.98,-137.3 6849.98,-140.8 6859.98,-144.3 6859.98,-137.3"/>
</g>
<!-- CardedFullwidthPageScrollComponent -->
<g id="node3" class="node">
<title>CardedFullwidthPageScrollComponent</title>
<polygon fill="#ffffb3" stroke="black" points="11605.36,-84.8 11368.64,-84.8 11368.64,-48.8 11605.36,-48.8 11605.36,-84.8"/>
<text text-anchor="middle" x="11487" y="-62.6" font-family="Times,serif" font-size="14.00">CardedFullwidthPageScrollComponent</text>
</g>
<!-- CardedFullwidthPageScrollComponent&#45;&gt;PageLayoutsModule -->
<g id="edge3" class="edge">
<title>CardedFullwidthPageScrollComponent&#45;&gt;PageLayoutsModule</title>
<path fill="none" stroke="black" d="M11487,-84.84C11487,-106.46 11487,-139.8 11487,-139.8 11487,-139.8 6860.03,-139.8 6860.03,-139.8"/>
<polygon fill="black" stroke="black" points="6860.03,-136.3 6850.03,-139.8 6860.03,-143.3 6860.03,-136.3"/>
</g>
<!-- CardedLeftSidebar1ContentScrollComponent -->
<g id="node4" class="node">
<title>CardedLeftSidebar1ContentScrollComponent</title>
<polygon fill="#ffffb3" stroke="black" points="11350.11,-84.8 11077.89,-84.8 11077.89,-48.8 11350.11,-48.8 11350.11,-84.8"/>
<text text-anchor="middle" x="11214" y="-62.6" font-family="Times,serif" font-size="14.00">CardedLeftSidebar1ContentScrollComponent</text>
</g>
<!-- CardedLeftSidebar1ContentScrollComponent&#45;&gt;PageLayoutsModule -->
<g id="edge4" class="edge">
<title>CardedLeftSidebar1ContentScrollComponent&#45;&gt;PageLayoutsModule</title>
<path fill="none" stroke="black" d="M11214,-85.08C11214,-106.12 11214,-137.8 11214,-137.8 11214,-137.8 6860.06,-137.8 6860.06,-137.8"/>
<polygon fill="black" stroke="black" points="6860.06,-134.3 6850.06,-137.8 6860.06,-141.3 6860.06,-134.3"/>
</g>
<!-- CardedLeftSidebar1NormalScrollComponent -->
<g id="node5" class="node">
<title>CardedLeftSidebar1NormalScrollComponent</title>
<polygon fill="#ffffb3" stroke="black" points="11059.54,-84.8 10788.46,-84.8 10788.46,-48.8 11059.54,-48.8 11059.54,-84.8"/>
<text text-anchor="middle" x="10924" y="-62.6" font-family="Times,serif" font-size="14.00">CardedLeftSidebar1NormalScrollComponent</text>
</g>
<!-- CardedLeftSidebar1NormalScrollComponent&#45;&gt;PageLayoutsModule -->
<g id="edge5" class="edge">
<title>CardedLeftSidebar1NormalScrollComponent&#45;&gt;PageLayoutsModule</title>
<path fill="none" stroke="black" d="M10924,-84.83C10924,-105.57 10924,-136.8 10924,-136.8 10924,-136.8 6859.87,-136.8 6859.87,-136.8"/>
<polygon fill="black" stroke="black" points="6859.87,-133.3 6849.87,-136.8 6859.87,-140.3 6859.87,-133.3"/>
</g>
<!-- CardedLeftSidebar1PageScrollComponent -->
<g id="node6" class="node">
<title>CardedLeftSidebar1PageScrollComponent</title>
<polygon fill="#ffffb3" stroke="black" points="10770.99,-84.8 10515.01,-84.8 10515.01,-48.8 10770.99,-48.8 10770.99,-84.8"/>
<text text-anchor="middle" x="10643" y="-62.6" font-family="Times,serif" font-size="14.00">CardedLeftSidebar1PageScrollComponent</text>
</g>
<!-- CardedLeftSidebar1PageScrollComponent&#45;&gt;PageLayoutsModule -->
<g id="edge6" class="edge">
<title>CardedLeftSidebar1PageScrollComponent&#45;&gt;PageLayoutsModule</title>
<path fill="none" stroke="black" d="M10643,-85.02C10643,-105.17 10643,-134.8 10643,-134.8 10643,-134.8 6860.17,-134.8 6860.17,-134.8"/>
<polygon fill="black" stroke="black" points="6860.17,-131.3 6850.17,-134.8 6860.17,-138.3 6860.17,-131.3"/>
</g>
<!-- CardedLeftSidebar2ContentScrollComponent -->
<g id="node7" class="node">
<title>CardedLeftSidebar2ContentScrollComponent</title>
<polygon fill="#ffffb3" stroke="black" points="10497.11,-84.8 10224.89,-84.8 10224.89,-48.8 10497.11,-48.8 10497.11,-84.8"/>
<text text-anchor="middle" x="10361" y="-62.6" font-family="Times,serif" font-size="14.00">CardedLeftSidebar2ContentScrollComponent</text>
</g>
<!-- CardedLeftSidebar2ContentScrollComponent&#45;&gt;PageLayoutsModule -->
<g id="edge7" class="edge">
<title>CardedLeftSidebar2ContentScrollComponent&#45;&gt;PageLayoutsModule</title>
<path fill="none" stroke="black" d="M10361,-85.11C10361,-104.95 10361,-133.8 10361,-133.8 10361,-133.8 6859.91,-133.8 6859.91,-133.8"/>
<polygon fill="black" stroke="black" points="6859.91,-130.3 6849.91,-133.8 6859.91,-137.3 6859.91,-130.3"/>
</g>
<!-- CardedLeftSidebar2NormalScrollComponent -->
<g id="node8" class="node">
<title>CardedLeftSidebar2NormalScrollComponent</title>
<polygon fill="#ffffb3" stroke="black" points="10206.54,-84.8 9935.46,-84.8 9935.46,-48.8 10206.54,-48.8 10206.54,-84.8"/>
<text text-anchor="middle" x="10071" y="-62.6" font-family="Times,serif" font-size="14.00">CardedLeftSidebar2NormalScrollComponent</text>
</g>
<!-- CardedLeftSidebar2NormalScrollComponent&#45;&gt;PageLayoutsModule -->
<g id="edge8" class="edge">
<title>CardedLeftSidebar2NormalScrollComponent&#45;&gt;PageLayoutsModule</title>
<path fill="none" stroke="black" d="M10071,-84.91C10071,-104.14 10071,-131.8 10071,-131.8 10071,-131.8 6860.03,-131.8 6860.03,-131.8"/>
<polygon fill="black" stroke="black" points="6860.03,-128.3 6850.03,-131.8 6860.03,-135.3 6860.03,-128.3"/>
</g>
<!-- CardedLeftSidebar2PageScrollComponent -->
<g id="node9" class="node">
<title>CardedLeftSidebar2PageScrollComponent</title>
<polygon fill="#ffffb3" stroke="black" points="9917.99,-84.8 9662.01,-84.8 9662.01,-48.8 9917.99,-48.8 9917.99,-84.8"/>
<text text-anchor="middle" x="9790" y="-62.6" font-family="Times,serif" font-size="14.00">CardedLeftSidebar2PageScrollComponent</text>
</g>
<!-- CardedLeftSidebar2PageScrollComponent&#45;&gt;PageLayoutsModule -->
<g id="edge9" class="edge">
<title>CardedLeftSidebar2PageScrollComponent&#45;&gt;PageLayoutsModule</title>
<path fill="none" stroke="black" d="M9790,-84.97C9790,-103.89 9790,-130.8 9790,-130.8 9790,-130.8 6859.93,-130.8 6859.93,-130.8"/>
<polygon fill="black" stroke="black" points="6859.93,-127.3 6849.93,-130.8 6859.93,-134.3 6859.93,-127.3"/>
</g>
<!-- CardedRightSidebar1ContentScrollComponent -->
<g id="node10" class="node">
<title>CardedRightSidebar1ContentScrollComponent</title>
<polygon fill="#ffffb3" stroke="black" points="9644.41,-84.8 9363.59,-84.8 9363.59,-48.8 9644.41,-48.8 9644.41,-84.8"/>
<text text-anchor="middle" x="9504" y="-62.6" font-family="Times,serif" font-size="14.00">CardedRightSidebar1ContentScrollComponent</text>
</g>
<!-- CardedRightSidebar1ContentScrollComponent&#45;&gt;PageLayoutsModule -->
<g id="edge10" class="edge">
<title>CardedRightSidebar1ContentScrollComponent&#45;&gt;PageLayoutsModule</title>
<path fill="none" stroke="black" d="M9504,-85.02C9504,-103.63 9504,-129.8 9504,-129.8 9504,-129.8 6859.89,-129.8 6859.89,-129.8"/>
<polygon fill="black" stroke="black" points="6859.89,-126.3 6849.89,-129.8 6859.89,-133.3 6859.89,-126.3"/>
</g>
<!-- CardedRightSidebar1NormalScrollComponent -->
<g id="node11" class="node">
<title>CardedRightSidebar1NormalScrollComponent</title>
<polygon fill="#ffffb3" stroke="black" points="9345.34,-84.8 9066.66,-84.8 9066.66,-48.8 9345.34,-48.8 9345.34,-84.8"/>
<text text-anchor="middle" x="9206" y="-62.6" font-family="Times,serif" font-size="14.00">CardedRightSidebar1NormalScrollComponent</text>
</g>
<!-- CardedRightSidebar1NormalScrollComponent&#45;&gt;PageLayoutsModule -->
<g id="edge11" class="edge">
<title>CardedRightSidebar1NormalScrollComponent&#45;&gt;PageLayoutsModule</title>
<path fill="none" stroke="black" d="M9206,-85.1C9206,-103.07 9206,-127.8 9206,-127.8 9206,-127.8 6860.04,-127.8 6860.04,-127.8"/>
<polygon fill="black" stroke="black" points="6860.04,-124.3 6850.04,-127.8 6860.04,-131.3 6860.04,-124.3"/>
</g>
<!-- CardedRightSidebar1PageScrollComponent -->
<g id="node12" class="node">
<title>CardedRightSidebar1PageScrollComponent</title>
<polygon fill="#ffffb3" stroke="black" points="9048.79,-84.8 8785.21,-84.8 8785.21,-48.8 9048.79,-48.8 9048.79,-84.8"/>
<text text-anchor="middle" x="8917" y="-62.6" font-family="Times,serif" font-size="14.00">CardedRightSidebar1PageScrollComponent</text>
</g>
<!-- CardedRightSidebar1PageScrollComponent&#45;&gt;PageLayoutsModule -->
<g id="edge12" class="edge">
<title>CardedRightSidebar1PageScrollComponent&#45;&gt;PageLayoutsModule</title>
<path fill="none" stroke="black" d="M8917,-84.82C8917,-102.17 8917,-125.8 8917,-125.8 8917,-125.8 6859.88,-125.8 6859.88,-125.8"/>
<polygon fill="black" stroke="black" points="6859.88,-122.3 6849.88,-125.8 6859.88,-129.3 6859.88,-122.3"/>
</g>
<!-- CardedRightSidebar2ContentScrollComponent -->
<g id="node13" class="node">
<title>CardedRightSidebar2ContentScrollComponent</title>
<polygon fill="#ffffb3" stroke="black" points="8767.41,-84.8 8486.59,-84.8 8486.59,-48.8 8767.41,-48.8 8767.41,-84.8"/>
<text text-anchor="middle" x="8627" y="-62.6" font-family="Times,serif" font-size="14.00">CardedRightSidebar2ContentScrollComponent</text>
</g>
<!-- CardedRightSidebar2ContentScrollComponent&#45;&gt;PageLayoutsModule -->
<g id="edge13" class="edge">
<title>CardedRightSidebar2ContentScrollComponent&#45;&gt;PageLayoutsModule</title>
<path fill="none" stroke="black" d="M8627,-84.83C8627,-101.86 8627,-124.8 8627,-124.8 8627,-124.8 6859.86,-124.8 6859.86,-124.8"/>
<polygon fill="black" stroke="black" points="6859.86,-121.3 6849.86,-124.8 6859.86,-128.3 6859.86,-121.3"/>
</g>
<!-- CardedRightSidebar2NormalScrollComponent -->
<g id="node14" class="node">
<title>CardedRightSidebar2NormalScrollComponent</title>
<polygon fill="#ffffb3" stroke="black" points="8468.34,-84.8 8189.66,-84.8 8189.66,-48.8 8468.34,-48.8 8468.34,-84.8"/>
<text text-anchor="middle" x="8329" y="-62.6" font-family="Times,serif" font-size="14.00">CardedRightSidebar2NormalScrollComponent</text>
</g>
<!-- CardedRightSidebar2NormalScrollComponent&#45;&gt;PageLayoutsModule -->
<g id="edge14" class="edge">
<title>CardedRightSidebar2NormalScrollComponent&#45;&gt;PageLayoutsModule</title>
<path fill="none" stroke="black" d="M8329,-84.83C8329,-101.2 8329,-122.8 8329,-122.8 8329,-122.8 6859.89,-122.8 6859.89,-122.8"/>
<polygon fill="black" stroke="black" points="6859.89,-119.3 6849.89,-122.8 6859.89,-126.3 6859.89,-119.3"/>
</g>
<!-- CardedRightSidebar2PageScrollComponent -->
<g id="node15" class="node">
<title>CardedRightSidebar2PageScrollComponent</title>
<polygon fill="#ffffb3" stroke="black" points="8171.79,-84.8 7908.21,-84.8 7908.21,-48.8 8171.79,-48.8 8171.79,-84.8"/>
<text text-anchor="middle" x="8040" y="-62.6" font-family="Times,serif" font-size="14.00">CardedRightSidebar2PageScrollComponent</text>
</g>
<!-- CardedRightSidebar2PageScrollComponent&#45;&gt;PageLayoutsModule -->
<g id="edge15" class="edge">
<title>CardedRightSidebar2PageScrollComponent&#45;&gt;PageLayoutsModule</title>
<path fill="none" stroke="black" d="M8040,-84.81C8040,-100.85 8040,-121.8 8040,-121.8 8040,-121.8 6860.2,-121.8 6860.2,-121.8"/>
<polygon fill="black" stroke="black" points="6860.2,-118.3 6850.2,-121.8 6860.2,-125.3 6860.2,-118.3"/>
</g>
<!-- EmptyNormalScrollComponent -->
<g id="node16" class="node">
<title>EmptyNormalScrollComponent</title>
<polygon fill="#ffffb3" stroke="black" points="7890.37,-84.8 7695.63,-84.8 7695.63,-48.8 7890.37,-48.8 7890.37,-84.8"/>
<text text-anchor="middle" x="7793" y="-62.6" font-family="Times,serif" font-size="14.00">EmptyNormalScrollComponent</text>
</g>
<!-- EmptyNormalScrollComponent&#45;&gt;PageLayoutsModule -->
<g id="edge16" class="edge">
<title>EmptyNormalScrollComponent&#45;&gt;PageLayoutsModule</title>
<path fill="none" stroke="black" d="M7793,-85.04C7793,-100.37 7793,-119.8 7793,-119.8 7793,-119.8 6860.2,-119.8 6860.2,-119.8"/>
<polygon fill="black" stroke="black" points="6860.2,-116.3 6850.2,-119.8 6860.2,-123.3 6860.2,-116.3"/>
</g>
<!-- EmptyPageScrollComponent -->
<g id="node17" class="node">
<title>EmptyPageScrollComponent</title>
<polygon fill="#ffffb3" stroke="black" points="7677.82,-84.8 7498.18,-84.8 7498.18,-48.8 7677.82,-48.8 7677.82,-84.8"/>
<text text-anchor="middle" x="7588" y="-62.6" font-family="Times,serif" font-size="14.00">EmptyPageScrollComponent</text>
</g>
<!-- EmptyPageScrollComponent&#45;&gt;PageLayoutsModule -->
<g id="edge17" class="edge">
<title>EmptyPageScrollComponent&#45;&gt;PageLayoutsModule</title>
<path fill="none" stroke="black" d="M7588,-84.99C7588,-99.98 7588,-118.8 7588,-118.8 7588,-118.8 6860.14,-118.8 6860.14,-118.8"/>
<polygon fill="black" stroke="black" points="6860.14,-115.3 6850.14,-118.8 6860.14,-122.3 6860.14,-115.3"/>
</g>
<!-- OverviewComponent -->
<g id="node18" class="node">
<title>OverviewComponent</title>
<polygon fill="#ffffb3" stroke="black" points="7480.03,-84.8 7343.97,-84.8 7343.97,-48.8 7480.03,-48.8 7480.03,-84.8"/>
<text text-anchor="middle" x="7412" y="-62.6" font-family="Times,serif" font-size="14.00">OverviewComponent</text>
</g>
<!-- OverviewComponent&#45;&gt;PageLayoutsModule -->
<g id="edge18" class="edge">
<title>OverviewComponent&#45;&gt;PageLayoutsModule</title>
<path fill="none" stroke="black" d="M7412,-84.85C7412,-99.17 7412,-116.8 7412,-116.8 7412,-116.8 6860.02,-116.8 6860.02,-116.8"/>
<polygon fill="black" stroke="black" points="6860.02,-113.3 6850.02,-116.8 6860.02,-120.3 6860.02,-113.3"/>
</g>
<!-- SimpleFullwidth1ContentScrollComponent -->
<g id="node19" class="node">
<title>SimpleFullwidth1ContentScrollComponent</title>
<polygon fill="#ffffb3" stroke="black" points="7326.22,-84.8 7065.78,-84.8 7065.78,-48.8 7326.22,-48.8 7326.22,-84.8"/>
<text text-anchor="middle" x="7196" y="-62.6" font-family="Times,serif" font-size="14.00">SimpleFullwidth1ContentScrollComponent</text>
</g>
<!-- SimpleFullwidth1ContentScrollComponent&#45;&gt;PageLayoutsModule -->
<g id="edge19" class="edge">
<title>SimpleFullwidth1ContentScrollComponent&#45;&gt;PageLayoutsModule</title>
<path fill="none" stroke="black" d="M7196,-85.05C7196,-98.98 7196,-115.8 7196,-115.8 7196,-115.8 6860.19,-115.8 6860.19,-115.8"/>
<polygon fill="black" stroke="black" points="6860.19,-112.3 6850.19,-115.8 6860.19,-119.3 6860.19,-112.3"/>
</g>
<!-- SimpleFullwidth1NormalScrollComponent -->
<g id="node20" class="node">
<title>SimpleFullwidth1NormalScrollComponent</title>
<polygon fill="#ffffb3" stroke="black" points="7048.16,-84.8 6789.84,-84.8 6789.84,-48.8 7048.16,-48.8 7048.16,-84.8"/>
<text text-anchor="middle" x="6919" y="-62.6" font-family="Times,serif" font-size="14.00">SimpleFullwidth1NormalScrollComponent</text>
</g>
<!-- SimpleFullwidth1NormalScrollComponent&#45;&gt;PageLayoutsModule -->
<g id="edge20" class="edge">
<title>SimpleFullwidth1NormalScrollComponent&#45;&gt;PageLayoutsModule</title>
<path fill="none" stroke="black" d="M6819.8,-84.91C6819.8,-84.91 6819.8,-103.79 6819.8,-103.79"/>
<polygon fill="black" stroke="black" points="6816.3,-103.79 6819.8,-113.79 6823.3,-103.79 6816.3,-103.79"/>
</g>
<!-- SimpleFullwidth1PageScrollComponent -->
<g id="node21" class="node">
<title>SimpleFullwidth1PageScrollComponent</title>
<polygon fill="#ffffb3" stroke="black" points="6771.6,-84.8 6528.4,-84.8 6528.4,-48.8 6771.6,-48.8 6771.6,-84.8"/>
<text text-anchor="middle" x="6650" y="-62.6" font-family="Times,serif" font-size="14.00">SimpleFullwidth1PageScrollComponent</text>
</g>
<!-- SimpleFullwidth1PageScrollComponent&#45;&gt;PageLayoutsModule -->
<g id="edge21" class="edge">
<title>SimpleFullwidth1PageScrollComponent&#45;&gt;PageLayoutsModule</title>
<path fill="none" stroke="black" d="M6744.81,-84.91C6744.81,-84.91 6744.81,-103.79 6744.81,-103.79"/>
<polygon fill="black" stroke="black" points="6741.31,-103.79 6744.81,-113.79 6748.31,-103.79 6741.31,-103.79"/>
</g>
<!-- SimpleFullwidth2ContentScrollComponent -->
<g id="node22" class="node">
<title>SimpleFullwidth2ContentScrollComponent</title>
<polygon fill="#ffffb3" stroke="black" points="6510.22,-84.8 6249.78,-84.8 6249.78,-48.8 6510.22,-48.8 6510.22,-84.8"/>
<text text-anchor="middle" x="6380" y="-62.6" font-family="Times,serif" font-size="14.00">SimpleFullwidth2ContentScrollComponent</text>
</g>
<!-- SimpleFullwidth2ContentScrollComponent&#45;&gt;PageLayoutsModule -->
<g id="edge22" class="edge">
<title>SimpleFullwidth2ContentScrollComponent&#45;&gt;PageLayoutsModule</title>
<path fill="none" stroke="black" d="M6380,-85.05C6380,-98.98 6380,-115.8 6380,-115.8 6380,-115.8 6707.74,-115.8 6707.74,-115.8"/>
<polygon fill="black" stroke="black" points="6707.74,-119.3 6717.74,-115.8 6707.74,-112.3 6707.74,-119.3"/>
</g>
<!-- SimpleFullwidth2NormalScrollComponent -->
<g id="node23" class="node">
<title>SimpleFullwidth2NormalScrollComponent</title>
<polygon fill="#ffffb3" stroke="black" points="6232.16,-84.8 5973.84,-84.8 5973.84,-48.8 6232.16,-48.8 6232.16,-84.8"/>
<text text-anchor="middle" x="6103" y="-62.6" font-family="Times,serif" font-size="14.00">SimpleFullwidth2NormalScrollComponent</text>
</g>
<!-- SimpleFullwidth2NormalScrollComponent&#45;&gt;PageLayoutsModule -->
<g id="edge23" class="edge">
<title>SimpleFullwidth2NormalScrollComponent&#45;&gt;PageLayoutsModule</title>
<path fill="none" stroke="black" d="M6103,-84.85C6103,-99.17 6103,-116.8 6103,-116.8 6103,-116.8 6708.08,-116.8 6708.08,-116.8"/>
<polygon fill="black" stroke="black" points="6708.08,-120.3 6718.08,-116.8 6708.08,-113.3 6708.08,-120.3"/>
</g>
<!-- SimpleFullwidth2PageScrollComponent -->
<g id="node24" class="node">
<title>SimpleFullwidth2PageScrollComponent</title>
<polygon fill="#ffffb3" stroke="black" points="5955.6,-84.8 5712.4,-84.8 5712.4,-48.8 5955.6,-48.8 5955.6,-84.8"/>
<text text-anchor="middle" x="5834" y="-62.6" font-family="Times,serif" font-size="14.00">SimpleFullwidth2PageScrollComponent</text>
</g>
<!-- SimpleFullwidth2PageScrollComponent&#45;&gt;PageLayoutsModule -->
<g id="edge24" class="edge">
<title>SimpleFullwidth2PageScrollComponent&#45;&gt;PageLayoutsModule</title>
<path fill="none" stroke="black" d="M5834,-84.99C5834,-99.98 5834,-118.8 5834,-118.8 5834,-118.8 6707.95,-118.8 6707.95,-118.8"/>
<polygon fill="black" stroke="black" points="6707.95,-122.3 6717.95,-118.8 6707.95,-115.3 6707.95,-122.3"/>
</g>
<!-- SimpleLeftSidebar1ContentScrollComponent -->
<g id="node25" class="node">
<title>SimpleLeftSidebar1ContentScrollComponent</title>
<polygon fill="#ffffb3" stroke="black" points="5694.85,-84.8 5423.15,-84.8 5423.15,-48.8 5694.85,-48.8 5694.85,-84.8"/>
<text text-anchor="middle" x="5559" y="-62.6" font-family="Times,serif" font-size="14.00">SimpleLeftSidebar1ContentScrollComponent</text>
</g>
<!-- SimpleLeftSidebar1ContentScrollComponent&#45;&gt;PageLayoutsModule -->
<g id="edge25" class="edge">
<title>SimpleLeftSidebar1ContentScrollComponent&#45;&gt;PageLayoutsModule</title>
<path fill="none" stroke="black" d="M5559,-85.04C5559,-100.37 5559,-119.8 5559,-119.8 5559,-119.8 6707.7,-119.8 6707.7,-119.8"/>
<polygon fill="black" stroke="black" points="6707.7,-123.3 6717.7,-119.8 6707.7,-116.3 6707.7,-123.3"/>
</g>
<!-- SimpleLeftSidebar1NormalScrollComponent -->
<g id="node26" class="node">
<title>SimpleLeftSidebar1NormalScrollComponent</title>
<polygon fill="#ffffb3" stroke="black" points="5405.28,-84.8 5134.72,-84.8 5134.72,-48.8 5405.28,-48.8 5405.28,-84.8"/>
<text text-anchor="middle" x="5270" y="-62.6" font-family="Times,serif" font-size="14.00">SimpleLeftSidebar1NormalScrollComponent</text>
</g>
<!-- SimpleLeftSidebar1NormalScrollComponent&#45;&gt;PageLayoutsModule -->
<g id="edge26" class="edge">
<title>SimpleLeftSidebar1NormalScrollComponent&#45;&gt;PageLayoutsModule</title>
<path fill="none" stroke="black" d="M5270,-84.81C5270,-100.85 5270,-121.8 5270,-121.8 5270,-121.8 6707.97,-121.8 6707.97,-121.8"/>
<polygon fill="black" stroke="black" points="6707.97,-125.3 6717.97,-121.8 6707.97,-118.3 6707.97,-125.3"/>
</g>
<!-- SimpleLeftSidebar1PageScrollComponent -->
<g id="node27" class="node">
<title>SimpleLeftSidebar1PageScrollComponent</title>
<polygon fill="#ffffb3" stroke="black" points="5116.23,-84.8 4861.77,-84.8 4861.77,-48.8 5116.23,-48.8 5116.23,-84.8"/>
<text text-anchor="middle" x="4989" y="-62.6" font-family="Times,serif" font-size="14.00">SimpleLeftSidebar1PageScrollComponent</text>
</g>
<!-- SimpleLeftSidebar1PageScrollComponent&#45;&gt;PageLayoutsModule -->
<g id="edge27" class="edge">
<title>SimpleLeftSidebar1PageScrollComponent&#45;&gt;PageLayoutsModule</title>
<path fill="none" stroke="black" d="M4989,-84.83C4989,-101.2 4989,-122.8 4989,-122.8 4989,-122.8 6707.99,-122.8 6707.99,-122.8"/>
<polygon fill="black" stroke="black" points="6707.99,-126.3 6717.99,-122.8 6707.99,-119.3 6707.99,-126.3"/>
</g>
<!-- SimpleLeftSidebar2ContentScrollComponent -->
<g id="node28" class="node">
<title>SimpleLeftSidebar2ContentScrollComponent</title>
<polygon fill="#ffffb3" stroke="black" points="4843.85,-84.8 4572.15,-84.8 4572.15,-48.8 4843.85,-48.8 4843.85,-84.8"/>
<text text-anchor="middle" x="4708" y="-62.6" font-family="Times,serif" font-size="14.00">SimpleLeftSidebar2ContentScrollComponent</text>
</g>
<!-- SimpleLeftSidebar2ContentScrollComponent&#45;&gt;PageLayoutsModule -->
<g id="edge28" class="edge">
<title>SimpleLeftSidebar2ContentScrollComponent&#45;&gt;PageLayoutsModule</title>
<path fill="none" stroke="black" d="M4708,-84.83C4708,-101.86 4708,-124.8 4708,-124.8 4708,-124.8 6707.86,-124.8 6707.86,-124.8"/>
<polygon fill="black" stroke="black" points="6707.86,-128.3 6717.86,-124.8 6707.86,-121.3 6707.86,-128.3"/>
</g>
<!-- SimpleLeftSidebar2InnerScrollComponent -->
<g id="node29" class="node">
<title>SimpleLeftSidebar2InnerScrollComponent</title>
<polygon fill="#ffffb3" stroke="black" points="4554.56,-84.8 4297.44,-84.8 4297.44,-48.8 4554.56,-48.8 4554.56,-84.8"/>
<text text-anchor="middle" x="4426" y="-62.6" font-family="Times,serif" font-size="14.00">SimpleLeftSidebar2InnerScrollComponent</text>
</g>
<!-- SimpleLeftSidebar2InnerScrollComponent&#45;&gt;PageLayoutsModule -->
<g id="edge29" class="edge">
<title>SimpleLeftSidebar2InnerScrollComponent&#45;&gt;PageLayoutsModule</title>
<path fill="none" stroke="black" d="M4426,-84.82C4426,-102.17 4426,-125.8 4426,-125.8 4426,-125.8 6707.85,-125.8 6707.85,-125.8"/>
<polygon fill="black" stroke="black" points="6707.85,-129.3 6717.85,-125.8 6707.85,-122.3 6707.85,-129.3"/>
</g>
<!-- SimpleLeftSidebar2NormalScrollComponent -->
<g id="node30" class="node">
<title>SimpleLeftSidebar2NormalScrollComponent</title>
<polygon fill="#ffffb3" stroke="black" points="4279.28,-84.8 4008.72,-84.8 4008.72,-48.8 4279.28,-48.8 4279.28,-84.8"/>
<text text-anchor="middle" x="4144" y="-62.6" font-family="Times,serif" font-size="14.00">SimpleLeftSidebar2NormalScrollComponent</text>
</g>
<!-- SimpleLeftSidebar2NormalScrollComponent&#45;&gt;PageLayoutsModule -->
<g id="edge30" class="edge">
<title>SimpleLeftSidebar2NormalScrollComponent&#45;&gt;PageLayoutsModule</title>
<path fill="none" stroke="black" d="M4144,-85.1C4144,-103.07 4144,-127.8 4144,-127.8 4144,-127.8 6708.08,-127.8 6708.08,-127.8"/>
<polygon fill="black" stroke="black" points="6708.08,-131.3 6718.08,-127.8 6708.08,-124.3 6708.08,-131.3"/>
</g>
<!-- SimpleLeftSidebar2PageScrollComponent -->
<g id="node31" class="node">
<title>SimpleLeftSidebar2PageScrollComponent</title>
<polygon fill="#ffffb3" stroke="black" points="3990.23,-84.8 3735.77,-84.8 3735.77,-48.8 3990.23,-48.8 3990.23,-84.8"/>
<text text-anchor="middle" x="3863" y="-62.6" font-family="Times,serif" font-size="14.00">SimpleLeftSidebar2PageScrollComponent</text>
</g>
<!-- SimpleLeftSidebar2PageScrollComponent&#45;&gt;PageLayoutsModule -->
<g id="edge31" class="edge">
<title>SimpleLeftSidebar2PageScrollComponent&#45;&gt;PageLayoutsModule</title>
<path fill="none" stroke="black" d="M3863,-85.02C3863,-103.63 3863,-129.8 3863,-129.8 3863,-129.8 6707.85,-129.8 6707.85,-129.8"/>
<polygon fill="black" stroke="black" points="6707.85,-133.3 6717.85,-129.8 6707.85,-126.3 6707.85,-133.3"/>
</g>
<!-- SimpleLeftSidebar3NormalScrollComponent -->
<g id="node32" class="node">
<title>SimpleLeftSidebar3NormalScrollComponent</title>
<polygon fill="#ffffb3" stroke="black" points="3717.28,-84.8 3446.72,-84.8 3446.72,-48.8 3717.28,-48.8 3717.28,-84.8"/>
<text text-anchor="middle" x="3582" y="-62.6" font-family="Times,serif" font-size="14.00">SimpleLeftSidebar3NormalScrollComponent</text>
</g>
<!-- SimpleLeftSidebar3NormalScrollComponent&#45;&gt;PageLayoutsModule -->
<g id="edge32" class="edge">
<title>SimpleLeftSidebar3NormalScrollComponent&#45;&gt;PageLayoutsModule</title>
<path fill="none" stroke="black" d="M3582,-84.97C3582,-103.89 3582,-130.8 3582,-130.8 3582,-130.8 6707.86,-130.8 6707.86,-130.8"/>
<polygon fill="black" stroke="black" points="6707.86,-134.3 6717.86,-130.8 6707.86,-127.3 6707.86,-134.3"/>
</g>
<!-- SimpleLeftSidebar3PageScrollComponent -->
<g id="node33" class="node">
<title>SimpleLeftSidebar3PageScrollComponent</title>
<polygon fill="#ffffb3" stroke="black" points="3428.23,-84.8 3173.77,-84.8 3173.77,-48.8 3428.23,-48.8 3428.23,-84.8"/>
<text text-anchor="middle" x="3301" y="-62.6" font-family="Times,serif" font-size="14.00">SimpleLeftSidebar3PageScrollComponent</text>
</g>
<!-- SimpleLeftSidebar3PageScrollComponent&#45;&gt;PageLayoutsModule -->
<g id="edge33" class="edge">
<title>SimpleLeftSidebar3PageScrollComponent&#45;&gt;PageLayoutsModule</title>
<path fill="none" stroke="black" d="M3301,-84.91C3301,-104.14 3301,-131.8 3301,-131.8 3301,-131.8 6707.92,-131.8 6707.92,-131.8"/>
<polygon fill="black" stroke="black" points="6707.92,-135.3 6717.92,-131.8 6707.92,-128.3 6707.92,-135.3"/>
</g>
<!-- SimpleLeftSidebar3ScrollComponent -->
<g id="node34" class="node">
<title>SimpleLeftSidebar3ScrollComponent</title>
<polygon fill="#ffffb3" stroke="black" points="3155.52,-84.8 2928.48,-84.8 2928.48,-48.8 3155.52,-48.8 3155.52,-84.8"/>
<text text-anchor="middle" x="3042" y="-62.6" font-family="Times,serif" font-size="14.00">SimpleLeftSidebar3ScrollComponent</text>
</g>
<!-- SimpleLeftSidebar3ScrollComponent&#45;&gt;PageLayoutsModule -->
<g id="edge34" class="edge">
<title>SimpleLeftSidebar3ScrollComponent&#45;&gt;PageLayoutsModule</title>
<path fill="none" stroke="black" d="M3042,-85.11C3042,-104.95 3042,-133.8 3042,-133.8 3042,-133.8 6707.86,-133.8 6707.86,-133.8"/>
<polygon fill="black" stroke="black" points="6707.86,-137.3 6717.86,-133.8 6707.86,-130.3 6707.86,-137.3"/>
</g>
<!-- SimpleRightSidebar1ContentScrollComponent -->
<g id="node35" class="node">
<title>SimpleRightSidebar1ContentScrollComponent</title>
<polygon fill="#ffffb3" stroke="black" points="2909.65,-84.8 2630.35,-84.8 2630.35,-48.8 2909.65,-48.8 2909.65,-84.8"/>
<text text-anchor="middle" x="2770" y="-62.6" font-family="Times,serif" font-size="14.00">SimpleRightSidebar1ContentScrollComponent</text>
</g>
<!-- SimpleRightSidebar1ContentScrollComponent&#45;&gt;PageLayoutsModule -->
<g id="edge35" class="edge">
<title>SimpleRightSidebar1ContentScrollComponent&#45;&gt;PageLayoutsModule</title>
<path fill="none" stroke="black" d="M2770,-85.02C2770,-105.17 2770,-134.8 2770,-134.8 2770,-134.8 6708.09,-134.8 6708.09,-134.8"/>
<polygon fill="black" stroke="black" points="6708.09,-138.3 6718.09,-134.8 6708.09,-131.3 6708.09,-138.3"/>
</g>
<!-- SimpleRightSidebar1NormalScrollComponent -->
<g id="node36" class="node">
<title>SimpleRightSidebar1NormalScrollComponent</title>
<polygon fill="#ffffb3" stroke="black" points="2612.08,-84.8 2333.92,-84.8 2333.92,-48.8 2612.08,-48.8 2612.08,-84.8"/>
<text text-anchor="middle" x="2473" y="-62.6" font-family="Times,serif" font-size="14.00">SimpleRightSidebar1NormalScrollComponent</text>
</g>
<!-- SimpleRightSidebar1NormalScrollComponent&#45;&gt;PageLayoutsModule -->
<g id="edge36" class="edge">
<title>SimpleRightSidebar1NormalScrollComponent&#45;&gt;PageLayoutsModule</title>
<path fill="none" stroke="black" d="M2473,-84.83C2473,-105.57 2473,-136.8 2473,-136.8 2473,-136.8 6708.01,-136.8 6708.01,-136.8"/>
<polygon fill="black" stroke="black" points="6708.01,-140.3 6718.01,-136.8 6708.01,-133.3 6708.01,-140.3"/>
</g>
<!-- SimpleRightSidebar1PageScrollComponent -->
<g id="node37" class="node">
<title>SimpleRightSidebar1PageScrollComponent</title>
<polygon fill="#ffffb3" stroke="black" points="2316.03,-84.8 2053.97,-84.8 2053.97,-48.8 2316.03,-48.8 2316.03,-84.8"/>
<text text-anchor="middle" x="2185" y="-62.6" font-family="Times,serif" font-size="14.00">SimpleRightSidebar1PageScrollComponent</text>
</g>
<!-- SimpleRightSidebar1PageScrollComponent&#45;&gt;PageLayoutsModule -->
<g id="edge37" class="edge">
<title>SimpleRightSidebar1PageScrollComponent&#45;&gt;PageLayoutsModule</title>
<path fill="none" stroke="black" d="M2185,-85.08C2185,-106.12 2185,-137.8 2185,-137.8 2185,-137.8 6708.1,-137.8 6708.1,-137.8"/>
<polygon fill="black" stroke="black" points="6708.1,-141.3 6718.1,-137.8 6708.1,-134.3 6708.1,-141.3"/>
</g>
<!-- SimpleRightSidebar2ContentScrollComponent -->
<g id="node38" class="node">
<title>SimpleRightSidebar2ContentScrollComponent</title>
<polygon fill="#ffffb3" stroke="black" points="2035.65,-84.8 1756.35,-84.8 1756.35,-48.8 2035.65,-48.8 2035.65,-84.8"/>
<text text-anchor="middle" x="1896" y="-62.6" font-family="Times,serif" font-size="14.00">SimpleRightSidebar2ContentScrollComponent</text>
</g>
<!-- SimpleRightSidebar2ContentScrollComponent&#45;&gt;PageLayoutsModule -->
<g id="edge38" class="edge">
<title>SimpleRightSidebar2ContentScrollComponent&#45;&gt;PageLayoutsModule</title>
<path fill="none" stroke="black" d="M1896,-84.84C1896,-106.46 1896,-139.8 1896,-139.8 1896,-139.8 6707.68,-139.8 6707.68,-139.8"/>
<polygon fill="black" stroke="black" points="6707.68,-143.3 6717.68,-139.8 6707.68,-136.3 6707.68,-143.3"/>
</g>
<!-- SimpleRightSidebar2InnerScrollComponent -->
<g id="node39" class="node">
<title>SimpleRightSidebar2InnerScrollComponent</title>
<polygon fill="#ffffb3" stroke="black" points="1738.36,-84.8 1473.64,-84.8 1473.64,-48.8 1738.36,-48.8 1738.36,-84.8"/>
<text text-anchor="middle" x="1606" y="-62.6" font-family="Times,serif" font-size="14.00">SimpleRightSidebar2InnerScrollComponent</text>
</g>
<!-- SimpleRightSidebar2InnerScrollComponent&#45;&gt;PageLayoutsModule -->
<g id="edge39" class="edge">
<title>SimpleRightSidebar2InnerScrollComponent&#45;&gt;PageLayoutsModule</title>
<path fill="none" stroke="black" d="M1606,-85.09C1606,-107.01 1606,-140.8 1606,-140.8 1606,-140.8 6708.06,-140.8 6708.06,-140.8"/>
<polygon fill="black" stroke="black" points="6708.06,-144.3 6718.06,-140.8 6708.06,-137.3 6708.06,-144.3"/>
</g>
<!-- SimpleRightSidebar2NormalScrollComponent -->
<g id="node40" class="node">
<title>SimpleRightSidebar2NormalScrollComponent</title>
<polygon fill="#ffffb3" stroke="black" points="1456.08,-84.8 1177.92,-84.8 1177.92,-48.8 1456.08,-48.8 1456.08,-84.8"/>
<text text-anchor="middle" x="1317" y="-62.6" font-family="Times,serif" font-size="14.00">SimpleRightSidebar2NormalScrollComponent</text>
</g>
<!-- SimpleRightSidebar2NormalScrollComponent&#45;&gt;PageLayoutsModule -->
<g id="edge40" class="edge">
<title>SimpleRightSidebar2NormalScrollComponent&#45;&gt;PageLayoutsModule</title>
<path fill="none" stroke="black" d="M1317,-84.81C1317,-107.29 1317,-142.8 1317,-142.8 1317,-142.8 6707.83,-142.8 6707.83,-142.8"/>
<polygon fill="black" stroke="black" points="6707.83,-146.3 6717.83,-142.8 6707.83,-139.3 6707.83,-146.3"/>
</g>
<!-- SimpleRightSidebar2PageScrollComponent -->
<g id="node41" class="node">
<title>SimpleRightSidebar2PageScrollComponent</title>
<polygon fill="#ffffb3" stroke="black" points="1160.03,-84.8 897.97,-84.8 897.97,-48.8 1160.03,-48.8 1160.03,-84.8"/>
<text text-anchor="middle" x="1029" y="-62.6" font-family="Times,serif" font-size="14.00">SimpleRightSidebar2PageScrollComponent</text>
</g>
<!-- SimpleRightSidebar2PageScrollComponent&#45;&gt;PageLayoutsModule -->
<g id="edge41" class="edge">
<title>SimpleRightSidebar2PageScrollComponent&#45;&gt;PageLayoutsModule</title>
<path fill="none" stroke="black" d="M1029,-84.89C1029,-107.93 1029,-144.8 1029,-144.8 1029,-144.8 6707.88,-144.8 6707.88,-144.8"/>
<polygon fill="black" stroke="black" points="6707.88,-148.3 6717.88,-144.8 6707.88,-141.3 6707.88,-148.3"/>
</g>
<!-- SimpleRightSidebar3ContentScrollComponent -->
<g id="node42" class="node">
<title>SimpleRightSidebar3ContentScrollComponent</title>
<polygon fill="#ffffb3" stroke="black" points="879.65,-84.8 600.35,-84.8 600.35,-48.8 879.65,-48.8 879.65,-84.8"/>
<text text-anchor="middle" x="740" y="-62.6" font-family="Times,serif" font-size="14.00">SimpleRightSidebar3ContentScrollComponent</text>
</g>
<!-- SimpleRightSidebar3ContentScrollComponent&#45;&gt;PageLayoutsModule -->
<g id="edge42" class="edge">
<title>SimpleRightSidebar3ContentScrollComponent&#45;&gt;PageLayoutsModule</title>
<path fill="none" stroke="black" d="M740,-85.12C740,-108.46 740,-145.8 740,-145.8 740,-145.8 6707.93,-145.8 6707.93,-145.8"/>
<polygon fill="black" stroke="black" points="6707.93,-149.3 6717.93,-145.8 6707.93,-142.3 6707.93,-149.3"/>
</g>
<!-- SimpleRightSidebar3NormalScrollComponent -->
<g id="node43" class="node">
<title>SimpleRightSidebar3NormalScrollComponent</title>
<polygon fill="#ffffb3" stroke="black" points="582.08,-84.8 303.92,-84.8 303.92,-48.8 582.08,-48.8 582.08,-84.8"/>
<text text-anchor="middle" x="443" y="-62.6" font-family="Times,serif" font-size="14.00">SimpleRightSidebar3NormalScrollComponent</text>
</g>
<!-- SimpleRightSidebar3NormalScrollComponent&#45;&gt;PageLayoutsModule -->
<g id="edge43" class="edge">
<title>SimpleRightSidebar3NormalScrollComponent&#45;&gt;PageLayoutsModule</title>
<path fill="none" stroke="black" d="M443,-84.95C443,-108.56 443,-146.8 443,-146.8 443,-146.8 6708.13,-146.8 6708.13,-146.8"/>
<polygon fill="black" stroke="black" points="6708.13,-150.3 6718.13,-146.8 6708.13,-143.3 6708.13,-150.3"/>
</g>
<!-- SimpleRightSidebar3PageScrollComponent -->
<g id="node44" class="node">
<title>SimpleRightSidebar3PageScrollComponent</title>
<polygon fill="#ffffb3" stroke="black" points="286.03,-84.8 23.97,-84.8 23.97,-48.8 286.03,-48.8 286.03,-84.8"/>
<text text-anchor="middle" x="155" y="-62.6" font-family="Times,serif" font-size="14.00">SimpleRightSidebar3PageScrollComponent</text>
</g>
<!-- SimpleRightSidebar3PageScrollComponent&#45;&gt;PageLayoutsModule -->
<g id="edge44" class="edge">
<title>SimpleRightSidebar3PageScrollComponent&#45;&gt;PageLayoutsModule</title>
<path fill="none" stroke="black" d="M155,-85C155,-109.16 155,-148.8 155,-148.8 155,-148.8 6708.12,-148.8 6708.12,-148.8"/>
<polygon fill="black" stroke="black" points="6708.12,-152.3 6718.12,-148.8 6708.12,-145.3 6708.12,-152.3"/>
</g>
<!-- DemoPlaceholderModule -->
<g id="node46" class="node">
<title>DemoPlaceholderModule</title>
<polygon fill="#8dd3c7" stroke="black" points="12773.84,-84.8 12770.84,-88.8 12749.84,-88.8 12746.84,-84.8 12614.16,-84.8 12614.16,-48.8 12773.84,-48.8 12773.84,-84.8"/>
<text text-anchor="middle" x="12694" y="-62.6" font-family="Times,serif" font-size="14.00">DemoPlaceholderModule</text>
</g>
<!-- DemoPlaceholderModule&#45;&gt;PageLayoutsModule -->
<g id="edge45" class="edge">
<title>DemoPlaceholderModule&#45;&gt;PageLayoutsModule</title>
<path fill="none" stroke="black" d="M12694,-85C12694,-109.16 12694,-148.8 12694,-148.8 12694,-148.8 6859.87,-148.8 6859.87,-148.8"/>
<polygon fill="black" stroke="black" points="6859.87,-145.3 6849.87,-148.8 6859.87,-152.3 6859.87,-145.3"/>
</g>
<!-- DemoSidebarModule -->
<g id="node47" class="node">
<title>DemoSidebarModule</title>
<polygon fill="#8dd3c7" stroke="black" points="12596.03,-84.8 12593.03,-88.8 12572.03,-88.8 12569.03,-84.8 12459.97,-84.8 12459.97,-48.8 12596.03,-48.8 12596.03,-84.8"/>
<text text-anchor="middle" x="12528" y="-62.6" font-family="Times,serif" font-size="14.00">DemoSidebarModule</text>
</g>
<!-- DemoSidebarModule&#45;&gt;PageLayoutsModule -->
<g id="edge46" class="edge">
<title>DemoSidebarModule&#45;&gt;PageLayoutsModule</title>
<path fill="none" stroke="black" d="M12528,-84.95C12528,-108.56 12528,-146.8 12528,-146.8 12528,-146.8 6859.99,-146.8 6859.99,-146.8"/>
<polygon fill="black" stroke="black" points="6859.99,-143.3 6849.99,-146.8 6859.99,-150.3 6859.99,-143.3"/>
</g>
<!-- LayoutOverviewModule -->
<g id="node48" class="node">
<title>LayoutOverviewModule</title>
<polygon fill="#8dd3c7" stroke="black" points="12442.4,-84.8 12439.4,-88.8 12418.4,-88.8 12415.4,-84.8 12287.6,-84.8 12287.6,-48.8 12442.4,-48.8 12442.4,-84.8"/>
<text text-anchor="middle" x="12365" y="-62.6" font-family="Times,serif" font-size="14.00">LayoutOverviewModule</text>
</g>
<!-- LayoutOverviewModule&#45;&gt;PageLayoutsModule -->
<g id="edge47" class="edge">
<title>LayoutOverviewModule&#45;&gt;PageLayoutsModule</title>
<path fill="none" stroke="black" d="M12365,-85.12C12365,-108.46 12365,-145.8 12365,-145.8 12365,-145.8 6860.07,-145.8 6860.07,-145.8"/>
<polygon fill="black" stroke="black" points="6860.07,-142.3 6850.07,-145.8 6860.07,-149.3 6860.07,-142.3"/>
</g>
<!-- SharedModule -->
<g id="node49" class="node">
<title>SharedModule</title>
<polygon fill="#8dd3c7" stroke="black" points="12270.42,-84.8 12267.42,-88.8 12246.42,-88.8 12243.42,-84.8 12171.58,-84.8 12171.58,-48.8 12270.42,-48.8 12270.42,-84.8"/>
<text text-anchor="middle" x="12221" y="-62.6" font-family="Times,serif" font-size="14.00">SharedModule</text>
</g>
<!-- SharedModule&#45;&gt;PageLayoutsModule -->
<g id="edge48" class="edge">
<title>SharedModule&#45;&gt;PageLayoutsModule</title>
<path fill="none" stroke="black" d="M12221,-84.89C12221,-107.93 12221,-144.8 12221,-144.8 12221,-144.8 6860.3,-144.8 6860.3,-144.8"/>
<polygon fill="black" stroke="black" points="6860.3,-141.3 6850.3,-144.8 6860.3,-148.3 6860.3,-141.3"/>
</g>
</g>
</svg>
