<?xml version="1.0" encoding="UTF-8" standalone="no"?>
<!DOCTYPE svg PUBLIC "-//W3C//DTD SVG 1.1//EN"
 "http://www.w3.org/Graphics/SVG/1.1/DTD/svg11.dtd">
<!-- Generated by graphviz version 2.47.3 (20210619.1520)
 -->
<!-- Title: dependencies Pages: 1 -->
<svg width="1448pt" height="247pt"
 viewBox="0.00 0.00 1448.00 246.80" xmlns="http://www.w3.org/2000/svg" xmlns:xlink="http://www.w3.org/1999/xlink">
<g id="graph0" class="graph" transform="scale(1 1) rotate(0) translate(4 242.8)">
<title>dependencies</title>
<polygon fill="white" stroke="transparent" points="-4,4 -4,-242.8 1444,-242.8 1444,4 -4,4"/>
<text text-anchor="middle" x="720" y="-8.2" font-family="sans-serif" font-size="14.00">dependencies</text>
<g id="clust1" class="cluster">
<title>cluster_CenteredLayoutModule</title>
<polygon fill="none" stroke="black" stroke-dasharray="1,5" points="8,-32.8 8,-230.8 1432,-230.8 1432,-32.8 8,-32.8"/>
</g>
<g id="clust2" class="cluster">
<title>cluster_CenteredLayoutModule_declarations</title>
<polygon fill="none" stroke="black" points="1236,-40.8 1236,-92.8 1424,-92.8 1424,-40.8 1236,-40.8"/>
</g>
<g id="clust5" class="cluster">
<title>cluster_CenteredLayoutModule_exports</title>
<polygon fill="none" stroke="black" points="530,-170.8 530,-222.8 722,-222.8 722,-170.8 530,-170.8"/>
</g>
<g id="clust4" class="cluster">
<title>cluster_CenteredLayoutModule_imports</title>
<polygon fill="none" stroke="black" points="16,-40.8 16,-92.8 1228,-92.8 1228,-40.8 16,-40.8"/>
</g>
<!-- CenteredLayoutComponent -->
<g id="node1" class="node">
<title>CenteredLayoutComponent</title>
<polygon fill="#ffffb3" stroke="black" points="1415.52,-84.8 1244.48,-84.8 1244.48,-48.8 1415.52,-48.8 1415.52,-84.8"/>
<text text-anchor="middle" x="1330" y="-62.6" font-family="Times,serif" font-size="14.00">CenteredLayoutComponent</text>
</g>
<!-- CenteredLayoutModule -->
<g id="node2" class="node">
<title>CenteredLayoutModule</title>
<polygon fill="#8dd3c7" stroke="black" points="700.74,-149.8 697.74,-153.8 676.74,-153.8 673.74,-149.8 551.26,-149.8 551.26,-113.8 700.74,-113.8 700.74,-149.8"/>
<text text-anchor="middle" x="626" y="-127.6" font-family="Times,serif" font-size="14.00">CenteredLayoutModule</text>
</g>
<!-- CenteredLayoutComponent&#45;&gt;CenteredLayoutModule -->
<g id="edge1" class="edge">
<title>CenteredLayoutComponent&#45;&gt;CenteredLayoutModule</title>
<path fill="none" stroke="black" d="M1330,-84.81C1330,-107.29 1330,-142.8 1330,-142.8 1330,-142.8 711.01,-142.8 711.01,-142.8"/>
<polygon fill="black" stroke="black" points="711.01,-139.3 701.01,-142.8 711.01,-146.3 711.01,-139.3"/>
</g>
<!-- CenteredLayoutComponent  -->
<g id="node12" class="node">
<title>CenteredLayoutComponent </title>
<polygon fill="#fb8072" stroke="black" points="713.52,-214.8 538.48,-214.8 538.48,-178.8 713.52,-178.8 713.52,-214.8"/>
<text text-anchor="middle" x="626" y="-192.6" font-family="Times,serif" font-size="14.00">CenteredLayoutComponent </text>
</g>
<!-- CenteredLayoutModule&#45;&gt;CenteredLayoutComponent  -->
<g id="edge11" class="edge">
<title>CenteredLayoutModule&#45;&gt;CenteredLayoutComponent </title>
<path fill="none" stroke="black" stroke-dasharray="5,2" d="M626,-149.91C626,-149.91 626,-168.79 626,-168.79"/>
<polygon fill="black" stroke="black" points="622.5,-168.79 626,-178.79 629.5,-168.79 622.5,-168.79"/>
</g>
<!-- FuseFullscreenModule -->
<g id="node3" class="node">
<title>FuseFullscreenModule</title>
<polygon fill="#8dd3c7" stroke="black" points="1220.3,-84.8 1217.3,-88.8 1196.3,-88.8 1193.3,-84.8 1075.7,-84.8 1075.7,-48.8 1220.3,-48.8 1220.3,-84.8"/>
<text text-anchor="middle" x="1148" y="-62.6" font-family="Times,serif" font-size="14.00">FuseFullscreenModule</text>
</g>
<!-- FuseFullscreenModule&#45;&gt;CenteredLayoutModule -->
<g id="edge2" class="edge">
<title>FuseFullscreenModule&#45;&gt;CenteredLayoutModule</title>
<path fill="none" stroke="black" d="M1148,-84.93C1148,-105.37 1148,-135.8 1148,-135.8 1148,-135.8 710.79,-135.8 710.79,-135.8"/>
<polygon fill="black" stroke="black" points="710.79,-132.3 700.79,-135.8 710.79,-139.3 710.79,-132.3"/>
</g>
<!-- FuseNavigationModule -->
<g id="node4" class="node">
<title>FuseNavigationModule</title>
<polygon fill="#8dd3c7" stroke="black" points="1058.2,-84.8 1055.2,-88.8 1034.2,-88.8 1031.2,-84.8 909.8,-84.8 909.8,-48.8 1058.2,-48.8 1058.2,-84.8"/>
<text text-anchor="middle" x="984" y="-62.6" font-family="Times,serif" font-size="14.00">FuseNavigationModule</text>
</g>
<!-- FuseNavigationModule&#45;&gt;CenteredLayoutModule -->
<g id="edge3" class="edge">
<title>FuseNavigationModule&#45;&gt;CenteredLayoutModule</title>
<path fill="none" stroke="black" d="M984,-85.07C984,-103.36 984,-128.8 984,-128.8 984,-128.8 711.05,-128.8 711.05,-128.8"/>
<polygon fill="black" stroke="black" points="711.05,-125.3 701.05,-128.8 711.05,-132.3 711.05,-125.3"/>
</g>
<!-- LanguagesModule -->
<g id="node5" class="node">
<title>LanguagesModule</title>
<polygon fill="#8dd3c7" stroke="black" points="892.19,-84.8 889.19,-88.8 868.19,-88.8 865.19,-84.8 771.81,-84.8 771.81,-48.8 892.19,-48.8 892.19,-84.8"/>
<text text-anchor="middle" x="832" y="-62.6" font-family="Times,serif" font-size="14.00">LanguagesModule</text>
</g>
<!-- LanguagesModule&#45;&gt;CenteredLayoutModule -->
<g id="edge4" class="edge">
<title>LanguagesModule&#45;&gt;CenteredLayoutModule</title>
<path fill="none" stroke="black" d="M832,-84.81C832,-100.85 832,-121.8 832,-121.8 832,-121.8 710.95,-121.8 710.95,-121.8"/>
<polygon fill="black" stroke="black" points="710.95,-118.3 700.95,-121.8 710.95,-125.3 710.95,-118.3"/>
</g>
<!-- MessagesModule -->
<g id="node6" class="node">
<title>MessagesModule</title>
<polygon fill="#8dd3c7" stroke="black" points="753.97,-84.8 750.97,-88.8 729.97,-88.8 726.97,-84.8 640.03,-84.8 640.03,-48.8 753.97,-48.8 753.97,-84.8"/>
<text text-anchor="middle" x="697" y="-62.6" font-family="Times,serif" font-size="14.00">MessagesModule</text>
</g>
<!-- MessagesModule&#45;&gt;CenteredLayoutModule -->
<g id="edge5" class="edge">
<title>MessagesModule&#45;&gt;CenteredLayoutModule</title>
<path fill="none" stroke="black" d="M670.44,-84.91C670.44,-84.91 670.44,-103.79 670.44,-103.79"/>
<polygon fill="black" stroke="black" points="666.94,-103.79 670.44,-113.79 673.94,-103.79 666.94,-103.79"/>
</g>
<!-- NotificationsModule -->
<g id="node7" class="node">
<title>NotificationsModule</title>
<polygon fill="#8dd3c7" stroke="black" points="622.14,-84.8 619.14,-88.8 598.14,-88.8 595.14,-84.8 489.86,-84.8 489.86,-48.8 622.14,-48.8 622.14,-84.8"/>
<text text-anchor="middle" x="556" y="-62.6" font-family="Times,serif" font-size="14.00">NotificationsModule</text>
</g>
<!-- NotificationsModule&#45;&gt;CenteredLayoutModule -->
<g id="edge6" class="edge">
<title>NotificationsModule&#45;&gt;CenteredLayoutModule</title>
<path fill="none" stroke="black" d="M586.73,-84.91C586.73,-84.91 586.73,-103.79 586.73,-103.79"/>
<polygon fill="black" stroke="black" points="583.23,-103.79 586.73,-113.79 590.23,-103.79 583.23,-103.79"/>
</g>
<!-- SearchModule -->
<g id="node8" class="node">
<title>SearchModule</title>
<polygon fill="#8dd3c7" stroke="black" points="471.64,-84.8 468.64,-88.8 447.64,-88.8 444.64,-84.8 374.36,-84.8 374.36,-48.8 471.64,-48.8 471.64,-84.8"/>
<text text-anchor="middle" x="423" y="-62.6" font-family="Times,serif" font-size="14.00">SearchModule</text>
</g>
<!-- SearchModule&#45;&gt;CenteredLayoutModule -->
<g id="edge7" class="edge">
<title>SearchModule&#45;&gt;CenteredLayoutModule</title>
<path fill="none" stroke="black" d="M423,-84.81C423,-100.85 423,-121.8 423,-121.8 423,-121.8 540.99,-121.8 540.99,-121.8"/>
<polygon fill="black" stroke="black" points="540.99,-125.3 550.99,-121.8 540.99,-118.3 540.99,-125.3"/>
</g>
<!-- SharedModule -->
<g id="node9" class="node">
<title>SharedModule</title>
<polygon fill="#8dd3c7" stroke="black" points="356.42,-84.8 353.42,-88.8 332.42,-88.8 329.42,-84.8 257.58,-84.8 257.58,-48.8 356.42,-48.8 356.42,-84.8"/>
<text text-anchor="middle" x="307" y="-62.6" font-family="Times,serif" font-size="14.00">SharedModule</text>
</g>
<!-- SharedModule&#45;&gt;CenteredLayoutModule -->
<g id="edge8" class="edge">
<title>SharedModule&#45;&gt;CenteredLayoutModule</title>
<path fill="none" stroke="black" d="M307,-85.07C307,-103.36 307,-128.8 307,-128.8 307,-128.8 541.21,-128.8 541.21,-128.8"/>
<polygon fill="black" stroke="black" points="541.21,-132.3 551.21,-128.8 541.21,-125.3 541.21,-132.3"/>
</g>
<!-- ShortcutsModule -->
<g id="node10" class="node">
<title>ShortcutsModule</title>
<polygon fill="#8dd3c7" stroke="black" points="240.43,-84.8 237.43,-88.8 216.43,-88.8 213.43,-84.8 127.57,-84.8 127.57,-48.8 240.43,-48.8 240.43,-84.8"/>
<text text-anchor="middle" x="184" y="-62.6" font-family="Times,serif" font-size="14.00">ShortcutsModule</text>
</g>
<!-- ShortcutsModule&#45;&gt;CenteredLayoutModule -->
<g id="edge9" class="edge">
<title>ShortcutsModule&#45;&gt;CenteredLayoutModule</title>
<path fill="none" stroke="black" d="M184,-84.93C184,-105.37 184,-135.8 184,-135.8 184,-135.8 541.02,-135.8 541.02,-135.8"/>
<polygon fill="black" stroke="black" points="541.02,-139.3 551.02,-135.8 541.02,-132.3 541.02,-139.3"/>
</g>
<!-- UserModule -->
<g id="node11" class="node">
<title>UserModule</title>
<polygon fill="#8dd3c7" stroke="black" points="109.98,-84.8 106.98,-88.8 85.98,-88.8 82.98,-84.8 24.02,-84.8 24.02,-48.8 109.98,-48.8 109.98,-84.8"/>
<text text-anchor="middle" x="67" y="-62.6" font-family="Times,serif" font-size="14.00">UserModule</text>
</g>
<!-- UserModule&#45;&gt;CenteredLayoutModule -->
<g id="edge10" class="edge">
<title>UserModule&#45;&gt;CenteredLayoutModule</title>
<path fill="none" stroke="black" d="M67,-84.81C67,-107.29 67,-142.8 67,-142.8 67,-142.8 541.19,-142.8 541.19,-142.8"/>
<polygon fill="black" stroke="black" points="541.19,-146.3 551.19,-142.8 541.19,-139.3 541.19,-146.3"/>
</g>
</g>
</svg>
