<?xml version="1.0" encoding="UTF-8" standalone="no"?>
<!DOCTYPE svg PUBLIC "-//W3C//DTD SVG 1.1//EN"
 "http://www.w3.org/Graphics/SVG/1.1/DTD/svg11.dtd">
<!-- Generated by graphviz version 2.47.3 (20210619.1520)
 -->
<!-- Title: dependencies Pages: 1 -->
<svg width="340pt" height="174pt"
 viewBox="0.00 0.00 340.00 173.80" xmlns="http://www.w3.org/2000/svg" xmlns:xlink="http://www.w3.org/1999/xlink">
<g id="graph0" class="graph" transform="scale(1 1) rotate(0) translate(4 169.8)">
<title>dependencies</title>
<polygon fill="white" stroke="transparent" points="-4,4 -4,-169.8 336,-169.8 336,4 -4,4"/>
<text text-anchor="middle" x="166" y="-8.2" font-family="sans-serif" font-size="14.00">dependencies</text>
<g id="clust1" class="cluster">
<title>cluster_LandingHomeModule</title>
<polygon fill="none" stroke="black" stroke-dasharray="1,5" points="8,-32.8 8,-157.8 324,-157.8 324,-32.8 8,-32.8"/>
</g>
<g id="clust4" class="cluster">
<title>cluster_LandingHomeModule_imports</title>
<polygon fill="none" stroke="black" points="202,-40.8 202,-92.8 316,-92.8 316,-40.8 202,-40.8"/>
</g>
<g id="clust2" class="cluster">
<title>cluster_LandingHomeModule_declarations</title>
<polygon fill="none" stroke="black" points="16,-40.8 16,-92.8 194,-92.8 194,-40.8 16,-40.8"/>
</g>
<!-- LandingHomeComponent -->
<g id="node1" class="node">
<title>LandingHomeComponent</title>
<polygon fill="#ffffb3" stroke="black" points="186.2,-84.8 23.8,-84.8 23.8,-48.8 186.2,-48.8 186.2,-84.8"/>
<text text-anchor="middle" x="105" y="-62.6" font-family="Times,serif" font-size="14.00">LandingHomeComponent</text>
</g>
<!-- LandingHomeModule -->
<g id="node2" class="node">
<title>LandingHomeModule</title>
<polygon fill="#8dd3c7" stroke="black" points="245.42,-149.8 242.42,-153.8 221.42,-153.8 218.42,-149.8 104.58,-149.8 104.58,-113.8 245.42,-113.8 245.42,-149.8"/>
<text text-anchor="middle" x="175" y="-127.6" font-family="Times,serif" font-size="14.00">LandingHomeModule</text>
</g>
<!-- LandingHomeComponent&#45;&gt;LandingHomeModule -->
<g id="edge1" class="edge">
<title>LandingHomeComponent&#45;&gt;LandingHomeModule</title>
<path fill="none" stroke="black" d="M145.45,-84.91C145.45,-84.91 145.45,-103.79 145.45,-103.79"/>
<polygon fill="black" stroke="black" points="141.95,-103.79 145.45,-113.79 148.95,-103.79 141.95,-103.79"/>
</g>
<!-- SharedModule -->
<g id="node3" class="node">
<title>SharedModule</title>
<polygon fill="#8dd3c7" stroke="black" points="308.42,-84.8 305.42,-88.8 284.42,-88.8 281.42,-84.8 209.58,-84.8 209.58,-48.8 308.42,-48.8 308.42,-84.8"/>
<text text-anchor="middle" x="259" y="-62.6" font-family="Times,serif" font-size="14.00">SharedModule</text>
</g>
<!-- SharedModule&#45;&gt;LandingHomeModule -->
<g id="edge2" class="edge">
<title>SharedModule&#45;&gt;LandingHomeModule</title>
<path fill="none" stroke="black" d="M227.5,-84.91C227.5,-84.91 227.5,-103.79 227.5,-103.79"/>
<polygon fill="black" stroke="black" points="224,-103.79 227.5,-113.79 231,-103.79 224,-103.79"/>
</g>
</g>
</svg>
