<?xml version="1.0" encoding="UTF-8" standalone="no"?>
<!DOCTYPE svg PUBLIC "-//W3C//DTD SVG 1.1//EN"
 "http://www.w3.org/Graphics/SVG/1.1/DTD/svg11.dtd">
<!-- Generated by graphviz version 2.47.3 (20210619.1520)
 -->
<!-- Title: dependencies Pages: 1 -->
<svg width="472pt" height="174pt"
 viewBox="0.00 0.00 472.00 173.80" xmlns="http://www.w3.org/2000/svg" xmlns:xlink="http://www.w3.org/1999/xlink">
<g id="graph0" class="graph" transform="scale(1 1) rotate(0) translate(4 169.8)">
<title>dependencies</title>
<polygon fill="white" stroke="transparent" points="-4,4 -4,-169.8 468,-169.8 468,4 -4,4"/>
<text text-anchor="middle" x="232" y="-8.2" font-family="sans-serif" font-size="14.00">dependencies</text>
<g id="clust1" class="cluster">
<title>cluster_PricingSimpleModule</title>
<polygon fill="none" stroke="black" stroke-dasharray="1,5" points="8,-32.8 8,-157.8 456,-157.8 456,-32.8 8,-32.8"/>
</g>
<g id="clust2" class="cluster">
<title>cluster_PricingSimpleModule_declarations</title>
<polygon fill="none" stroke="black" points="270,-40.8 270,-92.8 448,-92.8 448,-40.8 270,-40.8"/>
</g>
<g id="clust4" class="cluster">
<title>cluster_PricingSimpleModule_imports</title>
<polygon fill="none" stroke="black" points="16,-40.8 16,-92.8 262,-92.8 262,-40.8 16,-40.8"/>
</g>
<!-- PricingSimpleComponent -->
<g id="node1" class="node">
<title>PricingSimpleComponent</title>
<polygon fill="#ffffb3" stroke="black" points="439.94,-84.8 278.06,-84.8 278.06,-48.8 439.94,-48.8 439.94,-84.8"/>
<text text-anchor="middle" x="359" y="-62.6" font-family="Times,serif" font-size="14.00">PricingSimpleComponent</text>
</g>
<!-- PricingSimpleModule -->
<g id="node2" class="node">
<title>PricingSimpleModule</title>
<polygon fill="#8dd3c7" stroke="black" points="266.66,-149.8 263.66,-153.8 242.66,-153.8 239.66,-149.8 127.34,-149.8 127.34,-113.8 266.66,-113.8 266.66,-149.8"/>
<text text-anchor="middle" x="197" y="-127.6" font-family="Times,serif" font-size="14.00">PricingSimpleModule</text>
</g>
<!-- PricingSimpleComponent&#45;&gt;PricingSimpleModule -->
<g id="edge1" class="edge">
<title>PricingSimpleComponent&#45;&gt;PricingSimpleModule</title>
<path fill="none" stroke="black" d="M277.88,-66.8C267.39,-66.8 260.22,-66.8 260.22,-66.8 260.22,-66.8 260.22,-103.69 260.22,-103.69"/>
<polygon fill="black" stroke="black" points="256.72,-103.69 260.22,-113.69 263.72,-103.69 256.72,-103.69"/>
</g>
<!-- FuseCardModule -->
<g id="node3" class="node">
<title>FuseCardModule</title>
<polygon fill="#8dd3c7" stroke="black" points="253.7,-84.8 250.7,-88.8 229.7,-88.8 226.7,-84.8 140.3,-84.8 140.3,-48.8 253.7,-48.8 253.7,-84.8"/>
<text text-anchor="middle" x="197" y="-62.6" font-family="Times,serif" font-size="14.00">FuseCardModule</text>
</g>
<!-- FuseCardModule&#45;&gt;PricingSimpleModule -->
<g id="edge2" class="edge">
<title>FuseCardModule&#45;&gt;PricingSimpleModule</title>
<path fill="none" stroke="black" d="M197,-84.91C197,-84.91 197,-103.79 197,-103.79"/>
<polygon fill="black" stroke="black" points="193.5,-103.79 197,-113.79 200.5,-103.79 193.5,-103.79"/>
</g>
<!-- SharedModule -->
<g id="node4" class="node">
<title>SharedModule</title>
<polygon fill="#8dd3c7" stroke="black" points="122.42,-84.8 119.42,-88.8 98.42,-88.8 95.42,-84.8 23.58,-84.8 23.58,-48.8 122.42,-48.8 122.42,-84.8"/>
<text text-anchor="middle" x="73" y="-62.6" font-family="Times,serif" font-size="14.00">SharedModule</text>
</g>
<!-- SharedModule&#45;&gt;PricingSimpleModule -->
<g id="edge3" class="edge">
<title>SharedModule&#45;&gt;PricingSimpleModule</title>
<path fill="none" stroke="black" d="M122.35,-66.8C129.11,-66.8 133.78,-66.8 133.78,-66.8 133.78,-66.8 133.78,-103.69 133.78,-103.69"/>
<polygon fill="black" stroke="black" points="130.28,-103.69 133.78,-113.69 137.28,-103.69 130.28,-103.69"/>
</g>
</g>
</svg>
