<?xml version="1.0" encoding="UTF-8" standalone="no"?>
<!DOCTYPE svg PUBLIC "-//W3C//DTD SVG 1.1//EN"
 "http://www.w3.org/Graphics/SVG/1.1/DTD/svg11.dtd">
<!-- Generated by graphviz version 2.47.3 (20210619.1520)
 -->
<!-- Title: dependencies Pages: 1 -->
<svg width="476pt" height="174pt"
 viewBox="0.00 0.00 476.00 173.80" xmlns="http://www.w3.org/2000/svg" xmlns:xlink="http://www.w3.org/1999/xlink">
<g id="graph0" class="graph" transform="scale(1 1) rotate(0) translate(4 169.8)">
<title>dependencies</title>
<polygon fill="white" stroke="transparent" points="-4,4 -4,-169.8 472,-169.8 472,4 -4,4"/>
<text text-anchor="middle" x="234" y="-8.2" font-family="sans-serif" font-size="14.00">dependencies</text>
<g id="clust1" class="cluster">
<title>cluster_PricingModernModule</title>
<polygon fill="none" stroke="black" stroke-dasharray="1,5" points="8,-32.8 8,-157.8 460,-157.8 460,-32.8 8,-32.8"/>
</g>
<g id="clust4" class="cluster">
<title>cluster_PricingModernModule_imports</title>
<polygon fill="none" stroke="black" points="206,-40.8 206,-92.8 452,-92.8 452,-40.8 206,-40.8"/>
</g>
<g id="clust2" class="cluster">
<title>cluster_PricingModernModule_declarations</title>
<polygon fill="none" stroke="black" points="16,-40.8 16,-92.8 198,-92.8 198,-40.8 16,-40.8"/>
</g>
<!-- PricingModernComponent -->
<g id="node1" class="node">
<title>PricingModernComponent</title>
<polygon fill="#ffffb3" stroke="black" points="190.09,-84.8 23.91,-84.8 23.91,-48.8 190.09,-48.8 190.09,-84.8"/>
<text text-anchor="middle" x="107" y="-62.6" font-family="Times,serif" font-size="14.00">PricingModernComponent</text>
</g>
<!-- PricingModernModule -->
<g id="node2" class="node">
<title>PricingModernModule</title>
<polygon fill="#8dd3c7" stroke="black" points="335.31,-149.8 332.31,-153.8 311.31,-153.8 308.31,-149.8 190.69,-149.8 190.69,-113.8 335.31,-113.8 335.31,-149.8"/>
<text text-anchor="middle" x="263" y="-127.6" font-family="Times,serif" font-size="14.00">PricingModernModule</text>
</g>
<!-- PricingModernComponent&#45;&gt;PricingModernModule -->
<g id="edge1" class="edge">
<title>PricingModernComponent&#45;&gt;PricingModernModule</title>
<path fill="none" stroke="black" d="M190.25,-66.8C197.59,-66.8 202.32,-66.8 202.32,-66.8 202.32,-66.8 202.32,-103.69 202.32,-103.69"/>
<polygon fill="black" stroke="black" points="198.82,-103.69 202.32,-113.69 205.82,-103.69 198.82,-103.69"/>
</g>
<!-- FuseCardModule -->
<g id="node3" class="node">
<title>FuseCardModule</title>
<polygon fill="#8dd3c7" stroke="black" points="443.7,-84.8 440.7,-88.8 419.7,-88.8 416.7,-84.8 330.3,-84.8 330.3,-48.8 443.7,-48.8 443.7,-84.8"/>
<text text-anchor="middle" x="387" y="-62.6" font-family="Times,serif" font-size="14.00">FuseCardModule</text>
</g>
<!-- FuseCardModule&#45;&gt;PricingModernModule -->
<g id="edge2" class="edge">
<title>FuseCardModule&#45;&gt;PricingModernModule</title>
<path fill="none" stroke="black" d="M330.16,-66.8C324.79,-66.8 321.3,-66.8 321.3,-66.8 321.3,-66.8 321.3,-103.69 321.3,-103.69"/>
<polygon fill="black" stroke="black" points="317.8,-103.69 321.3,-113.69 324.8,-103.69 317.8,-103.69"/>
</g>
<!-- SharedModule -->
<g id="node4" class="node">
<title>SharedModule</title>
<polygon fill="#8dd3c7" stroke="black" points="312.42,-84.8 309.42,-88.8 288.42,-88.8 285.42,-84.8 213.58,-84.8 213.58,-48.8 312.42,-48.8 312.42,-84.8"/>
<text text-anchor="middle" x="263" y="-62.6" font-family="Times,serif" font-size="14.00">SharedModule</text>
</g>
<!-- SharedModule&#45;&gt;PricingModernModule -->
<g id="edge3" class="edge">
<title>SharedModule&#45;&gt;PricingModernModule</title>
<path fill="none" stroke="black" d="M263,-84.91C263,-84.91 263,-103.79 263,-103.79"/>
<polygon fill="black" stroke="black" points="259.5,-103.79 263,-113.79 266.5,-103.79 259.5,-103.79"/>
</g>
</g>
</svg>
