<?xml version="1.0" encoding="UTF-8" standalone="no"?>
<!DOCTYPE svg PUBLIC "-//W3C//DTD SVG 1.1//EN"
 "http://www.w3.org/Graphics/SVG/1.1/DTD/svg11.dtd">
<!-- Generated by graphviz version 2.47.3 (20210619.1520)
 -->
<!-- Title: dependencies Pages: 1 -->
<svg width="424pt" height="174pt"
 viewBox="0.00 0.00 424.00 173.80" xmlns="http://www.w3.org/2000/svg" xmlns:xlink="http://www.w3.org/1999/xlink">
<g id="graph0" class="graph" transform="scale(1 1) rotate(0) translate(4 169.8)">
<title>dependencies</title>
<polygon fill="white" stroke="transparent" points="-4,4 -4,-169.8 420,-169.8 420,4 -4,4"/>
<text text-anchor="middle" x="208" y="-8.2" font-family="sans-serif" font-size="14.00">dependencies</text>
<g id="clust1" class="cluster">
<title>cluster_CardsModule</title>
<polygon fill="none" stroke="black" stroke-dasharray="1,5" points="8,-32.8 8,-157.8 408,-157.8 408,-32.8 8,-32.8"/>
</g>
<g id="clust2" class="cluster">
<title>cluster_CardsModule_declarations</title>
<polygon fill="none" stroke="black" points="270,-40.8 270,-92.8 400,-92.8 400,-40.8 270,-40.8"/>
</g>
<g id="clust4" class="cluster">
<title>cluster_CardsModule_imports</title>
<polygon fill="none" stroke="black" points="16,-40.8 16,-92.8 262,-92.8 262,-40.8 16,-40.8"/>
</g>
<!-- CardsComponent -->
<g id="node1" class="node">
<title>CardsComponent</title>
<polygon fill="#ffffb3" stroke="black" points="391.99,-84.8 278.01,-84.8 278.01,-48.8 391.99,-48.8 391.99,-84.8"/>
<text text-anchor="middle" x="335" y="-62.6" font-family="Times,serif" font-size="14.00">CardsComponent</text>
</g>
<!-- CardsModule -->
<g id="node2" class="node">
<title>CardsModule</title>
<polygon fill="#8dd3c7" stroke="black" points="243.21,-149.8 240.21,-153.8 219.21,-153.8 216.21,-149.8 150.79,-149.8 150.79,-113.8 243.21,-113.8 243.21,-149.8"/>
<text text-anchor="middle" x="197" y="-127.6" font-family="Times,serif" font-size="14.00">CardsModule</text>
</g>
<!-- CardsComponent&#45;&gt;CardsModule -->
<g id="edge1" class="edge">
<title>CardsComponent&#45;&gt;CardsModule</title>
<path fill="none" stroke="black" d="M335,-84.91C335,-104.14 335,-131.8 335,-131.8 335,-131.8 253.34,-131.8 253.34,-131.8"/>
<polygon fill="black" stroke="black" points="253.34,-128.3 243.34,-131.8 253.34,-135.3 253.34,-128.3"/>
</g>
<!-- FuseCardModule -->
<g id="node3" class="node">
<title>FuseCardModule</title>
<polygon fill="#8dd3c7" stroke="black" points="253.7,-84.8 250.7,-88.8 229.7,-88.8 226.7,-84.8 140.3,-84.8 140.3,-48.8 253.7,-48.8 253.7,-84.8"/>
<text text-anchor="middle" x="197" y="-62.6" font-family="Times,serif" font-size="14.00">FuseCardModule</text>
</g>
<!-- FuseCardModule&#45;&gt;CardsModule -->
<g id="edge2" class="edge">
<title>FuseCardModule&#45;&gt;CardsModule</title>
<path fill="none" stroke="black" d="M197,-84.91C197,-84.91 197,-103.79 197,-103.79"/>
<polygon fill="black" stroke="black" points="193.5,-103.79 197,-113.79 200.5,-103.79 193.5,-103.79"/>
</g>
<!-- SharedModule -->
<g id="node4" class="node">
<title>SharedModule</title>
<polygon fill="#8dd3c7" stroke="black" points="122.42,-84.8 119.42,-88.8 98.42,-88.8 95.42,-84.8 23.58,-84.8 23.58,-48.8 122.42,-48.8 122.42,-84.8"/>
<text text-anchor="middle" x="73" y="-62.6" font-family="Times,serif" font-size="14.00">SharedModule</text>
</g>
<!-- SharedModule&#45;&gt;CardsModule -->
<g id="edge3" class="edge">
<title>SharedModule&#45;&gt;CardsModule</title>
<path fill="none" stroke="black" d="M73,-84.91C73,-104.14 73,-131.8 73,-131.8 73,-131.8 140.83,-131.8 140.83,-131.8"/>
<polygon fill="black" stroke="black" points="140.83,-135.3 150.83,-131.8 140.83,-128.3 140.83,-135.3"/>
</g>
</g>
</svg>
