<?xml version="1.0" encoding="UTF-8" standalone="no"?>
<!DOCTYPE svg PUBLIC "-//W3C//DTD SVG 1.1//EN"
 "http://www.w3.org/Graphics/SVG/1.1/DTD/svg11.dtd">
<!-- Generated by graphviz version 2.47.3 (20210619.1520)
 -->
<!-- Title: dependencies Pages: 1 -->
<svg width="468pt" height="174pt"
 viewBox="0.00 0.00 468.00 173.80" xmlns="http://www.w3.org/2000/svg" xmlns:xlink="http://www.w3.org/1999/xlink">
<g id="graph0" class="graph" transform="scale(1 1) rotate(0) translate(4 169.8)">
<title>dependencies</title>
<polygon fill="white" stroke="transparent" points="-4,4 -4,-169.8 464,-169.8 464,4 -4,4"/>
<text text-anchor="middle" x="230" y="-8.2" font-family="sans-serif" font-size="14.00">dependencies</text>
<g id="clust1" class="cluster">
<title>cluster_PricingSingleModule</title>
<polygon fill="none" stroke="black" stroke-dasharray="1,5" points="8,-32.8 8,-157.8 452,-157.8 452,-32.8 8,-32.8"/>
</g>
<g id="clust4" class="cluster">
<title>cluster_PricingSingleModule_imports</title>
<polygon fill="none" stroke="black" points="198,-40.8 198,-92.8 444,-92.8 444,-40.8 198,-40.8"/>
</g>
<g id="clust2" class="cluster">
<title>cluster_PricingSingleModule_declarations</title>
<polygon fill="none" stroke="black" points="16,-40.8 16,-92.8 190,-92.8 190,-40.8 16,-40.8"/>
</g>
<!-- PricingSingleComponent -->
<g id="node1" class="node">
<title>PricingSingleComponent</title>
<polygon fill="#ffffb3" stroke="black" points="181.55,-84.8 24.45,-84.8 24.45,-48.8 181.55,-48.8 181.55,-84.8"/>
<text text-anchor="middle" x="103" y="-62.6" font-family="Times,serif" font-size="14.00">PricingSingleComponent</text>
</g>
<!-- PricingSingleModule -->
<g id="node2" class="node">
<title>PricingSingleModule</title>
<polygon fill="#8dd3c7" stroke="black" points="322.77,-149.8 319.77,-153.8 298.77,-153.8 295.77,-149.8 187.23,-149.8 187.23,-113.8 322.77,-113.8 322.77,-149.8"/>
<text text-anchor="middle" x="255" y="-127.6" font-family="Times,serif" font-size="14.00">PricingSingleModule</text>
</g>
<!-- PricingSingleComponent&#45;&gt;PricingSingleModule -->
<g id="edge1" class="edge">
<title>PricingSingleComponent&#45;&gt;PricingSingleModule</title>
<path fill="none" stroke="black" d="M181.85,-66.8C190.61,-66.8 196.45,-66.8 196.45,-66.8 196.45,-66.8 196.45,-103.69 196.45,-103.69"/>
<polygon fill="black" stroke="black" points="192.95,-103.69 196.45,-113.69 199.95,-103.69 192.95,-103.69"/>
</g>
<!-- FuseCardModule -->
<g id="node3" class="node">
<title>FuseCardModule</title>
<polygon fill="#8dd3c7" stroke="black" points="435.7,-84.8 432.7,-88.8 411.7,-88.8 408.7,-84.8 322.3,-84.8 322.3,-48.8 435.7,-48.8 435.7,-84.8"/>
<text text-anchor="middle" x="379" y="-62.6" font-family="Times,serif" font-size="14.00">FuseCardModule</text>
</g>
<!-- FuseCardModule&#45;&gt;PricingSingleModule -->
<g id="edge2" class="edge">
<title>FuseCardModule&#45;&gt;PricingSingleModule</title>
<path fill="none" stroke="black" d="M322.16,-66.8C316.79,-66.8 313.3,-66.8 313.3,-66.8 313.3,-66.8 313.3,-103.69 313.3,-103.69"/>
<polygon fill="black" stroke="black" points="309.8,-103.69 313.3,-113.69 316.8,-103.69 309.8,-103.69"/>
</g>
<!-- SharedModule -->
<g id="node4" class="node">
<title>SharedModule</title>
<polygon fill="#8dd3c7" stroke="black" points="304.42,-84.8 301.42,-88.8 280.42,-88.8 277.42,-84.8 205.58,-84.8 205.58,-48.8 304.42,-48.8 304.42,-84.8"/>
<text text-anchor="middle" x="255" y="-62.6" font-family="Times,serif" font-size="14.00">SharedModule</text>
</g>
<!-- SharedModule&#45;&gt;PricingSingleModule -->
<g id="edge3" class="edge">
<title>SharedModule&#45;&gt;PricingSingleModule</title>
<path fill="none" stroke="black" d="M255,-84.91C255,-84.91 255,-103.79 255,-103.79"/>
<polygon fill="black" stroke="black" points="251.5,-103.79 255,-113.79 258.5,-103.79 251.5,-103.79"/>
</g>
</g>
</svg>
