<?xml version="1.0" encoding="UTF-8" standalone="no"?>
<!DOCTYPE svg PUBLIC "-//W3C//DTD SVG 1.1//EN"
 "http://www.w3.org/Graphics/SVG/1.1/DTD/svg11.dtd">
<!-- Generated by graphviz version 2.47.3 (20210619.1520)
 -->
<!-- Title: dependencies Pages: 1 -->
<svg width="618pt" height="174pt"
 viewBox="0.00 0.00 618.00 173.80" xmlns="http://www.w3.org/2000/svg" xmlns:xlink="http://www.w3.org/1999/xlink">
<g id="graph0" class="graph" transform="scale(1 1) rotate(0) translate(4 169.8)">
<title>dependencies</title>
<polygon fill="white" stroke="transparent" points="-4,4 -4,-169.8 614,-169.8 614,4 -4,4"/>
<text text-anchor="middle" x="305" y="-8.2" font-family="sans-serif" font-size="14.00">dependencies</text>
<g id="clust1" class="cluster">
<title>cluster_TasksModule</title>
<polygon fill="none" stroke="black" stroke-dasharray="1,5" points="8,-32.8 8,-157.8 602,-157.8 602,-32.8 8,-32.8"/>
</g>
<g id="clust6" class="cluster">
<title>cluster_TasksModule_imports</title>
<polygon fill="none" stroke="black" points="480,-40.8 480,-92.8 594,-92.8 594,-40.8 480,-40.8"/>
</g>
<g id="clust2" class="cluster">
<title>cluster_TasksModule_declarations</title>
<polygon fill="none" stroke="black" points="16,-40.8 16,-92.8 472,-92.8 472,-40.8 16,-40.8"/>
</g>
<!-- TasksComponent -->
<g id="node1" class="node">
<title>TasksComponent</title>
<polygon fill="#ffffb3" stroke="black" points="463.99,-84.8 350.01,-84.8 350.01,-48.8 463.99,-48.8 463.99,-84.8"/>
<text text-anchor="middle" x="407" y="-62.6" font-family="Times,serif" font-size="14.00">TasksComponent</text>
</g>
<!-- TasksModule -->
<g id="node4" class="node">
<title>TasksModule</title>
<polygon fill="#8dd3c7" stroke="black" points="377.21,-149.8 374.21,-153.8 353.21,-153.8 350.21,-149.8 284.79,-149.8 284.79,-113.8 377.21,-113.8 377.21,-149.8"/>
<text text-anchor="middle" x="331" y="-127.6" font-family="Times,serif" font-size="14.00">TasksModule</text>
</g>
<!-- TasksComponent&#45;&gt;TasksModule -->
<g id="edge1" class="edge">
<title>TasksComponent&#45;&gt;TasksModule</title>
<path fill="none" stroke="black" d="M363.55,-84.91C363.55,-84.91 363.55,-103.79 363.55,-103.79"/>
<polygon fill="black" stroke="black" points="360.05,-103.79 363.55,-113.79 367.05,-103.79 360.05,-103.79"/>
</g>
<!-- TasksDetailsComponent -->
<g id="node2" class="node">
<title>TasksDetailsComponent</title>
<polygon fill="#ffffb3" stroke="black" points="331.64,-84.8 178.36,-84.8 178.36,-48.8 331.64,-48.8 331.64,-84.8"/>
<text text-anchor="middle" x="255" y="-62.6" font-family="Times,serif" font-size="14.00">TasksDetailsComponent</text>
</g>
<!-- TasksDetailsComponent&#45;&gt;TasksModule -->
<g id="edge2" class="edge">
<title>TasksDetailsComponent&#45;&gt;TasksModule</title>
<path fill="none" stroke="black" d="M308.36,-84.91C308.36,-84.91 308.36,-103.79 308.36,-103.79"/>
<polygon fill="black" stroke="black" points="304.86,-103.79 308.36,-113.79 311.86,-103.79 304.86,-103.79"/>
</g>
<!-- TasksListComponent -->
<g id="node3" class="node">
<title>TasksListComponent</title>
<polygon fill="#ffffb3" stroke="black" points="159.77,-84.8 24.23,-84.8 24.23,-48.8 159.77,-48.8 159.77,-84.8"/>
<text text-anchor="middle" x="92" y="-62.6" font-family="Times,serif" font-size="14.00">TasksListComponent</text>
</g>
<!-- TasksListComponent&#45;&gt;TasksModule -->
<g id="edge3" class="edge">
<title>TasksListComponent&#45;&gt;TasksModule</title>
<path fill="none" stroke="black" d="M92,-84.91C92,-104.14 92,-131.8 92,-131.8 92,-131.8 274.64,-131.8 274.64,-131.8"/>
<polygon fill="black" stroke="black" points="274.64,-135.3 284.64,-131.8 274.63,-128.3 274.64,-135.3"/>
</g>
<!-- SharedModule -->
<g id="node5" class="node">
<title>SharedModule</title>
<polygon fill="#8dd3c7" stroke="black" points="586.42,-84.8 583.42,-88.8 562.42,-88.8 559.42,-84.8 487.58,-84.8 487.58,-48.8 586.42,-48.8 586.42,-84.8"/>
<text text-anchor="middle" x="537" y="-62.6" font-family="Times,serif" font-size="14.00">SharedModule</text>
</g>
<!-- SharedModule&#45;&gt;TasksModule -->
<g id="edge4" class="edge">
<title>SharedModule&#45;&gt;TasksModule</title>
<path fill="none" stroke="black" d="M537,-84.91C537,-104.14 537,-131.8 537,-131.8 537,-131.8 387.23,-131.8 387.23,-131.8"/>
<polygon fill="black" stroke="black" points="387.23,-128.3 377.23,-131.8 387.23,-135.3 387.23,-128.3"/>
</g>
</g>
</svg>
