<?xml version="1.0" encoding="UTF-8" standalone="no"?>
<!DOCTYPE svg PUBLIC "-//W3C//DTD SVG 1.1//EN"
 "http://www.w3.org/Graphics/SVG/1.1/DTD/svg11.dtd">
<!-- Generated by graphviz version 2.47.3 (20210619.1520)
 -->
<!-- Title: dependencies Pages: 1 -->
<svg width="334pt" height="247pt"
 viewBox="0.00 0.00 334.00 246.80" xmlns="http://www.w3.org/2000/svg" xmlns:xlink="http://www.w3.org/1999/xlink">
<g id="graph0" class="graph" transform="scale(1 1) rotate(0) translate(4 242.8)">
<title>dependencies</title>
<polygon fill="white" stroke="transparent" points="-4,4 -4,-242.8 330,-242.8 330,4 -4,4"/>
<text text-anchor="middle" x="163" y="-8.2" font-family="sans-serif" font-size="14.00">dependencies</text>
<g id="clust1" class="cluster">
<title>cluster_SettingsModule</title>
<polygon fill="none" stroke="black" stroke-dasharray="1,5" points="8,-32.8 8,-230.8 318,-230.8 318,-32.8 8,-32.8"/>
</g>
<g id="clust4" class="cluster">
<title>cluster_SettingsModule_imports</title>
<polygon fill="none" stroke="black" points="166,-40.8 166,-92.8 310,-92.8 310,-40.8 166,-40.8"/>
</g>
<g id="clust2" class="cluster">
<title>cluster_SettingsModule_declarations</title>
<polygon fill="none" stroke="black" points="16,-40.8 16,-92.8 158,-92.8 158,-40.8 16,-40.8"/>
</g>
<g id="clust5" class="cluster">
<title>cluster_SettingsModule_exports</title>
<polygon fill="none" stroke="black" points="90,-170.8 90,-222.8 236,-222.8 236,-170.8 90,-170.8"/>
</g>
<!-- SettingsComponent -->
<g id="node1" class="node">
<title>SettingsComponent</title>
<polygon fill="#ffffb3" stroke="black" points="150.45,-84.8 23.55,-84.8 23.55,-48.8 150.45,-48.8 150.45,-84.8"/>
<text text-anchor="middle" x="87" y="-62.6" font-family="Times,serif" font-size="14.00">SettingsComponent</text>
</g>
<!-- SettingsModule -->
<g id="node2" class="node">
<title>SettingsModule</title>
<polygon fill="#8dd3c7" stroke="black" points="215.16,-149.8 212.16,-153.8 191.16,-153.8 188.16,-149.8 110.84,-149.8 110.84,-113.8 215.16,-113.8 215.16,-149.8"/>
<text text-anchor="middle" x="163" y="-127.6" font-family="Times,serif" font-size="14.00">SettingsModule</text>
</g>
<!-- SettingsComponent&#45;&gt;SettingsModule -->
<g id="edge1" class="edge">
<title>SettingsComponent&#45;&gt;SettingsModule</title>
<path fill="none" stroke="black" d="M130.45,-84.91C130.45,-84.91 130.45,-103.79 130.45,-103.79"/>
<polygon fill="black" stroke="black" points="126.95,-103.79 130.45,-113.79 133.95,-103.79 126.95,-103.79"/>
</g>
<!-- SettingsComponent  -->
<g id="node4" class="node">
<title>SettingsComponent </title>
<polygon fill="#fb8072" stroke="black" points="227.95,-214.8 98.05,-214.8 98.05,-178.8 227.95,-178.8 227.95,-214.8"/>
<text text-anchor="middle" x="163" y="-192.6" font-family="Times,serif" font-size="14.00">SettingsComponent </text>
</g>
<!-- SettingsModule&#45;&gt;SettingsComponent  -->
<g id="edge3" class="edge">
<title>SettingsModule&#45;&gt;SettingsComponent </title>
<path fill="none" stroke="black" stroke-dasharray="5,2" d="M163,-149.91C163,-149.91 163,-168.79 163,-168.79"/>
<polygon fill="black" stroke="black" points="159.5,-168.79 163,-178.79 166.5,-168.79 159.5,-168.79"/>
</g>
<!-- FuseDrawerModule -->
<g id="node3" class="node">
<title>FuseDrawerModule</title>
<polygon fill="#8dd3c7" stroke="black" points="301.96,-84.8 298.96,-88.8 277.96,-88.8 274.96,-84.8 174.04,-84.8 174.04,-48.8 301.96,-48.8 301.96,-84.8"/>
<text text-anchor="middle" x="238" y="-62.6" font-family="Times,serif" font-size="14.00">FuseDrawerModule</text>
</g>
<!-- FuseDrawerModule&#45;&gt;SettingsModule -->
<g id="edge2" class="edge">
<title>FuseDrawerModule&#45;&gt;SettingsModule</title>
<path fill="none" stroke="black" d="M194.68,-84.91C194.68,-84.91 194.68,-103.79 194.68,-103.79"/>
<polygon fill="black" stroke="black" points="191.18,-103.79 194.68,-113.79 198.18,-103.79 191.18,-103.79"/>
</g>
</g>
</svg>
