<?xml version="1.0" encoding="UTF-8" standalone="no"?>
<!DOCTYPE svg PUBLIC "-//W3C//DTD SVG 1.1//EN"
 "http://www.w3.org/Graphics/SVG/1.1/DTD/svg11.dtd">
<!-- Generated by graphviz version 2.47.3 (20210619.1520)
 -->
<!-- Title: dependencies Pages: 1 -->
<svg width="1562pt" height="247pt"
 viewBox="0.00 0.00 1562.00 246.80" xmlns="http://www.w3.org/2000/svg" xmlns:xlink="http://www.w3.org/1999/xlink">
<g id="graph0" class="graph" transform="scale(1 1) rotate(0) translate(4 242.8)">
<title>dependencies</title>
<polygon fill="white" stroke="transparent" points="-4,4 -4,-242.8 1558,-242.8 1558,4 -4,4"/>
<text text-anchor="middle" x="777" y="-8.2" font-family="sans-serif" font-size="14.00">dependencies</text>
<g id="clust1" class="cluster">
<title>cluster_ThinLayoutModule</title>
<polygon fill="none" stroke="black" stroke-dasharray="1,5" points="8,-32.8 8,-230.8 1546,-230.8 1546,-32.8 8,-32.8"/>
</g>
<g id="clust5" class="cluster">
<title>cluster_ThinLayoutModule_exports</title>
<polygon fill="none" stroke="black" points="611,-170.8 611,-222.8 777,-222.8 777,-170.8 611,-170.8"/>
</g>
<g id="clust2" class="cluster">
<title>cluster_ThinLayoutModule_declarations</title>
<polygon fill="none" stroke="black" points="1374,-40.8 1374,-92.8 1538,-92.8 1538,-40.8 1374,-40.8"/>
</g>
<g id="clust4" class="cluster">
<title>cluster_ThinLayoutModule_imports</title>
<polygon fill="none" stroke="black" points="16,-40.8 16,-92.8 1366,-92.8 1366,-40.8 16,-40.8"/>
</g>
<!-- ThinLayoutComponent -->
<g id="node1" class="node">
<title>ThinLayoutComponent</title>
<polygon fill="#ffffb3" stroke="black" points="1529.93,-84.8 1382.07,-84.8 1382.07,-48.8 1529.93,-48.8 1529.93,-84.8"/>
<text text-anchor="middle" x="1456" y="-62.6" font-family="Times,serif" font-size="14.00">ThinLayoutComponent</text>
</g>
<!-- ThinLayoutModule -->
<g id="node2" class="node">
<title>ThinLayoutModule</title>
<polygon fill="#8dd3c7" stroke="black" points="756.65,-149.8 753.65,-153.8 732.65,-153.8 729.65,-149.8 631.35,-149.8 631.35,-113.8 756.65,-113.8 756.65,-149.8"/>
<text text-anchor="middle" x="694" y="-127.6" font-family="Times,serif" font-size="14.00">ThinLayoutModule</text>
</g>
<!-- ThinLayoutComponent&#45;&gt;ThinLayoutModule -->
<g id="edge1" class="edge">
<title>ThinLayoutComponent&#45;&gt;ThinLayoutModule</title>
<path fill="none" stroke="black" d="M1456,-85.05C1456,-107.82 1456,-143.8 1456,-143.8 1456,-143.8 766.68,-143.8 766.68,-143.8"/>
<polygon fill="black" stroke="black" points="766.68,-140.3 756.68,-143.8 766.68,-147.3 766.68,-140.3"/>
</g>
<!-- ThinLayoutComponent  -->
<g id="node13" class="node">
<title>ThinLayoutComponent </title>
<polygon fill="#fb8072" stroke="black" points="769.43,-214.8 618.57,-214.8 618.57,-178.8 769.43,-178.8 769.43,-214.8"/>
<text text-anchor="middle" x="694" y="-192.6" font-family="Times,serif" font-size="14.00">ThinLayoutComponent </text>
</g>
<!-- ThinLayoutModule&#45;&gt;ThinLayoutComponent  -->
<g id="edge12" class="edge">
<title>ThinLayoutModule&#45;&gt;ThinLayoutComponent </title>
<path fill="none" stroke="black" stroke-dasharray="5,2" d="M694,-149.91C694,-149.91 694,-168.79 694,-168.79"/>
<polygon fill="black" stroke="black" points="690.5,-168.79 694,-178.79 697.5,-168.79 690.5,-168.79"/>
</g>
<!-- FuseFullscreenModule -->
<g id="node3" class="node">
<title>FuseFullscreenModule</title>
<polygon fill="#8dd3c7" stroke="black" points="1358.3,-84.8 1355.3,-88.8 1334.3,-88.8 1331.3,-84.8 1213.7,-84.8 1213.7,-48.8 1358.3,-48.8 1358.3,-84.8"/>
<text text-anchor="middle" x="1286" y="-62.6" font-family="Times,serif" font-size="14.00">FuseFullscreenModule</text>
</g>
<!-- FuseFullscreenModule&#45;&gt;ThinLayoutModule -->
<g id="edge2" class="edge">
<title>FuseFullscreenModule&#45;&gt;ThinLayoutModule</title>
<path fill="none" stroke="black" d="M1286,-85.08C1286,-106.12 1286,-137.8 1286,-137.8 1286,-137.8 766.79,-137.8 766.79,-137.8"/>
<polygon fill="black" stroke="black" points="766.79,-134.3 756.79,-137.8 766.79,-141.3 766.79,-134.3"/>
</g>
<!-- FuseNavigationModule -->
<g id="node4" class="node">
<title>FuseNavigationModule</title>
<polygon fill="#8dd3c7" stroke="black" points="1196.2,-84.8 1193.2,-88.8 1172.2,-88.8 1169.2,-84.8 1047.8,-84.8 1047.8,-48.8 1196.2,-48.8 1196.2,-84.8"/>
<text text-anchor="middle" x="1122" y="-62.6" font-family="Times,serif" font-size="14.00">FuseNavigationModule</text>
</g>
<!-- FuseNavigationModule&#45;&gt;ThinLayoutModule -->
<g id="edge3" class="edge">
<title>FuseNavigationModule&#45;&gt;ThinLayoutModule</title>
<path fill="none" stroke="black" d="M1122,-84.91C1122,-104.14 1122,-131.8 1122,-131.8 1122,-131.8 766.69,-131.8 766.69,-131.8"/>
<polygon fill="black" stroke="black" points="766.69,-128.3 756.69,-131.8 766.69,-135.3 766.69,-128.3"/>
</g>
<!-- LanguagesModule -->
<g id="node5" class="node">
<title>LanguagesModule</title>
<polygon fill="#8dd3c7" stroke="black" points="1030.19,-84.8 1027.19,-88.8 1006.19,-88.8 1003.19,-84.8 909.81,-84.8 909.81,-48.8 1030.19,-48.8 1030.19,-84.8"/>
<text text-anchor="middle" x="970" y="-62.6" font-family="Times,serif" font-size="14.00">LanguagesModule</text>
</g>
<!-- LanguagesModule&#45;&gt;ThinLayoutModule -->
<g id="edge4" class="edge">
<title>LanguagesModule&#45;&gt;ThinLayoutModule</title>
<path fill="none" stroke="black" d="M970,-84.82C970,-102.17 970,-125.8 970,-125.8 970,-125.8 766.97,-125.8 766.97,-125.8"/>
<polygon fill="black" stroke="black" points="766.97,-122.3 756.97,-125.8 766.97,-129.3 766.97,-122.3"/>
</g>
<!-- MessagesModule -->
<g id="node6" class="node">
<title>MessagesModule</title>
<polygon fill="#8dd3c7" stroke="black" points="891.97,-84.8 888.97,-88.8 867.97,-88.8 864.97,-84.8 778.03,-84.8 778.03,-48.8 891.97,-48.8 891.97,-84.8"/>
<text text-anchor="middle" x="835" y="-62.6" font-family="Times,serif" font-size="14.00">MessagesModule</text>
</g>
<!-- MessagesModule&#45;&gt;ThinLayoutModule -->
<g id="edge5" class="edge">
<title>MessagesModule&#45;&gt;ThinLayoutModule</title>
<path fill="none" stroke="black" d="M835,-85.04C835,-100.37 835,-119.8 835,-119.8 835,-119.8 766.67,-119.8 766.67,-119.8"/>
<polygon fill="black" stroke="black" points="766.67,-116.3 756.67,-119.8 766.67,-123.3 766.67,-116.3"/>
</g>
<!-- NotificationsModule -->
<g id="node7" class="node">
<title>NotificationsModule</title>
<polygon fill="#8dd3c7" stroke="black" points="760.14,-84.8 757.14,-88.8 736.14,-88.8 733.14,-84.8 627.86,-84.8 627.86,-48.8 760.14,-48.8 760.14,-84.8"/>
<text text-anchor="middle" x="694" y="-62.6" font-family="Times,serif" font-size="14.00">NotificationsModule</text>
</g>
<!-- NotificationsModule&#45;&gt;ThinLayoutModule -->
<g id="edge6" class="edge">
<title>NotificationsModule&#45;&gt;ThinLayoutModule</title>
<path fill="none" stroke="black" d="M694,-84.91C694,-84.91 694,-103.79 694,-103.79"/>
<polygon fill="black" stroke="black" points="690.5,-103.79 694,-113.79 697.5,-103.79 690.5,-103.79"/>
</g>
<!-- QuickChatModule -->
<g id="node8" class="node">
<title>QuickChatModule</title>
<polygon fill="#8dd3c7" stroke="black" points="610.2,-84.8 607.2,-88.8 586.2,-88.8 583.2,-84.8 489.8,-84.8 489.8,-48.8 610.2,-48.8 610.2,-84.8"/>
<text text-anchor="middle" x="550" y="-62.6" font-family="Times,serif" font-size="14.00">QuickChatModule</text>
</g>
<!-- QuickChatModule&#45;&gt;ThinLayoutModule -->
<g id="edge7" class="edge">
<title>QuickChatModule&#45;&gt;ThinLayoutModule</title>
<path fill="none" stroke="black" d="M550,-85.04C550,-100.37 550,-119.8 550,-119.8 550,-119.8 621.26,-119.8 621.26,-119.8"/>
<polygon fill="black" stroke="black" points="621.26,-123.3 631.26,-119.8 621.26,-116.3 621.26,-123.3"/>
</g>
<!-- SearchModule -->
<g id="node9" class="node">
<title>SearchModule</title>
<polygon fill="#8dd3c7" stroke="black" points="471.64,-84.8 468.64,-88.8 447.64,-88.8 444.64,-84.8 374.36,-84.8 374.36,-48.8 471.64,-48.8 471.64,-84.8"/>
<text text-anchor="middle" x="423" y="-62.6" font-family="Times,serif" font-size="14.00">SearchModule</text>
</g>
<!-- SearchModule&#45;&gt;ThinLayoutModule -->
<g id="edge8" class="edge">
<title>SearchModule&#45;&gt;ThinLayoutModule</title>
<path fill="none" stroke="black" d="M423,-84.82C423,-102.17 423,-125.8 423,-125.8 423,-125.8 621.15,-125.8 621.15,-125.8"/>
<polygon fill="black" stroke="black" points="621.15,-129.3 631.15,-125.8 621.15,-122.3 621.15,-129.3"/>
</g>
<!-- SharedModule -->
<g id="node10" class="node">
<title>SharedModule</title>
<polygon fill="#8dd3c7" stroke="black" points="356.42,-84.8 353.42,-88.8 332.42,-88.8 329.42,-84.8 257.58,-84.8 257.58,-48.8 356.42,-48.8 356.42,-84.8"/>
<text text-anchor="middle" x="307" y="-62.6" font-family="Times,serif" font-size="14.00">SharedModule</text>
</g>
<!-- SharedModule&#45;&gt;ThinLayoutModule -->
<g id="edge9" class="edge">
<title>SharedModule&#45;&gt;ThinLayoutModule</title>
<path fill="none" stroke="black" d="M307,-84.91C307,-104.14 307,-131.8 307,-131.8 307,-131.8 620.96,-131.8 620.96,-131.8"/>
<polygon fill="black" stroke="black" points="620.96,-135.3 630.96,-131.8 620.96,-128.3 620.96,-135.3"/>
</g>
<!-- ShortcutsModule -->
<g id="node11" class="node">
<title>ShortcutsModule</title>
<polygon fill="#8dd3c7" stroke="black" points="240.43,-84.8 237.43,-88.8 216.43,-88.8 213.43,-84.8 127.57,-84.8 127.57,-48.8 240.43,-48.8 240.43,-84.8"/>
<text text-anchor="middle" x="184" y="-62.6" font-family="Times,serif" font-size="14.00">ShortcutsModule</text>
</g>
<!-- ShortcutsModule&#45;&gt;ThinLayoutModule -->
<g id="edge10" class="edge">
<title>ShortcutsModule&#45;&gt;ThinLayoutModule</title>
<path fill="none" stroke="black" d="M184,-85.08C184,-106.12 184,-137.8 184,-137.8 184,-137.8 621.21,-137.8 621.21,-137.8"/>
<polygon fill="black" stroke="black" points="621.21,-141.3 631.21,-137.8 621.21,-134.3 621.21,-141.3"/>
</g>
<!-- UserModule -->
<g id="node12" class="node">
<title>UserModule</title>
<polygon fill="#8dd3c7" stroke="black" points="109.98,-84.8 106.98,-88.8 85.98,-88.8 82.98,-84.8 24.02,-84.8 24.02,-48.8 109.98,-48.8 109.98,-84.8"/>
<text text-anchor="middle" x="67" y="-62.6" font-family="Times,serif" font-size="14.00">UserModule</text>
</g>
<!-- UserModule&#45;&gt;ThinLayoutModule -->
<g id="edge11" class="edge">
<title>UserModule&#45;&gt;ThinLayoutModule</title>
<path fill="none" stroke="black" d="M67,-85.05C67,-107.82 67,-143.8 67,-143.8 67,-143.8 621.3,-143.8 621.3,-143.8"/>
<polygon fill="black" stroke="black" points="621.3,-147.3 631.3,-143.8 621.3,-140.3 621.3,-147.3"/>
</g>
</g>
</svg>
