<?xml version="1.0" encoding="UTF-8" standalone="no"?>
<!DOCTYPE svg PUBLIC "-//W3C//DTD SVG 1.1//EN"
 "http://www.w3.org/Graphics/SVG/1.1/DTD/svg11.dtd">
<!-- Generated by graphviz version 2.47.3 (20210619.1520)
 -->
<!-- Title: dependencies Pages: 1 -->
<svg width="594pt" height="174pt"
 viewBox="0.00 0.00 594.00 173.80" xmlns="http://www.w3.org/2000/svg" xmlns:xlink="http://www.w3.org/1999/xlink">
<g id="graph0" class="graph" transform="scale(1 1) rotate(0) translate(4 169.8)">
<title>dependencies</title>
<polygon fill="white" stroke="transparent" points="-4,4 -4,-169.8 590,-169.8 590,4 -4,4"/>
<text text-anchor="middle" x="293" y="-8.2" font-family="sans-serif" font-size="14.00">dependencies</text>
<g id="clust1" class="cluster">
<title>cluster_AuthSignUpModule</title>
<polygon fill="none" stroke="black" stroke-dasharray="1,5" points="8,-32.8 8,-157.8 578,-157.8 578,-32.8 8,-32.8"/>
</g>
<g id="clust2" class="cluster">
<title>cluster_AuthSignUpModule_declarations</title>
<polygon fill="none" stroke="black" points="402,-40.8 402,-92.8 570,-92.8 570,-40.8 402,-40.8"/>
</g>
<g id="clust4" class="cluster">
<title>cluster_AuthSignUpModule_imports</title>
<polygon fill="none" stroke="black" points="16,-40.8 16,-92.8 394,-92.8 394,-40.8 16,-40.8"/>
</g>
<!-- AuthSignUpComponent -->
<g id="node1" class="node">
<title>AuthSignUpComponent</title>
<polygon fill="#ffffb3" stroke="black" points="562.11,-84.8 409.89,-84.8 409.89,-48.8 562.11,-48.8 562.11,-84.8"/>
<text text-anchor="middle" x="486" y="-62.6" font-family="Times,serif" font-size="14.00">AuthSignUpComponent</text>
</g>
<!-- AuthSignUpModule -->
<g id="node2" class="node">
<title>AuthSignUpModule</title>
<polygon fill="#8dd3c7" stroke="black" points="328.33,-149.8 325.33,-153.8 304.33,-153.8 301.33,-149.8 197.67,-149.8 197.67,-113.8 328.33,-113.8 328.33,-149.8"/>
<text text-anchor="middle" x="263" y="-127.6" font-family="Times,serif" font-size="14.00">AuthSignUpModule</text>
</g>
<!-- AuthSignUpComponent&#45;&gt;AuthSignUpModule -->
<g id="edge1" class="edge">
<title>AuthSignUpComponent&#45;&gt;AuthSignUpModule</title>
<path fill="none" stroke="black" d="M486,-84.91C486,-104.14 486,-131.8 486,-131.8 486,-131.8 338.4,-131.8 338.4,-131.8"/>
<polygon fill="black" stroke="black" points="338.4,-128.3 328.4,-131.8 338.4,-135.3 338.4,-128.3"/>
</g>
<!-- FuseAlertModule -->
<g id="node3" class="node">
<title>FuseAlertModule</title>
<polygon fill="#8dd3c7" stroke="black" points="386.25,-84.8 383.25,-88.8 362.25,-88.8 359.25,-84.8 271.75,-84.8 271.75,-48.8 386.25,-48.8 386.25,-84.8"/>
<text text-anchor="middle" x="329" y="-62.6" font-family="Times,serif" font-size="14.00">FuseAlertModule</text>
</g>
<!-- FuseAlertModule&#45;&gt;AuthSignUpModule -->
<g id="edge2" class="edge">
<title>FuseAlertModule&#45;&gt;AuthSignUpModule</title>
<path fill="none" stroke="black" d="M299.89,-84.91C299.89,-84.91 299.89,-103.79 299.89,-103.79"/>
<polygon fill="black" stroke="black" points="296.39,-103.79 299.89,-113.79 303.39,-103.79 296.39,-103.79"/>
</g>
<!-- FuseCardModule -->
<g id="node4" class="node">
<title>FuseCardModule</title>
<polygon fill="#8dd3c7" stroke="black" points="253.7,-84.8 250.7,-88.8 229.7,-88.8 226.7,-84.8 140.3,-84.8 140.3,-48.8 253.7,-48.8 253.7,-84.8"/>
<text text-anchor="middle" x="197" y="-62.6" font-family="Times,serif" font-size="14.00">FuseCardModule</text>
</g>
<!-- FuseCardModule&#45;&gt;AuthSignUpModule -->
<g id="edge3" class="edge">
<title>FuseCardModule&#45;&gt;AuthSignUpModule</title>
<path fill="none" stroke="black" d="M225.72,-84.91C225.72,-84.91 225.72,-103.79 225.72,-103.79"/>
<polygon fill="black" stroke="black" points="222.22,-103.79 225.72,-113.79 229.22,-103.79 222.22,-103.79"/>
</g>
<!-- SharedModule -->
<g id="node5" class="node">
<title>SharedModule</title>
<polygon fill="#8dd3c7" stroke="black" points="122.42,-84.8 119.42,-88.8 98.42,-88.8 95.42,-84.8 23.58,-84.8 23.58,-48.8 122.42,-48.8 122.42,-84.8"/>
<text text-anchor="middle" x="73" y="-62.6" font-family="Times,serif" font-size="14.00">SharedModule</text>
</g>
<!-- SharedModule&#45;&gt;AuthSignUpModule -->
<g id="edge4" class="edge">
<title>SharedModule&#45;&gt;AuthSignUpModule</title>
<path fill="none" stroke="black" d="M73,-84.91C73,-104.14 73,-131.8 73,-131.8 73,-131.8 187.61,-131.8 187.61,-131.8"/>
<polygon fill="black" stroke="black" points="187.61,-135.3 197.61,-131.8 187.61,-128.3 187.61,-135.3"/>
</g>
</g>
</svg>
