<?xml version="1.0" encoding="UTF-8" standalone="no"?>
<!DOCTYPE svg PUBLIC "-//W3C//DTD SVG 1.1//EN"
 "http://www.w3.org/Graphics/SVG/1.1/DTD/svg11.dtd">
<!-- Generated by graphviz version 2.47.3 (20210619.1520)
 -->
<!-- Title: dependencies Pages: 1 -->
<svg width="1580pt" height="247pt"
 viewBox="0.00 0.00 1580.00 246.80" xmlns="http://www.w3.org/2000/svg" xmlns:xlink="http://www.w3.org/1999/xlink">
<g id="graph0" class="graph" transform="scale(1 1) rotate(0) translate(4 242.8)">
<title>dependencies</title>
<polygon fill="white" stroke="transparent" points="-4,4 -4,-242.8 1576,-242.8 1576,4 -4,4"/>
<text text-anchor="middle" x="786" y="-8.2" font-family="sans-serif" font-size="14.00">dependencies</text>
<g id="clust1" class="cluster">
<title>cluster_ModernLayoutModule</title>
<polygon fill="none" stroke="black" stroke-dasharray="1,5" points="8,-32.8 8,-230.8 1564,-230.8 1564,-32.8 8,-32.8"/>
</g>
<g id="clust4" class="cluster">
<title>cluster_ModernLayoutModule_imports</title>
<polygon fill="none" stroke="black" points="206,-40.8 206,-92.8 1556,-92.8 1556,-40.8 206,-40.8"/>
</g>
<g id="clust5" class="cluster">
<title>cluster_ModernLayoutModule_exports</title>
<polygon fill="none" stroke="black" points="648,-170.8 648,-222.8 832,-222.8 832,-170.8 648,-170.8"/>
</g>
<g id="clust2" class="cluster">
<title>cluster_ModernLayoutModule_declarations</title>
<polygon fill="none" stroke="black" points="16,-40.8 16,-92.8 198,-92.8 198,-40.8 16,-40.8"/>
</g>
<!-- ModernLayoutComponent -->
<g id="node1" class="node">
<title>ModernLayoutComponent</title>
<polygon fill="#ffffb3" stroke="black" points="189.81,-84.8 24.19,-84.8 24.19,-48.8 189.81,-48.8 189.81,-84.8"/>
<text text-anchor="middle" x="107" y="-62.6" font-family="Times,serif" font-size="14.00">ModernLayoutComponent</text>
</g>
<!-- ModernLayoutModule -->
<g id="node2" class="node">
<title>ModernLayoutModule</title>
<polygon fill="#8dd3c7" stroke="black" points="811.53,-149.8 808.53,-153.8 787.53,-153.8 784.53,-149.8 668.47,-149.8 668.47,-113.8 811.53,-113.8 811.53,-149.8"/>
<text text-anchor="middle" x="740" y="-127.6" font-family="Times,serif" font-size="14.00">ModernLayoutModule</text>
</g>
<!-- ModernLayoutComponent&#45;&gt;ModernLayoutModule -->
<g id="edge1" class="edge">
<title>ModernLayoutComponent&#45;&gt;ModernLayoutModule</title>
<path fill="none" stroke="black" d="M107,-84.81C107,-107.29 107,-142.8 107,-142.8 107,-142.8 658.31,-142.8 658.31,-142.8"/>
<polygon fill="black" stroke="black" points="658.31,-146.3 668.31,-142.8 658.31,-139.3 658.31,-146.3"/>
</g>
<!-- ModernLayoutComponent  -->
<g id="node13" class="node">
<title>ModernLayoutComponent </title>
<polygon fill="#fb8072" stroke="black" points="824.31,-214.8 655.69,-214.8 655.69,-178.8 824.31,-178.8 824.31,-214.8"/>
<text text-anchor="middle" x="740" y="-192.6" font-family="Times,serif" font-size="14.00">ModernLayoutComponent </text>
</g>
<!-- ModernLayoutModule&#45;&gt;ModernLayoutComponent  -->
<g id="edge12" class="edge">
<title>ModernLayoutModule&#45;&gt;ModernLayoutComponent </title>
<path fill="none" stroke="black" stroke-dasharray="5,2" d="M740,-149.91C740,-149.91 740,-168.79 740,-168.79"/>
<polygon fill="black" stroke="black" points="736.5,-168.79 740,-178.79 743.5,-168.79 736.5,-168.79"/>
</g>
<!-- FuseFullscreenModule -->
<g id="node3" class="node">
<title>FuseFullscreenModule</title>
<polygon fill="#8dd3c7" stroke="black" points="1548.3,-84.8 1545.3,-88.8 1524.3,-88.8 1521.3,-84.8 1403.7,-84.8 1403.7,-48.8 1548.3,-48.8 1548.3,-84.8"/>
<text text-anchor="middle" x="1476" y="-62.6" font-family="Times,serif" font-size="14.00">FuseFullscreenModule</text>
</g>
<!-- FuseFullscreenModule&#45;&gt;ModernLayoutModule -->
<g id="edge2" class="edge">
<title>FuseFullscreenModule&#45;&gt;ModernLayoutModule</title>
<path fill="none" stroke="black" d="M1476,-84.81C1476,-107.29 1476,-142.8 1476,-142.8 1476,-142.8 821.57,-142.8 821.57,-142.8"/>
<polygon fill="black" stroke="black" points="821.57,-139.3 811.57,-142.8 821.57,-146.3 821.57,-139.3"/>
</g>
<!-- FuseNavigationModule -->
<g id="node4" class="node">
<title>FuseNavigationModule</title>
<polygon fill="#8dd3c7" stroke="black" points="1386.2,-84.8 1383.2,-88.8 1362.2,-88.8 1359.2,-84.8 1237.8,-84.8 1237.8,-48.8 1386.2,-48.8 1386.2,-84.8"/>
<text text-anchor="middle" x="1312" y="-62.6" font-family="Times,serif" font-size="14.00">FuseNavigationModule</text>
</g>
<!-- FuseNavigationModule&#45;&gt;ModernLayoutModule -->
<g id="edge3" class="edge">
<title>FuseNavigationModule&#45;&gt;ModernLayoutModule</title>
<path fill="none" stroke="black" d="M1312,-84.93C1312,-105.37 1312,-135.8 1312,-135.8 1312,-135.8 821.58,-135.8 821.58,-135.8"/>
<polygon fill="black" stroke="black" points="821.58,-132.3 811.58,-135.8 821.58,-139.3 821.58,-132.3"/>
</g>
<!-- LanguagesModule -->
<g id="node5" class="node">
<title>LanguagesModule</title>
<polygon fill="#8dd3c7" stroke="black" points="1220.19,-84.8 1217.19,-88.8 1196.19,-88.8 1193.19,-84.8 1099.81,-84.8 1099.81,-48.8 1220.19,-48.8 1220.19,-84.8"/>
<text text-anchor="middle" x="1160" y="-62.6" font-family="Times,serif" font-size="14.00">LanguagesModule</text>
</g>
<!-- LanguagesModule&#45;&gt;ModernLayoutModule -->
<g id="edge4" class="edge">
<title>LanguagesModule&#45;&gt;ModernLayoutModule</title>
<path fill="none" stroke="black" d="M1160,-85.07C1160,-103.36 1160,-128.8 1160,-128.8 1160,-128.8 821.72,-128.8 821.72,-128.8"/>
<polygon fill="black" stroke="black" points="821.72,-125.3 811.72,-128.8 821.72,-132.3 821.72,-125.3"/>
</g>
<!-- MessagesModule -->
<g id="node6" class="node">
<title>MessagesModule</title>
<polygon fill="#8dd3c7" stroke="black" points="1081.97,-84.8 1078.97,-88.8 1057.97,-88.8 1054.97,-84.8 968.03,-84.8 968.03,-48.8 1081.97,-48.8 1081.97,-84.8"/>
<text text-anchor="middle" x="1025" y="-62.6" font-family="Times,serif" font-size="14.00">MessagesModule</text>
</g>
<!-- MessagesModule&#45;&gt;ModernLayoutModule -->
<g id="edge5" class="edge">
<title>MessagesModule&#45;&gt;ModernLayoutModule</title>
<path fill="none" stroke="black" d="M1025,-84.81C1025,-100.85 1025,-121.8 1025,-121.8 1025,-121.8 821.55,-121.8 821.55,-121.8"/>
<polygon fill="black" stroke="black" points="821.55,-118.3 811.55,-121.8 821.55,-125.3 821.55,-118.3"/>
</g>
<!-- NotificationsModule -->
<g id="node7" class="node">
<title>NotificationsModule</title>
<polygon fill="#8dd3c7" stroke="black" points="950.14,-84.8 947.14,-88.8 926.14,-88.8 923.14,-84.8 817.86,-84.8 817.86,-48.8 950.14,-48.8 950.14,-84.8"/>
<text text-anchor="middle" x="884" y="-62.6" font-family="Times,serif" font-size="14.00">NotificationsModule</text>
</g>
<!-- NotificationsModule&#45;&gt;ModernLayoutModule -->
<g id="edge6" class="edge">
<title>NotificationsModule&#45;&gt;ModernLayoutModule</title>
<path fill="none" stroke="black" d="M817.79,-66.8C810.66,-66.8 805.93,-66.8 805.93,-66.8 805.93,-66.8 805.93,-103.69 805.93,-103.69"/>
<polygon fill="black" stroke="black" points="802.43,-103.69 805.93,-113.69 809.43,-103.69 802.43,-103.69"/>
</g>
<!-- QuickChatModule -->
<g id="node8" class="node">
<title>QuickChatModule</title>
<polygon fill="#8dd3c7" stroke="black" points="800.2,-84.8 797.2,-88.8 776.2,-88.8 773.2,-84.8 679.8,-84.8 679.8,-48.8 800.2,-48.8 800.2,-84.8"/>
<text text-anchor="middle" x="740" y="-62.6" font-family="Times,serif" font-size="14.00">QuickChatModule</text>
</g>
<!-- QuickChatModule&#45;&gt;ModernLayoutModule -->
<g id="edge7" class="edge">
<title>QuickChatModule&#45;&gt;ModernLayoutModule</title>
<path fill="none" stroke="black" d="M740,-84.91C740,-84.91 740,-103.79 740,-103.79"/>
<polygon fill="black" stroke="black" points="736.5,-103.79 740,-113.79 743.5,-103.79 736.5,-103.79"/>
</g>
<!-- SearchModule -->
<g id="node9" class="node">
<title>SearchModule</title>
<polygon fill="#8dd3c7" stroke="black" points="661.64,-84.8 658.64,-88.8 637.64,-88.8 634.64,-84.8 564.36,-84.8 564.36,-48.8 661.64,-48.8 661.64,-84.8"/>
<text text-anchor="middle" x="613" y="-62.6" font-family="Times,serif" font-size="14.00">SearchModule</text>
</g>
<!-- SearchModule&#45;&gt;ModernLayoutModule -->
<g id="edge8" class="edge">
<title>SearchModule&#45;&gt;ModernLayoutModule</title>
<path fill="none" stroke="black" d="M661.71,-66.8C668.96,-66.8 674.07,-66.8 674.07,-66.8 674.07,-66.8 674.07,-103.69 674.07,-103.69"/>
<polygon fill="black" stroke="black" points="670.57,-103.69 674.07,-113.69 677.57,-103.69 670.57,-103.69"/>
</g>
<!-- SharedModule -->
<g id="node10" class="node">
<title>SharedModule</title>
<polygon fill="#8dd3c7" stroke="black" points="546.42,-84.8 543.42,-88.8 522.42,-88.8 519.42,-84.8 447.58,-84.8 447.58,-48.8 546.42,-48.8 546.42,-84.8"/>
<text text-anchor="middle" x="497" y="-62.6" font-family="Times,serif" font-size="14.00">SharedModule</text>
</g>
<!-- SharedModule&#45;&gt;ModernLayoutModule -->
<g id="edge9" class="edge">
<title>SharedModule&#45;&gt;ModernLayoutModule</title>
<path fill="none" stroke="black" d="M497,-84.81C497,-100.85 497,-121.8 497,-121.8 497,-121.8 658.41,-121.8 658.41,-121.8"/>
<polygon fill="black" stroke="black" points="658.41,-125.3 668.41,-121.8 658.41,-118.3 658.41,-125.3"/>
</g>
<!-- ShortcutsModule -->
<g id="node11" class="node">
<title>ShortcutsModule</title>
<polygon fill="#8dd3c7" stroke="black" points="430.43,-84.8 427.43,-88.8 406.43,-88.8 403.43,-84.8 317.57,-84.8 317.57,-48.8 430.43,-48.8 430.43,-84.8"/>
<text text-anchor="middle" x="374" y="-62.6" font-family="Times,serif" font-size="14.00">ShortcutsModule</text>
</g>
<!-- ShortcutsModule&#45;&gt;ModernLayoutModule -->
<g id="edge10" class="edge">
<title>ShortcutsModule&#45;&gt;ModernLayoutModule</title>
<path fill="none" stroke="black" d="M374,-85.07C374,-103.36 374,-128.8 374,-128.8 374,-128.8 658.13,-128.8 658.13,-128.8"/>
<polygon fill="black" stroke="black" points="658.13,-132.3 668.13,-128.8 658.13,-125.3 658.13,-132.3"/>
</g>
<!-- UserModule -->
<g id="node12" class="node">
<title>UserModule</title>
<polygon fill="#8dd3c7" stroke="black" points="299.98,-84.8 296.98,-88.8 275.98,-88.8 272.98,-84.8 214.02,-84.8 214.02,-48.8 299.98,-48.8 299.98,-84.8"/>
<text text-anchor="middle" x="257" y="-62.6" font-family="Times,serif" font-size="14.00">UserModule</text>
</g>
<!-- UserModule&#45;&gt;ModernLayoutModule -->
<g id="edge11" class="edge">
<title>UserModule&#45;&gt;ModernLayoutModule</title>
<path fill="none" stroke="black" d="M257,-84.93C257,-105.37 257,-135.8 257,-135.8 257,-135.8 658.47,-135.8 658.47,-135.8"/>
<polygon fill="black" stroke="black" points="658.47,-139.3 668.47,-135.8 658.47,-132.3 658.47,-139.3"/>
</g>
</g>
</svg>
