<?xml version="1.0" encoding="UTF-8" standalone="no"?>
<!DOCTYPE svg PUBLIC "-//W3C//DTD SVG 1.1//EN"
 "http://www.w3.org/Graphics/SVG/1.1/DTD/svg11.dtd">
<!-- Generated by graphviz version 2.47.3 (20210619.1520)
 -->
<!-- Title: dependencies Pages: 1 -->
<svg width="286pt" height="247pt"
 viewBox="0.00 0.00 286.00 246.80" xmlns="http://www.w3.org/2000/svg" xmlns:xlink="http://www.w3.org/1999/xlink">
<g id="graph0" class="graph" transform="scale(1 1) rotate(0) translate(4 242.8)">
<title>dependencies</title>
<polygon fill="white" stroke="transparent" points="-4,4 -4,-242.8 282,-242.8 282,4 -4,4"/>
<text text-anchor="middle" x="139" y="-8.2" font-family="sans-serif" font-size="14.00">dependencies</text>
<g id="clust1" class="cluster">
<title>cluster_UserModule</title>
<polygon fill="none" stroke="black" stroke-dasharray="1,5" points="8,-32.8 8,-230.8 270,-230.8 270,-32.8 8,-32.8"/>
</g>
<g id="clust4" class="cluster">
<title>cluster_UserModule_imports</title>
<polygon fill="none" stroke="black" points="148,-40.8 148,-92.8 262,-92.8 262,-40.8 148,-40.8"/>
</g>
<g id="clust5" class="cluster">
<title>cluster_UserModule_exports</title>
<polygon fill="none" stroke="black" points="75,-170.8 75,-222.8 203,-222.8 203,-170.8 75,-170.8"/>
</g>
<g id="clust2" class="cluster">
<title>cluster_UserModule_declarations</title>
<polygon fill="none" stroke="black" points="16,-40.8 16,-92.8 140,-92.8 140,-40.8 16,-40.8"/>
</g>
<!-- UserComponent -->
<g id="node1" class="node">
<title>UserComponent</title>
<polygon fill="#ffffb3" stroke="black" points="131.76,-84.8 24.24,-84.8 24.24,-48.8 131.76,-48.8 131.76,-84.8"/>
<text text-anchor="middle" x="78" y="-62.6" font-family="Times,serif" font-size="14.00">UserComponent</text>
</g>
<!-- UserModule -->
<g id="node2" class="node">
<title>UserModule</title>
<polygon fill="#8dd3c7" stroke="black" points="181.98,-149.8 178.98,-153.8 157.98,-153.8 154.98,-149.8 96.02,-149.8 96.02,-113.8 181.98,-113.8 181.98,-149.8"/>
<text text-anchor="middle" x="139" y="-127.6" font-family="Times,serif" font-size="14.00">UserModule</text>
</g>
<!-- UserComponent&#45;&gt;UserModule -->
<g id="edge1" class="edge">
<title>UserComponent&#45;&gt;UserModule</title>
<path fill="none" stroke="black" d="M113.95,-84.91C113.95,-84.91 113.95,-103.79 113.95,-103.79"/>
<polygon fill="black" stroke="black" points="110.45,-103.79 113.95,-113.79 117.45,-103.79 110.45,-103.79"/>
</g>
<!-- UserComponent  -->
<g id="node4" class="node">
<title>UserComponent </title>
<polygon fill="#fb8072" stroke="black" points="194.76,-214.8 83.24,-214.8 83.24,-178.8 194.76,-178.8 194.76,-214.8"/>
<text text-anchor="middle" x="139" y="-192.6" font-family="Times,serif" font-size="14.00">UserComponent </text>
</g>
<!-- UserModule&#45;&gt;UserComponent  -->
<g id="edge3" class="edge">
<title>UserModule&#45;&gt;UserComponent </title>
<path fill="none" stroke="black" stroke-dasharray="5,2" d="M139,-149.91C139,-149.91 139,-168.79 139,-168.79"/>
<polygon fill="black" stroke="black" points="135.5,-168.79 139,-178.79 142.5,-168.79 135.5,-168.79"/>
</g>
<!-- SharedModule -->
<g id="node3" class="node">
<title>SharedModule</title>
<polygon fill="#8dd3c7" stroke="black" points="254.42,-84.8 251.42,-88.8 230.42,-88.8 227.42,-84.8 155.58,-84.8 155.58,-48.8 254.42,-48.8 254.42,-84.8"/>
<text text-anchor="middle" x="205" y="-62.6" font-family="Times,serif" font-size="14.00">SharedModule</text>
</g>
<!-- SharedModule&#45;&gt;UserModule -->
<g id="edge2" class="edge">
<title>SharedModule&#45;&gt;UserModule</title>
<path fill="none" stroke="black" d="M168.89,-84.91C168.89,-84.91 168.89,-103.79 168.89,-103.79"/>
<polygon fill="black" stroke="black" points="165.39,-103.79 168.89,-113.79 172.39,-103.79 165.39,-103.79"/>
</g>
</g>
</svg>
