<?xml version="1.0" encoding="UTF-8" standalone="no"?>
<!DOCTYPE svg PUBLIC "-//W3C//DTD SVG 1.1//EN"
 "http://www.w3.org/Graphics/SVG/1.1/DTD/svg11.dtd">
<!-- Generated by graphviz version 2.47.3 (20210619.1520)
 -->
<!-- Title: dependencies Pages: 1 -->
<svg width="464pt" height="174pt"
 viewBox="0.00 0.00 464.00 173.80" xmlns="http://www.w3.org/2000/svg" xmlns:xlink="http://www.w3.org/1999/xlink">
<g id="graph0" class="graph" transform="scale(1 1) rotate(0) translate(4 169.8)">
<title>dependencies</title>
<polygon fill="white" stroke="transparent" points="-4,4 -4,-169.8 460,-169.8 460,4 -4,4"/>
<text text-anchor="middle" x="228" y="-8.2" font-family="sans-serif" font-size="14.00">dependencies</text>
<g id="clust1" class="cluster">
<title>cluster_PricingTableModule</title>
<polygon fill="none" stroke="black" stroke-dasharray="1,5" points="8,-32.8 8,-157.8 448,-157.8 448,-32.8 8,-32.8"/>
</g>
<g id="clust2" class="cluster">
<title>cluster_PricingTableModule_declarations</title>
<polygon fill="none" stroke="black" points="270,-40.8 270,-92.8 440,-92.8 440,-40.8 270,-40.8"/>
</g>
<g id="clust4" class="cluster">
<title>cluster_PricingTableModule_imports</title>
<polygon fill="none" stroke="black" points="16,-40.8 16,-92.8 262,-92.8 262,-40.8 16,-40.8"/>
</g>
<!-- PricingTableComponent -->
<g id="node1" class="node">
<title>PricingTableComponent</title>
<polygon fill="#ffffb3" stroke="black" points="431.64,-84.8 278.36,-84.8 278.36,-48.8 431.64,-48.8 431.64,-84.8"/>
<text text-anchor="middle" x="355" y="-62.6" font-family="Times,serif" font-size="14.00">PricingTableComponent</text>
</g>
<!-- PricingTableModule -->
<g id="node2" class="node">
<title>PricingTableModule</title>
<polygon fill="#8dd3c7" stroke="black" points="262.86,-149.8 259.86,-153.8 238.86,-153.8 235.86,-149.8 131.14,-149.8 131.14,-113.8 262.86,-113.8 262.86,-149.8"/>
<text text-anchor="middle" x="197" y="-127.6" font-family="Times,serif" font-size="14.00">PricingTableModule</text>
</g>
<!-- PricingTableComponent&#45;&gt;PricingTableModule -->
<g id="edge1" class="edge">
<title>PricingTableComponent&#45;&gt;PricingTableModule</title>
<path fill="none" stroke="black" d="M278.31,-66.8C266.57,-66.8 258.27,-66.8 258.27,-66.8 258.27,-66.8 258.27,-103.69 258.27,-103.69"/>
<polygon fill="black" stroke="black" points="254.77,-103.69 258.27,-113.69 261.77,-103.69 254.77,-103.69"/>
</g>
<!-- FuseCardModule -->
<g id="node3" class="node">
<title>FuseCardModule</title>
<polygon fill="#8dd3c7" stroke="black" points="253.7,-84.8 250.7,-88.8 229.7,-88.8 226.7,-84.8 140.3,-84.8 140.3,-48.8 253.7,-48.8 253.7,-84.8"/>
<text text-anchor="middle" x="197" y="-62.6" font-family="Times,serif" font-size="14.00">FuseCardModule</text>
</g>
<!-- FuseCardModule&#45;&gt;PricingTableModule -->
<g id="edge2" class="edge">
<title>FuseCardModule&#45;&gt;PricingTableModule</title>
<path fill="none" stroke="black" d="M197,-84.91C197,-84.91 197,-103.79 197,-103.79"/>
<polygon fill="black" stroke="black" points="193.5,-103.79 197,-113.79 200.5,-103.79 193.5,-103.79"/>
</g>
<!-- SharedModule -->
<g id="node4" class="node">
<title>SharedModule</title>
<polygon fill="#8dd3c7" stroke="black" points="122.42,-84.8 119.42,-88.8 98.42,-88.8 95.42,-84.8 23.58,-84.8 23.58,-48.8 122.42,-48.8 122.42,-84.8"/>
<text text-anchor="middle" x="73" y="-62.6" font-family="Times,serif" font-size="14.00">SharedModule</text>
</g>
<!-- SharedModule&#45;&gt;PricingTableModule -->
<g id="edge3" class="edge">
<title>SharedModule&#45;&gt;PricingTableModule</title>
<path fill="none" stroke="black" d="M122.43,-66.8C130.2,-66.8 135.73,-66.8 135.73,-66.8 135.73,-66.8 135.73,-103.69 135.73,-103.69"/>
<polygon fill="black" stroke="black" points="132.23,-103.69 135.73,-113.69 139.23,-103.69 132.23,-103.69"/>
</g>
</g>
</svg>
