<?xml version="1.0" encoding="UTF-8" standalone="no"?>
<!DOCTYPE svg PUBLIC "-//W3C//DTD SVG 1.1//EN"
 "http://www.w3.org/Graphics/SVG/1.1/DTD/svg11.dtd">
<!-- Generated by graphviz version 2.47.3 (20210619.1520)
 -->
<!-- Title: dependencies Pages: 1 -->
<svg width="338pt" height="174pt"
 viewBox="0.00 0.00 338.00 173.80" xmlns="http://www.w3.org/2000/svg" xmlns:xlink="http://www.w3.org/1999/xlink">
<g id="graph0" class="graph" transform="scale(1 1) rotate(0) translate(4 169.8)">
<title>dependencies</title>
<polygon fill="white" stroke="transparent" points="-4,4 -4,-169.8 334,-169.8 334,4 -4,4"/>
<text text-anchor="middle" x="165" y="-8.2" font-family="sans-serif" font-size="14.00">dependencies</text>
<g id="clust1" class="cluster">
<title>cluster_AuthModule</title>
<polygon fill="none" stroke="black" stroke-dasharray="1,5" points="8,-32.8 8,-157.8 322,-157.8 322,-32.8 8,-32.8"/>
</g>
<g id="clust6" class="cluster">
<title>cluster_AuthModule_providers</title>
<polygon fill="none" stroke="black" points="16,-40.8 16,-92.8 314,-92.8 314,-40.8 16,-40.8"/>
</g>
<!-- AuthInterceptor -->
<g id="node1" class="node">
<title>AuthInterceptor</title>
<ellipse fill="#fdb462" stroke="black" cx="233" cy="-66.8" rx="72.91" ry="18"/>
<text text-anchor="middle" x="233" y="-62.6" font-family="Times,serif" font-size="14.00">AuthInterceptor</text>
</g>
<!-- AuthModule -->
<g id="node3" class="node">
<title>AuthModule</title>
<polygon fill="#8dd3c7" stroke="black" points="201.55,-149.8 198.55,-153.8 177.55,-153.8 174.55,-149.8 114.45,-149.8 114.45,-113.8 201.55,-113.8 201.55,-149.8"/>
<text text-anchor="middle" x="158" y="-127.6" font-family="Times,serif" font-size="14.00">AuthModule</text>
</g>
<!-- AuthInterceptor&#45;&gt;AuthModule -->
<g id="edge1" class="edge">
<title>AuthInterceptor&#45;&gt;AuthModule</title>
<path fill="none" stroke="black" d="M181.03,-79.64C181.03,-79.64 181.03,-103.32 181.03,-103.32"/>
<polygon fill="black" stroke="black" points="177.53,-103.32 181.03,-113.32 184.53,-103.32 177.53,-103.32"/>
</g>
<!-- AuthService -->
<g id="node2" class="node">
<title>AuthService</title>
<ellipse fill="#fdb462" stroke="black" cx="83" cy="-66.8" rx="59.11" ry="18"/>
<text text-anchor="middle" x="83" y="-62.6" font-family="Times,serif" font-size="14.00">AuthService</text>
</g>
<!-- AuthService&#45;&gt;AuthModule -->
<g id="edge2" class="edge">
<title>AuthService&#45;&gt;AuthModule</title>
<path fill="none" stroke="black" d="M128.27,-78.72C128.27,-78.72 128.27,-103.57 128.27,-103.57"/>
<polygon fill="black" stroke="black" points="124.77,-103.57 128.27,-113.57 131.77,-103.57 124.77,-103.57"/>
</g>
</g>
</svg>
