<?xml version="1.0" encoding="UTF-8" standalone="no"?>
<!DOCTYPE svg PUBLIC "-//W3C//DTD SVG 1.1//EN"
 "http://www.w3.org/Graphics/SVG/1.1/DTD/svg11.dtd">
<!-- Generated by graphviz version 2.47.3 (20210619.1520)
 -->
<!-- Title: dependencies Pages: 1 -->
<svg width="206pt" height="247pt"
 viewBox="0.00 0.00 206.00 246.80" xmlns="http://www.w3.org/2000/svg" xmlns:xlink="http://www.w3.org/1999/xlink">
<g id="graph0" class="graph" transform="scale(1 1) rotate(0) translate(4 242.8)">
<title>dependencies</title>
<polygon fill="white" stroke="transparent" points="-4,4 -4,-242.8 202,-242.8 202,4 -4,4"/>
<text text-anchor="middle" x="99" y="-8.2" font-family="sans-serif" font-size="14.00">dependencies</text>
<g id="clust1" class="cluster">
<title>cluster_FuseScrollbarModule</title>
<polygon fill="none" stroke="black" stroke-dasharray="1,5" points="8,-32.8 8,-230.8 190,-230.8 190,-32.8 8,-32.8"/>
</g>
<g id="clust2" class="cluster">
<title>cluster_FuseScrollbarModule_declarations</title>
<polygon fill="none" stroke="black" points="18,-40.8 18,-92.8 180,-92.8 180,-40.8 18,-40.8"/>
</g>
<g id="clust5" class="cluster">
<title>cluster_FuseScrollbarModule_exports</title>
<polygon fill="none" stroke="black" points="16,-170.8 16,-222.8 182,-222.8 182,-170.8 16,-170.8"/>
</g>
<!-- FuseScrollbarDirective -->
<g id="node1" class="node">
<title>FuseScrollbarDirective</title>
<polygon fill="#ffffb3" stroke="black" points="171.84,-84.8 26.16,-84.8 26.16,-48.8 171.84,-48.8 171.84,-84.8"/>
<text text-anchor="middle" x="99" y="-62.6" font-family="Times,serif" font-size="14.00">FuseScrollbarDirective</text>
</g>
<!-- FuseScrollbarModule -->
<g id="node2" class="node">
<title>FuseScrollbarModule</title>
<polygon fill="#8dd3c7" stroke="black" points="167.81,-149.8 164.81,-153.8 143.81,-153.8 140.81,-149.8 30.19,-149.8 30.19,-113.8 167.81,-113.8 167.81,-149.8"/>
<text text-anchor="middle" x="99" y="-127.6" font-family="Times,serif" font-size="14.00">FuseScrollbarModule</text>
</g>
<!-- FuseScrollbarDirective&#45;&gt;FuseScrollbarModule -->
<g id="edge1" class="edge">
<title>FuseScrollbarDirective&#45;&gt;FuseScrollbarModule</title>
<path fill="none" stroke="black" d="M99,-84.91C99,-84.91 99,-103.79 99,-103.79"/>
<polygon fill="black" stroke="black" points="95.5,-103.79 99,-113.79 102.5,-103.79 95.5,-103.79"/>
</g>
<!-- FuseScrollbarDirective  -->
<g id="node3" class="node">
<title>FuseScrollbarDirective </title>
<polygon fill="#fb8072" stroke="black" points="173.84,-214.8 24.16,-214.8 24.16,-178.8 173.84,-178.8 173.84,-214.8"/>
<text text-anchor="middle" x="99" y="-192.6" font-family="Times,serif" font-size="14.00">FuseScrollbarDirective </text>
</g>
<!-- FuseScrollbarModule&#45;&gt;FuseScrollbarDirective  -->
<g id="edge2" class="edge">
<title>FuseScrollbarModule&#45;&gt;FuseScrollbarDirective </title>
<path fill="none" stroke="black" stroke-dasharray="5,2" d="M99,-149.91C99,-149.91 99,-168.79 99,-168.79"/>
<polygon fill="black" stroke="black" points="95.5,-168.79 99,-178.79 102.5,-168.79 95.5,-168.79"/>
</g>
</g>
</svg>
