<?xml version="1.0" encoding="UTF-8" standalone="no"?>
<!DOCTYPE svg PUBLIC "-//W3C//DTD SVG 1.1//EN"
 "http://www.w3.org/Graphics/SVG/1.1/DTD/svg11.dtd">
<!-- Generated by graphviz version 2.47.3 (20210619.1520)
 -->
<!-- Title: dependencies Pages: 1 -->
<svg width="430pt" height="174pt"
 viewBox="0.00 0.00 430.00 173.80" xmlns="http://www.w3.org/2000/svg" xmlns:xlink="http://www.w3.org/1999/xlink">
<g id="graph0" class="graph" transform="scale(1 1) rotate(0) translate(4 169.8)">
<title>dependencies</title>
<polygon fill="white" stroke="transparent" points="-4,4 -4,-169.8 426,-169.8 426,4 -4,4"/>
<text text-anchor="middle" x="211" y="-8.2" font-family="sans-serif" font-size="14.00">dependencies</text>
<g id="clust1" class="cluster">
<title>cluster_ProfileModule</title>
<polygon fill="none" stroke="black" stroke-dasharray="1,5" points="8,-32.8 8,-157.8 414,-157.8 414,-32.8 8,-32.8"/>
</g>
<g id="clust2" class="cluster">
<title>cluster_ProfileModule_declarations</title>
<polygon fill="none" stroke="black" points="270,-40.8 270,-92.8 406,-92.8 406,-40.8 270,-40.8"/>
</g>
<g id="clust4" class="cluster">
<title>cluster_ProfileModule_imports</title>
<polygon fill="none" stroke="black" points="16,-40.8 16,-92.8 262,-92.8 262,-40.8 16,-40.8"/>
</g>
<!-- ProfileComponent -->
<g id="node1" class="node">
<title>ProfileComponent</title>
<polygon fill="#ffffb3" stroke="black" points="397.93,-84.8 278.07,-84.8 278.07,-48.8 397.93,-48.8 397.93,-84.8"/>
<text text-anchor="middle" x="338" y="-62.6" font-family="Times,serif" font-size="14.00">ProfileComponent</text>
</g>
<!-- ProfileModule -->
<g id="node2" class="node">
<title>ProfileModule</title>
<polygon fill="#8dd3c7" stroke="black" points="245.65,-149.8 242.65,-153.8 221.65,-153.8 218.65,-149.8 148.35,-149.8 148.35,-113.8 245.65,-113.8 245.65,-149.8"/>
<text text-anchor="middle" x="197" y="-127.6" font-family="Times,serif" font-size="14.00">ProfileModule</text>
</g>
<!-- ProfileComponent&#45;&gt;ProfileModule -->
<g id="edge1" class="edge">
<title>ProfileComponent&#45;&gt;ProfileModule</title>
<path fill="none" stroke="black" d="M338,-84.91C338,-104.14 338,-131.8 338,-131.8 338,-131.8 255.92,-131.8 255.92,-131.8"/>
<polygon fill="black" stroke="black" points="255.92,-128.3 245.92,-131.8 255.92,-135.3 255.92,-128.3"/>
</g>
<!-- FuseCardModule -->
<g id="node3" class="node">
<title>FuseCardModule</title>
<polygon fill="#8dd3c7" stroke="black" points="253.7,-84.8 250.7,-88.8 229.7,-88.8 226.7,-84.8 140.3,-84.8 140.3,-48.8 253.7,-48.8 253.7,-84.8"/>
<text text-anchor="middle" x="197" y="-62.6" font-family="Times,serif" font-size="14.00">FuseCardModule</text>
</g>
<!-- FuseCardModule&#45;&gt;ProfileModule -->
<g id="edge2" class="edge">
<title>FuseCardModule&#45;&gt;ProfileModule</title>
<path fill="none" stroke="black" d="M197,-84.91C197,-84.91 197,-103.79 197,-103.79"/>
<polygon fill="black" stroke="black" points="193.5,-103.79 197,-113.79 200.5,-103.79 193.5,-103.79"/>
</g>
<!-- SharedModule -->
<g id="node4" class="node">
<title>SharedModule</title>
<polygon fill="#8dd3c7" stroke="black" points="122.42,-84.8 119.42,-88.8 98.42,-88.8 95.42,-84.8 23.58,-84.8 23.58,-48.8 122.42,-48.8 122.42,-84.8"/>
<text text-anchor="middle" x="73" y="-62.6" font-family="Times,serif" font-size="14.00">SharedModule</text>
</g>
<!-- SharedModule&#45;&gt;ProfileModule -->
<g id="edge3" class="edge">
<title>SharedModule&#45;&gt;ProfileModule</title>
<path fill="none" stroke="black" d="M73,-84.91C73,-104.14 73,-131.8 73,-131.8 73,-131.8 138.35,-131.8 138.35,-131.8"/>
<polygon fill="black" stroke="black" points="138.35,-135.3 148.35,-131.8 138.35,-128.3 138.35,-135.3"/>
</g>
</g>
</svg>
