<?xml version="1.0" encoding="UTF-8" standalone="no"?>
<!DOCTYPE svg PUBLIC "-//W3C//DTD SVG 1.1//EN"
 "http://www.w3.org/Graphics/SVG/1.1/DTD/svg11.dtd">
<!-- Generated by graphviz version 2.47.3 (20210619.1520)
 -->
<!-- Title: dependencies Pages: 1 -->
<svg width="1669pt" height="174pt"
 viewBox="0.00 0.00 1669.00 173.80" xmlns="http://www.w3.org/2000/svg" xmlns:xlink="http://www.w3.org/1999/xlink">
<g id="graph0" class="graph" transform="scale(1 1) rotate(0) translate(4 169.8)">
<title>dependencies</title>
<polygon fill="white" stroke="transparent" points="-4,4 -4,-169.8 1665,-169.8 1665,4 -4,4"/>
<text text-anchor="middle" x="830.5" y="-8.2" font-family="sans-serif" font-size="14.00">dependencies</text>
<g id="clust1" class="cluster">
<title>cluster_ScrumboardModule</title>
<polygon fill="none" stroke="black" stroke-dasharray="1,5" points="8,-32.8 8,-157.8 1653,-157.8 1653,-32.8 8,-32.8"/>
</g>
<g id="clust10" class="cluster">
<title>cluster_ScrumboardModule_imports</title>
<polygon fill="none" stroke="black" points="1531,-40.8 1531,-92.8 1645,-92.8 1645,-40.8 1531,-40.8"/>
</g>
<g id="clust2" class="cluster">
<title>cluster_ScrumboardModule_declarations</title>
<polygon fill="none" stroke="black" points="16,-40.8 16,-92.8 1523,-92.8 1523,-40.8 16,-40.8"/>
</g>
<!-- ScrumboardBoardAddCardComponent -->
<g id="node1" class="node">
<title>ScrumboardBoardAddCardComponent</title>
<polygon fill="#ffffb3" stroke="black" points="1514.79,-84.8 1279.21,-84.8 1279.21,-48.8 1514.79,-48.8 1514.79,-84.8"/>
<text text-anchor="middle" x="1397" y="-62.6" font-family="Times,serif" font-size="14.00">ScrumboardBoardAddCardComponent</text>
</g>
<!-- ScrumboardModule -->
<g id="node8" class="node">
<title>ScrumboardModule</title>
<polygon fill="#8dd3c7" stroke="black" points="881.97,-149.8 878.97,-153.8 857.97,-153.8 854.97,-149.8 754.03,-149.8 754.03,-113.8 881.97,-113.8 881.97,-149.8"/>
<text text-anchor="middle" x="818" y="-127.6" font-family="Times,serif" font-size="14.00">ScrumboardModule</text>
</g>
<!-- ScrumboardBoardAddCardComponent&#45;&gt;ScrumboardModule -->
<g id="edge1" class="edge">
<title>ScrumboardBoardAddCardComponent&#45;&gt;ScrumboardModule</title>
<path fill="none" stroke="black" d="M1397,-84.91C1397,-104.14 1397,-131.8 1397,-131.8 1397,-131.8 892.18,-131.8 892.18,-131.8"/>
<polygon fill="black" stroke="black" points="892.18,-128.3 882.18,-131.8 892.18,-135.3 892.18,-128.3"/>
</g>
<!-- ScrumboardBoardAddListComponent -->
<g id="node2" class="node">
<title>ScrumboardBoardAddListComponent</title>
<polygon fill="#ffffb3" stroke="black" points="1260.85,-84.8 1031.15,-84.8 1031.15,-48.8 1260.85,-48.8 1260.85,-84.8"/>
<text text-anchor="middle" x="1146" y="-62.6" font-family="Times,serif" font-size="14.00">ScrumboardBoardAddListComponent</text>
</g>
<!-- ScrumboardBoardAddListComponent&#45;&gt;ScrumboardModule -->
<g id="edge2" class="edge">
<title>ScrumboardBoardAddListComponent&#45;&gt;ScrumboardModule</title>
<path fill="none" stroke="black" d="M1146,-84.83C1146,-101.2 1146,-122.8 1146,-122.8 1146,-122.8 892.02,-122.8 892.02,-122.8"/>
<polygon fill="black" stroke="black" points="892.02,-119.3 882.02,-122.8 892.02,-126.3 892.02,-119.3"/>
</g>
<!-- ScrumboardBoardComponent -->
<g id="node3" class="node">
<title>ScrumboardBoardComponent</title>
<polygon fill="#ffffb3" stroke="black" points="1012.97,-84.8 829.03,-84.8 829.03,-48.8 1012.97,-48.8 1012.97,-84.8"/>
<text text-anchor="middle" x="921" y="-62.6" font-family="Times,serif" font-size="14.00">ScrumboardBoardComponent</text>
</g>
<!-- ScrumboardBoardComponent&#45;&gt;ScrumboardModule -->
<g id="edge3" class="edge">
<title>ScrumboardBoardComponent&#45;&gt;ScrumboardModule</title>
<path fill="none" stroke="black" d="M855.5,-84.91C855.5,-84.91 855.5,-103.79 855.5,-103.79"/>
<polygon fill="black" stroke="black" points="852,-103.79 855.5,-113.79 859,-103.79 852,-103.79"/>
</g>
<!-- ScrumboardBoardsComponent -->
<g id="node4" class="node">
<title>ScrumboardBoardsComponent</title>
<polygon fill="#ffffb3" stroke="black" points="810.91,-84.8 621.09,-84.8 621.09,-48.8 810.91,-48.8 810.91,-84.8"/>
<text text-anchor="middle" x="716" y="-62.6" font-family="Times,serif" font-size="14.00">ScrumboardBoardsComponent</text>
</g>
<!-- ScrumboardBoardsComponent&#45;&gt;ScrumboardModule -->
<g id="edge4" class="edge">
<title>ScrumboardBoardsComponent&#45;&gt;ScrumboardModule</title>
<path fill="none" stroke="black" d="M782.36,-84.91C782.36,-84.91 782.36,-103.79 782.36,-103.79"/>
<polygon fill="black" stroke="black" points="778.86,-103.79 782.36,-113.79 785.86,-103.79 778.86,-103.79"/>
</g>
<!-- ScrumboardCardComponent -->
<g id="node5" class="node">
<title>ScrumboardCardComponent</title>
<polygon fill="#ffffb3" stroke="black" points="603.47,-84.8 426.53,-84.8 426.53,-48.8 603.47,-48.8 603.47,-84.8"/>
<text text-anchor="middle" x="515" y="-62.6" font-family="Times,serif" font-size="14.00">ScrumboardCardComponent</text>
</g>
<!-- ScrumboardCardComponent&#45;&gt;ScrumboardModule -->
<g id="edge5" class="edge">
<title>ScrumboardCardComponent&#45;&gt;ScrumboardModule</title>
<path fill="none" stroke="black" d="M515,-84.83C515,-101.2 515,-122.8 515,-122.8 515,-122.8 743.74,-122.8 743.74,-122.8"/>
<polygon fill="black" stroke="black" points="743.74,-126.3 753.74,-122.8 743.74,-119.3 743.74,-126.3"/>
</g>
<!-- ScrumboardCardDetailsComponent -->
<g id="node6" class="node">
<title>ScrumboardCardDetailsComponent</title>
<polygon fill="#ffffb3" stroke="black" points="408.12,-84.8 191.88,-84.8 191.88,-48.8 408.12,-48.8 408.12,-84.8"/>
<text text-anchor="middle" x="300" y="-62.6" font-family="Times,serif" font-size="14.00">ScrumboardCardDetailsComponent</text>
</g>
<!-- ScrumboardCardDetailsComponent&#45;&gt;ScrumboardModule -->
<g id="edge6" class="edge">
<title>ScrumboardCardDetailsComponent&#45;&gt;ScrumboardModule</title>
<path fill="none" stroke="black" d="M300,-84.91C300,-104.14 300,-131.8 300,-131.8 300,-131.8 743.96,-131.8 743.96,-131.8"/>
<polygon fill="black" stroke="black" points="743.96,-135.3 753.96,-131.8 743.96,-128.3 743.96,-135.3"/>
</g>
<!-- ScrumboardComponent -->
<g id="node7" class="node">
<title>ScrumboardComponent</title>
<polygon fill="#ffffb3" stroke="black" points="173.76,-84.8 24.24,-84.8 24.24,-48.8 173.76,-48.8 173.76,-84.8"/>
<text text-anchor="middle" x="99" y="-62.6" font-family="Times,serif" font-size="14.00">ScrumboardComponent</text>
</g>
<!-- ScrumboardComponent&#45;&gt;ScrumboardModule -->
<g id="edge7" class="edge">
<title>ScrumboardComponent&#45;&gt;ScrumboardModule</title>
<path fill="none" stroke="black" d="M99,-85.09C99,-107.01 99,-140.8 99,-140.8 99,-140.8 743.88,-140.8 743.88,-140.8"/>
<polygon fill="black" stroke="black" points="743.88,-144.3 753.88,-140.8 743.88,-137.3 743.88,-144.3"/>
</g>
<!-- SharedModule -->
<g id="node9" class="node">
<title>SharedModule</title>
<polygon fill="#8dd3c7" stroke="black" points="1637.42,-84.8 1634.42,-88.8 1613.42,-88.8 1610.42,-84.8 1538.58,-84.8 1538.58,-48.8 1637.42,-48.8 1637.42,-84.8"/>
<text text-anchor="middle" x="1588" y="-62.6" font-family="Times,serif" font-size="14.00">SharedModule</text>
</g>
<!-- SharedModule&#45;&gt;ScrumboardModule -->
<g id="edge8" class="edge">
<title>SharedModule&#45;&gt;ScrumboardModule</title>
<path fill="none" stroke="black" d="M1588,-85.09C1588,-107.01 1588,-140.8 1588,-140.8 1588,-140.8 892,-140.8 892,-140.8"/>
<polygon fill="black" stroke="black" points="892,-137.3 882,-140.8 892,-144.3 892,-137.3"/>
</g>
</g>
</svg>
