<?xml version="1.0" encoding="UTF-8" standalone="no"?>
<!DOCTYPE svg PUBLIC "-//W3C//DTD SVG 1.1//EN"
 "http://www.w3.org/Graphics/SVG/1.1/DTD/svg11.dtd">
<!-- Generated by graphviz version 2.47.3 (20210619.1520)
 -->
<!-- Title: dependencies Pages: 1 -->
<svg width="1572pt" height="247pt"
 viewBox="0.00 0.00 1572.00 246.80" xmlns="http://www.w3.org/2000/svg" xmlns:xlink="http://www.w3.org/1999/xlink">
<g id="graph0" class="graph" transform="scale(1 1) rotate(0) translate(4 242.8)">
<title>dependencies</title>
<polygon fill="white" stroke="transparent" points="-4,4 -4,-242.8 1568,-242.8 1568,4 -4,4"/>
<text text-anchor="middle" x="782" y="-8.2" font-family="sans-serif" font-size="14.00">dependencies</text>
<g id="clust1" class="cluster">
<title>cluster_ClassyLayoutModule</title>
<polygon fill="none" stroke="black" stroke-dasharray="1,5" points="8,-32.8 8,-230.8 1556,-230.8 1556,-32.8 8,-32.8"/>
</g>
<g id="clust5" class="cluster">
<title>cluster_ClassyLayoutModule_exports</title>
<polygon fill="none" stroke="black" points="605,-170.8 605,-222.8 783,-222.8 783,-170.8 605,-170.8"/>
</g>
<g id="clust2" class="cluster">
<title>cluster_ClassyLayoutModule_declarations</title>
<polygon fill="none" stroke="black" points="1374,-40.8 1374,-92.8 1548,-92.8 1548,-40.8 1374,-40.8"/>
</g>
<g id="clust4" class="cluster">
<title>cluster_ClassyLayoutModule_imports</title>
<polygon fill="none" stroke="black" points="16,-40.8 16,-92.8 1366,-92.8 1366,-40.8 16,-40.8"/>
</g>
<!-- ClassyLayoutComponent -->
<g id="node1" class="node">
<title>ClassyLayoutComponent</title>
<polygon fill="#ffffb3" stroke="black" points="1540.32,-84.8 1381.68,-84.8 1381.68,-48.8 1540.32,-48.8 1540.32,-84.8"/>
<text text-anchor="middle" x="1461" y="-62.6" font-family="Times,serif" font-size="14.00">ClassyLayoutComponent</text>
</g>
<!-- ClassyLayoutModule -->
<g id="node2" class="node">
<title>ClassyLayoutModule</title>
<polygon fill="#8dd3c7" stroke="black" points="762.04,-149.8 759.04,-153.8 738.04,-153.8 735.04,-149.8 625.96,-149.8 625.96,-113.8 762.04,-113.8 762.04,-149.8"/>
<text text-anchor="middle" x="694" y="-127.6" font-family="Times,serif" font-size="14.00">ClassyLayoutModule</text>
</g>
<!-- ClassyLayoutComponent&#45;&gt;ClassyLayoutModule -->
<g id="edge1" class="edge">
<title>ClassyLayoutComponent&#45;&gt;ClassyLayoutModule</title>
<path fill="none" stroke="black" d="M1461,-85.05C1461,-107.82 1461,-143.8 1461,-143.8 1461,-143.8 772.07,-143.8 772.07,-143.8"/>
<polygon fill="black" stroke="black" points="772.07,-140.3 762.07,-143.8 772.07,-147.3 772.07,-140.3"/>
</g>
<!-- ClassyLayoutComponent  -->
<g id="node13" class="node">
<title>ClassyLayoutComponent </title>
<polygon fill="#fb8072" stroke="black" points="774.82,-214.8 613.18,-214.8 613.18,-178.8 774.82,-178.8 774.82,-214.8"/>
<text text-anchor="middle" x="694" y="-192.6" font-family="Times,serif" font-size="14.00">ClassyLayoutComponent </text>
</g>
<!-- ClassyLayoutModule&#45;&gt;ClassyLayoutComponent  -->
<g id="edge12" class="edge">
<title>ClassyLayoutModule&#45;&gt;ClassyLayoutComponent </title>
<path fill="none" stroke="black" stroke-dasharray="5,2" d="M694,-149.91C694,-149.91 694,-168.79 694,-168.79"/>
<polygon fill="black" stroke="black" points="690.5,-168.79 694,-178.79 697.5,-168.79 690.5,-168.79"/>
</g>
<!-- FuseFullscreenModule -->
<g id="node3" class="node">
<title>FuseFullscreenModule</title>
<polygon fill="#8dd3c7" stroke="black" points="1358.3,-84.8 1355.3,-88.8 1334.3,-88.8 1331.3,-84.8 1213.7,-84.8 1213.7,-48.8 1358.3,-48.8 1358.3,-84.8"/>
<text text-anchor="middle" x="1286" y="-62.6" font-family="Times,serif" font-size="14.00">FuseFullscreenModule</text>
</g>
<!-- FuseFullscreenModule&#45;&gt;ClassyLayoutModule -->
<g id="edge2" class="edge">
<title>FuseFullscreenModule&#45;&gt;ClassyLayoutModule</title>
<path fill="none" stroke="black" d="M1286,-85.08C1286,-106.12 1286,-137.8 1286,-137.8 1286,-137.8 772.2,-137.8 772.2,-137.8"/>
<polygon fill="black" stroke="black" points="772.2,-134.3 762.2,-137.8 772.2,-141.3 772.2,-134.3"/>
</g>
<!-- FuseNavigationModule -->
<g id="node4" class="node">
<title>FuseNavigationModule</title>
<polygon fill="#8dd3c7" stroke="black" points="1196.2,-84.8 1193.2,-88.8 1172.2,-88.8 1169.2,-84.8 1047.8,-84.8 1047.8,-48.8 1196.2,-48.8 1196.2,-84.8"/>
<text text-anchor="middle" x="1122" y="-62.6" font-family="Times,serif" font-size="14.00">FuseNavigationModule</text>
</g>
<!-- FuseNavigationModule&#45;&gt;ClassyLayoutModule -->
<g id="edge3" class="edge">
<title>FuseNavigationModule&#45;&gt;ClassyLayoutModule</title>
<path fill="none" stroke="black" d="M1122,-84.91C1122,-104.14 1122,-131.8 1122,-131.8 1122,-131.8 772.29,-131.8 772.29,-131.8"/>
<polygon fill="black" stroke="black" points="772.29,-128.3 762.29,-131.8 772.29,-135.3 772.29,-128.3"/>
</g>
<!-- LanguagesModule -->
<g id="node5" class="node">
<title>LanguagesModule</title>
<polygon fill="#8dd3c7" stroke="black" points="1030.19,-84.8 1027.19,-88.8 1006.19,-88.8 1003.19,-84.8 909.81,-84.8 909.81,-48.8 1030.19,-48.8 1030.19,-84.8"/>
<text text-anchor="middle" x="970" y="-62.6" font-family="Times,serif" font-size="14.00">LanguagesModule</text>
</g>
<!-- LanguagesModule&#45;&gt;ClassyLayoutModule -->
<g id="edge4" class="edge">
<title>LanguagesModule&#45;&gt;ClassyLayoutModule</title>
<path fill="none" stroke="black" d="M970,-84.82C970,-102.17 970,-125.8 970,-125.8 970,-125.8 772.22,-125.8 772.22,-125.8"/>
<polygon fill="black" stroke="black" points="772.22,-122.3 762.22,-125.8 772.22,-129.3 772.22,-122.3"/>
</g>
<!-- MessagesModule -->
<g id="node6" class="node">
<title>MessagesModule</title>
<polygon fill="#8dd3c7" stroke="black" points="891.97,-84.8 888.97,-88.8 867.97,-88.8 864.97,-84.8 778.03,-84.8 778.03,-48.8 891.97,-48.8 891.97,-84.8"/>
<text text-anchor="middle" x="835" y="-62.6" font-family="Times,serif" font-size="14.00">MessagesModule</text>
</g>
<!-- MessagesModule&#45;&gt;ClassyLayoutModule -->
<g id="edge5" class="edge">
<title>MessagesModule&#45;&gt;ClassyLayoutModule</title>
<path fill="none" stroke="black" d="M835,-85.04C835,-100.37 835,-119.8 835,-119.8 835,-119.8 772.43,-119.8 772.43,-119.8"/>
<polygon fill="black" stroke="black" points="772.43,-116.3 762.43,-119.8 772.43,-123.3 772.43,-116.3"/>
</g>
<!-- NotificationsModule -->
<g id="node7" class="node">
<title>NotificationsModule</title>
<polygon fill="#8dd3c7" stroke="black" points="760.14,-84.8 757.14,-88.8 736.14,-88.8 733.14,-84.8 627.86,-84.8 627.86,-48.8 760.14,-48.8 760.14,-84.8"/>
<text text-anchor="middle" x="694" y="-62.6" font-family="Times,serif" font-size="14.00">NotificationsModule</text>
</g>
<!-- NotificationsModule&#45;&gt;ClassyLayoutModule -->
<g id="edge6" class="edge">
<title>NotificationsModule&#45;&gt;ClassyLayoutModule</title>
<path fill="none" stroke="black" d="M694,-84.91C694,-84.91 694,-103.79 694,-103.79"/>
<polygon fill="black" stroke="black" points="690.5,-103.79 694,-113.79 697.5,-103.79 690.5,-103.79"/>
</g>
<!-- QuickChatModule -->
<g id="node8" class="node">
<title>QuickChatModule</title>
<polygon fill="#8dd3c7" stroke="black" points="610.2,-84.8 607.2,-88.8 586.2,-88.8 583.2,-84.8 489.8,-84.8 489.8,-48.8 610.2,-48.8 610.2,-84.8"/>
<text text-anchor="middle" x="550" y="-62.6" font-family="Times,serif" font-size="14.00">QuickChatModule</text>
</g>
<!-- QuickChatModule&#45;&gt;ClassyLayoutModule -->
<g id="edge7" class="edge">
<title>QuickChatModule&#45;&gt;ClassyLayoutModule</title>
<path fill="none" stroke="black" d="M550,-85.04C550,-100.37 550,-119.8 550,-119.8 550,-119.8 615.8,-119.8 615.8,-119.8"/>
<polygon fill="black" stroke="black" points="615.8,-123.3 625.8,-119.8 615.8,-116.3 615.8,-123.3"/>
</g>
<!-- SearchModule -->
<g id="node9" class="node">
<title>SearchModule</title>
<polygon fill="#8dd3c7" stroke="black" points="471.64,-84.8 468.64,-88.8 447.64,-88.8 444.64,-84.8 374.36,-84.8 374.36,-48.8 471.64,-48.8 471.64,-84.8"/>
<text text-anchor="middle" x="423" y="-62.6" font-family="Times,serif" font-size="14.00">SearchModule</text>
</g>
<!-- SearchModule&#45;&gt;ClassyLayoutModule -->
<g id="edge8" class="edge">
<title>SearchModule&#45;&gt;ClassyLayoutModule</title>
<path fill="none" stroke="black" d="M423,-84.82C423,-102.17 423,-125.8 423,-125.8 423,-125.8 615.62,-125.8 615.62,-125.8"/>
<polygon fill="black" stroke="black" points="615.62,-129.3 625.62,-125.8 615.62,-122.3 615.62,-129.3"/>
</g>
<!-- SharedModule -->
<g id="node10" class="node">
<title>SharedModule</title>
<polygon fill="#8dd3c7" stroke="black" points="356.42,-84.8 353.42,-88.8 332.42,-88.8 329.42,-84.8 257.58,-84.8 257.58,-48.8 356.42,-48.8 356.42,-84.8"/>
<text text-anchor="middle" x="307" y="-62.6" font-family="Times,serif" font-size="14.00">SharedModule</text>
</g>
<!-- SharedModule&#45;&gt;ClassyLayoutModule -->
<g id="edge9" class="edge">
<title>SharedModule&#45;&gt;ClassyLayoutModule</title>
<path fill="none" stroke="black" d="M307,-84.91C307,-104.14 307,-131.8 307,-131.8 307,-131.8 615.7,-131.8 615.7,-131.8"/>
<polygon fill="black" stroke="black" points="615.7,-135.3 625.7,-131.8 615.7,-128.3 615.7,-135.3"/>
</g>
<!-- ShortcutsModule -->
<g id="node11" class="node">
<title>ShortcutsModule</title>
<polygon fill="#8dd3c7" stroke="black" points="240.43,-84.8 237.43,-88.8 216.43,-88.8 213.43,-84.8 127.57,-84.8 127.57,-48.8 240.43,-48.8 240.43,-84.8"/>
<text text-anchor="middle" x="184" y="-62.6" font-family="Times,serif" font-size="14.00">ShortcutsModule</text>
</g>
<!-- ShortcutsModule&#45;&gt;ClassyLayoutModule -->
<g id="edge10" class="edge">
<title>ShortcutsModule&#45;&gt;ClassyLayoutModule</title>
<path fill="none" stroke="black" d="M184,-85.08C184,-106.12 184,-137.8 184,-137.8 184,-137.8 615.75,-137.8 615.75,-137.8"/>
<polygon fill="black" stroke="black" points="615.75,-141.3 625.75,-137.8 615.75,-134.3 615.75,-141.3"/>
</g>
<!-- UserModule -->
<g id="node12" class="node">
<title>UserModule</title>
<polygon fill="#8dd3c7" stroke="black" points="109.98,-84.8 106.98,-88.8 85.98,-88.8 82.98,-84.8 24.02,-84.8 24.02,-48.8 109.98,-48.8 109.98,-84.8"/>
<text text-anchor="middle" x="67" y="-62.6" font-family="Times,serif" font-size="14.00">UserModule</text>
</g>
<!-- UserModule&#45;&gt;ClassyLayoutModule -->
<g id="edge11" class="edge">
<title>UserModule&#45;&gt;ClassyLayoutModule</title>
<path fill="none" stroke="black" d="M67,-85.05C67,-107.82 67,-143.8 67,-143.8 67,-143.8 615.71,-143.8 615.71,-143.8"/>
<polygon fill="black" stroke="black" points="615.71,-147.3 625.71,-143.8 615.71,-140.3 615.71,-147.3"/>
</g>
</g>
</svg>
