<?xml version="1.0" encoding="UTF-8" standalone="no"?>
<!DOCTYPE svg PUBLIC "-//W3C//DTD SVG 1.1//EN"
 "http://www.w3.org/Graphics/SVG/1.1/DTD/svg11.dtd">
<!-- Generated by graphviz version 2.47.3 (20210619.1520)
 -->
<!-- Title: dependencies Pages: 1 -->
<svg width="378pt" height="174pt"
 viewBox="0.00 0.00 378.00 173.80" xmlns="http://www.w3.org/2000/svg" xmlns:xlink="http://www.w3.org/1999/xlink">
<g id="graph0" class="graph" transform="scale(1 1) rotate(0) translate(4 169.8)">
<title>dependencies</title>
<polygon fill="white" stroke="transparent" points="-4,4 -4,-169.8 374,-169.8 374,4 -4,4"/>
<text text-anchor="middle" x="185" y="-8.2" font-family="sans-serif" font-size="14.00">dependencies</text>
<g id="clust1" class="cluster">
<title>cluster_MaterialComponentsModule</title>
<polygon fill="none" stroke="black" stroke-dasharray="1,5" points="8,-32.8 8,-157.8 362,-157.8 362,-32.8 8,-32.8"/>
</g>
<g id="clust2" class="cluster">
<title>cluster_MaterialComponentsModule_declarations</title>
<polygon fill="none" stroke="black" points="138,-40.8 138,-92.8 354,-92.8 354,-40.8 138,-40.8"/>
</g>
<g id="clust4" class="cluster">
<title>cluster_MaterialComponentsModule_imports</title>
<polygon fill="none" stroke="black" points="16,-40.8 16,-92.8 130,-92.8 130,-40.8 16,-40.8"/>
</g>
<!-- MaterialComponentsComponent -->
<g id="node1" class="node">
<title>MaterialComponentsComponent</title>
<polygon fill="#ffffb3" stroke="black" points="345.53,-84.8 146.47,-84.8 146.47,-48.8 345.53,-48.8 345.53,-84.8"/>
<text text-anchor="middle" x="246" y="-62.6" font-family="Times,serif" font-size="14.00">MaterialComponentsComponent</text>
</g>
<!-- MaterialComponentsModule -->
<g id="node2" class="node">
<title>MaterialComponentsModule</title>
<polygon fill="#8dd3c7" stroke="black" points="263.75,-149.8 260.75,-153.8 239.75,-153.8 236.75,-149.8 86.25,-149.8 86.25,-113.8 263.75,-113.8 263.75,-149.8"/>
<text text-anchor="middle" x="175" y="-127.6" font-family="Times,serif" font-size="14.00">MaterialComponentsModule</text>
</g>
<!-- MaterialComponentsComponent&#45;&gt;MaterialComponentsModule -->
<g id="edge1" class="edge">
<title>MaterialComponentsComponent&#45;&gt;MaterialComponentsModule</title>
<path fill="none" stroke="black" d="M205.05,-84.91C205.05,-84.91 205.05,-103.79 205.05,-103.79"/>
<polygon fill="black" stroke="black" points="201.55,-103.79 205.05,-113.79 208.55,-103.79 201.55,-103.79"/>
</g>
<!-- SharedModule -->
<g id="node3" class="node">
<title>SharedModule</title>
<polygon fill="#8dd3c7" stroke="black" points="122.42,-84.8 119.42,-88.8 98.42,-88.8 95.42,-84.8 23.58,-84.8 23.58,-48.8 122.42,-48.8 122.42,-84.8"/>
<text text-anchor="middle" x="73" y="-62.6" font-family="Times,serif" font-size="14.00">SharedModule</text>
</g>
<!-- SharedModule&#45;&gt;MaterialComponentsModule -->
<g id="edge2" class="edge">
<title>SharedModule&#45;&gt;MaterialComponentsModule</title>
<path fill="none" stroke="black" d="M104.17,-84.91C104.17,-84.91 104.17,-103.79 104.17,-103.79"/>
<polygon fill="black" stroke="black" points="100.67,-103.79 104.17,-113.79 107.67,-103.79 100.67,-103.79"/>
</g>
</g>
</svg>
