<?xml version="1.0" encoding="UTF-8" standalone="no"?>
<!DOCTYPE svg PUBLIC "-//W3C//DTD SVG 1.1//EN"
 "http://www.w3.org/Graphics/SVG/1.1/DTD/svg11.dtd">
<!-- Generated by graphviz version 2.47.3 (20210619.1520)
 -->
<!-- Title: dependencies Pages: 1 -->
<svg width="960pt" height="358pt"
 viewBox="0.00 0.00 960.00 358.39" xmlns="http://www.w3.org/2000/svg" xmlns:xlink="http://www.w3.org/1999/xlink">
<g id="graph0" class="graph" transform="scale(1 1) rotate(0) translate(4 354.39)">
<title>dependencies</title>
<polygon fill="white" stroke="transparent" points="-4,4 -4,-354.39 956,-354.39 956,4 -4,4"/>
<text text-anchor="middle" x="476" y="-8.2" font-family="sans-serif" font-size="14.00">dependencies</text>
<g id="clust1" class="cluster">
<title>cluster_FuseDateRangeModule</title>
<polygon fill="none" stroke="black" stroke-dasharray="1,5" points="8,-32.8 8,-342.39 944,-342.39 944,-32.8 8,-32.8"/>
</g>
<g id="clust2" class="cluster">
<title>cluster_FuseDateRangeModule_declarations</title>
<polygon fill="none" stroke="black" points="383,-152.39 383,-204.39 569,-204.39 569,-152.39 383,-152.39"/>
</g>
<g id="clust3" class="cluster">
<title>cluster_FuseDateRangeModule_FuseDateRangeComponent_providers</title>
<polygon fill="none" stroke="black" points="16,-40.8 16,-139.39 936,-139.39 936,-40.8 16,-40.8"/>
</g>
<g id="clust5" class="cluster">
<title>cluster_FuseDateRangeModule_exports</title>
<polygon fill="none" stroke="black" points="381,-282.39 381,-334.39 571,-334.39 571,-282.39 381,-282.39"/>
</g>
<!-- FuseDateRangeComponent -->
<g id="node1" class="node">
<title>FuseDateRangeComponent</title>
<polygon fill="#ffffb3" stroke="black" points="560.97,-196.39 391.03,-196.39 391.03,-160.39 560.97,-160.39 560.97,-196.39"/>
<text text-anchor="middle" x="476" y="-174.19" font-family="Times,serif" font-size="14.00">FuseDateRangeComponent</text>
</g>
<!-- FuseDateRangeModule -->
<g id="node2" class="node">
<title>FuseDateRangeModule</title>
<polygon fill="#8dd3c7" stroke="black" points="550.18,-261.39 547.18,-265.39 526.18,-265.39 523.18,-261.39 401.82,-261.39 401.82,-225.39 550.18,-225.39 550.18,-261.39"/>
<text text-anchor="middle" x="476" y="-239.19" font-family="Times,serif" font-size="14.00">FuseDateRangeModule</text>
</g>
<!-- FuseDateRangeComponent&#45;&gt;FuseDateRangeModule -->
<g id="edge1" class="edge">
<title>FuseDateRangeComponent&#45;&gt;FuseDateRangeModule</title>
<path fill="none" stroke="black" d="M476,-196.5C476,-196.5 476,-215.38 476,-215.38"/>
<polygon fill="black" stroke="black" points="472.5,-215.38 476,-225.38 479.5,-215.38 472.5,-215.38"/>
</g>
<!-- FuseDateRangeComponent  -->
<g id="node4" class="node">
<title>FuseDateRangeComponent </title>
<polygon fill="#fb8072" stroke="black" points="562.97,-326.39 389.03,-326.39 389.03,-290.39 562.97,-290.39 562.97,-326.39"/>
<text text-anchor="middle" x="476" y="-304.19" font-family="Times,serif" font-size="14.00">FuseDateRangeComponent </text>
</g>
<!-- FuseDateRangeModule&#45;&gt;FuseDateRangeComponent  -->
<g id="edge3" class="edge">
<title>FuseDateRangeModule&#45;&gt;FuseDateRangeComponent </title>
<path fill="none" stroke="black" stroke-dasharray="5,2" d="M476,-261.5C476,-261.5 476,-280.38 476,-280.38"/>
<polygon fill="black" stroke="black" points="472.5,-280.38 476,-290.38 479.5,-280.38 472.5,-280.38"/>
</g>
<!-- {
 &#160;&#160;&#160;provide: NG_VALUE_ACCESSOR, useExisting: forwardRef(() =&gt; FuseDateRangeComponent), multi: true
} -->
<g id="node3" class="node">
<title>{
 &#160;&#160;&#160;provide: NG_VALUE_ACCESSOR, useExisting: forwardRef(() =&gt; FuseDateRangeComponent), multi: true
}</title>
<ellipse fill="#fdb462" stroke="black" cx="476" cy="-90.1" rx="452.37" ry="41.09"/>
<text text-anchor="middle" x="476" y="-102.7" font-family="Times,serif" font-size="14.00">{</text>
<text text-anchor="middle" x="476" y="-85.9" font-family="Times,serif" font-size="14.00"> &#160;&#160;&#160;provide: NG_VALUE_ACCESSOR, useExisting: forwardRef(() =&gt; FuseDateRangeComponent), multi: true</text>
<text text-anchor="middle" x="476" y="-69.1" font-family="Times,serif" font-size="14.00">}</text>
</g>
<!-- {
 &#160;&#160;&#160;provide: NG_VALUE_ACCESSOR, useExisting: forwardRef(() =&gt; FuseDateRangeComponent), multi: true
}&#45;&gt;FuseDateRangeComponent -->
<g id="edge2" class="edge">
<title>{
 &#160;&#160;&#160;provide: NG_VALUE_ACCESSOR, useExisting: forwardRef(() =&gt; FuseDateRangeComponent), multi: true
}&#45;&gt;FuseDateRangeComponent</title>
<path fill="none" stroke="black" d="M476,-131.4C476,-131.4 476,-150.06 476,-150.06"/>
<polygon fill="black" stroke="black" points="472.5,-150.06 476,-160.06 479.5,-150.06 472.5,-150.06"/>
</g>
</g>
</svg>
