<?xml version="1.0" encoding="UTF-8" standalone="no"?>
<!DOCTYPE svg PUBLIC "-//W3C//DTD SVG 1.1//EN"
 "http://www.w3.org/Graphics/SVG/1.1/DTD/svg11.dtd">
<!-- Generated by graphviz version 2.47.3 (20210619.1520)
 -->
<!-- Title: dependencies Pages: 1 -->
<svg width="304pt" height="174pt"
 viewBox="0.00 0.00 304.00 173.80" xmlns="http://www.w3.org/2000/svg" xmlns:xlink="http://www.w3.org/1999/xlink">
<g id="graph0" class="graph" transform="scale(1 1) rotate(0) translate(4 169.8)">
<title>dependencies</title>
<polygon fill="white" stroke="transparent" points="-4,4 -4,-169.8 300,-169.8 300,4 -4,4"/>
<text text-anchor="middle" x="148" y="-8.2" font-family="sans-serif" font-size="14.00">dependencies</text>
<g id="clust1" class="cluster">
<title>cluster_FinanceModule</title>
<polygon fill="none" stroke="black" stroke-dasharray="1,5" points="8,-32.8 8,-157.8 288,-157.8 288,-32.8 8,-32.8"/>
</g>
<g id="clust2" class="cluster">
<title>cluster_FinanceModule_declarations</title>
<polygon fill="none" stroke="black" points="138,-40.8 138,-92.8 280,-92.8 280,-40.8 138,-40.8"/>
</g>
<g id="clust4" class="cluster">
<title>cluster_FinanceModule_imports</title>
<polygon fill="none" stroke="black" points="16,-40.8 16,-92.8 130,-92.8 130,-40.8 16,-40.8"/>
</g>
<!-- FinanceComponent -->
<g id="node1" class="node">
<title>FinanceComponent</title>
<polygon fill="#ffffb3" stroke="black" points="271.65,-84.8 146.35,-84.8 146.35,-48.8 271.65,-48.8 271.65,-84.8"/>
<text text-anchor="middle" x="209" y="-62.6" font-family="Times,serif" font-size="14.00">FinanceComponent</text>
</g>
<!-- FinanceModule -->
<g id="node2" class="node">
<title>FinanceModule</title>
<polygon fill="#8dd3c7" stroke="black" points="192.87,-149.8 189.87,-153.8 168.87,-153.8 165.87,-149.8 89.13,-149.8 89.13,-113.8 192.87,-113.8 192.87,-149.8"/>
<text text-anchor="middle" x="141" y="-127.6" font-family="Times,serif" font-size="14.00">FinanceModule</text>
</g>
<!-- FinanceComponent&#45;&gt;FinanceModule -->
<g id="edge1" class="edge">
<title>FinanceComponent&#45;&gt;FinanceModule</title>
<path fill="none" stroke="black" d="M169.55,-84.91C169.55,-84.91 169.55,-103.79 169.55,-103.79"/>
<polygon fill="black" stroke="black" points="166.05,-103.79 169.55,-113.79 173.05,-103.79 166.05,-103.79"/>
</g>
<!-- SharedModule -->
<g id="node3" class="node">
<title>SharedModule</title>
<polygon fill="#8dd3c7" stroke="black" points="122.42,-84.8 119.42,-88.8 98.42,-88.8 95.42,-84.8 23.58,-84.8 23.58,-48.8 122.42,-48.8 122.42,-84.8"/>
<text text-anchor="middle" x="73" y="-62.6" font-family="Times,serif" font-size="14.00">SharedModule</text>
</g>
<!-- SharedModule&#45;&gt;FinanceModule -->
<g id="edge2" class="edge">
<title>SharedModule&#45;&gt;FinanceModule</title>
<path fill="none" stroke="black" d="M105.64,-84.91C105.64,-84.91 105.64,-103.79 105.64,-103.79"/>
<polygon fill="black" stroke="black" points="102.14,-103.79 105.64,-113.79 109.14,-103.79 102.14,-103.79"/>
</g>
</g>
</svg>
