<?xml version="1.0" encoding="UTF-8" standalone="no"?>
<!DOCTYPE svg PUBLIC "-//W3C//DTD SVG 1.1//EN"
 "http://www.w3.org/Graphics/SVG/1.1/DTD/svg11.dtd">
<!-- Generated by graphviz version 2.47.3 (20210619.1520)
 -->
<!-- Title: dependencies Pages: 1 -->
<svg width="522pt" height="174pt"
 viewBox="0.00 0.00 522.00 173.80" xmlns="http://www.w3.org/2000/svg" xmlns:xlink="http://www.w3.org/1999/xlink">
<g id="graph0" class="graph" transform="scale(1 1) rotate(0) translate(4 169.8)">
<title>dependencies</title>
<polygon fill="white" stroke="transparent" points="-4,4 -4,-169.8 518,-169.8 518,4 -4,4"/>
<text text-anchor="middle" x="257" y="-8.2" font-family="sans-serif" font-size="14.00">dependencies</text>
<g id="clust1" class="cluster">
<title>cluster_FuseConfirmationModule</title>
<polygon fill="none" stroke="black" stroke-dasharray="1,5" points="8,-32.8 8,-157.8 506,-157.8 506,-32.8 8,-32.8"/>
</g>
<g id="clust7" class="cluster">
<title>cluster_FuseConfirmationModule_providers</title>
<polygon fill="none" stroke="black" points="262,-40.8 262,-92.8 498,-92.8 498,-40.8 262,-40.8"/>
</g>
<g id="clust2" class="cluster">
<title>cluster_FuseConfirmationModule_declarations</title>
<polygon fill="none" stroke="black" points="16,-40.8 16,-92.8 254,-92.8 254,-40.8 16,-40.8"/>
</g>
<!-- FuseConfirmationDialogComponent -->
<g id="node1" class="node">
<title>FuseConfirmationDialogComponent</title>
<polygon fill="#ffffb3" stroke="black" points="245.81,-84.8 24.19,-84.8 24.19,-48.8 245.81,-48.8 245.81,-84.8"/>
<text text-anchor="middle" x="135" y="-62.6" font-family="Times,serif" font-size="14.00">FuseConfirmationDialogComponent</text>
</g>
<!-- FuseConfirmationModule -->
<g id="node2" class="node">
<title>FuseConfirmationModule</title>
<polygon fill="#8dd3c7" stroke="black" points="337.93,-149.8 334.93,-153.8 313.93,-153.8 310.93,-149.8 176.07,-149.8 176.07,-113.8 337.93,-113.8 337.93,-149.8"/>
<text text-anchor="middle" x="257" y="-127.6" font-family="Times,serif" font-size="14.00">FuseConfirmationModule</text>
</g>
<!-- FuseConfirmationDialogComponent&#45;&gt;FuseConfirmationModule -->
<g id="edge1" class="edge">
<title>FuseConfirmationDialogComponent&#45;&gt;FuseConfirmationModule</title>
<path fill="none" stroke="black" d="M210.97,-84.91C210.97,-84.91 210.97,-103.79 210.97,-103.79"/>
<polygon fill="black" stroke="black" points="207.47,-103.79 210.97,-113.79 214.47,-103.79 207.47,-103.79"/>
</g>
<!-- FuseConfirmationService -->
<g id="node3" class="node">
<title>FuseConfirmationService</title>
<ellipse fill="#fdb462" stroke="black" cx="380" cy="-66.8" rx="110.03" ry="18"/>
<text text-anchor="middle" x="380" y="-62.6" font-family="Times,serif" font-size="14.00">FuseConfirmationService</text>
</g>
<!-- FuseConfirmationService&#45;&gt;FuseConfirmationModule -->
<g id="edge2" class="edge">
<title>FuseConfirmationService&#45;&gt;FuseConfirmationModule</title>
<path fill="none" stroke="black" d="M303.72,-79.95C303.72,-79.95 303.72,-103.49 303.72,-103.49"/>
<polygon fill="black" stroke="black" points="300.22,-103.49 303.72,-113.49 307.22,-103.49 300.22,-103.49"/>
</g>
</g>
</svg>
