<?xml version="1.0" encoding="UTF-8" standalone="no"?>
<!DOCTYPE svg PUBLIC "-//W3C//DTD SVG 1.1//EN"
 "http://www.w3.org/Graphics/SVG/1.1/DTD/svg11.dtd">
<!-- Generated by graphviz version 2.47.3 (20210619.1520)
 -->
<!-- Title: dependencies Pages: 1 -->
<svg width="242pt" height="174pt"
 viewBox="0.00 0.00 242.00 173.80" xmlns="http://www.w3.org/2000/svg" xmlns:xlink="http://www.w3.org/1999/xlink">
<g id="graph0" class="graph" transform="scale(1 1) rotate(0) translate(4 169.8)">
<title>dependencies</title>
<polygon fill="white" stroke="transparent" points="-4,4 -4,-169.8 238,-169.8 238,4 -4,4"/>
<text text-anchor="middle" x="117" y="-8.2" font-family="sans-serif" font-size="14.00">dependencies</text>
<g id="clust1" class="cluster">
<title>cluster_FuseTailwindConfigModule</title>
<polygon fill="none" stroke="black" stroke-dasharray="1,5" points="8,-32.8 8,-157.8 226,-157.8 226,-32.8 8,-32.8"/>
</g>
<g id="clust6" class="cluster">
<title>cluster_FuseTailwindConfigModule_providers</title>
<polygon fill="none" stroke="black" points="16,-40.8 16,-92.8 218,-92.8 218,-40.8 16,-40.8"/>
</g>
<!-- FuseTailwindService -->
<g id="node1" class="node">
<title>FuseTailwindService</title>
<ellipse fill="#fdb462" stroke="black" cx="117" cy="-66.8" rx="93.19" ry="18"/>
<text text-anchor="middle" x="117" y="-62.6" font-family="Times,serif" font-size="14.00">FuseTailwindService</text>
</g>
<!-- FuseTailwindConfigModule -->
<g id="node2" class="node">
<title>FuseTailwindConfigModule</title>
<polygon fill="#8dd3c7" stroke="black" points="204.93,-149.8 201.93,-153.8 180.93,-153.8 177.93,-149.8 29.07,-149.8 29.07,-113.8 204.93,-113.8 204.93,-149.8"/>
<text text-anchor="middle" x="117" y="-127.6" font-family="Times,serif" font-size="14.00">FuseTailwindConfigModule</text>
</g>
<!-- FuseTailwindService&#45;&gt;FuseTailwindConfigModule -->
<g id="edge1" class="edge">
<title>FuseTailwindService&#45;&gt;FuseTailwindConfigModule</title>
<path fill="none" stroke="black" d="M117,-84.91C117,-84.91 117,-103.79 117,-103.79"/>
<polygon fill="black" stroke="black" points="113.5,-103.79 117,-113.79 120.5,-103.79 113.5,-103.79"/>
</g>
</g>
</svg>
