<?xml version="1.0" encoding="UTF-8" standalone="no"?>
<!DOCTYPE svg PUBLIC "-//W3C//DTD SVG 1.1//EN"
 "http://www.w3.org/Graphics/SVG/1.1/DTD/svg11.dtd">
<!-- Generated by graphviz version 2.47.3 (20210619.1520)
 -->
<!-- Title: dependencies Pages: 1 -->
<svg width="1711pt" height="174pt"
 viewBox="0.00 0.00 1711.00 173.80" xmlns="http://www.w3.org/2000/svg" xmlns:xlink="http://www.w3.org/1999/xlink">
<g id="graph0" class="graph" transform="scale(1 1) rotate(0) translate(4 169.8)">
<title>dependencies</title>
<polygon fill="white" stroke="transparent" points="-4,4 -4,-169.8 1707,-169.8 1707,4 -4,4"/>
<text text-anchor="middle" x="851.5" y="-8.2" font-family="sans-serif" font-size="14.00">dependencies</text>
<g id="clust1" class="cluster">
<title>cluster_SignOutModule</title>
<polygon fill="none" stroke="black" stroke-dasharray="1,5" points="8,-32.8 8,-157.8 1695,-157.8 1695,-32.8 8,-32.8"/>
</g>
<g id="clust10" class="cluster">
<title>cluster_SignOutModule_imports</title>
<polygon fill="none" stroke="black" points="1573,-40.8 1573,-92.8 1687,-92.8 1687,-40.8 1573,-40.8"/>
</g>
<g id="clust2" class="cluster">
<title>cluster_SignOutModule_declarations</title>
<polygon fill="none" stroke="black" points="16,-40.8 16,-92.8 1565,-92.8 1565,-40.8 16,-40.8"/>
</g>
<!-- SignOutClassicComponent -->
<g id="node1" class="node">
<title>SignOutClassicComponent</title>
<polygon fill="#ffffb3" stroke="black" points="1557.44,-84.8 1388.56,-84.8 1388.56,-48.8 1557.44,-48.8 1557.44,-84.8"/>
<text text-anchor="middle" x="1473" y="-62.6" font-family="Times,serif" font-size="14.00">SignOutClassicComponent</text>
</g>
<!-- SignOutModule -->
<g id="node8" class="node">
<title>SignOutModule</title>
<polygon fill="#8dd3c7" stroke="black" points="989.22,-149.8 986.22,-153.8 965.22,-153.8 962.22,-149.8 882.78,-149.8 882.78,-113.8 989.22,-113.8 989.22,-149.8"/>
<text text-anchor="middle" x="936" y="-127.6" font-family="Times,serif" font-size="14.00">SignOutModule</text>
</g>
<!-- SignOutClassicComponent&#45;&gt;SignOutModule -->
<g id="edge1" class="edge">
<title>SignOutClassicComponent&#45;&gt;SignOutModule</title>
<path fill="none" stroke="black" d="M1473,-84.91C1473,-104.14 1473,-131.8 1473,-131.8 1473,-131.8 999.45,-131.8 999.45,-131.8"/>
<polygon fill="black" stroke="black" points="999.45,-128.3 989.45,-131.8 999.45,-135.3 999.45,-128.3"/>
</g>
<!-- SignOutFullscreenComponent -->
<g id="node2" class="node">
<title>SignOutFullscreenComponent</title>
<polygon fill="#ffffb3" stroke="black" points="1371.32,-84.8 1184.68,-84.8 1184.68,-48.8 1371.32,-48.8 1371.32,-84.8"/>
<text text-anchor="middle" x="1278" y="-62.6" font-family="Times,serif" font-size="14.00">SignOutFullscreenComponent</text>
</g>
<!-- SignOutFullscreenComponent&#45;&gt;SignOutModule -->
<g id="edge2" class="edge">
<title>SignOutFullscreenComponent&#45;&gt;SignOutModule</title>
<path fill="none" stroke="black" d="M1278,-84.83C1278,-101.2 1278,-122.8 1278,-122.8 1278,-122.8 999.44,-122.8 999.44,-122.8"/>
<polygon fill="black" stroke="black" points="999.44,-119.3 989.44,-122.8 999.44,-126.3 999.44,-119.3"/>
</g>
<!-- SignOutFullscreenReversedComponent -->
<g id="node3" class="node">
<title>SignOutFullscreenReversedComponent</title>
<polygon fill="#ffffb3" stroke="black" points="1167.4,-84.8 928.6,-84.8 928.6,-48.8 1167.4,-48.8 1167.4,-84.8"/>
<text text-anchor="middle" x="1048" y="-62.6" font-family="Times,serif" font-size="14.00">SignOutFullscreenReversedComponent</text>
</g>
<!-- SignOutFullscreenReversedComponent&#45;&gt;SignOutModule -->
<g id="edge3" class="edge">
<title>SignOutFullscreenReversedComponent&#45;&gt;SignOutModule</title>
<path fill="none" stroke="black" d="M958.95,-84.91C958.95,-84.91 958.95,-103.79 958.95,-103.79"/>
<polygon fill="black" stroke="black" points="955.45,-103.79 958.95,-113.79 962.45,-103.79 955.45,-103.79"/>
</g>
<!-- SignOutModernComponent -->
<g id="node4" class="node">
<title>SignOutModernComponent</title>
<polygon fill="#ffffb3" stroke="black" points="911.32,-84.8 738.68,-84.8 738.68,-48.8 911.32,-48.8 911.32,-84.8"/>
<text text-anchor="middle" x="825" y="-62.6" font-family="Times,serif" font-size="14.00">SignOutModernComponent</text>
</g>
<!-- SignOutModernComponent&#45;&gt;SignOutModule -->
<g id="edge4" class="edge">
<title>SignOutModernComponent&#45;&gt;SignOutModule</title>
<path fill="none" stroke="black" d="M897.03,-84.91C897.03,-84.91 897.03,-103.79 897.03,-103.79"/>
<polygon fill="black" stroke="black" points="893.53,-103.79 897.03,-113.79 900.53,-103.79 893.53,-103.79"/>
</g>
<!-- SignOutModernReversedComponent -->
<g id="node5" class="node">
<title>SignOutModernReversedComponent</title>
<polygon fill="#ffffb3" stroke="black" points="721.41,-84.8 496.59,-84.8 496.59,-48.8 721.41,-48.8 721.41,-84.8"/>
<text text-anchor="middle" x="609" y="-62.6" font-family="Times,serif" font-size="14.00">SignOutModernReversedComponent</text>
</g>
<!-- SignOutModernReversedComponent&#45;&gt;SignOutModule -->
<g id="edge5" class="edge">
<title>SignOutModernReversedComponent&#45;&gt;SignOutModule</title>
<path fill="none" stroke="black" d="M609,-84.83C609,-101.2 609,-122.8 609,-122.8 609,-122.8 872.73,-122.8 872.73,-122.8"/>
<polygon fill="black" stroke="black" points="872.73,-126.3 882.73,-122.8 872.73,-119.3 872.73,-126.3"/>
</g>
<!-- SignOutSplitScreenComponent -->
<g id="node6" class="node">
<title>SignOutSplitScreenComponent</title>
<polygon fill="#ffffb3" stroke="black" points="479.04,-84.8 286.96,-84.8 286.96,-48.8 479.04,-48.8 479.04,-84.8"/>
<text text-anchor="middle" x="383" y="-62.6" font-family="Times,serif" font-size="14.00">SignOutSplitScreenComponent</text>
</g>
<!-- SignOutSplitScreenComponent&#45;&gt;SignOutModule -->
<g id="edge6" class="edge">
<title>SignOutSplitScreenComponent&#45;&gt;SignOutModule</title>
<path fill="none" stroke="black" d="M383,-84.91C383,-104.14 383,-131.8 383,-131.8 383,-131.8 872.73,-131.8 872.73,-131.8"/>
<polygon fill="black" stroke="black" points="872.73,-135.3 882.73,-131.8 872.73,-128.3 872.73,-135.3"/>
</g>
<!-- SignOutSplitScreenReversedComponent -->
<g id="node7" class="node">
<title>SignOutSplitScreenReversedComponent</title>
<polygon fill="#ffffb3" stroke="black" points="268.13,-84.8 23.87,-84.8 23.87,-48.8 268.13,-48.8 268.13,-84.8"/>
<text text-anchor="middle" x="146" y="-62.6" font-family="Times,serif" font-size="14.00">SignOutSplitScreenReversedComponent</text>
</g>
<!-- SignOutSplitScreenReversedComponent&#45;&gt;SignOutModule -->
<g id="edge7" class="edge">
<title>SignOutSplitScreenReversedComponent&#45;&gt;SignOutModule</title>
<path fill="none" stroke="black" d="M146,-85.09C146,-107.01 146,-140.8 146,-140.8 146,-140.8 872.63,-140.8 872.63,-140.8"/>
<polygon fill="black" stroke="black" points="872.63,-144.3 882.63,-140.8 872.63,-137.3 872.63,-144.3"/>
</g>
<!-- SharedModule -->
<g id="node9" class="node">
<title>SharedModule</title>
<polygon fill="#8dd3c7" stroke="black" points="1679.42,-84.8 1676.42,-88.8 1655.42,-88.8 1652.42,-84.8 1580.58,-84.8 1580.58,-48.8 1679.42,-48.8 1679.42,-84.8"/>
<text text-anchor="middle" x="1630" y="-62.6" font-family="Times,serif" font-size="14.00">SharedModule</text>
</g>
<!-- SharedModule&#45;&gt;SignOutModule -->
<g id="edge8" class="edge">
<title>SharedModule&#45;&gt;SignOutModule</title>
<path fill="none" stroke="black" d="M1630,-85.09C1630,-107.01 1630,-140.8 1630,-140.8 1630,-140.8 999.3,-140.8 999.3,-140.8"/>
<polygon fill="black" stroke="black" points="999.3,-137.3 989.3,-140.8 999.3,-144.3 999.3,-137.3"/>
</g>
</g>
</svg>
