<?xml version="1.0" encoding="UTF-8" standalone="no"?>
<!DOCTYPE svg PUBLIC "-//W3C//DTD SVG 1.1//EN"
 "http://www.w3.org/Graphics/SVG/1.1/DTD/svg11.dtd">
<!-- Generated by graphviz version 2.47.3 (20210619.1520)
 -->
<!-- Title: dependencies Pages: 1 -->
<svg width="1119pt" height="247pt"
 viewBox="0.00 0.00 1119.00 246.80" xmlns="http://www.w3.org/2000/svg" xmlns:xlink="http://www.w3.org/1999/xlink">
<g id="graph0" class="graph" transform="scale(1 1) rotate(0) translate(4 242.8)">
<title>dependencies</title>
<polygon fill="white" stroke="transparent" points="-4,4 -4,-242.8 1115,-242.8 1115,4 -4,4"/>
<text text-anchor="middle" x="555.5" y="-8.2" font-family="sans-serif" font-size="14.00">dependencies</text>
<g id="clust1" class="cluster">
<title>cluster_AuthenticationModule</title>
<polygon fill="none" stroke="black" stroke-dasharray="1,5" points="8,-32.8 8,-230.8 1103,-230.8 1103,-32.8 8,-32.8"/>
</g>
<g id="clust3" class="cluster">
<title>cluster_AuthenticationModule_imports</title>
<polygon fill="none" stroke="black" points="28,-40.8 28,-92.8 1082,-92.8 1082,-40.8 28,-40.8"/>
</g>
<g id="clust4" class="cluster">
<title>cluster_AuthenticationModule_exports</title>
<polygon fill="none" stroke="black" points="16,-170.8 16,-222.8 1095,-222.8 1095,-170.8 16,-170.8"/>
</g>
<!-- ConfirmationRequiredModule -->
<g id="node1" class="node">
<title>ConfirmationRequiredModule</title>
<polygon fill="#8dd3c7" stroke="black" points="1074.3,-84.8 1071.3,-88.8 1050.3,-88.8 1047.3,-84.8 887.7,-84.8 887.7,-48.8 1074.3,-48.8 1074.3,-84.8"/>
<text text-anchor="middle" x="981" y="-62.6" font-family="Times,serif" font-size="14.00">ConfirmationRequiredModule</text>
</g>
<!-- AuthenticationModule -->
<g id="node8" class="node">
<title>AuthenticationModule</title>
<polygon fill="#8dd3c7" stroke="black" points="562.25,-149.8 559.25,-153.8 538.25,-153.8 535.25,-149.8 419.75,-149.8 419.75,-113.8 562.25,-113.8 562.25,-149.8"/>
<text text-anchor="middle" x="491" y="-127.6" font-family="Times,serif" font-size="14.00">AuthenticationModule</text>
</g>
<!-- ConfirmationRequiredModule&#45;&gt;AuthenticationModule -->
<g id="edge1" class="edge">
<title>ConfirmationRequiredModule&#45;&gt;AuthenticationModule</title>
<path fill="none" stroke="black" d="M892.47,-85.07C892.47,-103.36 892.47,-128.8 892.47,-128.8 892.47,-128.8 572.31,-128.8 572.31,-128.8"/>
<polygon fill="black" stroke="black" points="572.31,-125.3 562.31,-128.8 572.31,-132.3 572.31,-125.3"/>
</g>
<!-- ForgotPasswordModule -->
<g id="node2" class="node">
<title>ForgotPasswordModule</title>
<polygon fill="#8dd3c7" stroke="black" points="870.04,-84.8 867.04,-88.8 846.04,-88.8 843.04,-84.8 719.96,-84.8 719.96,-48.8 870.04,-48.8 870.04,-84.8"/>
<text text-anchor="middle" x="795" y="-62.6" font-family="Times,serif" font-size="14.00">ForgotPasswordModule</text>
</g>
<!-- ForgotPasswordModule&#45;&gt;AuthenticationModule -->
<g id="edge2" class="edge">
<title>ForgotPasswordModule&#45;&gt;AuthenticationModule</title>
<path fill="none" stroke="black" d="M821.84,-84.81C821.84,-100.85 821.84,-121.8 821.84,-121.8 821.84,-121.8 572.38,-121.8 572.38,-121.8"/>
<polygon fill="black" stroke="black" points="572.38,-118.3 562.38,-121.8 572.38,-125.3 572.38,-118.3"/>
</g>
<!-- ResetPasswordModule -->
<g id="node3" class="node">
<title>ResetPasswordModule</title>
<polygon fill="#8dd3c7" stroke="black" points="702.3,-84.8 699.3,-88.8 678.3,-88.8 675.3,-84.8 557.7,-84.8 557.7,-48.8 702.3,-48.8 702.3,-84.8"/>
<text text-anchor="middle" x="630" y="-62.6" font-family="Times,serif" font-size="14.00">ResetPasswordModule</text>
</g>
<!-- ResetPasswordModule&#45;&gt;AuthenticationModule -->
<g id="edge3" class="edge">
<title>ResetPasswordModule&#45;&gt;AuthenticationModule</title>
<path fill="none" stroke="black" d="M557.66,-66.8C552.13,-66.8 548.64,-66.8 548.64,-66.8 548.64,-66.8 548.64,-103.69 548.64,-103.69"/>
<polygon fill="black" stroke="black" points="545.14,-103.69 548.64,-113.69 552.14,-103.69 545.14,-103.69"/>
</g>
<!-- SignInModule -->
<g id="node4" class="node">
<title>SignInModule</title>
<polygon fill="#8dd3c7" stroke="black" points="539.38,-84.8 536.38,-88.8 515.38,-88.8 512.38,-84.8 442.62,-84.8 442.62,-48.8 539.38,-48.8 539.38,-84.8"/>
<text text-anchor="middle" x="491" y="-62.6" font-family="Times,serif" font-size="14.00">SignInModule</text>
</g>
<!-- SignInModule&#45;&gt;AuthenticationModule -->
<g id="edge4" class="edge">
<title>SignInModule&#45;&gt;AuthenticationModule</title>
<path fill="none" stroke="black" d="M491,-84.91C491,-84.91 491,-103.79 491,-103.79"/>
<polygon fill="black" stroke="black" points="487.5,-103.79 491,-113.79 494.5,-103.79 487.5,-103.79"/>
</g>
<!-- SignOutModule -->
<g id="node5" class="node">
<title>SignOutModule</title>
<polygon fill="#8dd3c7" stroke="black" points="424.22,-84.8 421.22,-88.8 400.22,-88.8 397.22,-84.8 317.78,-84.8 317.78,-48.8 424.22,-48.8 424.22,-84.8"/>
<text text-anchor="middle" x="371" y="-62.6" font-family="Times,serif" font-size="14.00">SignOutModule</text>
</g>
<!-- SignOutModule&#45;&gt;AuthenticationModule -->
<g id="edge5" class="edge">
<title>SignOutModule&#45;&gt;AuthenticationModule</title>
<path fill="none" stroke="black" d="M424.14,-66.8C429.68,-66.8 433.33,-66.8 433.33,-66.8 433.33,-66.8 433.33,-103.69 433.33,-103.69"/>
<polygon fill="black" stroke="black" points="429.83,-103.69 433.33,-113.69 436.83,-103.69 429.83,-103.69"/>
</g>
<!-- SignUpModule -->
<g id="node6" class="node">
<title>SignUpModule</title>
<polygon fill="#8dd3c7" stroke="black" points="300.33,-84.8 297.33,-88.8 276.33,-88.8 273.33,-84.8 197.67,-84.8 197.67,-48.8 300.33,-48.8 300.33,-84.8"/>
<text text-anchor="middle" x="249" y="-62.6" font-family="Times,serif" font-size="14.00">SignUpModule</text>
</g>
<!-- SignUpModule&#45;&gt;AuthenticationModule -->
<g id="edge6" class="edge">
<title>SignUpModule&#45;&gt;AuthenticationModule</title>
<path fill="none" stroke="black" d="M262.55,-84.81C262.55,-100.85 262.55,-121.8 262.55,-121.8 262.55,-121.8 409.66,-121.8 409.66,-121.8"/>
<polygon fill="black" stroke="black" points="409.66,-125.3 419.66,-121.8 409.66,-118.3 409.66,-125.3"/>
</g>
<!-- UnlockSessionModule -->
<g id="node7" class="node">
<title>UnlockSessionModule</title>
<polygon fill="#8dd3c7" stroke="black" points="179.54,-84.8 176.54,-88.8 155.54,-88.8 152.54,-84.8 36.46,-84.8 36.46,-48.8 179.54,-48.8 179.54,-84.8"/>
<text text-anchor="middle" x="108" y="-62.6" font-family="Times,serif" font-size="14.00">UnlockSessionModule</text>
</g>
<!-- UnlockSessionModule&#45;&gt;AuthenticationModule -->
<g id="edge7" class="edge">
<title>UnlockSessionModule&#45;&gt;AuthenticationModule</title>
<path fill="none" stroke="black" d="M175.64,-85.07C175.64,-103.36 175.64,-128.8 175.64,-128.8 175.64,-128.8 409.44,-128.8 409.44,-128.8"/>
<polygon fill="black" stroke="black" points="409.44,-132.3 419.44,-128.8 409.44,-125.3 409.44,-132.3"/>
</g>
<!-- ConfirmationRequiredModule  -->
<g id="node9" class="node">
<title>ConfirmationRequiredModule </title>
<polygon fill="#fb8072" stroke="black" points="1086.8,-214.8 897.2,-214.8 897.2,-178.8 1086.8,-178.8 1086.8,-214.8"/>
<text text-anchor="middle" x="992" y="-192.6" font-family="Times,serif" font-size="14.00">ConfirmationRequiredModule </text>
</g>
<!-- AuthenticationModule&#45;&gt;ConfirmationRequiredModule  -->
<g id="edge8" class="edge">
<title>AuthenticationModule&#45;&gt;ConfirmationRequiredModule </title>
<path fill="none" stroke="black" stroke-dasharray="5,2" d="M562.39,-135.8C699.37,-135.8 985.62,-135.8 985.62,-135.8 985.62,-135.8 985.62,-168.5 985.62,-168.5"/>
<polygon fill="black" stroke="black" points="982.13,-168.5 985.62,-178.5 989.13,-168.5 982.13,-168.5"/>
</g>
<!-- ForgotPasswordModule  -->
<g id="node10" class="node">
<title>ForgotPasswordModule </title>
<polygon fill="#fb8072" stroke="black" points="879.04,-214.8 724.96,-214.8 724.96,-178.8 879.04,-178.8 879.04,-214.8"/>
<text text-anchor="middle" x="802" y="-192.6" font-family="Times,serif" font-size="14.00">ForgotPasswordModule </text>
</g>
<!-- AuthenticationModule&#45;&gt;ForgotPasswordModule  -->
<g id="edge9" class="edge">
<title>AuthenticationModule&#45;&gt;ForgotPasswordModule </title>
<path fill="none" stroke="black" stroke-dasharray="5,2" d="M562.26,-142.8C645.93,-142.8 773.41,-142.8 773.41,-142.8 773.41,-142.8 773.41,-168.52 773.41,-168.52"/>
<polygon fill="black" stroke="black" points="769.91,-168.52 773.41,-178.52 776.91,-168.52 769.91,-168.52"/>
</g>
<!-- ResetPasswordModule  -->
<g id="node11" class="node">
<title>ResetPasswordModule </title>
<polygon fill="#fb8072" stroke="black" points="706.8,-214.8 559.2,-214.8 559.2,-178.8 706.8,-178.8 706.8,-214.8"/>
<text text-anchor="middle" x="633" y="-192.6" font-family="Times,serif" font-size="14.00">ResetPasswordModule </text>
</g>
<!-- AuthenticationModule&#45;&gt;ResetPasswordModule  -->
<g id="edge10" class="edge">
<title>AuthenticationModule&#45;&gt;ResetPasswordModule </title>
<path fill="none" stroke="black" stroke-dasharray="5,2" d="M550.14,-149.91C550.14,-169.14 550.14,-196.8 550.14,-196.8 550.14,-196.8 551.03,-196.8 551.03,-196.8"/>
<polygon fill="black" stroke="black" points="549.01,-200.3 559.01,-196.8 549.01,-193.3 549.01,-200.3"/>
</g>
<!-- SignInModule  -->
<g id="node12" class="node">
<title>SignInModule </title>
<polygon fill="#fb8072" stroke="black" points="541.38,-214.8 440.62,-214.8 440.62,-178.8 541.38,-178.8 541.38,-214.8"/>
<text text-anchor="middle" x="491" y="-192.6" font-family="Times,serif" font-size="14.00">SignInModule </text>
</g>
<!-- AuthenticationModule&#45;&gt;SignInModule  -->
<g id="edge11" class="edge">
<title>AuthenticationModule&#45;&gt;SignInModule </title>
<path fill="none" stroke="black" stroke-dasharray="5,2" d="M491,-149.91C491,-149.91 491,-168.79 491,-168.79"/>
<polygon fill="black" stroke="black" points="487.5,-168.79 491,-178.79 494.5,-168.79 487.5,-168.79"/>
</g>
<!-- SignOutModule  -->
<g id="node13" class="node">
<title>SignOutModule </title>
<polygon fill="#fb8072" stroke="black" points="422.72,-214.8 313.28,-214.8 313.28,-178.8 422.72,-178.8 422.72,-214.8"/>
<text text-anchor="middle" x="368" y="-192.6" font-family="Times,serif" font-size="14.00">SignOutModule </text>
</g>
<!-- AuthenticationModule&#45;&gt;SignOutModule  -->
<g id="edge12" class="edge">
<title>AuthenticationModule&#45;&gt;SignOutModule </title>
<path fill="none" stroke="black" stroke-dasharray="5,2" d="M431.83,-149.91C431.83,-169.14 431.83,-196.8 431.83,-196.8 431.83,-196.8 430.95,-196.8 430.95,-196.8"/>
<polygon fill="black" stroke="black" points="432.96,-193.3 422.96,-196.8 432.96,-200.3 432.96,-193.3"/>
</g>
<!-- SignUpModule  -->
<g id="node14" class="node">
<title>SignUpModule </title>
<polygon fill="#fb8072" stroke="black" points="294.83,-214.8 189.17,-214.8 189.17,-178.8 294.83,-178.8 294.83,-214.8"/>
<text text-anchor="middle" x="242" y="-192.6" font-family="Times,serif" font-size="14.00">SignUpModule </text>
</g>
<!-- AuthenticationModule&#45;&gt;SignUpModule  -->
<g id="edge13" class="edge">
<title>AuthenticationModule&#45;&gt;SignUpModule </title>
<path fill="none" stroke="black" stroke-dasharray="5,2" d="M419.73,-142.8C342.51,-142.8 230.2,-142.8 230.2,-142.8 230.2,-142.8 230.2,-168.52 230.2,-168.52"/>
<polygon fill="black" stroke="black" points="226.7,-168.52 230.2,-178.52 233.7,-168.52 226.7,-168.52"/>
</g>
<!-- UnlockSessionModule  -->
<g id="node15" class="node">
<title>UnlockSessionModule </title>
<polygon fill="#fb8072" stroke="black" points="171.54,-214.8 24.46,-214.8 24.46,-178.8 171.54,-178.8 171.54,-214.8"/>
<text text-anchor="middle" x="98" y="-192.6" font-family="Times,serif" font-size="14.00">UnlockSessionModule </text>
</g>
<!-- AuthenticationModule&#45;&gt;UnlockSessionModule  -->
<g id="edge14" class="edge">
<title>AuthenticationModule&#45;&gt;UnlockSessionModule </title>
<path fill="none" stroke="black" stroke-dasharray="5,2" d="M419.54,-135.8C307.69,-135.8 103.88,-135.8 103.88,-135.8 103.88,-135.8 103.88,-168.5 103.88,-168.5"/>
<polygon fill="black" stroke="black" points="100.38,-168.5 103.88,-178.5 107.38,-168.5 100.38,-168.5"/>
</g>
</g>
</svg>
