<?xml version="1.0" encoding="UTF-8" standalone="no"?>
<!DOCTYPE svg PUBLIC "-//W3C//DTD SVG 1.1//EN"
 "http://www.w3.org/Graphics/SVG/1.1/DTD/svg11.dtd">
<!-- Generated by graphviz version 2.47.3 (20210619.1520)
 -->
<!-- Title: dependencies Pages: 1 -->
<svg width="2728pt" height="174pt"
 viewBox="0.00 0.00 2728.00 173.80" xmlns="http://www.w3.org/2000/svg" xmlns:xlink="http://www.w3.org/1999/xlink">
<g id="graph0" class="graph" transform="scale(1 1) rotate(0) translate(4 169.8)">
<title>dependencies</title>
<polygon fill="white" stroke="transparent" points="-4,4 -4,-169.8 2724,-169.8 2724,4 -4,4"/>
<text text-anchor="middle" x="1360" y="-8.2" font-family="sans-serif" font-size="14.00">dependencies</text>
<g id="clust1" class="cluster">
<title>cluster_OtherComponentsModule</title>
<polygon fill="none" stroke="black" stroke-dasharray="1,5" points="8,-32.8 8,-157.8 2712,-157.8 2712,-32.8 8,-32.8"/>
</g>
<g id="clust15" class="cluster">
<title>cluster_OtherComponentsModule_imports</title>
<polygon fill="none" stroke="black" points="1966,-40.8 1966,-92.8 2704,-92.8 2704,-40.8 1966,-40.8"/>
</g>
<g id="clust2" class="cluster">
<title>cluster_OtherComponentsModule_declarations</title>
<polygon fill="none" stroke="black" points="16,-40.8 16,-92.8 1958,-92.8 1958,-40.8 16,-40.8"/>
</g>
<!-- ApexChartsComponent -->
<g id="node1" class="node">
<title>ApexChartsComponent</title>
<polygon fill="#ffffb3" stroke="black" points="1950.2,-84.8 1801.8,-84.8 1801.8,-48.8 1950.2,-48.8 1950.2,-84.8"/>
<text text-anchor="middle" x="1876" y="-62.6" font-family="Times,serif" font-size="14.00">ApexChartsComponent</text>
</g>
<!-- OtherComponentsModule -->
<g id="node13" class="node">
<title>OtherComponentsModule</title>
<polygon fill="#8dd3c7" stroke="black" points="1465.2,-149.8 1462.2,-153.8 1441.2,-153.8 1438.2,-149.8 1302.8,-149.8 1302.8,-113.8 1465.2,-113.8 1465.2,-149.8"/>
<text text-anchor="middle" x="1384" y="-127.6" font-family="Times,serif" font-size="14.00">OtherComponentsModule</text>
</g>
<!-- ApexChartsComponent&#45;&gt;OtherComponentsModule -->
<g id="edge1" class="edge">
<title>ApexChartsComponent&#45;&gt;OtherComponentsModule</title>
<path fill="none" stroke="black" d="M1876,-84.83C1876,-101.2 1876,-122.8 1876,-122.8 1876,-122.8 1475.24,-122.8 1475.24,-122.8"/>
<polygon fill="black" stroke="black" points="1475.24,-119.3 1465.24,-122.8 1475.24,-126.3 1475.24,-119.3"/>
</g>
<!-- FullCalendarComponent -->
<g id="node2" class="node">
<title>FullCalendarComponent</title>
<polygon fill="#ffffb3" stroke="black" points="1784.43,-84.8 1629.57,-84.8 1629.57,-48.8 1784.43,-48.8 1784.43,-84.8"/>
<text text-anchor="middle" x="1707" y="-62.6" font-family="Times,serif" font-size="14.00">FullCalendarComponent</text>
</g>
<!-- FullCalendarComponent&#45;&gt;OtherComponentsModule -->
<g id="edge2" class="edge">
<title>FullCalendarComponent&#45;&gt;OtherComponentsModule</title>
<path fill="none" stroke="black" d="M1707,-84.99C1707,-99.98 1707,-118.8 1707,-118.8 1707,-118.8 1475.51,-118.8 1475.51,-118.8"/>
<polygon fill="black" stroke="black" points="1475.51,-115.3 1465.51,-118.8 1475.51,-122.3 1475.51,-115.3"/>
</g>
<!-- LanguagesComponent -->
<g id="node3" class="node">
<title>LanguagesComponent</title>
<polygon fill="#ffffb3" stroke="black" points="1611.97,-84.8 1470.03,-84.8 1470.03,-48.8 1611.97,-48.8 1611.97,-84.8"/>
<text text-anchor="middle" x="1541" y="-62.6" font-family="Times,serif" font-size="14.00">LanguagesComponent</text>
</g>
<!-- LanguagesComponent&#45;&gt;OtherComponentsModule -->
<g id="edge3" class="edge">
<title>LanguagesComponent&#45;&gt;OtherComponentsModule</title>
<path fill="none" stroke="black" d="M1469.96,-66.8C1463.02,-66.8 1458.49,-66.8 1458.49,-66.8 1458.49,-66.8 1458.49,-103.69 1458.49,-103.69"/>
<polygon fill="black" stroke="black" points="1454.99,-103.69 1458.49,-113.69 1461.99,-103.69 1454.99,-103.69"/>
</g>
<!-- MessagesComponent -->
<g id="node4" class="node">
<title>MessagesComponent</title>
<polygon fill="#ffffb3" stroke="black" points="1451.75,-84.8 1316.25,-84.8 1316.25,-48.8 1451.75,-48.8 1451.75,-84.8"/>
<text text-anchor="middle" x="1384" y="-62.6" font-family="Times,serif" font-size="14.00">MessagesComponent</text>
</g>
<!-- MessagesComponent&#45;&gt;OtherComponentsModule -->
<g id="edge4" class="edge">
<title>MessagesComponent&#45;&gt;OtherComponentsModule</title>
<path fill="none" stroke="black" d="M1384,-84.91C1384,-84.91 1384,-103.79 1384,-103.79"/>
<polygon fill="black" stroke="black" points="1380.5,-103.79 1384,-113.79 1387.5,-103.79 1380.5,-103.79"/>
</g>
<!-- NgxMarkdownComponent -->
<g id="node5" class="node">
<title>NgxMarkdownComponent</title>
<polygon fill="#ffffb3" stroke="black" points="1298.37,-84.8 1131.63,-84.8 1131.63,-48.8 1298.37,-48.8 1298.37,-84.8"/>
<text text-anchor="middle" x="1215" y="-62.6" font-family="Times,serif" font-size="14.00">NgxMarkdownComponent</text>
</g>
<!-- NgxMarkdownComponent&#45;&gt;OtherComponentsModule -->
<g id="edge5" class="edge">
<title>NgxMarkdownComponent&#45;&gt;OtherComponentsModule</title>
<path fill="none" stroke="black" d="M1298.67,-66.8C1305.31,-66.8 1309.51,-66.8 1309.51,-66.8 1309.51,-66.8 1309.51,-103.69 1309.51,-103.69"/>
<polygon fill="black" stroke="black" points="1306.01,-103.69 1309.51,-113.69 1313.01,-103.69 1306.01,-103.69"/>
</g>
<!-- NotificationsComponent -->
<g id="node6" class="node">
<title>NotificationsComponent</title>
<polygon fill="#ffffb3" stroke="black" points="1113.43,-84.8 958.57,-84.8 958.57,-48.8 1113.43,-48.8 1113.43,-84.8"/>
<text text-anchor="middle" x="1036" y="-62.6" font-family="Times,serif" font-size="14.00">NotificationsComponent</text>
</g>
<!-- NotificationsComponent&#45;&gt;OtherComponentsModule -->
<g id="edge6" class="edge">
<title>NotificationsComponent&#45;&gt;OtherComponentsModule</title>
<path fill="none" stroke="black" d="M1036,-84.99C1036,-99.98 1036,-118.8 1036,-118.8 1036,-118.8 1292.85,-118.8 1292.85,-118.8"/>
<polygon fill="black" stroke="black" points="1292.85,-122.3 1302.85,-118.8 1292.85,-115.3 1292.85,-122.3"/>
</g>
<!-- OtherComponentsComponent -->
<g id="node7" class="node">
<title>OtherComponentsComponent</title>
<polygon fill="#ffffb3" stroke="black" points="940.98,-84.8 757.02,-84.8 757.02,-48.8 940.98,-48.8 940.98,-84.8"/>
<text text-anchor="middle" x="849" y="-62.6" font-family="Times,serif" font-size="14.00">OtherComponentsComponent</text>
</g>
<!-- OtherComponentsComponent&#45;&gt;OtherComponentsModule -->
<g id="edge7" class="edge">
<title>OtherComponentsComponent&#45;&gt;OtherComponentsModule</title>
<path fill="none" stroke="black" d="M849,-84.83C849,-101.2 849,-122.8 849,-122.8 849,-122.8 1292.75,-122.8 1292.75,-122.8"/>
<polygon fill="black" stroke="black" points="1292.75,-126.3 1302.75,-122.8 1292.74,-119.3 1292.75,-126.3"/>
</g>
<!-- OverviewComponent -->
<g id="node8" class="node">
<title>OverviewComponent</title>
<polygon fill="#ffffb3" stroke="black" points="739.03,-84.8 602.97,-84.8 602.97,-48.8 739.03,-48.8 739.03,-84.8"/>
<text text-anchor="middle" x="671" y="-62.6" font-family="Times,serif" font-size="14.00">OverviewComponent</text>
</g>
<!-- OverviewComponent&#45;&gt;OtherComponentsModule -->
<g id="edge8" class="edge">
<title>OverviewComponent&#45;&gt;OtherComponentsModule</title>
<path fill="none" stroke="black" d="M671,-85.1C671,-103.07 671,-127.8 671,-127.8 671,-127.8 1292.56,-127.8 1292.56,-127.8"/>
<polygon fill="black" stroke="black" points="1292.56,-131.3 1302.56,-127.8 1292.56,-124.3 1292.56,-131.3"/>
</g>
<!-- QuillEditorComponent -->
<g id="node9" class="node">
<title>QuillEditorComponent</title>
<polygon fill="#ffffb3" stroke="black" points="584.61,-84.8 439.39,-84.8 439.39,-48.8 584.61,-48.8 584.61,-84.8"/>
<text text-anchor="middle" x="512" y="-62.6" font-family="Times,serif" font-size="14.00">QuillEditorComponent</text>
</g>
<!-- QuillEditorComponent&#45;&gt;OtherComponentsModule -->
<g id="edge9" class="edge">
<title>QuillEditorComponent&#45;&gt;OtherComponentsModule</title>
<path fill="none" stroke="black" d="M512,-84.91C512,-104.14 512,-131.8 512,-131.8 512,-131.8 1292.75,-131.8 1292.75,-131.8"/>
<polygon fill="black" stroke="black" points="1292.75,-135.3 1302.75,-131.8 1292.75,-128.3 1292.75,-135.3"/>
</g>
<!-- SearchComponent -->
<g id="node10" class="node">
<title>SearchComponent</title>
<polygon fill="#ffffb3" stroke="black" points="421.92,-84.8 302.08,-84.8 302.08,-48.8 421.92,-48.8 421.92,-84.8"/>
<text text-anchor="middle" x="362" y="-62.6" font-family="Times,serif" font-size="14.00">SearchComponent</text>
</g>
<!-- SearchComponent&#45;&gt;OtherComponentsModule -->
<g id="edge10" class="edge">
<title>SearchComponent&#45;&gt;OtherComponentsModule</title>
<path fill="none" stroke="black" d="M362,-84.83C362,-105.57 362,-136.8 362,-136.8 362,-136.8 1292.52,-136.8 1292.52,-136.8"/>
<polygon fill="black" stroke="black" points="1292.52,-140.3 1302.52,-136.8 1292.52,-133.3 1292.52,-140.3"/>
</g>
<!-- ShortcutsComponent -->
<g id="node11" class="node">
<title>ShortcutsComponent</title>
<polygon fill="#ffffb3" stroke="black" points="284.22,-84.8 149.78,-84.8 149.78,-48.8 284.22,-48.8 284.22,-84.8"/>
<text text-anchor="middle" x="217" y="-62.6" font-family="Times,serif" font-size="14.00">ShortcutsComponent</text>
</g>
<!-- ShortcutsComponent&#45;&gt;OtherComponentsModule -->
<g id="edge11" class="edge">
<title>ShortcutsComponent&#45;&gt;OtherComponentsModule</title>
<path fill="none" stroke="black" d="M217,-85.09C217,-107.01 217,-140.8 217,-140.8 217,-140.8 1292.87,-140.8 1292.87,-140.8"/>
<polygon fill="black" stroke="black" points="1292.87,-144.3 1302.87,-140.8 1292.87,-137.3 1292.87,-144.3"/>
</g>
<!-- UserComponent -->
<g id="node12" class="node">
<title>UserComponent</title>
<polygon fill="#ffffb3" stroke="black" points="131.76,-84.8 24.24,-84.8 24.24,-48.8 131.76,-48.8 131.76,-84.8"/>
<text text-anchor="middle" x="78" y="-62.6" font-family="Times,serif" font-size="14.00">UserComponent</text>
</g>
<!-- UserComponent&#45;&gt;OtherComponentsModule -->
<g id="edge12" class="edge">
<title>UserComponent&#45;&gt;OtherComponentsModule</title>
<path fill="none" stroke="black" d="M78,-85.12C78,-108.46 78,-145.8 78,-145.8 78,-145.8 1292.8,-145.8 1292.8,-145.8"/>
<polygon fill="black" stroke="black" points="1292.8,-149.3 1302.8,-145.8 1292.8,-142.3 1292.8,-149.3"/>
</g>
<!-- FuseAlertModule -->
<g id="node14" class="node">
<title>FuseAlertModule</title>
<polygon fill="#8dd3c7" stroke="black" points="2696.25,-84.8 2693.25,-88.8 2672.25,-88.8 2669.25,-84.8 2581.75,-84.8 2581.75,-48.8 2696.25,-48.8 2696.25,-84.8"/>
<text text-anchor="middle" x="2639" y="-62.6" font-family="Times,serif" font-size="14.00">FuseAlertModule</text>
</g>
<!-- FuseAlertModule&#45;&gt;OtherComponentsModule -->
<g id="edge13" class="edge">
<title>FuseAlertModule&#45;&gt;OtherComponentsModule</title>
<path fill="none" stroke="black" d="M2639,-85.12C2639,-108.46 2639,-145.8 2639,-145.8 2639,-145.8 1475.38,-145.8 1475.38,-145.8"/>
<polygon fill="black" stroke="black" points="1475.38,-142.3 1465.38,-145.8 1475.38,-149.3 1475.38,-142.3"/>
</g>
<!-- FuseHighlightModule -->
<g id="node15" class="node">
<title>FuseHighlightModule</title>
<polygon fill="#8dd3c7" stroke="black" points="2563.66,-84.8 2560.66,-88.8 2539.66,-88.8 2536.66,-84.8 2424.34,-84.8 2424.34,-48.8 2563.66,-48.8 2563.66,-84.8"/>
<text text-anchor="middle" x="2494" y="-62.6" font-family="Times,serif" font-size="14.00">FuseHighlightModule</text>
</g>
<!-- FuseHighlightModule&#45;&gt;OtherComponentsModule -->
<g id="edge14" class="edge">
<title>FuseHighlightModule&#45;&gt;OtherComponentsModule</title>
<path fill="none" stroke="black" d="M2494,-85.09C2494,-107.01 2494,-140.8 2494,-140.8 2494,-140.8 1475.17,-140.8 1475.17,-140.8"/>
<polygon fill="black" stroke="black" points="1475.17,-137.3 1465.17,-140.8 1475.17,-144.3 1475.17,-137.3"/>
</g>
<!-- FuseNavigationModule -->
<g id="node16" class="node">
<title>FuseNavigationModule</title>
<polygon fill="#8dd3c7" stroke="black" points="2406.2,-84.8 2403.2,-88.8 2382.2,-88.8 2379.2,-84.8 2257.8,-84.8 2257.8,-48.8 2406.2,-48.8 2406.2,-84.8"/>
<text text-anchor="middle" x="2332" y="-62.6" font-family="Times,serif" font-size="14.00">FuseNavigationModule</text>
</g>
<!-- FuseNavigationModule&#45;&gt;OtherComponentsModule -->
<g id="edge15" class="edge">
<title>FuseNavigationModule&#45;&gt;OtherComponentsModule</title>
<path fill="none" stroke="black" d="M2332,-84.83C2332,-105.57 2332,-136.8 2332,-136.8 2332,-136.8 1475.24,-136.8 1475.24,-136.8"/>
<polygon fill="black" stroke="black" points="1475.24,-133.3 1465.24,-136.8 1475.24,-140.3 1475.24,-133.3"/>
</g>
<!-- FuseScrollResetModule -->
<g id="node17" class="node">
<title>FuseScrollResetModule</title>
<polygon fill="#8dd3c7" stroke="black" points="2240.03,-84.8 2237.03,-88.8 2216.03,-88.8 2213.03,-84.8 2089.97,-84.8 2089.97,-48.8 2240.03,-48.8 2240.03,-84.8"/>
<text text-anchor="middle" x="2165" y="-62.6" font-family="Times,serif" font-size="14.00">FuseScrollResetModule</text>
</g>
<!-- FuseScrollResetModule&#45;&gt;OtherComponentsModule -->
<g id="edge16" class="edge">
<title>FuseScrollResetModule&#45;&gt;OtherComponentsModule</title>
<path fill="none" stroke="black" d="M2165,-84.91C2165,-104.14 2165,-131.8 2165,-131.8 2165,-131.8 1475.37,-131.8 1475.37,-131.8"/>
<polygon fill="black" stroke="black" points="1475.37,-128.3 1465.37,-131.8 1475.37,-135.3 1475.37,-128.3"/>
</g>
<!-- SharedModule -->
<g id="node18" class="node">
<title>SharedModule</title>
<polygon fill="#8dd3c7" stroke="black" points="2072.42,-84.8 2069.42,-88.8 2048.42,-88.8 2045.42,-84.8 1973.58,-84.8 1973.58,-48.8 2072.42,-48.8 2072.42,-84.8"/>
<text text-anchor="middle" x="2023" y="-62.6" font-family="Times,serif" font-size="14.00">SharedModule</text>
</g>
<!-- SharedModule&#45;&gt;OtherComponentsModule -->
<g id="edge17" class="edge">
<title>SharedModule&#45;&gt;OtherComponentsModule</title>
<path fill="none" stroke="black" d="M2023,-85.1C2023,-103.07 2023,-127.8 2023,-127.8 2023,-127.8 1475.25,-127.8 1475.25,-127.8"/>
<polygon fill="black" stroke="black" points="1475.25,-124.3 1465.25,-127.8 1475.25,-131.3 1475.25,-124.3"/>
</g>
</g>
</svg>
