<?xml version="1.0" encoding="UTF-8" standalone="no"?>
<!DOCTYPE svg PUBLIC "-//W3C//DTD SVG 1.1//EN"
 "http://www.w3.org/Graphics/SVG/1.1/DTD/svg11.dtd">
<!-- Generated by graphviz version 2.47.3 (20210619.1520)
 -->
<!-- Title: dependencies Pages: 1 -->
<svg width="734pt" height="174pt"
 viewBox="0.00 0.00 734.00 173.80" xmlns="http://www.w3.org/2000/svg" xmlns:xlink="http://www.w3.org/1999/xlink">
<g id="graph0" class="graph" transform="scale(1 1) rotate(0) translate(4 169.8)">
<title>dependencies</title>
<polygon fill="white" stroke="transparent" points="-4,4 -4,-169.8 730,-169.8 730,4 -4,4"/>
<text text-anchor="middle" x="363" y="-8.2" font-family="sans-serif" font-size="14.00">dependencies</text>
<g id="clust1" class="cluster">
<title>cluster_FileManagerModule</title>
<polygon fill="none" stroke="black" stroke-dasharray="1,5" points="8,-32.8 8,-157.8 718,-157.8 718,-32.8 8,-32.8"/>
</g>
<g id="clust2" class="cluster">
<title>cluster_FileManagerModule_declarations</title>
<polygon fill="none" stroke="black" points="138,-40.8 138,-92.8 710,-92.8 710,-40.8 138,-40.8"/>
</g>
<g id="clust6" class="cluster">
<title>cluster_FileManagerModule_imports</title>
<polygon fill="none" stroke="black" points="16,-40.8 16,-92.8 130,-92.8 130,-40.8 16,-40.8"/>
</g>
<!-- FileManagerComponent -->
<g id="node1" class="node">
<title>FileManagerComponent</title>
<polygon fill="#ffffb3" stroke="black" points="702.36,-84.8 549.64,-84.8 549.64,-48.8 702.36,-48.8 702.36,-84.8"/>
<text text-anchor="middle" x="626" y="-62.6" font-family="Times,serif" font-size="14.00">FileManagerComponent</text>
</g>
<!-- FileManagerModule -->
<g id="node4" class="node">
<title>FileManagerModule</title>
<polygon fill="#8dd3c7" stroke="black" points="399.58,-149.8 396.58,-153.8 375.58,-153.8 372.58,-149.8 268.42,-149.8 268.42,-113.8 399.58,-113.8 399.58,-149.8"/>
<text text-anchor="middle" x="334" y="-127.6" font-family="Times,serif" font-size="14.00">FileManagerModule</text>
</g>
<!-- FileManagerComponent&#45;&gt;FileManagerModule -->
<g id="edge1" class="edge">
<title>FileManagerComponent&#45;&gt;FileManagerModule</title>
<path fill="none" stroke="black" d="M626,-84.91C626,-104.14 626,-131.8 626,-131.8 626,-131.8 409.89,-131.8 409.89,-131.8"/>
<polygon fill="black" stroke="black" points="409.89,-128.3 399.89,-131.8 409.89,-135.3 409.89,-128.3"/>
</g>
<!-- FileManagerDetailsComponent -->
<g id="node2" class="node">
<title>FileManagerDetailsComponent</title>
<polygon fill="#ffffb3" stroke="black" points="531.01,-84.8 338.99,-84.8 338.99,-48.8 531.01,-48.8 531.01,-84.8"/>
<text text-anchor="middle" x="435" y="-62.6" font-family="Times,serif" font-size="14.00">FileManagerDetailsComponent</text>
</g>
<!-- FileManagerDetailsComponent&#45;&gt;FileManagerModule -->
<g id="edge2" class="edge">
<title>FileManagerDetailsComponent&#45;&gt;FileManagerModule</title>
<path fill="none" stroke="black" d="M369.14,-84.91C369.14,-84.91 369.14,-103.79 369.14,-103.79"/>
<polygon fill="black" stroke="black" points="365.64,-103.79 369.14,-113.79 372.64,-103.79 365.64,-103.79"/>
</g>
<!-- FileManagerListComponent -->
<g id="node3" class="node">
<title>FileManagerListComponent</title>
<polygon fill="#ffffb3" stroke="black" points="320.14,-84.8 145.86,-84.8 145.86,-48.8 320.14,-48.8 320.14,-84.8"/>
<text text-anchor="middle" x="233" y="-62.6" font-family="Times,serif" font-size="14.00">FileManagerListComponent</text>
</g>
<!-- FileManagerListComponent&#45;&gt;FileManagerModule -->
<g id="edge3" class="edge">
<title>FileManagerListComponent&#45;&gt;FileManagerModule</title>
<path fill="none" stroke="black" d="M294.39,-84.91C294.39,-84.91 294.39,-103.79 294.39,-103.79"/>
<polygon fill="black" stroke="black" points="290.89,-103.79 294.39,-113.79 297.89,-103.79 290.89,-103.79"/>
</g>
<!-- SharedModule -->
<g id="node5" class="node">
<title>SharedModule</title>
<polygon fill="#8dd3c7" stroke="black" points="122.42,-84.8 119.42,-88.8 98.42,-88.8 95.42,-84.8 23.58,-84.8 23.58,-48.8 122.42,-48.8 122.42,-84.8"/>
<text text-anchor="middle" x="73" y="-62.6" font-family="Times,serif" font-size="14.00">SharedModule</text>
</g>
<!-- SharedModule&#45;&gt;FileManagerModule -->
<g id="edge4" class="edge">
<title>SharedModule&#45;&gt;FileManagerModule</title>
<path fill="none" stroke="black" d="M73,-84.91C73,-104.14 73,-131.8 73,-131.8 73,-131.8 258.14,-131.8 258.14,-131.8"/>
<polygon fill="black" stroke="black" points="258.14,-135.3 268.14,-131.8 258.14,-128.3 258.14,-135.3"/>
</g>
</g>
</svg>
