<?xml version="1.0" encoding="UTF-8" standalone="no"?>
<!DOCTYPE svg PUBLIC "-//W3C//DTD SVG 1.1//EN"
 "http://www.w3.org/Graphics/SVG/1.1/DTD/svg11.dtd">
<!-- Generated by graphviz version 2.47.3 (20210619.1520)
 -->
<!-- Title: dependencies Pages: 1 -->
<svg width="482pt" height="174pt"
 viewBox="0.00 0.00 482.00 173.80" xmlns="http://www.w3.org/2000/svg" xmlns:xlink="http://www.w3.org/1999/xlink">
<g id="graph0" class="graph" transform="scale(1 1) rotate(0) translate(4 169.8)">
<title>dependencies</title>
<polygon fill="white" stroke="transparent" points="-4,4 -4,-169.8 478,-169.8 478,4 -4,4"/>
<text text-anchor="middle" x="237" y="-8.2" font-family="sans-serif" font-size="14.00">dependencies</text>
<g id="clust1" class="cluster">
<title>cluster_AnimationsModule</title>
<polygon fill="none" stroke="black" stroke-dasharray="1,5" points="8,-32.8 8,-157.8 466,-157.8 466,-32.8 8,-32.8"/>
</g>
<g id="clust2" class="cluster">
<title>cluster_AnimationsModule_declarations</title>
<polygon fill="none" stroke="black" points="296,-40.8 296,-92.8 458,-92.8 458,-40.8 296,-40.8"/>
</g>
<g id="clust4" class="cluster">
<title>cluster_AnimationsModule_imports</title>
<polygon fill="none" stroke="black" points="16,-40.8 16,-92.8 288,-92.8 288,-40.8 16,-40.8"/>
</g>
<!-- AnimationsComponent -->
<g id="node1" class="node">
<title>AnimationsComponent</title>
<polygon fill="#ffffb3" stroke="black" points="450.16,-84.8 303.84,-84.8 303.84,-48.8 450.16,-48.8 450.16,-84.8"/>
<text text-anchor="middle" x="377" y="-62.6" font-family="Times,serif" font-size="14.00">AnimationsComponent</text>
</g>
<!-- AnimationsModule -->
<g id="node2" class="node">
<title>AnimationsModule</title>
<polygon fill="#8dd3c7" stroke="black" points="272.38,-149.8 269.38,-153.8 248.38,-153.8 245.38,-149.8 147.62,-149.8 147.62,-113.8 272.38,-113.8 272.38,-149.8"/>
<text text-anchor="middle" x="210" y="-127.6" font-family="Times,serif" font-size="14.00">AnimationsModule</text>
</g>
<!-- AnimationsComponent&#45;&gt;AnimationsModule -->
<g id="edge1" class="edge">
<title>AnimationsComponent&#45;&gt;AnimationsModule</title>
<path fill="none" stroke="black" d="M377,-84.91C377,-104.14 377,-131.8 377,-131.8 377,-131.8 282.66,-131.8 282.66,-131.8"/>
<polygon fill="black" stroke="black" points="282.66,-128.3 272.66,-131.8 282.66,-135.3 282.66,-128.3"/>
</g>
<!-- FuseHighlightModule -->
<g id="node3" class="node">
<title>FuseHighlightModule</title>
<polygon fill="#8dd3c7" stroke="black" points="279.66,-84.8 276.66,-88.8 255.66,-88.8 252.66,-84.8 140.34,-84.8 140.34,-48.8 279.66,-48.8 279.66,-84.8"/>
<text text-anchor="middle" x="210" y="-62.6" font-family="Times,serif" font-size="14.00">FuseHighlightModule</text>
</g>
<!-- FuseHighlightModule&#45;&gt;AnimationsModule -->
<g id="edge2" class="edge">
<title>FuseHighlightModule&#45;&gt;AnimationsModule</title>
<path fill="none" stroke="black" d="M210,-84.91C210,-84.91 210,-103.79 210,-103.79"/>
<polygon fill="black" stroke="black" points="206.5,-103.79 210,-113.79 213.5,-103.79 206.5,-103.79"/>
</g>
<!-- SharedModule -->
<g id="node4" class="node">
<title>SharedModule</title>
<polygon fill="#8dd3c7" stroke="black" points="122.42,-84.8 119.42,-88.8 98.42,-88.8 95.42,-84.8 23.58,-84.8 23.58,-48.8 122.42,-48.8 122.42,-84.8"/>
<text text-anchor="middle" x="73" y="-62.6" font-family="Times,serif" font-size="14.00">SharedModule</text>
</g>
<!-- SharedModule&#45;&gt;AnimationsModule -->
<g id="edge3" class="edge">
<title>SharedModule&#45;&gt;AnimationsModule</title>
<path fill="none" stroke="black" d="M73,-84.91C73,-104.14 73,-131.8 73,-131.8 73,-131.8 137.51,-131.8 137.51,-131.8"/>
<polygon fill="black" stroke="black" points="137.51,-135.3 147.51,-131.8 137.51,-128.3 137.51,-135.3"/>
</g>
</g>
</svg>
