<?xml version="1.0" encoding="UTF-8" standalone="no"?>
<!DOCTYPE svg PUBLIC "-//W3C//DTD SVG 1.1//EN"
 "http://www.w3.org/Graphics/SVG/1.1/DTD/svg11.dtd">
<!-- Generated by graphviz version 2.47.3 (20210619.1520)
 -->
<!-- Title: dependencies Pages: 1 -->
<svg width="1576pt" height="247pt"
 viewBox="0.00 0.00 1576.00 246.80" xmlns="http://www.w3.org/2000/svg" xmlns:xlink="http://www.w3.org/1999/xlink">
<g id="graph0" class="graph" transform="scale(1 1) rotate(0) translate(4 242.8)">
<title>dependencies</title>
<polygon fill="white" stroke="transparent" points="-4,4 -4,-242.8 1572,-242.8 1572,4 -4,4"/>
<text text-anchor="middle" x="784" y="-8.2" font-family="sans-serif" font-size="14.00">dependencies</text>
<g id="clust1" class="cluster">
<title>cluster_ClassicLayoutModule</title>
<polygon fill="none" stroke="black" stroke-dasharray="1,5" points="8,-32.8 8,-230.8 1560,-230.8 1560,-32.8 8,-32.8"/>
</g>
<g id="clust5" class="cluster">
<title>cluster_ClassicLayoutModule_exports</title>
<polygon fill="none" stroke="black" points="604,-170.8 604,-222.8 784,-222.8 784,-170.8 604,-170.8"/>
</g>
<g id="clust2" class="cluster">
<title>cluster_ClassicLayoutModule_declarations</title>
<polygon fill="none" stroke="black" points="1374,-40.8 1374,-92.8 1552,-92.8 1552,-40.8 1374,-40.8"/>
</g>
<g id="clust4" class="cluster">
<title>cluster_ClassicLayoutModule_imports</title>
<polygon fill="none" stroke="black" points="16,-40.8 16,-92.8 1366,-92.8 1366,-40.8 16,-40.8"/>
</g>
<!-- ClassicLayoutComponent -->
<g id="node1" class="node">
<title>ClassicLayoutComponent</title>
<polygon fill="#ffffb3" stroke="black" points="1543.93,-84.8 1382.07,-84.8 1382.07,-48.8 1543.93,-48.8 1543.93,-84.8"/>
<text text-anchor="middle" x="1463" y="-62.6" font-family="Times,serif" font-size="14.00">ClassicLayoutComponent</text>
</g>
<!-- ClassicLayoutModule -->
<g id="node2" class="node">
<title>ClassicLayoutModule</title>
<polygon fill="#8dd3c7" stroke="black" points="763.64,-149.8 760.64,-153.8 739.64,-153.8 736.64,-149.8 624.36,-149.8 624.36,-113.8 763.64,-113.8 763.64,-149.8"/>
<text text-anchor="middle" x="694" y="-127.6" font-family="Times,serif" font-size="14.00">ClassicLayoutModule</text>
</g>
<!-- ClassicLayoutComponent&#45;&gt;ClassicLayoutModule -->
<g id="edge1" class="edge">
<title>ClassicLayoutComponent&#45;&gt;ClassicLayoutModule</title>
<path fill="none" stroke="black" d="M1463,-85.05C1463,-107.82 1463,-143.8 1463,-143.8 1463,-143.8 773.94,-143.8 773.94,-143.8"/>
<polygon fill="black" stroke="black" points="773.94,-140.3 763.94,-143.8 773.94,-147.3 773.94,-140.3"/>
</g>
<!-- ClassicLayoutComponent  -->
<g id="node13" class="node">
<title>ClassicLayoutComponent </title>
<polygon fill="#fb8072" stroke="black" points="776.43,-214.8 611.57,-214.8 611.57,-178.8 776.43,-178.8 776.43,-214.8"/>
<text text-anchor="middle" x="694" y="-192.6" font-family="Times,serif" font-size="14.00">ClassicLayoutComponent </text>
</g>
<!-- ClassicLayoutModule&#45;&gt;ClassicLayoutComponent  -->
<g id="edge12" class="edge">
<title>ClassicLayoutModule&#45;&gt;ClassicLayoutComponent </title>
<path fill="none" stroke="black" stroke-dasharray="5,2" d="M694,-149.91C694,-149.91 694,-168.79 694,-168.79"/>
<polygon fill="black" stroke="black" points="690.5,-168.79 694,-178.79 697.5,-168.79 690.5,-168.79"/>
</g>
<!-- FuseFullscreenModule -->
<g id="node3" class="node">
<title>FuseFullscreenModule</title>
<polygon fill="#8dd3c7" stroke="black" points="1358.3,-84.8 1355.3,-88.8 1334.3,-88.8 1331.3,-84.8 1213.7,-84.8 1213.7,-48.8 1358.3,-48.8 1358.3,-84.8"/>
<text text-anchor="middle" x="1286" y="-62.6" font-family="Times,serif" font-size="14.00">FuseFullscreenModule</text>
</g>
<!-- FuseFullscreenModule&#45;&gt;ClassicLayoutModule -->
<g id="edge2" class="edge">
<title>FuseFullscreenModule&#45;&gt;ClassicLayoutModule</title>
<path fill="none" stroke="black" d="M1286,-85.08C1286,-106.12 1286,-137.8 1286,-137.8 1286,-137.8 773.65,-137.8 773.65,-137.8"/>
<polygon fill="black" stroke="black" points="773.65,-134.3 763.65,-137.8 773.65,-141.3 773.65,-134.3"/>
</g>
<!-- FuseNavigationModule -->
<g id="node4" class="node">
<title>FuseNavigationModule</title>
<polygon fill="#8dd3c7" stroke="black" points="1196.2,-84.8 1193.2,-88.8 1172.2,-88.8 1169.2,-84.8 1047.8,-84.8 1047.8,-48.8 1196.2,-48.8 1196.2,-84.8"/>
<text text-anchor="middle" x="1122" y="-62.6" font-family="Times,serif" font-size="14.00">FuseNavigationModule</text>
</g>
<!-- FuseNavigationModule&#45;&gt;ClassicLayoutModule -->
<g id="edge3" class="edge">
<title>FuseNavigationModule&#45;&gt;ClassicLayoutModule</title>
<path fill="none" stroke="black" d="M1122,-84.91C1122,-104.14 1122,-131.8 1122,-131.8 1122,-131.8 773.72,-131.8 773.72,-131.8"/>
<polygon fill="black" stroke="black" points="773.72,-128.3 763.72,-131.8 773.72,-135.3 773.72,-128.3"/>
</g>
<!-- LanguagesModule -->
<g id="node5" class="node">
<title>LanguagesModule</title>
<polygon fill="#8dd3c7" stroke="black" points="1030.19,-84.8 1027.19,-88.8 1006.19,-88.8 1003.19,-84.8 909.81,-84.8 909.81,-48.8 1030.19,-48.8 1030.19,-84.8"/>
<text text-anchor="middle" x="970" y="-62.6" font-family="Times,serif" font-size="14.00">LanguagesModule</text>
</g>
<!-- LanguagesModule&#45;&gt;ClassicLayoutModule -->
<g id="edge4" class="edge">
<title>LanguagesModule&#45;&gt;ClassicLayoutModule</title>
<path fill="none" stroke="black" d="M970,-84.82C970,-102.17 970,-125.8 970,-125.8 970,-125.8 773.65,-125.8 773.65,-125.8"/>
<polygon fill="black" stroke="black" points="773.65,-122.3 763.65,-125.8 773.65,-129.3 773.65,-122.3"/>
</g>
<!-- MessagesModule -->
<g id="node6" class="node">
<title>MessagesModule</title>
<polygon fill="#8dd3c7" stroke="black" points="891.97,-84.8 888.97,-88.8 867.97,-88.8 864.97,-84.8 778.03,-84.8 778.03,-48.8 891.97,-48.8 891.97,-84.8"/>
<text text-anchor="middle" x="835" y="-62.6" font-family="Times,serif" font-size="14.00">MessagesModule</text>
</g>
<!-- MessagesModule&#45;&gt;ClassicLayoutModule -->
<g id="edge5" class="edge">
<title>MessagesModule&#45;&gt;ClassicLayoutModule</title>
<path fill="none" stroke="black" d="M835,-85.04C835,-100.37 835,-119.8 835,-119.8 835,-119.8 773.67,-119.8 773.67,-119.8"/>
<polygon fill="black" stroke="black" points="773.67,-116.3 763.67,-119.8 773.67,-123.3 773.67,-116.3"/>
</g>
<!-- NotificationsModule -->
<g id="node7" class="node">
<title>NotificationsModule</title>
<polygon fill="#8dd3c7" stroke="black" points="760.14,-84.8 757.14,-88.8 736.14,-88.8 733.14,-84.8 627.86,-84.8 627.86,-48.8 760.14,-48.8 760.14,-84.8"/>
<text text-anchor="middle" x="694" y="-62.6" font-family="Times,serif" font-size="14.00">NotificationsModule</text>
</g>
<!-- NotificationsModule&#45;&gt;ClassicLayoutModule -->
<g id="edge6" class="edge">
<title>NotificationsModule&#45;&gt;ClassicLayoutModule</title>
<path fill="none" stroke="black" d="M694,-84.91C694,-84.91 694,-103.79 694,-103.79"/>
<polygon fill="black" stroke="black" points="690.5,-103.79 694,-113.79 697.5,-103.79 690.5,-103.79"/>
</g>
<!-- QuickChatModule -->
<g id="node8" class="node">
<title>QuickChatModule</title>
<polygon fill="#8dd3c7" stroke="black" points="610.2,-84.8 607.2,-88.8 586.2,-88.8 583.2,-84.8 489.8,-84.8 489.8,-48.8 610.2,-48.8 610.2,-84.8"/>
<text text-anchor="middle" x="550" y="-62.6" font-family="Times,serif" font-size="14.00">QuickChatModule</text>
</g>
<!-- QuickChatModule&#45;&gt;ClassicLayoutModule -->
<g id="edge7" class="edge">
<title>QuickChatModule&#45;&gt;ClassicLayoutModule</title>
<path fill="none" stroke="black" d="M550,-85.04C550,-100.37 550,-119.8 550,-119.8 550,-119.8 614.11,-119.8 614.11,-119.8"/>
<polygon fill="black" stroke="black" points="614.11,-123.3 624.11,-119.8 614.11,-116.3 614.11,-123.3"/>
</g>
<!-- SearchModule -->
<g id="node9" class="node">
<title>SearchModule</title>
<polygon fill="#8dd3c7" stroke="black" points="471.64,-84.8 468.64,-88.8 447.64,-88.8 444.64,-84.8 374.36,-84.8 374.36,-48.8 471.64,-48.8 471.64,-84.8"/>
<text text-anchor="middle" x="423" y="-62.6" font-family="Times,serif" font-size="14.00">SearchModule</text>
</g>
<!-- SearchModule&#45;&gt;ClassicLayoutModule -->
<g id="edge8" class="edge">
<title>SearchModule&#45;&gt;ClassicLayoutModule</title>
<path fill="none" stroke="black" d="M423,-84.82C423,-102.17 423,-125.8 423,-125.8 423,-125.8 614.21,-125.8 614.21,-125.8"/>
<polygon fill="black" stroke="black" points="614.21,-129.3 624.21,-125.8 614.21,-122.3 614.21,-129.3"/>
</g>
<!-- SharedModule -->
<g id="node10" class="node">
<title>SharedModule</title>
<polygon fill="#8dd3c7" stroke="black" points="356.42,-84.8 353.42,-88.8 332.42,-88.8 329.42,-84.8 257.58,-84.8 257.58,-48.8 356.42,-48.8 356.42,-84.8"/>
<text text-anchor="middle" x="307" y="-62.6" font-family="Times,serif" font-size="14.00">SharedModule</text>
</g>
<!-- SharedModule&#45;&gt;ClassicLayoutModule -->
<g id="edge9" class="edge">
<title>SharedModule&#45;&gt;ClassicLayoutModule</title>
<path fill="none" stroke="black" d="M307,-84.91C307,-104.14 307,-131.8 307,-131.8 307,-131.8 613.92,-131.8 613.92,-131.8"/>
<polygon fill="black" stroke="black" points="613.92,-135.3 623.92,-131.8 613.92,-128.3 613.92,-135.3"/>
</g>
<!-- ShortcutsModule -->
<g id="node11" class="node">
<title>ShortcutsModule</title>
<polygon fill="#8dd3c7" stroke="black" points="240.43,-84.8 237.43,-88.8 216.43,-88.8 213.43,-84.8 127.57,-84.8 127.57,-48.8 240.43,-48.8 240.43,-84.8"/>
<text text-anchor="middle" x="184" y="-62.6" font-family="Times,serif" font-size="14.00">ShortcutsModule</text>
</g>
<!-- ShortcutsModule&#45;&gt;ClassicLayoutModule -->
<g id="edge10" class="edge">
<title>ShortcutsModule&#45;&gt;ClassicLayoutModule</title>
<path fill="none" stroke="black" d="M184,-85.08C184,-106.12 184,-137.8 184,-137.8 184,-137.8 614.16,-137.8 614.16,-137.8"/>
<polygon fill="black" stroke="black" points="614.16,-141.3 624.16,-137.8 614.16,-134.3 614.16,-141.3"/>
</g>
<!-- UserModule -->
<g id="node12" class="node">
<title>UserModule</title>
<polygon fill="#8dd3c7" stroke="black" points="109.98,-84.8 106.98,-88.8 85.98,-88.8 82.98,-84.8 24.02,-84.8 24.02,-48.8 109.98,-48.8 109.98,-84.8"/>
<text text-anchor="middle" x="67" y="-62.6" font-family="Times,serif" font-size="14.00">UserModule</text>
</g>
<!-- UserModule&#45;&gt;ClassicLayoutModule -->
<g id="edge11" class="edge">
<title>UserModule&#45;&gt;ClassicLayoutModule</title>
<path fill="none" stroke="black" d="M67,-85.05C67,-107.82 67,-143.8 67,-143.8 67,-143.8 614.2,-143.8 614.2,-143.8"/>
<polygon fill="black" stroke="black" points="614.2,-147.3 624.2,-143.8 614.2,-140.3 614.2,-147.3"/>
</g>
</g>
</svg>
