<?xml version="1.0" encoding="UTF-8" standalone="no"?>
<!DOCTYPE svg PUBLIC "-//W3C//DTD SVG 1.1//EN"
 "http://www.w3.org/Graphics/SVG/1.1/DTD/svg11.dtd">
<!-- Generated by graphviz version 2.47.3 (20210619.1520)
 -->
<!-- Title: dependencies Pages: 1 -->
<svg width="1552pt" height="174pt"
 viewBox="0.00 0.00 1552.00 173.80" xmlns="http://www.w3.org/2000/svg" xmlns:xlink="http://www.w3.org/1999/xlink">
<g id="graph0" class="graph" transform="scale(1 1) rotate(0) translate(4 169.8)">
<title>dependencies</title>
<polygon fill="white" stroke="transparent" points="-4,4 -4,-169.8 1548,-169.8 1548,4 -4,4"/>
<text text-anchor="middle" x="772" y="-8.2" font-family="sans-serif" font-size="14.00">dependencies</text>
<g id="clust1" class="cluster">
<title>cluster_HelpCenterModule</title>
<polygon fill="none" stroke="black" stroke-dasharray="1,5" points="8,-32.8 8,-157.8 1536,-157.8 1536,-32.8 8,-32.8"/>
</g>
<g id="clust9" class="cluster">
<title>cluster_HelpCenterModule_imports</title>
<polygon fill="none" stroke="black" points="1281,-40.8 1281,-92.8 1528,-92.8 1528,-40.8 1281,-40.8"/>
</g>
<g id="clust2" class="cluster">
<title>cluster_HelpCenterModule_declarations</title>
<polygon fill="none" stroke="black" points="16,-40.8 16,-92.8 1273,-92.8 1273,-40.8 16,-40.8"/>
</g>
<!-- HelpCenterComponent -->
<g id="node1" class="node">
<title>HelpCenterComponent</title>
<polygon fill="#ffffb3" stroke="black" points="1264.86,-84.8 1119.14,-84.8 1119.14,-48.8 1264.86,-48.8 1264.86,-84.8"/>
<text text-anchor="middle" x="1192" y="-62.6" font-family="Times,serif" font-size="14.00">HelpCenterComponent</text>
</g>
<!-- HelpCenterModule -->
<g id="node7" class="node">
<title>HelpCenterModule</title>
<polygon fill="#8dd3c7" stroke="black" points="965.08,-149.8 962.08,-153.8 941.08,-153.8 938.08,-149.8 840.92,-149.8 840.92,-113.8 965.08,-113.8 965.08,-149.8"/>
<text text-anchor="middle" x="903" y="-127.6" font-family="Times,serif" font-size="14.00">HelpCenterModule</text>
</g>
<!-- HelpCenterComponent&#45;&gt;HelpCenterModule -->
<g id="edge1" class="edge">
<title>HelpCenterComponent&#45;&gt;HelpCenterModule</title>
<path fill="none" stroke="black" d="M1192,-84.83C1192,-101.2 1192,-122.8 1192,-122.8 1192,-122.8 975.35,-122.8 975.35,-122.8"/>
<polygon fill="black" stroke="black" points="975.35,-119.3 965.35,-122.8 975.35,-126.3 975.35,-119.3"/>
</g>
<!-- HelpCenterFaqsComponent -->
<g id="node2" class="node">
<title>HelpCenterFaqsComponent</title>
<polygon fill="#ffffb3" stroke="black" points="1101.3,-84.8 928.7,-84.8 928.7,-48.8 1101.3,-48.8 1101.3,-84.8"/>
<text text-anchor="middle" x="1015" y="-62.6" font-family="Times,serif" font-size="14.00">HelpCenterFaqsComponent</text>
</g>
<!-- HelpCenterFaqsComponent&#45;&gt;HelpCenterModule -->
<g id="edge2" class="edge">
<title>HelpCenterFaqsComponent&#45;&gt;HelpCenterModule</title>
<path fill="none" stroke="black" d="M946.94,-84.91C946.94,-84.91 946.94,-103.79 946.94,-103.79"/>
<polygon fill="black" stroke="black" points="943.44,-103.79 946.94,-113.79 950.44,-103.79 943.44,-103.79"/>
</g>
<!-- HelpCenterGuidesCategoryComponent -->
<g id="node3" class="node">
<title>HelpCenterGuidesCategoryComponent</title>
<polygon fill="#ffffb3" stroke="black" points="910.33,-84.8 673.67,-84.8 673.67,-48.8 910.33,-48.8 910.33,-84.8"/>
<text text-anchor="middle" x="792" y="-62.6" font-family="Times,serif" font-size="14.00">HelpCenterGuidesCategoryComponent</text>
</g>
<!-- HelpCenterGuidesCategoryComponent&#45;&gt;HelpCenterModule -->
<g id="edge3" class="edge">
<title>HelpCenterGuidesCategoryComponent&#45;&gt;HelpCenterModule</title>
<path fill="none" stroke="black" d="M875.69,-84.91C875.69,-84.91 875.69,-103.79 875.69,-103.79"/>
<polygon fill="black" stroke="black" points="872.19,-103.79 875.69,-113.79 879.19,-103.79 872.19,-103.79"/>
</g>
<!-- HelpCenterGuidesComponent -->
<g id="node4" class="node">
<title>HelpCenterGuidesComponent</title>
<polygon fill="#ffffb3" stroke="black" points="655.52,-84.8 470.48,-84.8 470.48,-48.8 655.52,-48.8 655.52,-84.8"/>
<text text-anchor="middle" x="563" y="-62.6" font-family="Times,serif" font-size="14.00">HelpCenterGuidesComponent</text>
</g>
<!-- HelpCenterGuidesComponent&#45;&gt;HelpCenterModule -->
<g id="edge4" class="edge">
<title>HelpCenterGuidesComponent&#45;&gt;HelpCenterModule</title>
<path fill="none" stroke="black" d="M563,-84.83C563,-101.2 563,-122.8 563,-122.8 563,-122.8 830.64,-122.8 830.64,-122.8"/>
<polygon fill="black" stroke="black" points="830.64,-126.3 840.64,-122.8 830.64,-119.3 830.64,-126.3"/>
</g>
<!-- HelpCenterGuidesGuideComponent -->
<g id="node5" class="node">
<title>HelpCenterGuidesGuideComponent</title>
<polygon fill="#ffffb3" stroke="black" points="451.73,-84.8 232.27,-84.8 232.27,-48.8 451.73,-48.8 451.73,-84.8"/>
<text text-anchor="middle" x="342" y="-62.6" font-family="Times,serif" font-size="14.00">HelpCenterGuidesGuideComponent</text>
</g>
<!-- HelpCenterGuidesGuideComponent&#45;&gt;HelpCenterModule -->
<g id="edge5" class="edge">
<title>HelpCenterGuidesGuideComponent&#45;&gt;HelpCenterModule</title>
<path fill="none" stroke="black" d="M342,-84.91C342,-104.14 342,-131.8 342,-131.8 342,-131.8 830.82,-131.8 830.82,-131.8"/>
<polygon fill="black" stroke="black" points="830.82,-135.3 840.82,-131.8 830.82,-128.3 830.82,-135.3"/>
</g>
<!-- HelpCenterSupportComponent -->
<g id="node6" class="node">
<title>HelpCenterSupportComponent</title>
<polygon fill="#ffffb3" stroke="black" points="214.2,-84.8 23.8,-84.8 23.8,-48.8 214.2,-48.8 214.2,-84.8"/>
<text text-anchor="middle" x="119" y="-62.6" font-family="Times,serif" font-size="14.00">HelpCenterSupportComponent</text>
</g>
<!-- HelpCenterSupportComponent&#45;&gt;HelpCenterModule -->
<g id="edge6" class="edge">
<title>HelpCenterSupportComponent&#45;&gt;HelpCenterModule</title>
<path fill="none" stroke="black" d="M119,-85.09C119,-107.01 119,-140.8 119,-140.8 119,-140.8 830.83,-140.8 830.83,-140.8"/>
<polygon fill="black" stroke="black" points="830.83,-144.3 840.83,-140.8 830.83,-137.3 830.83,-144.3"/>
</g>
<!-- FuseAlertModule -->
<g id="node8" class="node">
<title>FuseAlertModule</title>
<polygon fill="#8dd3c7" stroke="black" points="1520.25,-84.8 1517.25,-88.8 1496.25,-88.8 1493.25,-84.8 1405.75,-84.8 1405.75,-48.8 1520.25,-48.8 1520.25,-84.8"/>
<text text-anchor="middle" x="1463" y="-62.6" font-family="Times,serif" font-size="14.00">FuseAlertModule</text>
</g>
<!-- FuseAlertModule&#45;&gt;HelpCenterModule -->
<g id="edge7" class="edge">
<title>FuseAlertModule&#45;&gt;HelpCenterModule</title>
<path fill="none" stroke="black" d="M1463,-85.09C1463,-107.01 1463,-140.8 1463,-140.8 1463,-140.8 975.07,-140.8 975.07,-140.8"/>
<polygon fill="black" stroke="black" points="975.07,-137.3 965.07,-140.8 975.07,-144.3 975.07,-137.3"/>
</g>
<!-- SharedModule -->
<g id="node9" class="node">
<title>SharedModule</title>
<polygon fill="#8dd3c7" stroke="black" points="1387.42,-84.8 1384.42,-88.8 1363.42,-88.8 1360.42,-84.8 1288.58,-84.8 1288.58,-48.8 1387.42,-48.8 1387.42,-84.8"/>
<text text-anchor="middle" x="1338" y="-62.6" font-family="Times,serif" font-size="14.00">SharedModule</text>
</g>
<!-- SharedModule&#45;&gt;HelpCenterModule -->
<g id="edge8" class="edge">
<title>SharedModule&#45;&gt;HelpCenterModule</title>
<path fill="none" stroke="black" d="M1338,-84.91C1338,-104.14 1338,-131.8 1338,-131.8 1338,-131.8 975.32,-131.8 975.32,-131.8"/>
<polygon fill="black" stroke="black" points="975.32,-128.3 965.32,-131.8 975.32,-135.3 975.32,-128.3"/>
</g>
</g>
</svg>
