<?xml version="1.0" encoding="UTF-8" standalone="no"?>
<!DOCTYPE svg PUBLIC "-//W3C//DTD SVG 1.1//EN"
 "http://www.w3.org/Graphics/SVG/1.1/DTD/svg11.dtd">
<!-- Generated by graphviz version 2.47.3 (20210619.1520)
 -->
<!-- Title: dependencies Pages: 1 -->
<svg width="288pt" height="174pt"
 viewBox="0.00 0.00 288.00 173.80" xmlns="http://www.w3.org/2000/svg" xmlns:xlink="http://www.w3.org/1999/xlink">
<g id="graph0" class="graph" transform="scale(1 1) rotate(0) translate(4 169.8)">
<title>dependencies</title>
<polygon fill="white" stroke="transparent" points="-4,4 -4,-169.8 284,-169.8 284,4 -4,4"/>
<text text-anchor="middle" x="140" y="-8.2" font-family="sans-serif" font-size="14.00">dependencies</text>
<g id="clust1" class="cluster">
<title>cluster_FuseMediaWatcherModule</title>
<polygon fill="none" stroke="black" stroke-dasharray="1,5" points="8,-32.8 8,-157.8 272,-157.8 272,-32.8 8,-32.8"/>
</g>
<g id="clust6" class="cluster">
<title>cluster_FuseMediaWatcherModule_providers</title>
<polygon fill="none" stroke="black" points="16,-40.8 16,-92.8 264,-92.8 264,-40.8 16,-40.8"/>
</g>
<!-- FuseMediaWatcherService -->
<g id="node1" class="node">
<title>FuseMediaWatcherService</title>
<ellipse fill="#fdb462" stroke="black" cx="140" cy="-66.8" rx="115.71" ry="18"/>
<text text-anchor="middle" x="140" y="-62.6" font-family="Times,serif" font-size="14.00">FuseMediaWatcherService</text>
</g>
<!-- FuseMediaWatcherModule -->
<g id="node2" class="node">
<title>FuseMediaWatcherModule</title>
<polygon fill="#8dd3c7" stroke="black" points="224.67,-149.8 221.67,-153.8 200.67,-153.8 197.67,-149.8 55.33,-149.8 55.33,-113.8 224.67,-113.8 224.67,-149.8"/>
<text text-anchor="middle" x="140" y="-127.6" font-family="Times,serif" font-size="14.00">FuseMediaWatcherModule</text>
</g>
<!-- FuseMediaWatcherService&#45;&gt;FuseMediaWatcherModule -->
<g id="edge1" class="edge">
<title>FuseMediaWatcherService&#45;&gt;FuseMediaWatcherModule</title>
<path fill="none" stroke="black" d="M140,-84.91C140,-84.91 140,-103.79 140,-103.79"/>
<polygon fill="black" stroke="black" points="136.5,-103.79 140,-113.79 143.5,-103.79 136.5,-103.79"/>
</g>
</g>
</svg>
