<?xml version="1.0" encoding="UTF-8" standalone="no"?>
<!DOCTYPE svg PUBLIC "-//W3C//DTD SVG 1.1//EN"
 "http://www.w3.org/Graphics/SVG/1.1/DTD/svg11.dtd">
<!-- Generated by graphviz version 2.47.3 (20210619.1520)
 -->
<!-- Title: dependencies Pages: 1 -->
<svg width="340pt" height="174pt"
 viewBox="0.00 0.00 340.00 173.80" xmlns="http://www.w3.org/2000/svg" xmlns:xlink="http://www.w3.org/1999/xlink">
<g id="graph0" class="graph" transform="scale(1 1) rotate(0) translate(4 169.8)">
<title>dependencies</title>
<polygon fill="white" stroke="transparent" points="-4,4 -4,-169.8 336,-169.8 336,4 -4,4"/>
<text text-anchor="middle" x="166" y="-8.2" font-family="sans-serif" font-size="14.00">dependencies</text>
<g id="clust1" class="cluster">
<title>cluster_FormsLayoutsModule</title>
<polygon fill="none" stroke="black" stroke-dasharray="1,5" points="8,-32.8 8,-157.8 324,-157.8 324,-32.8 8,-32.8"/>
</g>
<g id="clust2" class="cluster">
<title>cluster_FormsLayoutsModule_declarations</title>
<polygon fill="none" stroke="black" points="138,-40.8 138,-92.8 316,-92.8 316,-40.8 138,-40.8"/>
</g>
<g id="clust4" class="cluster">
<title>cluster_FormsLayoutsModule_imports</title>
<polygon fill="none" stroke="black" points="16,-40.8 16,-92.8 130,-92.8 130,-40.8 16,-40.8"/>
</g>
<!-- FormsLayoutsComponent -->
<g id="node1" class="node">
<title>FormsLayoutsComponent</title>
<polygon fill="#ffffb3" stroke="black" points="308.21,-84.8 145.79,-84.8 145.79,-48.8 308.21,-48.8 308.21,-84.8"/>
<text text-anchor="middle" x="227" y="-62.6" font-family="Times,serif" font-size="14.00">FormsLayoutsComponent</text>
</g>
<!-- FormsLayoutsModule -->
<g id="node2" class="node">
<title>FormsLayoutsModule</title>
<polygon fill="#8dd3c7" stroke="black" points="226.43,-149.8 223.43,-153.8 202.43,-153.8 199.43,-149.8 85.57,-149.8 85.57,-113.8 226.43,-113.8 226.43,-149.8"/>
<text text-anchor="middle" x="156" y="-127.6" font-family="Times,serif" font-size="14.00">FormsLayoutsModule</text>
</g>
<!-- FormsLayoutsComponent&#45;&gt;FormsLayoutsModule -->
<g id="edge1" class="edge">
<title>FormsLayoutsComponent&#45;&gt;FormsLayoutsModule</title>
<path fill="none" stroke="black" d="M186.05,-84.91C186.05,-84.91 186.05,-103.79 186.05,-103.79"/>
<polygon fill="black" stroke="black" points="182.55,-103.79 186.05,-113.79 189.55,-103.79 182.55,-103.79"/>
</g>
<!-- SharedModule -->
<g id="node3" class="node">
<title>SharedModule</title>
<polygon fill="#8dd3c7" stroke="black" points="122.42,-84.8 119.42,-88.8 98.42,-88.8 95.42,-84.8 23.58,-84.8 23.58,-48.8 122.42,-48.8 122.42,-84.8"/>
<text text-anchor="middle" x="73" y="-62.6" font-family="Times,serif" font-size="14.00">SharedModule</text>
</g>
<!-- SharedModule&#45;&gt;FormsLayoutsModule -->
<g id="edge2" class="edge">
<title>SharedModule&#45;&gt;FormsLayoutsModule</title>
<path fill="none" stroke="black" d="M104,-84.91C104,-84.91 104,-103.79 104,-103.79"/>
<polygon fill="black" stroke="black" points="100.5,-103.79 104,-113.79 107.5,-103.79 100.5,-103.79"/>
</g>
</g>
</svg>
