<?xml version="1.0" encoding="UTF-8" standalone="no"?>
<!DOCTYPE svg PUBLIC "-//W3C//DTD SVG 1.1//EN"
 "http://www.w3.org/Graphics/SVG/1.1/DTD/svg11.dtd">
<!-- Generated by graphviz version 2.47.3 (20210619.1520)
 -->
<!-- Title: dependencies Pages: 1 -->
<svg width="1588pt" height="247pt"
 viewBox="0.00 0.00 1588.00 246.80" xmlns="http://www.w3.org/2000/svg" xmlns:xlink="http://www.w3.org/1999/xlink">
<g id="graph0" class="graph" transform="scale(1 1) rotate(0) translate(4 242.8)">
<title>dependencies</title>
<polygon fill="white" stroke="transparent" points="-4,4 -4,-242.8 1584,-242.8 1584,4 -4,4"/>
<text text-anchor="middle" x="790" y="-8.2" font-family="sans-serif" font-size="14.00">dependencies</text>
<g id="clust1" class="cluster">
<title>cluster_FuturisticLayoutModule</title>
<polygon fill="none" stroke="black" stroke-dasharray="1,5" points="8,-32.8 8,-230.8 1572,-230.8 1572,-32.8 8,-32.8"/>
</g>
<g id="clust4" class="cluster">
<title>cluster_FuturisticLayoutModule_imports</title>
<polygon fill="none" stroke="black" points="214,-40.8 214,-92.8 1564,-92.8 1564,-40.8 214,-40.8"/>
</g>
<g id="clust5" class="cluster">
<title>cluster_FuturisticLayoutModule_exports</title>
<polygon fill="none" stroke="black" points="651,-170.8 651,-222.8 845,-222.8 845,-170.8 651,-170.8"/>
</g>
<g id="clust2" class="cluster">
<title>cluster_FuturisticLayoutModule_declarations</title>
<polygon fill="none" stroke="black" points="16,-40.8 16,-92.8 206,-92.8 206,-40.8 16,-40.8"/>
</g>
<!-- FuturisticLayoutComponent -->
<g id="node1" class="node">
<title>FuturisticLayoutComponent</title>
<polygon fill="#ffffb3" stroke="black" points="198.16,-84.8 23.84,-84.8 23.84,-48.8 198.16,-48.8 198.16,-84.8"/>
<text text-anchor="middle" x="111" y="-62.6" font-family="Times,serif" font-size="14.00">FuturisticLayoutComponent</text>
</g>
<!-- FuturisticLayoutModule -->
<g id="node2" class="node">
<title>FuturisticLayoutModule</title>
<polygon fill="#8dd3c7" stroke="black" points="824.37,-149.8 821.37,-153.8 800.37,-153.8 797.37,-149.8 671.63,-149.8 671.63,-113.8 824.37,-113.8 824.37,-149.8"/>
<text text-anchor="middle" x="748" y="-127.6" font-family="Times,serif" font-size="14.00">FuturisticLayoutModule</text>
</g>
<!-- FuturisticLayoutComponent&#45;&gt;FuturisticLayoutModule -->
<g id="edge1" class="edge">
<title>FuturisticLayoutComponent&#45;&gt;FuturisticLayoutModule</title>
<path fill="none" stroke="black" d="M111,-85.05C111,-107.82 111,-143.8 111,-143.8 111,-143.8 661.48,-143.8 661.48,-143.8"/>
<polygon fill="black" stroke="black" points="661.48,-147.3 671.48,-143.8 661.48,-140.3 661.48,-147.3"/>
</g>
<!-- FuturisticLayoutComponent  -->
<g id="node13" class="node">
<title>FuturisticLayoutComponent </title>
<polygon fill="#fb8072" stroke="black" points="837.16,-214.8 658.84,-214.8 658.84,-178.8 837.16,-178.8 837.16,-214.8"/>
<text text-anchor="middle" x="748" y="-192.6" font-family="Times,serif" font-size="14.00">FuturisticLayoutComponent </text>
</g>
<!-- FuturisticLayoutModule&#45;&gt;FuturisticLayoutComponent  -->
<g id="edge12" class="edge">
<title>FuturisticLayoutModule&#45;&gt;FuturisticLayoutComponent </title>
<path fill="none" stroke="black" stroke-dasharray="5,2" d="M748,-149.91C748,-149.91 748,-168.79 748,-168.79"/>
<polygon fill="black" stroke="black" points="744.5,-168.79 748,-178.79 751.5,-168.79 744.5,-168.79"/>
</g>
<!-- FuseFullscreenModule -->
<g id="node3" class="node">
<title>FuseFullscreenModule</title>
<polygon fill="#8dd3c7" stroke="black" points="1556.3,-84.8 1553.3,-88.8 1532.3,-88.8 1529.3,-84.8 1411.7,-84.8 1411.7,-48.8 1556.3,-48.8 1556.3,-84.8"/>
<text text-anchor="middle" x="1484" y="-62.6" font-family="Times,serif" font-size="14.00">FuseFullscreenModule</text>
</g>
<!-- FuseFullscreenModule&#45;&gt;FuturisticLayoutModule -->
<g id="edge2" class="edge">
<title>FuseFullscreenModule&#45;&gt;FuturisticLayoutModule</title>
<path fill="none" stroke="black" d="M1484,-85.05C1484,-107.82 1484,-143.8 1484,-143.8 1484,-143.8 834.68,-143.8 834.68,-143.8"/>
<polygon fill="black" stroke="black" points="834.68,-140.3 824.68,-143.8 834.68,-147.3 834.68,-140.3"/>
</g>
<!-- FuseNavigationModule -->
<g id="node4" class="node">
<title>FuseNavigationModule</title>
<polygon fill="#8dd3c7" stroke="black" points="1394.2,-84.8 1391.2,-88.8 1370.2,-88.8 1367.2,-84.8 1245.8,-84.8 1245.8,-48.8 1394.2,-48.8 1394.2,-84.8"/>
<text text-anchor="middle" x="1320" y="-62.6" font-family="Times,serif" font-size="14.00">FuseNavigationModule</text>
</g>
<!-- FuseNavigationModule&#45;&gt;FuturisticLayoutModule -->
<g id="edge3" class="edge">
<title>FuseNavigationModule&#45;&gt;FuturisticLayoutModule</title>
<path fill="none" stroke="black" d="M1320,-85.08C1320,-106.12 1320,-137.8 1320,-137.8 1320,-137.8 834.55,-137.8 834.55,-137.8"/>
<polygon fill="black" stroke="black" points="834.55,-134.3 824.55,-137.8 834.55,-141.3 834.55,-134.3"/>
</g>
<!-- LanguagesModule -->
<g id="node5" class="node">
<title>LanguagesModule</title>
<polygon fill="#8dd3c7" stroke="black" points="1228.19,-84.8 1225.19,-88.8 1204.19,-88.8 1201.19,-84.8 1107.81,-84.8 1107.81,-48.8 1228.19,-48.8 1228.19,-84.8"/>
<text text-anchor="middle" x="1168" y="-62.6" font-family="Times,serif" font-size="14.00">LanguagesModule</text>
</g>
<!-- LanguagesModule&#45;&gt;FuturisticLayoutModule -->
<g id="edge4" class="edge">
<title>LanguagesModule&#45;&gt;FuturisticLayoutModule</title>
<path fill="none" stroke="black" d="M1168,-84.91C1168,-104.14 1168,-131.8 1168,-131.8 1168,-131.8 834.55,-131.8 834.55,-131.8"/>
<polygon fill="black" stroke="black" points="834.55,-128.3 824.55,-131.8 834.55,-135.3 834.55,-128.3"/>
</g>
<!-- MessagesModule -->
<g id="node6" class="node">
<title>MessagesModule</title>
<polygon fill="#8dd3c7" stroke="black" points="1089.97,-84.8 1086.97,-88.8 1065.97,-88.8 1062.97,-84.8 976.03,-84.8 976.03,-48.8 1089.97,-48.8 1089.97,-84.8"/>
<text text-anchor="middle" x="1033" y="-62.6" font-family="Times,serif" font-size="14.00">MessagesModule</text>
</g>
<!-- MessagesModule&#45;&gt;FuturisticLayoutModule -->
<g id="edge5" class="edge">
<title>MessagesModule&#45;&gt;FuturisticLayoutModule</title>
<path fill="none" stroke="black" d="M1033,-84.82C1033,-102.17 1033,-125.8 1033,-125.8 1033,-125.8 834.37,-125.8 834.37,-125.8"/>
<polygon fill="black" stroke="black" points="834.37,-122.3 824.37,-125.8 834.37,-129.3 834.37,-122.3"/>
</g>
<!-- NotificationsModule -->
<g id="node7" class="node">
<title>NotificationsModule</title>
<polygon fill="#8dd3c7" stroke="black" points="958.14,-84.8 955.14,-88.8 934.14,-88.8 931.14,-84.8 825.86,-84.8 825.86,-48.8 958.14,-48.8 958.14,-84.8"/>
<text text-anchor="middle" x="892" y="-62.6" font-family="Times,serif" font-size="14.00">NotificationsModule</text>
</g>
<!-- NotificationsModule&#45;&gt;FuturisticLayoutModule -->
<g id="edge6" class="edge">
<title>NotificationsModule&#45;&gt;FuturisticLayoutModule</title>
<path fill="none" stroke="black" d="M831.38,-85.04C831.38,-100.37 831.38,-119.8 831.38,-119.8 831.38,-119.8 830.7,-119.8 830.7,-119.8"/>
<polygon fill="black" stroke="black" points="834.55,-116.3 824.55,-119.8 834.55,-123.3 834.55,-116.3"/>
</g>
<!-- QuickChatModule -->
<g id="node8" class="node">
<title>QuickChatModule</title>
<polygon fill="#8dd3c7" stroke="black" points="808.2,-84.8 805.2,-88.8 784.2,-88.8 781.2,-84.8 687.8,-84.8 687.8,-48.8 808.2,-48.8 808.2,-84.8"/>
<text text-anchor="middle" x="748" y="-62.6" font-family="Times,serif" font-size="14.00">QuickChatModule</text>
</g>
<!-- QuickChatModule&#45;&gt;FuturisticLayoutModule -->
<g id="edge7" class="edge">
<title>QuickChatModule&#45;&gt;FuturisticLayoutModule</title>
<path fill="none" stroke="black" d="M748,-84.91C748,-84.91 748,-103.79 748,-103.79"/>
<polygon fill="black" stroke="black" points="744.5,-103.79 748,-113.79 751.5,-103.79 744.5,-103.79"/>
</g>
<!-- SearchModule -->
<g id="node9" class="node">
<title>SearchModule</title>
<polygon fill="#8dd3c7" stroke="black" points="669.64,-84.8 666.64,-88.8 645.64,-88.8 642.64,-84.8 572.36,-84.8 572.36,-48.8 669.64,-48.8 669.64,-84.8"/>
<text text-anchor="middle" x="621" y="-62.6" font-family="Times,serif" font-size="14.00">SearchModule</text>
</g>
<!-- SearchModule&#45;&gt;FuturisticLayoutModule -->
<g id="edge8" class="edge">
<title>SearchModule&#45;&gt;FuturisticLayoutModule</title>
<path fill="none" stroke="black" d="M664.37,-85.04C664.37,-100.37 664.37,-119.8 664.37,-119.8 664.37,-119.8 665.08,-119.8 665.08,-119.8"/>
<polygon fill="black" stroke="black" points="661.5,-123.3 671.5,-119.8 661.5,-116.3 661.5,-123.3"/>
</g>
<!-- SharedModule -->
<g id="node10" class="node">
<title>SharedModule</title>
<polygon fill="#8dd3c7" stroke="black" points="554.42,-84.8 551.42,-88.8 530.42,-88.8 527.42,-84.8 455.58,-84.8 455.58,-48.8 554.42,-48.8 554.42,-84.8"/>
<text text-anchor="middle" x="505" y="-62.6" font-family="Times,serif" font-size="14.00">SharedModule</text>
</g>
<!-- SharedModule&#45;&gt;FuturisticLayoutModule -->
<g id="edge9" class="edge">
<title>SharedModule&#45;&gt;FuturisticLayoutModule</title>
<path fill="none" stroke="black" d="M505,-84.82C505,-102.17 505,-125.8 505,-125.8 505,-125.8 661.45,-125.8 661.45,-125.8"/>
<polygon fill="black" stroke="black" points="661.45,-129.3 671.45,-125.8 661.45,-122.3 661.45,-129.3"/>
</g>
<!-- ShortcutsModule -->
<g id="node11" class="node">
<title>ShortcutsModule</title>
<polygon fill="#8dd3c7" stroke="black" points="438.43,-84.8 435.43,-88.8 414.43,-88.8 411.43,-84.8 325.57,-84.8 325.57,-48.8 438.43,-48.8 438.43,-84.8"/>
<text text-anchor="middle" x="382" y="-62.6" font-family="Times,serif" font-size="14.00">ShortcutsModule</text>
</g>
<!-- ShortcutsModule&#45;&gt;FuturisticLayoutModule -->
<g id="edge10" class="edge">
<title>ShortcutsModule&#45;&gt;FuturisticLayoutModule</title>
<path fill="none" stroke="black" d="M382,-84.91C382,-104.14 382,-131.8 382,-131.8 382,-131.8 661.27,-131.8 661.27,-131.8"/>
<polygon fill="black" stroke="black" points="661.27,-135.3 671.27,-131.8 661.27,-128.3 661.27,-135.3"/>
</g>
<!-- UserModule -->
<g id="node12" class="node">
<title>UserModule</title>
<polygon fill="#8dd3c7" stroke="black" points="307.98,-84.8 304.98,-88.8 283.98,-88.8 280.98,-84.8 222.02,-84.8 222.02,-48.8 307.98,-48.8 307.98,-84.8"/>
<text text-anchor="middle" x="265" y="-62.6" font-family="Times,serif" font-size="14.00">UserModule</text>
</g>
<!-- UserModule&#45;&gt;FuturisticLayoutModule -->
<g id="edge11" class="edge">
<title>UserModule&#45;&gt;FuturisticLayoutModule</title>
<path fill="none" stroke="black" d="M265,-85.08C265,-106.12 265,-137.8 265,-137.8 265,-137.8 661.47,-137.8 661.47,-137.8"/>
<polygon fill="black" stroke="black" points="661.47,-141.3 671.47,-137.8 661.47,-134.3 661.47,-141.3"/>
</g>
</g>
</svg>
