<?xml version="1.0" encoding="UTF-8" standalone="no"?>
<!DOCTYPE svg PUBLIC "-//W3C//DTD SVG 1.1//EN"
 "http://www.w3.org/Graphics/SVG/1.1/DTD/svg11.dtd">
<!-- Generated by graphviz version 2.47.3 (20210619.1520)
 -->
<!-- Title: dependencies Pages: 1 -->
<svg width="298pt" height="247pt"
 viewBox="0.00 0.00 298.00 246.80" xmlns="http://www.w3.org/2000/svg" xmlns:xlink="http://www.w3.org/1999/xlink">
<g id="graph0" class="graph" transform="scale(1 1) rotate(0) translate(4 242.8)">
<title>dependencies</title>
<polygon fill="white" stroke="transparent" points="-4,4 -4,-242.8 294,-242.8 294,4 -4,4"/>
<text text-anchor="middle" x="145" y="-8.2" font-family="sans-serif" font-size="14.00">dependencies</text>
<g id="clust1" class="cluster">
<title>cluster_SearchModule</title>
<polygon fill="none" stroke="black" stroke-dasharray="1,5" points="8,-32.8 8,-230.8 282,-230.8 282,-32.8 8,-32.8"/>
</g>
<g id="clust2" class="cluster">
<title>cluster_SearchModule_declarations</title>
<polygon fill="none" stroke="black" points="138,-40.8 138,-92.8 274,-92.8 274,-40.8 138,-40.8"/>
</g>
<g id="clust4" class="cluster">
<title>cluster_SearchModule_imports</title>
<polygon fill="none" stroke="black" points="16,-40.8 16,-92.8 130,-92.8 130,-40.8 16,-40.8"/>
</g>
<g id="clust5" class="cluster">
<title>cluster_SearchModule_exports</title>
<polygon fill="none" stroke="black" points="76,-170.8 76,-222.8 214,-222.8 214,-170.8 76,-170.8"/>
</g>
<!-- SearchComponent -->
<g id="node1" class="node">
<title>SearchComponent</title>
<polygon fill="#ffffb3" stroke="black" points="265.92,-84.8 146.08,-84.8 146.08,-48.8 265.92,-48.8 265.92,-84.8"/>
<text text-anchor="middle" x="206" y="-62.6" font-family="Times,serif" font-size="14.00">SearchComponent</text>
</g>
<!-- SearchModule -->
<g id="node2" class="node">
<title>SearchModule</title>
<polygon fill="#8dd3c7" stroke="black" points="193.64,-149.8 190.64,-153.8 169.64,-153.8 166.64,-149.8 96.36,-149.8 96.36,-113.8 193.64,-113.8 193.64,-149.8"/>
<text text-anchor="middle" x="145" y="-127.6" font-family="Times,serif" font-size="14.00">SearchModule</text>
</g>
<!-- SearchComponent&#45;&gt;SearchModule -->
<g id="edge1" class="edge">
<title>SearchComponent&#45;&gt;SearchModule</title>
<path fill="none" stroke="black" d="M170.05,-84.91C170.05,-84.91 170.05,-103.79 170.05,-103.79"/>
<polygon fill="black" stroke="black" points="166.55,-103.79 170.05,-113.79 173.55,-103.79 166.55,-103.79"/>
</g>
<!-- SearchComponent  -->
<g id="node4" class="node">
<title>SearchComponent </title>
<polygon fill="#fb8072" stroke="black" points="206.42,-214.8 83.58,-214.8 83.58,-178.8 206.42,-178.8 206.42,-214.8"/>
<text text-anchor="middle" x="145" y="-192.6" font-family="Times,serif" font-size="14.00">SearchComponent </text>
</g>
<!-- SearchModule&#45;&gt;SearchComponent  -->
<g id="edge3" class="edge">
<title>SearchModule&#45;&gt;SearchComponent </title>
<path fill="none" stroke="black" stroke-dasharray="5,2" d="M145,-149.91C145,-149.91 145,-168.79 145,-168.79"/>
<polygon fill="black" stroke="black" points="141.5,-168.79 145,-178.79 148.5,-168.79 141.5,-168.79"/>
</g>
<!-- SharedModule -->
<g id="node3" class="node">
<title>SharedModule</title>
<polygon fill="#8dd3c7" stroke="black" points="122.42,-84.8 119.42,-88.8 98.42,-88.8 95.42,-84.8 23.58,-84.8 23.58,-48.8 122.42,-48.8 122.42,-84.8"/>
<text text-anchor="middle" x="73" y="-62.6" font-family="Times,serif" font-size="14.00">SharedModule</text>
</g>
<!-- SharedModule&#45;&gt;SearchModule -->
<g id="edge2" class="edge">
<title>SharedModule&#45;&gt;SearchModule</title>
<path fill="none" stroke="black" d="M109.2,-84.91C109.2,-84.91 109.2,-103.79 109.2,-103.79"/>
<polygon fill="black" stroke="black" points="105.7,-103.79 109.2,-113.79 112.7,-103.79 105.7,-103.79"/>
</g>
</g>
</svg>
