<?xml version="1.0" encoding="UTF-8" standalone="no"?>
<!DOCTYPE svg PUBLIC "-//W3C//DTD SVG 1.1//EN"
 "http://www.w3.org/Graphics/SVG/1.1/DTD/svg11.dtd">
<!-- Generated by graphviz version 2.47.3 (20210619.1520)
 -->
<!-- Title: dependencies Pages: 1 -->
<svg width="276pt" height="174pt"
 viewBox="0.00 0.00 276.00 173.80" xmlns="http://www.w3.org/2000/svg" xmlns:xlink="http://www.w3.org/1999/xlink">
<g id="graph0" class="graph" transform="scale(1 1) rotate(0) translate(4 169.8)">
<title>dependencies</title>
<polygon fill="white" stroke="transparent" points="-4,4 -4,-169.8 272,-169.8 272,4 -4,4"/>
<text text-anchor="middle" x="134" y="-8.2" font-family="sans-serif" font-size="14.00">dependencies</text>
<g id="clust1" class="cluster">
<title>cluster_FuseSplashScreenModule</title>
<polygon fill="none" stroke="black" stroke-dasharray="1,5" points="8,-32.8 8,-157.8 260,-157.8 260,-32.8 8,-32.8"/>
</g>
<g id="clust6" class="cluster">
<title>cluster_FuseSplashScreenModule_providers</title>
<polygon fill="none" stroke="black" points="16,-40.8 16,-92.8 252,-92.8 252,-40.8 16,-40.8"/>
</g>
<!-- FuseSplashScreenService -->
<g id="node1" class="node">
<title>FuseSplashScreenService</title>
<ellipse fill="#fdb462" stroke="black" cx="134" cy="-66.8" rx="110.01" ry="18"/>
<text text-anchor="middle" x="134" y="-62.6" font-family="Times,serif" font-size="14.00">FuseSplashScreenService</text>
</g>
<!-- FuseSplashScreenModule -->
<g id="node2" class="node">
<title>FuseSplashScreenModule</title>
<polygon fill="#8dd3c7" stroke="black" points="214.91,-149.8 211.91,-153.8 190.91,-153.8 187.91,-149.8 53.09,-149.8 53.09,-113.8 214.91,-113.8 214.91,-149.8"/>
<text text-anchor="middle" x="134" y="-127.6" font-family="Times,serif" font-size="14.00">FuseSplashScreenModule</text>
</g>
<!-- FuseSplashScreenService&#45;&gt;FuseSplashScreenModule -->
<g id="edge1" class="edge">
<title>FuseSplashScreenService&#45;&gt;FuseSplashScreenModule</title>
<path fill="none" stroke="black" d="M134,-84.91C134,-84.91 134,-103.79 134,-103.79"/>
<polygon fill="black" stroke="black" points="130.5,-103.79 134,-113.79 137.5,-103.79 130.5,-103.79"/>
</g>
</g>
</svg>
