<?xml version="1.0" encoding="UTF-8" standalone="no"?>
<!DOCTYPE svg PUBLIC "-//W3C//DTD SVG 1.1//EN"
 "http://www.w3.org/Graphics/SVG/1.1/DTD/svg11.dtd">
<!-- Generated by graphviz version 2.47.3 (20210619.1520)
 -->
<!-- Title: dependencies Pages: 1 -->
<svg width="3725pt" height="247pt"
 viewBox="0.00 0.00 3725.00 246.80" xmlns="http://www.w3.org/2000/svg" xmlns:xlink="http://www.w3.org/1999/xlink">
<g id="graph0" class="graph" transform="scale(1 1) rotate(0) translate(4 242.8)">
<title>dependencies</title>
<polygon fill="white" stroke="transparent" points="-4,4 -4,-242.8 3721,-242.8 3721,4 -4,4"/>
<text text-anchor="middle" x="1858.5" y="-8.2" font-family="sans-serif" font-size="14.00">dependencies</text>
<g id="clust1" class="cluster">
<title>cluster_FuseNavigationModule</title>
<polygon fill="none" stroke="black" stroke-dasharray="1,5" points="8,-32.8 8,-230.8 3709,-230.8 3709,-32.8 8,-32.8"/>
</g>
<g id="clust16" class="cluster">
<title>cluster_FuseNavigationModule_exports</title>
<polygon fill="none" stroke="black" points="1662,-170.8 1662,-222.8 2148,-222.8 2148,-170.8 1662,-170.8"/>
</g>
<g id="clust15" class="cluster">
<title>cluster_FuseNavigationModule_imports</title>
<polygon fill="none" stroke="black" points="3547,-40.8 3547,-92.8 3701,-92.8 3701,-40.8 3547,-40.8"/>
</g>
<g id="clust2" class="cluster">
<title>cluster_FuseNavigationModule_declarations</title>
<polygon fill="none" stroke="black" points="16,-40.8 16,-92.8 3539,-92.8 3539,-40.8 16,-40.8"/>
</g>
<!-- FuseHorizontalNavigationBasicItemComponent -->
<g id="node1" class="node">
<title>FuseHorizontalNavigationBasicItemComponent</title>
<polygon fill="#ffffb3" stroke="black" points="3531.11,-84.8 3244.89,-84.8 3244.89,-48.8 3531.11,-48.8 3531.11,-84.8"/>
<text text-anchor="middle" x="3388" y="-62.6" font-family="Times,serif" font-size="14.00">FuseHorizontalNavigationBasicItemComponent</text>
</g>
<!-- FuseNavigationModule -->
<g id="node13" class="node">
<title>FuseNavigationModule</title>
<polygon fill="#8dd3c7" stroke="black" points="1975.2,-149.8 1972.2,-153.8 1951.2,-153.8 1948.2,-149.8 1826.8,-149.8 1826.8,-113.8 1975.2,-113.8 1975.2,-149.8"/>
<text text-anchor="middle" x="1901" y="-127.6" font-family="Times,serif" font-size="14.00">FuseNavigationModule</text>
</g>
<!-- FuseHorizontalNavigationBasicItemComponent&#45;&gt;FuseNavigationModule -->
<g id="edge1" class="edge">
<title>FuseHorizontalNavigationBasicItemComponent&#45;&gt;FuseNavigationModule</title>
<path fill="none" stroke="black" d="M3388,-84.84C3388,-106.46 3388,-139.8 3388,-139.8 3388,-139.8 1985.25,-139.8 1985.25,-139.8"/>
<polygon fill="black" stroke="black" points="1985.25,-136.3 1975.25,-139.8 1985.25,-143.3 1985.25,-136.3"/>
</g>
<!-- FuseHorizontalNavigationBranchItemComponent -->
<g id="node2" class="node">
<title>FuseHorizontalNavigationBranchItemComponent</title>
<polygon fill="#ffffb3" stroke="black" points="3226.93,-84.8 2931.07,-84.8 2931.07,-48.8 3226.93,-48.8 3226.93,-84.8"/>
<text text-anchor="middle" x="3079" y="-62.6" font-family="Times,serif" font-size="14.00">FuseHorizontalNavigationBranchItemComponent</text>
</g>
<!-- FuseHorizontalNavigationBranchItemComponent&#45;&gt;FuseNavigationModule -->
<g id="edge2" class="edge">
<title>FuseHorizontalNavigationBranchItemComponent&#45;&gt;FuseNavigationModule</title>
<path fill="none" stroke="black" d="M3079,-85.02C3079,-105.17 3079,-134.8 3079,-134.8 3079,-134.8 1985.14,-134.8 1985.14,-134.8"/>
<polygon fill="black" stroke="black" points="1985.14,-131.3 1975.14,-134.8 1985.14,-138.3 1985.14,-131.3"/>
</g>
<!-- FuseHorizontalNavigationComponent -->
<g id="node3" class="node">
<title>FuseHorizontalNavigationComponent</title>
<polygon fill="#ffffb3" stroke="black" points="2912.85,-84.8 2683.15,-84.8 2683.15,-48.8 2912.85,-48.8 2912.85,-84.8"/>
<text text-anchor="middle" x="2798" y="-62.6" font-family="Times,serif" font-size="14.00">FuseHorizontalNavigationComponent</text>
</g>
<!-- FuseHorizontalNavigationComponent&#45;&gt;FuseNavigationModule -->
<g id="edge3" class="edge">
<title>FuseHorizontalNavigationComponent&#45;&gt;FuseNavigationModule</title>
<path fill="none" stroke="black" d="M2798,-85.02C2798,-103.63 2798,-129.8 2798,-129.8 2798,-129.8 1985.17,-129.8 1985.17,-129.8"/>
<polygon fill="black" stroke="black" points="1985.17,-126.3 1975.17,-129.8 1985.17,-133.3 1985.17,-126.3"/>
</g>
<!-- FuseHorizontalNavigationDividerItemComponent -->
<g id="node4" class="node">
<title>FuseHorizontalNavigationDividerItemComponent</title>
<polygon fill="#ffffb3" stroke="black" points="2665.27,-84.8 2366.73,-84.8 2366.73,-48.8 2665.27,-48.8 2665.27,-84.8"/>
<text text-anchor="middle" x="2516" y="-62.6" font-family="Times,serif" font-size="14.00">FuseHorizontalNavigationDividerItemComponent</text>
</g>
<!-- FuseHorizontalNavigationDividerItemComponent&#45;&gt;FuseNavigationModule -->
<g id="edge4" class="edge">
<title>FuseHorizontalNavigationDividerItemComponent&#45;&gt;FuseNavigationModule</title>
<path fill="none" stroke="black" d="M2516,-84.83C2516,-101.86 2516,-124.8 2516,-124.8 2516,-124.8 1985.18,-124.8 1985.18,-124.8"/>
<polygon fill="black" stroke="black" points="1985.18,-121.3 1975.18,-124.8 1985.18,-128.3 1985.18,-121.3"/>
</g>
<!-- FuseHorizontalNavigationSpacerItemComponent -->
<g id="node5" class="node">
<title>FuseHorizontalNavigationSpacerItemComponent</title>
<polygon fill="#ffffb3" stroke="black" points="2348.59,-84.8 2055.41,-84.8 2055.41,-48.8 2348.59,-48.8 2348.59,-84.8"/>
<text text-anchor="middle" x="2202" y="-62.6" font-family="Times,serif" font-size="14.00">FuseHorizontalNavigationSpacerItemComponent</text>
</g>
<!-- FuseHorizontalNavigationSpacerItemComponent&#45;&gt;FuseNavigationModule -->
<g id="edge5" class="edge">
<title>FuseHorizontalNavigationSpacerItemComponent&#45;&gt;FuseNavigationModule</title>
<path fill="none" stroke="black" d="M2097.44,-85.04C2097.44,-100.37 2097.44,-119.8 2097.44,-119.8 2097.44,-119.8 1985.27,-119.8 1985.27,-119.8"/>
<polygon fill="black" stroke="black" points="1985.27,-116.3 1975.27,-119.8 1985.27,-123.3 1985.27,-116.3"/>
</g>
<!-- FuseVerticalNavigationAsideItemComponent -->
<g id="node6" class="node">
<title>FuseVerticalNavigationAsideItemComponent</title>
<polygon fill="#ffffb3" stroke="black" points="2037.88,-84.8 1764.12,-84.8 1764.12,-48.8 2037.88,-48.8 2037.88,-84.8"/>
<text text-anchor="middle" x="1901" y="-62.6" font-family="Times,serif" font-size="14.00">FuseVerticalNavigationAsideItemComponent</text>
</g>
<!-- FuseVerticalNavigationAsideItemComponent&#45;&gt;FuseNavigationModule -->
<g id="edge6" class="edge">
<title>FuseVerticalNavigationAsideItemComponent&#45;&gt;FuseNavigationModule</title>
<path fill="none" stroke="black" d="M1901,-84.91C1901,-84.91 1901,-103.79 1901,-103.79"/>
<polygon fill="black" stroke="black" points="1897.5,-103.79 1901,-113.79 1904.5,-103.79 1897.5,-103.79"/>
</g>
<!-- FuseVerticalNavigationBasicItemComponent -->
<g id="node7" class="node">
<title>FuseVerticalNavigationBasicItemComponent</title>
<polygon fill="#ffffb3" stroke="black" points="1745.82,-84.8 1474.18,-84.8 1474.18,-48.8 1745.82,-48.8 1745.82,-84.8"/>
<text text-anchor="middle" x="1610" y="-62.6" font-family="Times,serif" font-size="14.00">FuseVerticalNavigationBasicItemComponent</text>
</g>
<!-- FuseVerticalNavigationBasicItemComponent&#45;&gt;FuseNavigationModule -->
<g id="edge7" class="edge">
<title>FuseVerticalNavigationBasicItemComponent&#45;&gt;FuseNavigationModule</title>
<path fill="none" stroke="black" d="M1707.81,-85.04C1707.81,-100.37 1707.81,-119.8 1707.81,-119.8 1707.81,-119.8 1816.86,-119.8 1816.86,-119.8"/>
<polygon fill="black" stroke="black" points="1816.86,-123.3 1826.86,-119.8 1816.86,-116.3 1816.86,-123.3"/>
</g>
<!-- FuseVerticalNavigationCollapsableItemComponent -->
<g id="node8" class="node">
<title>FuseVerticalNavigationCollapsableItemComponent</title>
<polygon fill="#ffffb3" stroke="black" points="1456.32,-84.8 1149.68,-84.8 1149.68,-48.8 1456.32,-48.8 1456.32,-84.8"/>
<text text-anchor="middle" x="1303" y="-62.6" font-family="Times,serif" font-size="14.00">FuseVerticalNavigationCollapsableItemComponent</text>
</g>
<!-- FuseVerticalNavigationCollapsableItemComponent&#45;&gt;FuseNavigationModule -->
<g id="edge8" class="edge">
<title>FuseVerticalNavigationCollapsableItemComponent&#45;&gt;FuseNavigationModule</title>
<path fill="none" stroke="black" d="M1303,-84.83C1303,-101.86 1303,-124.8 1303,-124.8 1303,-124.8 1816.77,-124.8 1816.77,-124.8"/>
<polygon fill="black" stroke="black" points="1816.77,-128.3 1826.77,-124.8 1816.77,-121.3 1816.77,-128.3"/>
</g>
<!-- FuseVerticalNavigationComponent -->
<g id="node9" class="node">
<title>FuseVerticalNavigationComponent</title>
<polygon fill="#ffffb3" stroke="black" points="1131.56,-84.8 916.44,-84.8 916.44,-48.8 1131.56,-48.8 1131.56,-84.8"/>
<text text-anchor="middle" x="1024" y="-62.6" font-family="Times,serif" font-size="14.00">FuseVerticalNavigationComponent</text>
</g>
<!-- FuseVerticalNavigationComponent&#45;&gt;FuseNavigationModule -->
<g id="edge9" class="edge">
<title>FuseVerticalNavigationComponent&#45;&gt;FuseNavigationModule</title>
<path fill="none" stroke="black" d="M1024,-85.02C1024,-103.63 1024,-129.8 1024,-129.8 1024,-129.8 1816.61,-129.8 1816.61,-129.8"/>
<polygon fill="black" stroke="black" points="1816.61,-133.3 1826.61,-129.8 1816.61,-126.3 1816.61,-133.3"/>
</g>
<!-- FuseVerticalNavigationDividerItemComponent -->
<g id="node10" class="node">
<title>FuseVerticalNavigationDividerItemComponent</title>
<polygon fill="#ffffb3" stroke="black" points="898.98,-84.8 615.02,-84.8 615.02,-48.8 898.98,-48.8 898.98,-84.8"/>
<text text-anchor="middle" x="757" y="-62.6" font-family="Times,serif" font-size="14.00">FuseVerticalNavigationDividerItemComponent</text>
</g>
<!-- FuseVerticalNavigationDividerItemComponent&#45;&gt;FuseNavigationModule -->
<g id="edge10" class="edge">
<title>FuseVerticalNavigationDividerItemComponent&#45;&gt;FuseNavigationModule</title>
<path fill="none" stroke="black" d="M757,-85.02C757,-105.17 757,-134.8 757,-134.8 757,-134.8 1816.82,-134.8 1816.82,-134.8"/>
<polygon fill="black" stroke="black" points="1816.82,-138.3 1826.82,-134.8 1816.82,-131.3 1816.82,-138.3"/>
</g>
<!-- FuseVerticalNavigationGroupItemComponent -->
<g id="node11" class="node">
<title>FuseVerticalNavigationGroupItemComponent</title>
<polygon fill="#ffffb3" stroke="black" points="597.49,-84.8 320.51,-84.8 320.51,-48.8 597.49,-48.8 597.49,-84.8"/>
<text text-anchor="middle" x="459" y="-62.6" font-family="Times,serif" font-size="14.00">FuseVerticalNavigationGroupItemComponent</text>
</g>
<!-- FuseVerticalNavigationGroupItemComponent&#45;&gt;FuseNavigationModule -->
<g id="edge11" class="edge">
<title>FuseVerticalNavigationGroupItemComponent&#45;&gt;FuseNavigationModule</title>
<path fill="none" stroke="black" d="M459,-84.84C459,-106.46 459,-139.8 459,-139.8 459,-139.8 1816.76,-139.8 1816.76,-139.8"/>
<polygon fill="black" stroke="black" points="1816.76,-143.3 1826.76,-139.8 1816.76,-136.3 1816.76,-143.3"/>
</g>
<!-- FuseVerticalNavigationSpacerItemComponent -->
<g id="node12" class="node">
<title>FuseVerticalNavigationSpacerItemComponent</title>
<polygon fill="#ffffb3" stroke="black" points="302.31,-84.8 23.69,-84.8 23.69,-48.8 302.31,-48.8 302.31,-84.8"/>
<text text-anchor="middle" x="163" y="-62.6" font-family="Times,serif" font-size="14.00">FuseVerticalNavigationSpacerItemComponent</text>
</g>
<!-- FuseVerticalNavigationSpacerItemComponent&#45;&gt;FuseNavigationModule -->
<g id="edge12" class="edge">
<title>FuseVerticalNavigationSpacerItemComponent&#45;&gt;FuseNavigationModule</title>
<path fill="none" stroke="black" d="M163,-84.89C163,-107.93 163,-144.8 163,-144.8 163,-144.8 1816.88,-144.8 1816.88,-144.8"/>
<polygon fill="black" stroke="black" points="1816.88,-148.3 1826.88,-144.8 1816.88,-141.3 1816.88,-148.3"/>
</g>
<!-- FuseHorizontalNavigationComponent  -->
<g id="node15" class="node">
<title>FuseHorizontalNavigationComponent </title>
<polygon fill="#fb8072" stroke="black" points="2139.85,-214.8 1906.15,-214.8 1906.15,-178.8 2139.85,-178.8 2139.85,-214.8"/>
<text text-anchor="middle" x="2023" y="-192.6" font-family="Times,serif" font-size="14.00">FuseHorizontalNavigationComponent </text>
</g>
<!-- FuseNavigationModule&#45;&gt;FuseHorizontalNavigationComponent  -->
<g id="edge14" class="edge">
<title>FuseNavigationModule&#45;&gt;FuseHorizontalNavigationComponent </title>
<path fill="none" stroke="black" stroke-dasharray="5,2" d="M1940.71,-149.91C1940.71,-149.91 1940.71,-168.79 1940.71,-168.79"/>
<polygon fill="black" stroke="black" points="1937.21,-168.79 1940.71,-178.79 1944.21,-168.79 1937.21,-168.79"/>
</g>
<!-- FuseVerticalNavigationComponent  -->
<g id="node16" class="node">
<title>FuseVerticalNavigationComponent </title>
<polygon fill="#fb8072" stroke="black" points="1888.07,-214.8 1669.93,-214.8 1669.93,-178.8 1888.07,-178.8 1888.07,-214.8"/>
<text text-anchor="middle" x="1779" y="-192.6" font-family="Times,serif" font-size="14.00">FuseVerticalNavigationComponent </text>
</g>
<!-- FuseNavigationModule&#45;&gt;FuseVerticalNavigationComponent  -->
<g id="edge15" class="edge">
<title>FuseNavigationModule&#45;&gt;FuseVerticalNavigationComponent </title>
<path fill="none" stroke="black" stroke-dasharray="5,2" d="M1857.59,-149.91C1857.59,-149.91 1857.59,-168.79 1857.59,-168.79"/>
<polygon fill="black" stroke="black" points="1854.09,-168.79 1857.59,-178.79 1861.09,-168.79 1854.09,-168.79"/>
</g>
<!-- FuseScrollbarModule -->
<g id="node14" class="node">
<title>FuseScrollbarModule</title>
<polygon fill="#8dd3c7" stroke="black" points="3692.81,-84.8 3689.81,-88.8 3668.81,-88.8 3665.81,-84.8 3555.19,-84.8 3555.19,-48.8 3692.81,-48.8 3692.81,-84.8"/>
<text text-anchor="middle" x="3624" y="-62.6" font-family="Times,serif" font-size="14.00">FuseScrollbarModule</text>
</g>
<!-- FuseScrollbarModule&#45;&gt;FuseNavigationModule -->
<g id="edge13" class="edge">
<title>FuseScrollbarModule&#45;&gt;FuseNavigationModule</title>
<path fill="none" stroke="black" d="M3624,-84.89C3624,-107.93 3624,-144.8 3624,-144.8 3624,-144.8 1985.31,-144.8 1985.31,-144.8"/>
<polygon fill="black" stroke="black" points="1985.31,-141.3 1975.31,-144.8 1985.31,-148.3 1985.31,-141.3"/>
</g>
</g>
</svg>
