<?xml version="1.0" encoding="UTF-8" standalone="no"?>
<!DOCTYPE svg PUBLIC "-//W3C//DTD SVG 1.1//EN"
 "http://www.w3.org/Graphics/SVG/1.1/DTD/svg11.dtd">
<!-- Generated by graphviz version 2.47.3 (20210619.1520)
 -->
<!-- Title: dependencies Pages: 1 -->
<svg width="530pt" height="174pt"
 viewBox="0.00 0.00 530.00 173.80" xmlns="http://www.w3.org/2000/svg" xmlns:xlink="http://www.w3.org/1999/xlink">
<g id="graph0" class="graph" transform="scale(1 1) rotate(0) translate(4 169.8)">
<title>dependencies</title>
<polygon fill="white" stroke="transparent" points="-4,4 -4,-169.8 526,-169.8 526,4 -4,4"/>
<text text-anchor="middle" x="261" y="-8.2" font-family="sans-serif" font-size="14.00">dependencies</text>
<g id="clust1" class="cluster">
<title>cluster_ConfirmationDialogModule</title>
<polygon fill="none" stroke="black" stroke-dasharray="1,5" points="8,-32.8 8,-157.8 514,-157.8 514,-32.8 8,-32.8"/>
</g>
<g id="clust2" class="cluster">
<title>cluster_ConfirmationDialogModule_declarations</title>
<polygon fill="none" stroke="black" points="296,-40.8 296,-92.8 506,-92.8 506,-40.8 296,-40.8"/>
</g>
<g id="clust4" class="cluster">
<title>cluster_ConfirmationDialogModule_imports</title>
<polygon fill="none" stroke="black" points="16,-40.8 16,-92.8 288,-92.8 288,-40.8 16,-40.8"/>
</g>
<!-- ConfirmationDialogComponent -->
<g id="node1" class="node">
<title>ConfirmationDialogComponent</title>
<polygon fill="#ffffb3" stroke="black" points="498.37,-84.8 303.63,-84.8 303.63,-48.8 498.37,-48.8 498.37,-84.8"/>
<text text-anchor="middle" x="401" y="-62.6" font-family="Times,serif" font-size="14.00">ConfirmationDialogComponent</text>
</g>
<!-- ConfirmationDialogModule -->
<g id="node2" class="node">
<title>ConfirmationDialogModule</title>
<polygon fill="#8dd3c7" stroke="black" points="296.59,-149.8 293.59,-153.8 272.59,-153.8 269.59,-149.8 123.41,-149.8 123.41,-113.8 296.59,-113.8 296.59,-149.8"/>
<text text-anchor="middle" x="210" y="-127.6" font-family="Times,serif" font-size="14.00">ConfirmationDialogModule</text>
</g>
<!-- ConfirmationDialogComponent&#45;&gt;ConfirmationDialogModule -->
<g id="edge1" class="edge">
<title>ConfirmationDialogComponent&#45;&gt;ConfirmationDialogModule</title>
<path fill="none" stroke="black" d="M303.4,-66.8C294.18,-66.8 288.19,-66.8 288.19,-66.8 288.19,-66.8 288.19,-103.69 288.19,-103.69"/>
<polygon fill="black" stroke="black" points="284.69,-103.69 288.19,-113.69 291.69,-103.69 284.69,-103.69"/>
</g>
<!-- FuseHighlightModule -->
<g id="node3" class="node">
<title>FuseHighlightModule</title>
<polygon fill="#8dd3c7" stroke="black" points="279.66,-84.8 276.66,-88.8 255.66,-88.8 252.66,-84.8 140.34,-84.8 140.34,-48.8 279.66,-48.8 279.66,-84.8"/>
<text text-anchor="middle" x="210" y="-62.6" font-family="Times,serif" font-size="14.00">FuseHighlightModule</text>
</g>
<!-- FuseHighlightModule&#45;&gt;ConfirmationDialogModule -->
<g id="edge2" class="edge">
<title>FuseHighlightModule&#45;&gt;ConfirmationDialogModule</title>
<path fill="none" stroke="black" d="M210,-84.91C210,-84.91 210,-103.79 210,-103.79"/>
<polygon fill="black" stroke="black" points="206.5,-103.79 210,-113.79 213.5,-103.79 206.5,-103.79"/>
</g>
<!-- SharedModule -->
<g id="node4" class="node">
<title>SharedModule</title>
<polygon fill="#8dd3c7" stroke="black" points="122.42,-84.8 119.42,-88.8 98.42,-88.8 95.42,-84.8 23.58,-84.8 23.58,-48.8 122.42,-48.8 122.42,-84.8"/>
<text text-anchor="middle" x="73" y="-62.6" font-family="Times,serif" font-size="14.00">SharedModule</text>
</g>
<!-- SharedModule&#45;&gt;ConfirmationDialogModule -->
<g id="edge3" class="edge">
<title>SharedModule&#45;&gt;ConfirmationDialogModule</title>
<path fill="none" stroke="black" d="M122.36,-66.8C128.02,-66.8 131.81,-66.8 131.81,-66.8 131.81,-66.8 131.81,-103.69 131.81,-103.69"/>
<polygon fill="black" stroke="black" points="128.31,-103.69 131.81,-113.69 135.31,-103.69 128.31,-103.69"/>
</g>
</g>
</svg>
