<?xml version="1.0" encoding="UTF-8" standalone="no"?>
<!DOCTYPE svg PUBLIC "-//W3C//DTD SVG 1.1//EN"
 "http://www.w3.org/Graphics/SVG/1.1/DTD/svg11.dtd">
<!-- Generated by graphviz version 2.47.3 (20210619.1520)
 -->
<!-- Title: dependencies Pages: 1 -->
<svg width="2111pt" height="174pt"
 viewBox="0.00 0.00 2111.00 173.80" xmlns="http://www.w3.org/2000/svg" xmlns:xlink="http://www.w3.org/1999/xlink">
<g id="graph0" class="graph" transform="scale(1 1) rotate(0) translate(4 169.8)">
<title>dependencies</title>
<polygon fill="white" stroke="transparent" points="-4,4 -4,-169.8 2107,-169.8 2107,4 -4,4"/>
<text text-anchor="middle" x="1051.5" y="-8.2" font-family="sans-serif" font-size="14.00">dependencies</text>
<g id="clust1" class="cluster">
<title>cluster_ResetPasswordModule</title>
<polygon fill="none" stroke="black" stroke-dasharray="1,5" points="8,-32.8 8,-157.8 2095,-157.8 2095,-32.8 8,-32.8"/>
</g>
<g id="clust10" class="cluster">
<title>cluster_ResetPasswordModule_imports</title>
<polygon fill="none" stroke="black" points="1840,-40.8 1840,-92.8 2087,-92.8 2087,-40.8 1840,-40.8"/>
</g>
<g id="clust2" class="cluster">
<title>cluster_ResetPasswordModule_declarations</title>
<polygon fill="none" stroke="black" points="16,-40.8 16,-92.8 1832,-92.8 1832,-40.8 16,-40.8"/>
</g>
<!-- ResetPasswordClassicComponent -->
<g id="node1" class="node">
<title>ResetPasswordClassicComponent</title>
<polygon fill="#ffffb3" stroke="black" points="1824.02,-84.8 1617.98,-84.8 1617.98,-48.8 1824.02,-48.8 1824.02,-84.8"/>
<text text-anchor="middle" x="1721" y="-62.6" font-family="Times,serif" font-size="14.00">ResetPasswordClassicComponent</text>
</g>
<!-- ResetPasswordModule -->
<g id="node8" class="node">
<title>ResetPasswordModule</title>
<polygon fill="#8dd3c7" stroke="black" points="1292.3,-149.8 1289.3,-153.8 1268.3,-153.8 1265.3,-149.8 1147.7,-149.8 1147.7,-113.8 1292.3,-113.8 1292.3,-149.8"/>
<text text-anchor="middle" x="1220" y="-127.6" font-family="Times,serif" font-size="14.00">ResetPasswordModule</text>
</g>
<!-- ResetPasswordClassicComponent&#45;&gt;ResetPasswordModule -->
<g id="edge1" class="edge">
<title>ResetPasswordClassicComponent&#45;&gt;ResetPasswordModule</title>
<path fill="none" stroke="black" d="M1721,-85.07C1721,-103.36 1721,-128.8 1721,-128.8 1721,-128.8 1302.31,-128.8 1302.31,-128.8"/>
<polygon fill="black" stroke="black" points="1302.31,-125.3 1292.31,-128.8 1302.31,-132.3 1302.31,-125.3"/>
</g>
<!-- ResetPasswordFullscreenComponent -->
<g id="node2" class="node">
<title>ResetPasswordFullscreenComponent</title>
<polygon fill="#ffffb3" stroke="black" points="1600.4,-84.8 1375.6,-84.8 1375.6,-48.8 1600.4,-48.8 1600.4,-84.8"/>
<text text-anchor="middle" x="1488" y="-62.6" font-family="Times,serif" font-size="14.00">ResetPasswordFullscreenComponent</text>
</g>
<!-- ResetPasswordFullscreenComponent&#45;&gt;ResetPasswordModule -->
<g id="edge2" class="edge">
<title>ResetPasswordFullscreenComponent&#45;&gt;ResetPasswordModule</title>
<path fill="none" stroke="black" d="M1488,-84.81C1488,-100.85 1488,-121.8 1488,-121.8 1488,-121.8 1302.17,-121.8 1302.17,-121.8"/>
<polygon fill="black" stroke="black" points="1302.17,-118.3 1292.17,-121.8 1302.17,-125.3 1302.17,-118.3"/>
</g>
<!-- ResetPasswordFullscreenReversedComponent -->
<g id="node3" class="node">
<title>ResetPasswordFullscreenReversedComponent</title>
<polygon fill="#ffffb3" stroke="black" points="1358.49,-84.8 1081.51,-84.8 1081.51,-48.8 1358.49,-48.8 1358.49,-84.8"/>
<text text-anchor="middle" x="1220" y="-62.6" font-family="Times,serif" font-size="14.00">ResetPasswordFullscreenReversedComponent</text>
</g>
<!-- ResetPasswordFullscreenReversedComponent&#45;&gt;ResetPasswordModule -->
<g id="edge3" class="edge">
<title>ResetPasswordFullscreenReversedComponent&#45;&gt;ResetPasswordModule</title>
<path fill="none" stroke="black" d="M1220,-84.91C1220,-84.91 1220,-103.79 1220,-103.79"/>
<polygon fill="black" stroke="black" points="1216.5,-103.79 1220,-113.79 1223.5,-103.79 1216.5,-103.79"/>
</g>
<!-- ResetPasswordModernComponent -->
<g id="node4" class="node">
<title>ResetPasswordModernComponent</title>
<polygon fill="#ffffb3" stroke="black" points="1064.41,-84.8 853.59,-84.8 853.59,-48.8 1064.41,-48.8 1064.41,-84.8"/>
<text text-anchor="middle" x="959" y="-62.6" font-family="Times,serif" font-size="14.00">ResetPasswordModernComponent</text>
</g>
<!-- ResetPasswordModernComponent&#45;&gt;ResetPasswordModule -->
<g id="edge4" class="edge">
<title>ResetPasswordModernComponent&#45;&gt;ResetPasswordModule</title>
<path fill="none" stroke="black" d="M959,-84.81C959,-100.85 959,-121.8 959,-121.8 959,-121.8 1137.64,-121.8 1137.64,-121.8"/>
<polygon fill="black" stroke="black" points="1137.64,-125.3 1147.64,-121.8 1137.64,-118.3 1137.64,-125.3"/>
</g>
<!-- ResetPasswordModernReversedComponent -->
<g id="node5" class="node">
<title>ResetPasswordModernReversedComponent</title>
<polygon fill="#ffffb3" stroke="black" points="836.49,-84.8 573.51,-84.8 573.51,-48.8 836.49,-48.8 836.49,-84.8"/>
<text text-anchor="middle" x="705" y="-62.6" font-family="Times,serif" font-size="14.00">ResetPasswordModernReversedComponent</text>
</g>
<!-- ResetPasswordModernReversedComponent&#45;&gt;ResetPasswordModule -->
<g id="edge5" class="edge">
<title>ResetPasswordModernReversedComponent&#45;&gt;ResetPasswordModule</title>
<path fill="none" stroke="black" d="M705,-85.07C705,-103.36 705,-128.8 705,-128.8 705,-128.8 1137.58,-128.8 1137.58,-128.8"/>
<polygon fill="black" stroke="black" points="1137.58,-132.3 1147.58,-128.8 1137.58,-125.3 1137.58,-132.3"/>
</g>
<!-- ResetPasswordSplitScreenComponent -->
<g id="node6" class="node">
<title>ResetPasswordSplitScreenComponent</title>
<polygon fill="#ffffb3" stroke="black" points="555.13,-84.8 324.87,-84.8 324.87,-48.8 555.13,-48.8 555.13,-84.8"/>
<text text-anchor="middle" x="440" y="-62.6" font-family="Times,serif" font-size="14.00">ResetPasswordSplitScreenComponent</text>
</g>
<!-- ResetPasswordSplitScreenComponent&#45;&gt;ResetPasswordModule -->
<g id="edge6" class="edge">
<title>ResetPasswordSplitScreenComponent&#45;&gt;ResetPasswordModule</title>
<path fill="none" stroke="black" d="M440,-84.93C440,-105.37 440,-135.8 440,-135.8 440,-135.8 1137.67,-135.8 1137.67,-135.8"/>
<polygon fill="black" stroke="black" points="1137.67,-139.3 1147.67,-135.8 1137.67,-132.3 1137.67,-139.3"/>
</g>
<!-- ResetPasswordSplitScreenReversedComponent -->
<g id="node7" class="node">
<title>ResetPasswordSplitScreenReversedComponent</title>
<polygon fill="#ffffb3" stroke="black" points="306.21,-84.8 23.79,-84.8 23.79,-48.8 306.21,-48.8 306.21,-84.8"/>
<text text-anchor="middle" x="165" y="-62.6" font-family="Times,serif" font-size="14.00">ResetPasswordSplitScreenReversedComponent</text>
</g>
<!-- ResetPasswordSplitScreenReversedComponent&#45;&gt;ResetPasswordModule -->
<g id="edge7" class="edge">
<title>ResetPasswordSplitScreenReversedComponent&#45;&gt;ResetPasswordModule</title>
<path fill="none" stroke="black" d="M165,-84.81C165,-107.29 165,-142.8 165,-142.8 165,-142.8 1137.49,-142.8 1137.49,-142.8"/>
<polygon fill="black" stroke="black" points="1137.49,-146.3 1147.49,-142.8 1137.49,-139.3 1137.49,-146.3"/>
</g>
<!-- FuseAlertModule -->
<g id="node9" class="node">
<title>FuseAlertModule</title>
<polygon fill="#8dd3c7" stroke="black" points="2079.25,-84.8 2076.25,-88.8 2055.25,-88.8 2052.25,-84.8 1964.75,-84.8 1964.75,-48.8 2079.25,-48.8 2079.25,-84.8"/>
<text text-anchor="middle" x="2022" y="-62.6" font-family="Times,serif" font-size="14.00">FuseAlertModule</text>
</g>
<!-- FuseAlertModule&#45;&gt;ResetPasswordModule -->
<g id="edge8" class="edge">
<title>FuseAlertModule&#45;&gt;ResetPasswordModule</title>
<path fill="none" stroke="black" d="M2022,-84.81C2022,-107.29 2022,-142.8 2022,-142.8 2022,-142.8 1302.23,-142.8 1302.23,-142.8"/>
<polygon fill="black" stroke="black" points="1302.23,-139.3 1292.23,-142.8 1302.23,-146.3 1302.23,-139.3"/>
</g>
<!-- SharedModule -->
<g id="node10" class="node">
<title>SharedModule</title>
<polygon fill="#8dd3c7" stroke="black" points="1946.42,-84.8 1943.42,-88.8 1922.42,-88.8 1919.42,-84.8 1847.58,-84.8 1847.58,-48.8 1946.42,-48.8 1946.42,-84.8"/>
<text text-anchor="middle" x="1897" y="-62.6" font-family="Times,serif" font-size="14.00">SharedModule</text>
</g>
<!-- SharedModule&#45;&gt;ResetPasswordModule -->
<g id="edge9" class="edge">
<title>SharedModule&#45;&gt;ResetPasswordModule</title>
<path fill="none" stroke="black" d="M1897,-84.93C1897,-105.37 1897,-135.8 1897,-135.8 1897,-135.8 1302.45,-135.8 1302.45,-135.8"/>
<polygon fill="black" stroke="black" points="1302.45,-132.3 1292.45,-135.8 1302.45,-139.3 1302.45,-132.3"/>
</g>
</g>
</svg>
