<?xml version="1.0" encoding="UTF-8" standalone="no"?>
<!DOCTYPE svg PUBLIC "-//W3C//DTD SVG 1.1//EN"
 "http://www.w3.org/Graphics/SVG/1.1/DTD/svg11.dtd">
<!-- Generated by graphviz version 2.47.3 (20210619.1520)
 -->
<!-- Title: dependencies Pages: 1 -->
<svg width="336pt" height="247pt"
 viewBox="0.00 0.00 336.00 246.80" xmlns="http://www.w3.org/2000/svg" xmlns:xlink="http://www.w3.org/1999/xlink">
<g id="graph0" class="graph" transform="scale(1 1) rotate(0) translate(4 242.8)">
<title>dependencies</title>
<polygon fill="white" stroke="transparent" points="-4,4 -4,-242.8 332,-242.8 332,4 -4,4"/>
<text text-anchor="middle" x="164" y="-8.2" font-family="sans-serif" font-size="14.00">dependencies</text>
<g id="clust1" class="cluster">
<title>cluster_EmptyLayoutModule</title>
<polygon fill="none" stroke="black" stroke-dasharray="1,5" points="8,-32.8 8,-230.8 320,-230.8 320,-32.8 8,-32.8"/>
</g>
<g id="clust2" class="cluster">
<title>cluster_EmptyLayoutModule_declarations</title>
<polygon fill="none" stroke="black" points="138,-40.8 138,-92.8 312,-92.8 312,-40.8 138,-40.8"/>
</g>
<g id="clust5" class="cluster">
<title>cluster_EmptyLayoutModule_exports</title>
<polygon fill="none" stroke="black" points="75,-170.8 75,-222.8 253,-222.8 253,-170.8 75,-170.8"/>
</g>
<g id="clust4" class="cluster">
<title>cluster_EmptyLayoutModule_imports</title>
<polygon fill="none" stroke="black" points="16,-40.8 16,-92.8 130,-92.8 130,-40.8 16,-40.8"/>
</g>
<!-- EmptyLayoutComponent -->
<g id="node1" class="node">
<title>EmptyLayoutComponent</title>
<polygon fill="#ffffb3" stroke="black" points="304.32,-84.8 145.68,-84.8 145.68,-48.8 304.32,-48.8 304.32,-84.8"/>
<text text-anchor="middle" x="225" y="-62.6" font-family="Times,serif" font-size="14.00">EmptyLayoutComponent</text>
</g>
<!-- EmptyLayoutModule -->
<g id="node2" class="node">
<title>EmptyLayoutModule</title>
<polygon fill="#8dd3c7" stroke="black" points="232.04,-149.8 229.04,-153.8 208.04,-153.8 205.04,-149.8 95.96,-149.8 95.96,-113.8 232.04,-113.8 232.04,-149.8"/>
<text text-anchor="middle" x="164" y="-127.6" font-family="Times,serif" font-size="14.00">EmptyLayoutModule</text>
</g>
<!-- EmptyLayoutComponent&#45;&gt;EmptyLayoutModule -->
<g id="edge1" class="edge">
<title>EmptyLayoutComponent&#45;&gt;EmptyLayoutModule</title>
<path fill="none" stroke="black" d="M189.05,-84.91C189.05,-84.91 189.05,-103.79 189.05,-103.79"/>
<polygon fill="black" stroke="black" points="185.55,-103.79 189.05,-113.79 192.55,-103.79 185.55,-103.79"/>
</g>
<!-- EmptyLayoutComponent  -->
<g id="node4" class="node">
<title>EmptyLayoutComponent </title>
<polygon fill="#fb8072" stroke="black" points="244.82,-214.8 83.18,-214.8 83.18,-178.8 244.82,-178.8 244.82,-214.8"/>
<text text-anchor="middle" x="164" y="-192.6" font-family="Times,serif" font-size="14.00">EmptyLayoutComponent </text>
</g>
<!-- EmptyLayoutModule&#45;&gt;EmptyLayoutComponent  -->
<g id="edge3" class="edge">
<title>EmptyLayoutModule&#45;&gt;EmptyLayoutComponent </title>
<path fill="none" stroke="black" stroke-dasharray="5,2" d="M164,-149.91C164,-149.91 164,-168.79 164,-168.79"/>
<polygon fill="black" stroke="black" points="160.5,-168.79 164,-178.79 167.5,-168.79 160.5,-168.79"/>
</g>
<!-- SharedModule -->
<g id="node3" class="node">
<title>SharedModule</title>
<polygon fill="#8dd3c7" stroke="black" points="122.42,-84.8 119.42,-88.8 98.42,-88.8 95.42,-84.8 23.58,-84.8 23.58,-48.8 122.42,-48.8 122.42,-84.8"/>
<text text-anchor="middle" x="73" y="-62.6" font-family="Times,serif" font-size="14.00">SharedModule</text>
</g>
<!-- SharedModule&#45;&gt;EmptyLayoutModule -->
<g id="edge2" class="edge">
<title>SharedModule&#45;&gt;EmptyLayoutModule</title>
<path fill="none" stroke="black" d="M108.97,-84.91C108.97,-84.91 108.97,-103.79 108.97,-103.79"/>
<polygon fill="black" stroke="black" points="105.47,-103.79 108.97,-113.79 112.47,-103.79 105.47,-103.79"/>
</g>
</g>
</svg>
