<?xml version="1.0" encoding="UTF-8" standalone="no"?>
<!DOCTYPE svg PUBLIC "-//W3C//DTD SVG 1.1//EN"
 "http://www.w3.org/Graphics/SVG/1.1/DTD/svg11.dtd">
<!-- Generated by graphviz version 2.47.3 (20210619.1520)
 -->
<!-- Title: dependencies Pages: 1 -->
<svg width="636pt" height="174pt"
 viewBox="0.00 0.00 636.00 173.80" xmlns="http://www.w3.org/2000/svg" xmlns:xlink="http://www.w3.org/1999/xlink">
<g id="graph0" class="graph" transform="scale(1 1) rotate(0) translate(4 169.8)">
<title>dependencies</title>
<polygon fill="white" stroke="transparent" points="-4,4 -4,-169.8 632,-169.8 632,4 -4,4"/>
<text text-anchor="middle" x="314" y="-8.2" font-family="sans-serif" font-size="14.00">dependencies</text>
<g id="clust1" class="cluster">
<title>cluster_AuthUnlockSessionModule</title>
<polygon fill="none" stroke="black" stroke-dasharray="1,5" points="8,-32.8 8,-157.8 620,-157.8 620,-32.8 8,-32.8"/>
</g>
<g id="clust2" class="cluster">
<title>cluster_AuthUnlockSessionModule_declarations</title>
<polygon fill="none" stroke="black" points="402,-40.8 402,-92.8 612,-92.8 612,-40.8 402,-40.8"/>
</g>
<g id="clust4" class="cluster">
<title>cluster_AuthUnlockSessionModule_imports</title>
<polygon fill="none" stroke="black" points="16,-40.8 16,-92.8 394,-92.8 394,-40.8 16,-40.8"/>
</g>
<!-- AuthUnlockSessionComponent -->
<g id="node1" class="node">
<title>AuthUnlockSessionComponent</title>
<polygon fill="#ffffb3" stroke="black" points="603.82,-84.8 410.18,-84.8 410.18,-48.8 603.82,-48.8 603.82,-84.8"/>
<text text-anchor="middle" x="507" y="-62.6" font-family="Times,serif" font-size="14.00">AuthUnlockSessionComponent</text>
</g>
<!-- AuthUnlockSessionModule -->
<g id="node2" class="node">
<title>AuthUnlockSessionModule</title>
<polygon fill="#8dd3c7" stroke="black" points="348.54,-149.8 345.54,-153.8 324.54,-153.8 321.54,-149.8 177.46,-149.8 177.46,-113.8 348.54,-113.8 348.54,-149.8"/>
<text text-anchor="middle" x="263" y="-127.6" font-family="Times,serif" font-size="14.00">AuthUnlockSessionModule</text>
</g>
<!-- AuthUnlockSessionComponent&#45;&gt;AuthUnlockSessionModule -->
<g id="edge1" class="edge">
<title>AuthUnlockSessionComponent&#45;&gt;AuthUnlockSessionModule</title>
<path fill="none" stroke="black" d="M507,-84.91C507,-104.14 507,-131.8 507,-131.8 507,-131.8 358.68,-131.8 358.68,-131.8"/>
<polygon fill="black" stroke="black" points="358.68,-128.3 348.68,-131.8 358.68,-135.3 358.68,-128.3"/>
</g>
<!-- FuseAlertModule -->
<g id="node3" class="node">
<title>FuseAlertModule</title>
<polygon fill="#8dd3c7" stroke="black" points="386.25,-84.8 383.25,-88.8 362.25,-88.8 359.25,-84.8 271.75,-84.8 271.75,-48.8 386.25,-48.8 386.25,-84.8"/>
<text text-anchor="middle" x="329" y="-62.6" font-family="Times,serif" font-size="14.00">FuseAlertModule</text>
</g>
<!-- FuseAlertModule&#45;&gt;AuthUnlockSessionModule -->
<g id="edge2" class="edge">
<title>FuseAlertModule&#45;&gt;AuthUnlockSessionModule</title>
<path fill="none" stroke="black" d="M310.2,-84.91C310.2,-84.91 310.2,-103.79 310.2,-103.79"/>
<polygon fill="black" stroke="black" points="306.7,-103.79 310.2,-113.79 313.7,-103.79 306.7,-103.79"/>
</g>
<!-- FuseCardModule -->
<g id="node4" class="node">
<title>FuseCardModule</title>
<polygon fill="#8dd3c7" stroke="black" points="253.7,-84.8 250.7,-88.8 229.7,-88.8 226.7,-84.8 140.3,-84.8 140.3,-48.8 253.7,-48.8 253.7,-84.8"/>
<text text-anchor="middle" x="197" y="-62.6" font-family="Times,serif" font-size="14.00">FuseCardModule</text>
</g>
<!-- FuseCardModule&#45;&gt;AuthUnlockSessionModule -->
<g id="edge3" class="edge">
<title>FuseCardModule&#45;&gt;AuthUnlockSessionModule</title>
<path fill="none" stroke="black" d="M215.42,-84.91C215.42,-84.91 215.42,-103.79 215.42,-103.79"/>
<polygon fill="black" stroke="black" points="211.92,-103.79 215.42,-113.79 218.92,-103.79 211.92,-103.79"/>
</g>
<!-- SharedModule -->
<g id="node5" class="node">
<title>SharedModule</title>
<polygon fill="#8dd3c7" stroke="black" points="122.42,-84.8 119.42,-88.8 98.42,-88.8 95.42,-84.8 23.58,-84.8 23.58,-48.8 122.42,-48.8 122.42,-84.8"/>
<text text-anchor="middle" x="73" y="-62.6" font-family="Times,serif" font-size="14.00">SharedModule</text>
</g>
<!-- SharedModule&#45;&gt;AuthUnlockSessionModule -->
<g id="edge4" class="edge">
<title>SharedModule&#45;&gt;AuthUnlockSessionModule</title>
<path fill="none" stroke="black" d="M73,-84.91C73,-104.14 73,-131.8 73,-131.8 73,-131.8 167.45,-131.8 167.45,-131.8"/>
<polygon fill="black" stroke="black" points="167.45,-135.3 177.45,-131.8 167.45,-128.3 167.45,-135.3"/>
</g>
</g>
</svg>
