<?xml version="1.0" encoding="UTF-8" standalone="no"?>
<!DOCTYPE svg PUBLIC "-//W3C//DTD SVG 1.1//EN"
 "http://www.w3.org/Graphics/SVG/1.1/DTD/svg11.dtd">
<!-- Generated by graphviz version 2.47.3 (20210619.1520)
 -->
<!-- Title: dependencies Pages: 1 -->
<svg width="1586pt" height="247pt"
 viewBox="0.00 0.00 1586.00 246.80" xmlns="http://www.w3.org/2000/svg" xmlns:xlink="http://www.w3.org/1999/xlink">
<g id="graph0" class="graph" transform="scale(1 1) rotate(0) translate(4 242.8)">
<title>dependencies</title>
<polygon fill="white" stroke="transparent" points="-4,4 -4,-242.8 1582,-242.8 1582,4 -4,4"/>
<text text-anchor="middle" x="789" y="-8.2" font-family="sans-serif" font-size="14.00">dependencies</text>
<g id="clust1" class="cluster">
<title>cluster_CompactLayoutModule</title>
<polygon fill="none" stroke="black" stroke-dasharray="1,5" points="8,-32.8 8,-230.8 1570,-230.8 1570,-32.8 8,-32.8"/>
</g>
<g id="clust5" class="cluster">
<title>cluster_CompactLayoutModule_exports</title>
<polygon fill="none" stroke="black" points="598,-170.8 598,-222.8 790,-222.8 790,-170.8 598,-170.8"/>
</g>
<g id="clust2" class="cluster">
<title>cluster_CompactLayoutModule_declarations</title>
<polygon fill="none" stroke="black" points="1374,-40.8 1374,-92.8 1562,-92.8 1562,-40.8 1374,-40.8"/>
</g>
<g id="clust4" class="cluster">
<title>cluster_CompactLayoutModule_imports</title>
<polygon fill="none" stroke="black" points="16,-40.8 16,-92.8 1366,-92.8 1366,-40.8 16,-40.8"/>
</g>
<!-- CompactLayoutComponent -->
<g id="node1" class="node">
<title>CompactLayoutComponent</title>
<polygon fill="#ffffb3" stroke="black" points="1553.54,-84.8 1382.46,-84.8 1382.46,-48.8 1553.54,-48.8 1553.54,-84.8"/>
<text text-anchor="middle" x="1468" y="-62.6" font-family="Times,serif" font-size="14.00">CompactLayoutComponent</text>
</g>
<!-- CompactLayoutModule -->
<g id="node2" class="node">
<title>CompactLayoutModule</title>
<polygon fill="#8dd3c7" stroke="black" points="768.75,-149.8 765.75,-153.8 744.75,-153.8 741.75,-149.8 619.25,-149.8 619.25,-113.8 768.75,-113.8 768.75,-149.8"/>
<text text-anchor="middle" x="694" y="-127.6" font-family="Times,serif" font-size="14.00">CompactLayoutModule</text>
</g>
<!-- CompactLayoutComponent&#45;&gt;CompactLayoutModule -->
<g id="edge1" class="edge">
<title>CompactLayoutComponent&#45;&gt;CompactLayoutModule</title>
<path fill="none" stroke="black" d="M1468,-84.81C1468,-107.29 1468,-142.8 1468,-142.8 1468,-142.8 778.92,-142.8 778.92,-142.8"/>
<polygon fill="black" stroke="black" points="778.92,-139.3 768.92,-142.8 778.92,-146.3 778.92,-139.3"/>
</g>
<!-- CompactLayoutComponent  -->
<g id="node13" class="node">
<title>CompactLayoutComponent </title>
<polygon fill="#fb8072" stroke="black" points="781.54,-214.8 606.46,-214.8 606.46,-178.8 781.54,-178.8 781.54,-214.8"/>
<text text-anchor="middle" x="694" y="-192.6" font-family="Times,serif" font-size="14.00">CompactLayoutComponent </text>
</g>
<!-- CompactLayoutModule&#45;&gt;CompactLayoutComponent  -->
<g id="edge12" class="edge">
<title>CompactLayoutModule&#45;&gt;CompactLayoutComponent </title>
<path fill="none" stroke="black" stroke-dasharray="5,2" d="M694,-149.91C694,-149.91 694,-168.79 694,-168.79"/>
<polygon fill="black" stroke="black" points="690.5,-168.79 694,-178.79 697.5,-168.79 690.5,-168.79"/>
</g>
<!-- FuseFullscreenModule -->
<g id="node3" class="node">
<title>FuseFullscreenModule</title>
<polygon fill="#8dd3c7" stroke="black" points="1358.3,-84.8 1355.3,-88.8 1334.3,-88.8 1331.3,-84.8 1213.7,-84.8 1213.7,-48.8 1358.3,-48.8 1358.3,-84.8"/>
<text text-anchor="middle" x="1286" y="-62.6" font-family="Times,serif" font-size="14.00">FuseFullscreenModule</text>
</g>
<!-- FuseFullscreenModule&#45;&gt;CompactLayoutModule -->
<g id="edge2" class="edge">
<title>FuseFullscreenModule&#45;&gt;CompactLayoutModule</title>
<path fill="none" stroke="black" d="M1286,-84.93C1286,-105.37 1286,-135.8 1286,-135.8 1286,-135.8 778.98,-135.8 778.98,-135.8"/>
<polygon fill="black" stroke="black" points="778.98,-132.3 768.98,-135.8 778.98,-139.3 778.98,-132.3"/>
</g>
<!-- FuseNavigationModule -->
<g id="node4" class="node">
<title>FuseNavigationModule</title>
<polygon fill="#8dd3c7" stroke="black" points="1196.2,-84.8 1193.2,-88.8 1172.2,-88.8 1169.2,-84.8 1047.8,-84.8 1047.8,-48.8 1196.2,-48.8 1196.2,-84.8"/>
<text text-anchor="middle" x="1122" y="-62.6" font-family="Times,serif" font-size="14.00">FuseNavigationModule</text>
</g>
<!-- FuseNavigationModule&#45;&gt;CompactLayoutModule -->
<g id="edge3" class="edge">
<title>FuseNavigationModule&#45;&gt;CompactLayoutModule</title>
<path fill="none" stroke="black" d="M1122,-85.07C1122,-103.36 1122,-128.8 1122,-128.8 1122,-128.8 779.04,-128.8 779.04,-128.8"/>
<polygon fill="black" stroke="black" points="779.04,-125.3 769.04,-128.8 779.04,-132.3 779.04,-125.3"/>
</g>
<!-- LanguagesModule -->
<g id="node5" class="node">
<title>LanguagesModule</title>
<polygon fill="#8dd3c7" stroke="black" points="1030.19,-84.8 1027.19,-88.8 1006.19,-88.8 1003.19,-84.8 909.81,-84.8 909.81,-48.8 1030.19,-48.8 1030.19,-84.8"/>
<text text-anchor="middle" x="970" y="-62.6" font-family="Times,serif" font-size="14.00">LanguagesModule</text>
</g>
<!-- LanguagesModule&#45;&gt;CompactLayoutModule -->
<g id="edge4" class="edge">
<title>LanguagesModule&#45;&gt;CompactLayoutModule</title>
<path fill="none" stroke="black" d="M970,-84.81C970,-100.85 970,-121.8 970,-121.8 970,-121.8 779.05,-121.8 779.05,-121.8"/>
<polygon fill="black" stroke="black" points="779.05,-118.3 769.05,-121.8 779.05,-125.3 779.05,-118.3"/>
</g>
<!-- MessagesModule -->
<g id="node6" class="node">
<title>MessagesModule</title>
<polygon fill="#8dd3c7" stroke="black" points="891.97,-84.8 888.97,-88.8 867.97,-88.8 864.97,-84.8 778.03,-84.8 778.03,-48.8 891.97,-48.8 891.97,-84.8"/>
<text text-anchor="middle" x="835" y="-62.6" font-family="Times,serif" font-size="14.00">MessagesModule</text>
</g>
<!-- MessagesModule&#45;&gt;CompactLayoutModule -->
<g id="edge5" class="edge">
<title>MessagesModule&#45;&gt;CompactLayoutModule</title>
<path fill="none" stroke="black" d="M777.84,-66.8C770.01,-66.8 764.6,-66.8 764.6,-66.8 764.6,-66.8 764.6,-103.69 764.6,-103.69"/>
<polygon fill="black" stroke="black" points="761.1,-103.69 764.6,-113.69 768.1,-103.69 761.1,-103.69"/>
</g>
<!-- NotificationsModule -->
<g id="node7" class="node">
<title>NotificationsModule</title>
<polygon fill="#8dd3c7" stroke="black" points="760.14,-84.8 757.14,-88.8 736.14,-88.8 733.14,-84.8 627.86,-84.8 627.86,-48.8 760.14,-48.8 760.14,-84.8"/>
<text text-anchor="middle" x="694" y="-62.6" font-family="Times,serif" font-size="14.00">NotificationsModule</text>
</g>
<!-- NotificationsModule&#45;&gt;CompactLayoutModule -->
<g id="edge6" class="edge">
<title>NotificationsModule&#45;&gt;CompactLayoutModule</title>
<path fill="none" stroke="black" d="M694,-84.91C694,-84.91 694,-103.79 694,-103.79"/>
<polygon fill="black" stroke="black" points="690.5,-103.79 694,-113.79 697.5,-103.79 690.5,-103.79"/>
</g>
<!-- QuickChatModule -->
<g id="node8" class="node">
<title>QuickChatModule</title>
<polygon fill="#8dd3c7" stroke="black" points="610.2,-84.8 607.2,-88.8 586.2,-88.8 583.2,-84.8 489.8,-84.8 489.8,-48.8 610.2,-48.8 610.2,-84.8"/>
<text text-anchor="middle" x="550" y="-62.6" font-family="Times,serif" font-size="14.00">QuickChatModule</text>
</g>
<!-- QuickChatModule&#45;&gt;CompactLayoutModule -->
<g id="edge7" class="edge">
<title>QuickChatModule&#45;&gt;CompactLayoutModule</title>
<path fill="none" stroke="black" d="M610.28,-66.8C618.07,-66.8 623.4,-66.8 623.4,-66.8 623.4,-66.8 623.4,-103.69 623.4,-103.69"/>
<polygon fill="black" stroke="black" points="619.9,-103.69 623.4,-113.69 626.9,-103.69 619.9,-103.69"/>
</g>
<!-- SearchModule -->
<g id="node9" class="node">
<title>SearchModule</title>
<polygon fill="#8dd3c7" stroke="black" points="471.64,-84.8 468.64,-88.8 447.64,-88.8 444.64,-84.8 374.36,-84.8 374.36,-48.8 471.64,-48.8 471.64,-84.8"/>
<text text-anchor="middle" x="423" y="-62.6" font-family="Times,serif" font-size="14.00">SearchModule</text>
</g>
<!-- SearchModule&#45;&gt;CompactLayoutModule -->
<g id="edge8" class="edge">
<title>SearchModule&#45;&gt;CompactLayoutModule</title>
<path fill="none" stroke="black" d="M423,-84.81C423,-100.85 423,-121.8 423,-121.8 423,-121.8 609.23,-121.8 609.23,-121.8"/>
<polygon fill="black" stroke="black" points="609.23,-125.3 619.23,-121.8 609.23,-118.3 609.23,-125.3"/>
</g>
<!-- SharedModule -->
<g id="node10" class="node">
<title>SharedModule</title>
<polygon fill="#8dd3c7" stroke="black" points="356.42,-84.8 353.42,-88.8 332.42,-88.8 329.42,-84.8 257.58,-84.8 257.58,-48.8 356.42,-48.8 356.42,-84.8"/>
<text text-anchor="middle" x="307" y="-62.6" font-family="Times,serif" font-size="14.00">SharedModule</text>
</g>
<!-- SharedModule&#45;&gt;CompactLayoutModule -->
<g id="edge9" class="edge">
<title>SharedModule&#45;&gt;CompactLayoutModule</title>
<path fill="none" stroke="black" d="M307,-85.07C307,-103.36 307,-128.8 307,-128.8 307,-128.8 608.92,-128.8 608.92,-128.8"/>
<polygon fill="black" stroke="black" points="608.92,-132.3 618.92,-128.8 608.92,-125.3 608.92,-132.3"/>
</g>
<!-- ShortcutsModule -->
<g id="node11" class="node">
<title>ShortcutsModule</title>
<polygon fill="#8dd3c7" stroke="black" points="240.43,-84.8 237.43,-88.8 216.43,-88.8 213.43,-84.8 127.57,-84.8 127.57,-48.8 240.43,-48.8 240.43,-84.8"/>
<text text-anchor="middle" x="184" y="-62.6" font-family="Times,serif" font-size="14.00">ShortcutsModule</text>
</g>
<!-- ShortcutsModule&#45;&gt;CompactLayoutModule -->
<g id="edge10" class="edge">
<title>ShortcutsModule&#45;&gt;CompactLayoutModule</title>
<path fill="none" stroke="black" d="M184,-84.93C184,-105.37 184,-135.8 184,-135.8 184,-135.8 609.02,-135.8 609.02,-135.8"/>
<polygon fill="black" stroke="black" points="609.02,-139.3 619.02,-135.8 609.02,-132.3 609.02,-139.3"/>
</g>
<!-- UserModule -->
<g id="node12" class="node">
<title>UserModule</title>
<polygon fill="#8dd3c7" stroke="black" points="109.98,-84.8 106.98,-88.8 85.98,-88.8 82.98,-84.8 24.02,-84.8 24.02,-48.8 109.98,-48.8 109.98,-84.8"/>
<text text-anchor="middle" x="67" y="-62.6" font-family="Times,serif" font-size="14.00">UserModule</text>
</g>
<!-- UserModule&#45;&gt;CompactLayoutModule -->
<g id="edge11" class="edge">
<title>UserModule&#45;&gt;CompactLayoutModule</title>
<path fill="none" stroke="black" d="M67,-84.81C67,-107.29 67,-142.8 67,-142.8 67,-142.8 608.99,-142.8 608.99,-142.8"/>
<polygon fill="black" stroke="black" points="608.99,-146.3 618.99,-142.8 608.99,-139.3 608.99,-146.3"/>
</g>
</g>
</svg>
