<?xml version="1.0" encoding="UTF-8" standalone="no"?>
<!DOCTYPE svg PUBLIC "-//W3C//DTD SVG 1.1//EN"
 "http://www.w3.org/Graphics/SVG/1.1/DTD/svg11.dtd">
<!-- Generated by graphviz version 2.47.3 (20210619.1520)
 -->
<!-- Title: dependencies Pages: 1 -->
<svg width="386pt" height="247pt"
 viewBox="0.00 0.00 386.00 246.80" xmlns="http://www.w3.org/2000/svg" xmlns:xlink="http://www.w3.org/1999/xlink">
<g id="graph0" class="graph" transform="scale(1 1) rotate(0) translate(4 242.8)">
<title>dependencies</title>
<polygon fill="white" stroke="transparent" points="-4,4 -4,-242.8 382,-242.8 382,4 -4,4"/>
<text text-anchor="middle" x="189" y="-8.2" font-family="sans-serif" font-size="14.00">dependencies</text>
<g id="clust1" class="cluster">
<title>cluster_DemoSidebarModule</title>
<polygon fill="none" stroke="black" stroke-dasharray="1,5" points="8,-32.8 8,-230.8 370,-230.8 370,-32.8 8,-32.8"/>
</g>
<g id="clust2" class="cluster">
<title>cluster_DemoSidebarModule_declarations</title>
<polygon fill="none" stroke="black" points="188,-40.8 188,-92.8 362,-92.8 362,-40.8 188,-40.8"/>
</g>
<g id="clust5" class="cluster">
<title>cluster_DemoSidebarModule_exports</title>
<polygon fill="none" stroke="black" points="100,-170.8 100,-222.8 278,-222.8 278,-170.8 100,-170.8"/>
</g>
<g id="clust4" class="cluster">
<title>cluster_DemoSidebarModule_imports</title>
<polygon fill="none" stroke="black" points="16,-40.8 16,-92.8 180,-92.8 180,-40.8 16,-40.8"/>
</g>
<!-- DemoSidebarComponent -->
<g id="node1" class="node">
<title>DemoSidebarComponent</title>
<polygon fill="#ffffb3" stroke="black" points="354.31,-84.8 195.69,-84.8 195.69,-48.8 354.31,-48.8 354.31,-84.8"/>
<text text-anchor="middle" x="275" y="-62.6" font-family="Times,serif" font-size="14.00">DemoSidebarComponent</text>
</g>
<!-- DemoSidebarModule -->
<g id="node2" class="node">
<title>DemoSidebarModule</title>
<polygon fill="#8dd3c7" stroke="black" points="257.03,-149.8 254.03,-153.8 233.03,-153.8 230.03,-149.8 120.97,-149.8 120.97,-113.8 257.03,-113.8 257.03,-149.8"/>
<text text-anchor="middle" x="189" y="-127.6" font-family="Times,serif" font-size="14.00">DemoSidebarModule</text>
</g>
<!-- DemoSidebarComponent&#45;&gt;DemoSidebarModule -->
<g id="edge1" class="edge">
<title>DemoSidebarComponent&#45;&gt;DemoSidebarModule</title>
<path fill="none" stroke="black" d="M226.55,-84.91C226.55,-84.91 226.55,-103.79 226.55,-103.79"/>
<polygon fill="black" stroke="black" points="223.05,-103.79 226.55,-113.79 230.05,-103.79 223.05,-103.79"/>
</g>
<!-- DemoSidebarComponent  -->
<g id="node4" class="node">
<title>DemoSidebarComponent </title>
<polygon fill="#fb8072" stroke="black" points="269.81,-214.8 108.19,-214.8 108.19,-178.8 269.81,-178.8 269.81,-214.8"/>
<text text-anchor="middle" x="189" y="-192.6" font-family="Times,serif" font-size="14.00">DemoSidebarComponent </text>
</g>
<!-- DemoSidebarModule&#45;&gt;DemoSidebarComponent  -->
<g id="edge3" class="edge">
<title>DemoSidebarModule&#45;&gt;DemoSidebarComponent </title>
<path fill="none" stroke="black" stroke-dasharray="5,2" d="M189,-149.91C189,-149.91 189,-168.79 189,-168.79"/>
<polygon fill="black" stroke="black" points="185.5,-168.79 189,-178.79 192.5,-168.79 185.5,-168.79"/>
</g>
<!-- FuseNavigationModule -->
<g id="node3" class="node">
<title>FuseNavigationModule</title>
<polygon fill="#8dd3c7" stroke="black" points="172.2,-84.8 169.2,-88.8 148.2,-88.8 145.2,-84.8 23.8,-84.8 23.8,-48.8 172.2,-48.8 172.2,-84.8"/>
<text text-anchor="middle" x="98" y="-62.6" font-family="Times,serif" font-size="14.00">FuseNavigationModule</text>
</g>
<!-- FuseNavigationModule&#45;&gt;DemoSidebarModule -->
<g id="edge2" class="edge">
<title>FuseNavigationModule&#45;&gt;DemoSidebarModule</title>
<path fill="none" stroke="black" d="M146.42,-84.91C146.42,-84.91 146.42,-103.79 146.42,-103.79"/>
<polygon fill="black" stroke="black" points="142.92,-103.79 146.42,-113.79 149.92,-103.79 142.92,-103.79"/>
</g>
</g>
</svg>
