<?xml version="1.0" encoding="UTF-8" standalone="no"?>
<!DOCTYPE svg PUBLIC "-//W3C//DTD SVG 1.1//EN"
 "http://www.w3.org/Graphics/SVG/1.1/DTD/svg11.dtd">
<!-- Generated by graphviz version 2.47.3 (20210619.1520)
 -->
<!-- Title: dependencies Pages: 1 -->
<svg width="1817pt" height="174pt"
 viewBox="0.00 0.00 1817.00 173.80" xmlns="http://www.w3.org/2000/svg" xmlns:xlink="http://www.w3.org/1999/xlink">
<g id="graph0" class="graph" transform="scale(1 1) rotate(0) translate(4 169.8)">
<title>dependencies</title>
<polygon fill="white" stroke="transparent" points="-4,4 -4,-169.8 1813,-169.8 1813,4 -4,4"/>
<text text-anchor="middle" x="904.5" y="-8.2" font-family="sans-serif" font-size="14.00">dependencies</text>
<g id="clust1" class="cluster">
<title>cluster_SignUpModule</title>
<polygon fill="none" stroke="black" stroke-dasharray="1,5" points="8,-32.8 8,-157.8 1801,-157.8 1801,-32.8 8,-32.8"/>
</g>
<g id="clust10" class="cluster">
<title>cluster_SignUpModule_imports</title>
<polygon fill="none" stroke="black" points="1546,-40.8 1546,-92.8 1793,-92.8 1793,-40.8 1546,-40.8"/>
</g>
<g id="clust2" class="cluster">
<title>cluster_SignUpModule_declarations</title>
<polygon fill="none" stroke="black" points="16,-40.8 16,-92.8 1538,-92.8 1538,-40.8 16,-40.8"/>
</g>
<!-- SignUpClassicComponent -->
<g id="node1" class="node">
<title>SignUpClassicComponent</title>
<polygon fill="#ffffb3" stroke="black" points="1530.05,-84.8 1365.95,-84.8 1365.95,-48.8 1530.05,-48.8 1530.05,-84.8"/>
<text text-anchor="middle" x="1448" y="-62.6" font-family="Times,serif" font-size="14.00">SignUpClassicComponent</text>
</g>
<!-- SignUpModule -->
<g id="node8" class="node">
<title>SignUpModule</title>
<polygon fill="#8dd3c7" stroke="black" points="1082.33,-149.8 1079.33,-153.8 1058.33,-153.8 1055.33,-149.8 979.67,-149.8 979.67,-113.8 1082.33,-113.8 1082.33,-149.8"/>
<text text-anchor="middle" x="1031" y="-127.6" font-family="Times,serif" font-size="14.00">SignUpModule</text>
</g>
<!-- SignUpClassicComponent&#45;&gt;SignUpModule -->
<g id="edge1" class="edge">
<title>SignUpClassicComponent&#45;&gt;SignUpModule</title>
<path fill="none" stroke="black" d="M1448,-85.07C1448,-103.36 1448,-128.8 1448,-128.8 1448,-128.8 1092.55,-128.8 1092.55,-128.8"/>
<polygon fill="black" stroke="black" points="1092.55,-125.3 1082.55,-128.8 1092.55,-132.3 1092.55,-125.3"/>
</g>
<!-- SignUpFullscreenComponent -->
<g id="node2" class="node">
<title>SignUpFullscreenComponent</title>
<polygon fill="#ffffb3" stroke="black" points="1348.43,-84.8 1165.57,-84.8 1165.57,-48.8 1348.43,-48.8 1348.43,-84.8"/>
<text text-anchor="middle" x="1257" y="-62.6" font-family="Times,serif" font-size="14.00">SignUpFullscreenComponent</text>
</g>
<!-- SignUpFullscreenComponent&#45;&gt;SignUpModule -->
<g id="edge2" class="edge">
<title>SignUpFullscreenComponent&#45;&gt;SignUpModule</title>
<path fill="none" stroke="black" d="M1257,-84.81C1257,-100.85 1257,-121.8 1257,-121.8 1257,-121.8 1092.28,-121.8 1092.28,-121.8"/>
<polygon fill="black" stroke="black" points="1092.28,-118.3 1082.28,-121.8 1092.28,-125.3 1092.28,-118.3"/>
</g>
<!-- SignUpFullscreenReversedComponent -->
<g id="node3" class="node">
<title>SignUpFullscreenReversedComponent</title>
<polygon fill="#ffffb3" stroke="black" points="1148.01,-84.8 913.99,-84.8 913.99,-48.8 1148.01,-48.8 1148.01,-84.8"/>
<text text-anchor="middle" x="1031" y="-62.6" font-family="Times,serif" font-size="14.00">SignUpFullscreenReversedComponent</text>
</g>
<!-- SignUpFullscreenReversedComponent&#45;&gt;SignUpModule -->
<g id="edge3" class="edge">
<title>SignUpFullscreenReversedComponent&#45;&gt;SignUpModule</title>
<path fill="none" stroke="black" d="M1031,-84.91C1031,-84.91 1031,-103.79 1031,-103.79"/>
<polygon fill="black" stroke="black" points="1027.5,-103.79 1031,-113.79 1034.5,-103.79 1027.5,-103.79"/>
</g>
<!-- SignUpModernComponent -->
<g id="node4" class="node">
<title>SignUpModernComponent</title>
<polygon fill="#ffffb3" stroke="black" points="896.43,-84.8 727.57,-84.8 727.57,-48.8 896.43,-48.8 896.43,-84.8"/>
<text text-anchor="middle" x="812" y="-62.6" font-family="Times,serif" font-size="14.00">SignUpModernComponent</text>
</g>
<!-- SignUpModernComponent&#45;&gt;SignUpModule -->
<g id="edge4" class="edge">
<title>SignUpModernComponent&#45;&gt;SignUpModule</title>
<path fill="none" stroke="black" d="M812,-84.81C812,-100.85 812,-121.8 812,-121.8 812,-121.8 969.65,-121.8 969.65,-121.8"/>
<polygon fill="black" stroke="black" points="969.65,-125.3 979.65,-121.8 969.65,-118.3 969.65,-125.3"/>
</g>
<!-- SignUpModernReversedComponent -->
<g id="node5" class="node">
<title>SignUpModernReversedComponent</title>
<polygon fill="#ffffb3" stroke="black" points="710.02,-84.8 489.98,-84.8 489.98,-48.8 710.02,-48.8 710.02,-84.8"/>
<text text-anchor="middle" x="600" y="-62.6" font-family="Times,serif" font-size="14.00">SignUpModernReversedComponent</text>
</g>
<!-- SignUpModernReversedComponent&#45;&gt;SignUpModule -->
<g id="edge5" class="edge">
<title>SignUpModernReversedComponent&#45;&gt;SignUpModule</title>
<path fill="none" stroke="black" d="M600,-85.07C600,-103.36 600,-128.8 600,-128.8 600,-128.8 969.44,-128.8 969.44,-128.8"/>
<polygon fill="black" stroke="black" points="969.44,-132.3 979.44,-128.8 969.44,-125.3 969.44,-132.3"/>
</g>
<!-- SignUpSplitScreenComponent -->
<g id="node6" class="node">
<title>SignUpSplitScreenComponent</title>
<polygon fill="#ffffb3" stroke="black" points="471.15,-84.8 282.85,-84.8 282.85,-48.8 471.15,-48.8 471.15,-84.8"/>
<text text-anchor="middle" x="377" y="-62.6" font-family="Times,serif" font-size="14.00">SignUpSplitScreenComponent</text>
</g>
<!-- SignUpSplitScreenComponent&#45;&gt;SignUpModule -->
<g id="edge6" class="edge">
<title>SignUpSplitScreenComponent&#45;&gt;SignUpModule</title>
<path fill="none" stroke="black" d="M377,-84.93C377,-105.37 377,-135.8 377,-135.8 377,-135.8 969.68,-135.8 969.68,-135.8"/>
<polygon fill="black" stroke="black" points="969.68,-139.3 979.68,-135.8 969.68,-132.3 969.68,-139.3"/>
</g>
<!-- SignUpSplitScreenReversedComponent -->
<g id="node7" class="node">
<title>SignUpSplitScreenReversedComponent</title>
<polygon fill="#ffffb3" stroke="black" points="264.24,-84.8 23.76,-84.8 23.76,-48.8 264.24,-48.8 264.24,-84.8"/>
<text text-anchor="middle" x="144" y="-62.6" font-family="Times,serif" font-size="14.00">SignUpSplitScreenReversedComponent</text>
</g>
<!-- SignUpSplitScreenReversedComponent&#45;&gt;SignUpModule -->
<g id="edge7" class="edge">
<title>SignUpSplitScreenReversedComponent&#45;&gt;SignUpModule</title>
<path fill="none" stroke="black" d="M144,-84.81C144,-107.29 144,-142.8 144,-142.8 144,-142.8 969.8,-142.8 969.8,-142.8"/>
<polygon fill="black" stroke="black" points="969.8,-146.3 979.8,-142.8 969.8,-139.3 969.8,-146.3"/>
</g>
<!-- FuseAlertModule -->
<g id="node9" class="node">
<title>FuseAlertModule</title>
<polygon fill="#8dd3c7" stroke="black" points="1785.25,-84.8 1782.25,-88.8 1761.25,-88.8 1758.25,-84.8 1670.75,-84.8 1670.75,-48.8 1785.25,-48.8 1785.25,-84.8"/>
<text text-anchor="middle" x="1728" y="-62.6" font-family="Times,serif" font-size="14.00">FuseAlertModule</text>
</g>
<!-- FuseAlertModule&#45;&gt;SignUpModule -->
<g id="edge8" class="edge">
<title>FuseAlertModule&#45;&gt;SignUpModule</title>
<path fill="none" stroke="black" d="M1728,-84.81C1728,-107.29 1728,-142.8 1728,-142.8 1728,-142.8 1092.25,-142.8 1092.25,-142.8"/>
<polygon fill="black" stroke="black" points="1092.25,-139.3 1082.25,-142.8 1092.25,-146.3 1092.25,-139.3"/>
</g>
<!-- SharedModule -->
<g id="node10" class="node">
<title>SharedModule</title>
<polygon fill="#8dd3c7" stroke="black" points="1652.42,-84.8 1649.42,-88.8 1628.42,-88.8 1625.42,-84.8 1553.58,-84.8 1553.58,-48.8 1652.42,-48.8 1652.42,-84.8"/>
<text text-anchor="middle" x="1603" y="-62.6" font-family="Times,serif" font-size="14.00">SharedModule</text>
</g>
<!-- SharedModule&#45;&gt;SignUpModule -->
<g id="edge9" class="edge">
<title>SharedModule&#45;&gt;SignUpModule</title>
<path fill="none" stroke="black" d="M1603,-84.93C1603,-105.37 1603,-135.8 1603,-135.8 1603,-135.8 1092.26,-135.8 1092.26,-135.8"/>
<polygon fill="black" stroke="black" points="1092.26,-132.3 1082.26,-135.8 1092.26,-139.3 1092.26,-132.3"/>
</g>
</g>
</svg>
