<?xml version="1.0" encoding="UTF-8" standalone="no"?>
<!DOCTYPE svg PUBLIC "-//W3C//DTD SVG 1.1//EN"
 "http://www.w3.org/Graphics/SVG/1.1/DTD/svg11.dtd">
<!-- Generated by graphviz version 2.47.3 (20210619.1520)
 -->
<!-- Title: dependencies Pages: 1 -->
<svg width="512pt" height="174pt"
 viewBox="0.00 0.00 512.00 173.80" xmlns="http://www.w3.org/2000/svg" xmlns:xlink="http://www.w3.org/1999/xlink">
<g id="graph0" class="graph" transform="scale(1 1) rotate(0) translate(4 169.8)">
<title>dependencies</title>
<polygon fill="white" stroke="transparent" points="-4,4 -4,-169.8 508,-169.8 508,4 -4,4"/>
<text text-anchor="middle" x="252" y="-8.2" font-family="sans-serif" font-size="14.00">dependencies</text>
<g id="clust1" class="cluster">
<title>cluster_AdvancedSearchModule</title>
<polygon fill="none" stroke="black" stroke-dasharray="1,5" points="8,-32.8 8,-157.8 496,-157.8 496,-32.8 8,-32.8"/>
</g>
<g id="clust2" class="cluster">
<title>cluster_AdvancedSearchModule_declarations</title>
<polygon fill="none" stroke="black" points="296,-40.8 296,-92.8 488,-92.8 488,-40.8 296,-40.8"/>
</g>
<g id="clust4" class="cluster">
<title>cluster_AdvancedSearchModule_imports</title>
<polygon fill="none" stroke="black" points="16,-40.8 16,-92.8 288,-92.8 288,-40.8 16,-40.8"/>
</g>
<!-- AdvancedSearchComponent -->
<g id="node1" class="node">
<title>AdvancedSearchComponent</title>
<polygon fill="#ffffb3" stroke="black" points="480.17,-84.8 303.83,-84.8 303.83,-48.8 480.17,-48.8 480.17,-84.8"/>
<text text-anchor="middle" x="392" y="-62.6" font-family="Times,serif" font-size="14.00">AdvancedSearchComponent</text>
</g>
<!-- AdvancedSearchModule -->
<g id="node2" class="node">
<title>AdvancedSearchModule</title>
<polygon fill="#8dd3c7" stroke="black" points="287.39,-149.8 284.39,-153.8 263.39,-153.8 260.39,-149.8 132.61,-149.8 132.61,-113.8 287.39,-113.8 287.39,-149.8"/>
<text text-anchor="middle" x="210" y="-127.6" font-family="Times,serif" font-size="14.00">AdvancedSearchModule</text>
</g>
<!-- AdvancedSearchComponent&#45;&gt;AdvancedSearchModule -->
<g id="edge1" class="edge">
<title>AdvancedSearchComponent&#45;&gt;AdvancedSearchModule</title>
<path fill="none" stroke="black" d="M303.66,-66.8C291.74,-66.8 283.51,-66.8 283.51,-66.8 283.51,-66.8 283.51,-103.69 283.51,-103.69"/>
<polygon fill="black" stroke="black" points="280.01,-103.69 283.51,-113.69 287.01,-103.69 280.01,-103.69"/>
</g>
<!-- FuseHighlightModule -->
<g id="node3" class="node">
<title>FuseHighlightModule</title>
<polygon fill="#8dd3c7" stroke="black" points="279.66,-84.8 276.66,-88.8 255.66,-88.8 252.66,-84.8 140.34,-84.8 140.34,-48.8 279.66,-48.8 279.66,-84.8"/>
<text text-anchor="middle" x="210" y="-62.6" font-family="Times,serif" font-size="14.00">FuseHighlightModule</text>
</g>
<!-- FuseHighlightModule&#45;&gt;AdvancedSearchModule -->
<g id="edge2" class="edge">
<title>FuseHighlightModule&#45;&gt;AdvancedSearchModule</title>
<path fill="none" stroke="black" d="M210,-84.91C210,-84.91 210,-103.79 210,-103.79"/>
<polygon fill="black" stroke="black" points="206.5,-103.79 210,-113.79 213.5,-103.79 206.5,-103.79"/>
</g>
<!-- SharedModule -->
<g id="node4" class="node">
<title>SharedModule</title>
<polygon fill="#8dd3c7" stroke="black" points="122.42,-84.8 119.42,-88.8 98.42,-88.8 95.42,-84.8 23.58,-84.8 23.58,-48.8 122.42,-48.8 122.42,-84.8"/>
<text text-anchor="middle" x="73" y="-62.6" font-family="Times,serif" font-size="14.00">SharedModule</text>
</g>
<!-- SharedModule&#45;&gt;AdvancedSearchModule -->
<g id="edge3" class="edge">
<title>SharedModule&#45;&gt;AdvancedSearchModule</title>
<path fill="none" stroke="black" d="M122.4,-66.8C130.59,-66.8 136.49,-66.8 136.49,-66.8 136.49,-66.8 136.49,-103.69 136.49,-103.69"/>
<polygon fill="black" stroke="black" points="132.99,-103.69 136.49,-113.69 139.99,-103.69 132.99,-103.69"/>
</g>
</g>
</svg>
