<?xml version="1.0" encoding="UTF-8" standalone="no"?>
<!DOCTYPE svg PUBLIC "-//W3C//DTD SVG 1.1//EN"
 "http://www.w3.org/Graphics/SVG/1.1/DTD/svg11.dtd">
<!-- Generated by graphviz version 2.47.3 (20210619.1520)
 -->
<!-- Title: dependencies Pages: 1 -->
<svg width="622pt" height="247pt"
 viewBox="0.00 0.00 622.00 246.80" xmlns="http://www.w3.org/2000/svg" xmlns:xlink="http://www.w3.org/1999/xlink">
<g id="graph0" class="graph" transform="scale(1 1) rotate(0) translate(4 242.8)">
<title>dependencies</title>
<polygon fill="white" stroke="transparent" points="-4,4 -4,-242.8 618,-242.8 618,4 -4,4"/>
<text text-anchor="middle" x="307" y="-8.2" font-family="sans-serif" font-size="14.00">dependencies</text>
<g id="clust1" class="cluster">
<title>cluster_QuickChatModule</title>
<polygon fill="none" stroke="black" stroke-dasharray="1,5" points="8,-32.8 8,-230.8 606,-230.8 606,-32.8 8,-32.8"/>
</g>
<g id="clust5" class="cluster">
<title>cluster_QuickChatModule_exports</title>
<polygon fill="none" stroke="black" points="203,-170.8 203,-222.8 365,-222.8 365,-170.8 203,-170.8"/>
</g>
<g id="clust2" class="cluster">
<title>cluster_QuickChatModule_declarations</title>
<polygon fill="none" stroke="black" points="440,-40.8 440,-92.8 598,-92.8 598,-40.8 440,-40.8"/>
</g>
<g id="clust4" class="cluster">
<title>cluster_QuickChatModule_imports</title>
<polygon fill="none" stroke="black" points="16,-40.8 16,-92.8 432,-92.8 432,-40.8 16,-40.8"/>
</g>
<!-- QuickChatComponent -->
<g id="node1" class="node">
<title>QuickChatComponent</title>
<polygon fill="#ffffb3" stroke="black" points="589.99,-84.8 448.01,-84.8 448.01,-48.8 589.99,-48.8 589.99,-84.8"/>
<text text-anchor="middle" x="519" y="-62.6" font-family="Times,serif" font-size="14.00">QuickChatComponent</text>
</g>
<!-- QuickChatModule -->
<g id="node2" class="node">
<title>QuickChatModule</title>
<polygon fill="#8dd3c7" stroke="black" points="344.2,-149.8 341.2,-153.8 320.2,-153.8 317.2,-149.8 223.8,-149.8 223.8,-113.8 344.2,-113.8 344.2,-149.8"/>
<text text-anchor="middle" x="284" y="-127.6" font-family="Times,serif" font-size="14.00">QuickChatModule</text>
</g>
<!-- QuickChatComponent&#45;&gt;QuickChatModule -->
<g id="edge1" class="edge">
<title>QuickChatComponent&#45;&gt;QuickChatModule</title>
<path fill="none" stroke="black" d="M519,-84.91C519,-104.14 519,-131.8 519,-131.8 519,-131.8 354.21,-131.8 354.21,-131.8"/>
<polygon fill="black" stroke="black" points="354.21,-128.3 344.21,-131.8 354.21,-135.3 354.21,-128.3"/>
</g>
<!-- QuickChatComponent  -->
<g id="node6" class="node">
<title>QuickChatComponent </title>
<polygon fill="#fb8072" stroke="black" points="356.99,-214.8 211.01,-214.8 211.01,-178.8 356.99,-178.8 356.99,-214.8"/>
<text text-anchor="middle" x="284" y="-192.6" font-family="Times,serif" font-size="14.00">QuickChatComponent </text>
</g>
<!-- QuickChatModule&#45;&gt;QuickChatComponent  -->
<g id="edge5" class="edge">
<title>QuickChatModule&#45;&gt;QuickChatComponent </title>
<path fill="none" stroke="black" stroke-dasharray="5,2" d="M284,-149.91C284,-149.91 284,-168.79 284,-168.79"/>
<polygon fill="black" stroke="black" points="280.5,-168.79 284,-178.79 287.5,-168.79 280.5,-168.79"/>
</g>
<!-- FuseDrawerModule -->
<g id="node3" class="node">
<title>FuseDrawerModule</title>
<polygon fill="#8dd3c7" stroke="black" points="423.96,-84.8 420.96,-88.8 399.96,-88.8 396.96,-84.8 296.04,-84.8 296.04,-48.8 423.96,-48.8 423.96,-84.8"/>
<text text-anchor="middle" x="360" y="-62.6" font-family="Times,serif" font-size="14.00">FuseDrawerModule</text>
</g>
<!-- FuseDrawerModule&#45;&gt;QuickChatModule -->
<g id="edge2" class="edge">
<title>FuseDrawerModule&#45;&gt;QuickChatModule</title>
<path fill="none" stroke="black" d="M320.06,-84.91C320.06,-84.91 320.06,-103.79 320.06,-103.79"/>
<polygon fill="black" stroke="black" points="316.56,-103.79 320.06,-113.79 323.56,-103.79 316.56,-103.79"/>
</g>
<!-- FuseScrollbarModule -->
<g id="node4" class="node">
<title>FuseScrollbarModule</title>
<polygon fill="#8dd3c7" stroke="black" points="277.81,-84.8 274.81,-88.8 253.81,-88.8 250.81,-84.8 140.19,-84.8 140.19,-48.8 277.81,-48.8 277.81,-84.8"/>
<text text-anchor="middle" x="209" y="-62.6" font-family="Times,serif" font-size="14.00">FuseScrollbarModule</text>
</g>
<!-- FuseScrollbarModule&#45;&gt;QuickChatModule -->
<g id="edge3" class="edge">
<title>FuseScrollbarModule&#45;&gt;QuickChatModule</title>
<path fill="none" stroke="black" d="M250.78,-84.91C250.78,-84.91 250.78,-103.79 250.78,-103.79"/>
<polygon fill="black" stroke="black" points="247.28,-103.79 250.78,-113.79 254.28,-103.79 247.28,-103.79"/>
</g>
<!-- SharedModule -->
<g id="node5" class="node">
<title>SharedModule</title>
<polygon fill="#8dd3c7" stroke="black" points="122.42,-84.8 119.42,-88.8 98.42,-88.8 95.42,-84.8 23.58,-84.8 23.58,-48.8 122.42,-48.8 122.42,-84.8"/>
<text text-anchor="middle" x="73" y="-62.6" font-family="Times,serif" font-size="14.00">SharedModule</text>
</g>
<!-- SharedModule&#45;&gt;QuickChatModule -->
<g id="edge4" class="edge">
<title>SharedModule&#45;&gt;QuickChatModule</title>
<path fill="none" stroke="black" d="M73,-84.91C73,-104.14 73,-131.8 73,-131.8 73,-131.8 213.82,-131.8 213.82,-131.8"/>
<polygon fill="black" stroke="black" points="213.82,-135.3 223.82,-131.8 213.82,-128.3 213.82,-135.3"/>
</g>
</g>
</svg>
