<?xml version="1.0" encoding="UTF-8" standalone="no"?>
<!DOCTYPE svg PUBLIC "-//W3C//DTD SVG 1.1//EN"
 "http://www.w3.org/Graphics/SVG/1.1/DTD/svg11.dtd">
<!-- Generated by graphviz version 2.47.3 (20210619.1520)
 -->
<!-- Title: dependencies Pages: 1 -->
<svg width="1732pt" height="174pt"
 viewBox="0.00 0.00 1732.00 173.80" xmlns="http://www.w3.org/2000/svg" xmlns:xlink="http://www.w3.org/1999/xlink">
<g id="graph0" class="graph" transform="scale(1 1) rotate(0) translate(4 169.8)">
<title>dependencies</title>
<polygon fill="white" stroke="transparent" points="-4,4 -4,-169.8 1728,-169.8 1728,4 -4,4"/>
<text text-anchor="middle" x="862" y="-8.2" font-family="sans-serif" font-size="14.00">dependencies</text>
<g id="clust1" class="cluster">
<title>cluster_MailboxModule</title>
<polygon fill="none" stroke="black" stroke-dasharray="1,5" points="8,-32.8 8,-157.8 1716,-157.8 1716,-32.8 8,-32.8"/>
</g>
<g id="clust9" class="cluster">
<title>cluster_MailboxModule_imports</title>
<polygon fill="none" stroke="black" points="1104,-40.8 1104,-92.8 1708,-92.8 1708,-40.8 1104,-40.8"/>
</g>
<g id="clust2" class="cluster">
<title>cluster_MailboxModule_declarations</title>
<polygon fill="none" stroke="black" points="16,-40.8 16,-92.8 1096,-92.8 1096,-40.8 16,-40.8"/>
</g>
<!-- MailboxComponent -->
<g id="node1" class="node">
<title>MailboxComponent</title>
<polygon fill="#ffffb3" stroke="black" points="1088.27,-84.8 959.73,-84.8 959.73,-48.8 1088.27,-48.8 1088.27,-84.8"/>
<text text-anchor="middle" x="1024" y="-62.6" font-family="Times,serif" font-size="14.00">MailboxComponent</text>
</g>
<!-- MailboxModule -->
<g id="node7" class="node">
<title>MailboxModule</title>
<polygon fill="#8dd3c7" stroke="black" points="990.49,-149.8 987.49,-153.8 966.49,-153.8 963.49,-149.8 883.51,-149.8 883.51,-113.8 990.49,-113.8 990.49,-149.8"/>
<text text-anchor="middle" x="937" y="-127.6" font-family="Times,serif" font-size="14.00">MailboxModule</text>
</g>
<!-- MailboxComponent&#45;&gt;MailboxModule -->
<g id="edge1" class="edge">
<title>MailboxComponent&#45;&gt;MailboxModule</title>
<path fill="none" stroke="black" d="M975.05,-84.91C975.05,-84.91 975.05,-103.79 975.05,-103.79"/>
<polygon fill="black" stroke="black" points="971.55,-103.79 975.05,-113.79 978.55,-103.79 971.55,-103.79"/>
</g>
<!-- MailboxComposeComponent -->
<g id="node2" class="node">
<title>MailboxComposeComponent</title>
<polygon fill="#ffffb3" stroke="black" points="941.66,-84.8 760.34,-84.8 760.34,-48.8 941.66,-48.8 941.66,-84.8"/>
<text text-anchor="middle" x="851" y="-62.6" font-family="Times,serif" font-size="14.00">MailboxComposeComponent</text>
</g>
<!-- MailboxComposeComponent&#45;&gt;MailboxModule -->
<g id="edge2" class="edge">
<title>MailboxComposeComponent&#45;&gt;MailboxModule</title>
<path fill="none" stroke="black" d="M912.67,-84.91C912.67,-84.91 912.67,-103.79 912.67,-103.79"/>
<polygon fill="black" stroke="black" points="909.17,-103.79 912.67,-113.79 916.17,-103.79 909.17,-103.79"/>
</g>
<!-- MailboxDetailsComponent -->
<g id="node3" class="node">
<title>MailboxDetailsComponent</title>
<polygon fill="#ffffb3" stroke="black" points="742.43,-84.8 573.57,-84.8 573.57,-48.8 742.43,-48.8 742.43,-84.8"/>
<text text-anchor="middle" x="658" y="-62.6" font-family="Times,serif" font-size="14.00">MailboxDetailsComponent</text>
</g>
<!-- MailboxDetailsComponent&#45;&gt;MailboxModule -->
<g id="edge3" class="edge">
<title>MailboxDetailsComponent&#45;&gt;MailboxModule</title>
<path fill="none" stroke="black" d="M658,-84.81C658,-100.85 658,-121.8 658,-121.8 658,-121.8 873.21,-121.8 873.21,-121.8"/>
<polygon fill="black" stroke="black" points="873.21,-125.3 883.21,-121.8 873.21,-118.3 873.21,-125.3"/>
</g>
<!-- MailboxListComponent -->
<g id="node4" class="node">
<title>MailboxListComponent</title>
<polygon fill="#ffffb3" stroke="black" points="556.05,-84.8 405.95,-84.8 405.95,-48.8 556.05,-48.8 556.05,-84.8"/>
<text text-anchor="middle" x="481" y="-62.6" font-family="Times,serif" font-size="14.00">MailboxListComponent</text>
</g>
<!-- MailboxListComponent&#45;&gt;MailboxModule -->
<g id="edge4" class="edge">
<title>MailboxListComponent&#45;&gt;MailboxModule</title>
<path fill="none" stroke="black" d="M481,-85.07C481,-103.36 481,-128.8 481,-128.8 481,-128.8 873.35,-128.8 873.35,-128.8"/>
<polygon fill="black" stroke="black" points="873.35,-132.3 883.35,-128.8 873.35,-125.3 873.35,-132.3"/>
</g>
<!-- MailboxSettingsComponent -->
<g id="node5" class="node">
<title>MailboxSettingsComponent</title>
<polygon fill="#ffffb3" stroke="black" points="387.89,-84.8 214.11,-84.8 214.11,-48.8 387.89,-48.8 387.89,-84.8"/>
<text text-anchor="middle" x="301" y="-62.6" font-family="Times,serif" font-size="14.00">MailboxSettingsComponent</text>
</g>
<!-- MailboxSettingsComponent&#45;&gt;MailboxModule -->
<g id="edge5" class="edge">
<title>MailboxSettingsComponent&#45;&gt;MailboxModule</title>
<path fill="none" stroke="black" d="M301,-84.93C301,-105.37 301,-135.8 301,-135.8 301,-135.8 873.32,-135.8 873.32,-135.8"/>
<polygon fill="black" stroke="black" points="873.32,-139.3 883.32,-135.8 873.32,-132.3 873.32,-139.3"/>
</g>
<!-- MailboxSidebarComponent -->
<g id="node6" class="node">
<title>MailboxSidebarComponent</title>
<polygon fill="#ffffb3" stroke="black" points="195.54,-84.8 24.46,-84.8 24.46,-48.8 195.54,-48.8 195.54,-84.8"/>
<text text-anchor="middle" x="110" y="-62.6" font-family="Times,serif" font-size="14.00">MailboxSidebarComponent</text>
</g>
<!-- MailboxSidebarComponent&#45;&gt;MailboxModule -->
<g id="edge6" class="edge">
<title>MailboxSidebarComponent&#45;&gt;MailboxModule</title>
<path fill="none" stroke="black" d="M110,-84.81C110,-107.29 110,-142.8 110,-142.8 110,-142.8 873.38,-142.8 873.38,-142.8"/>
<polygon fill="black" stroke="black" points="873.38,-146.3 883.38,-142.8 873.38,-139.3 873.38,-146.3"/>
</g>
<!-- FuseNavigationModule -->
<g id="node8" class="node">
<title>FuseNavigationModule</title>
<polygon fill="#8dd3c7" stroke="black" points="1700.2,-84.8 1697.2,-88.8 1676.2,-88.8 1673.2,-84.8 1551.8,-84.8 1551.8,-48.8 1700.2,-48.8 1700.2,-84.8"/>
<text text-anchor="middle" x="1626" y="-62.6" font-family="Times,serif" font-size="14.00">FuseNavigationModule</text>
</g>
<!-- FuseNavigationModule&#45;&gt;MailboxModule -->
<g id="edge7" class="edge">
<title>FuseNavigationModule&#45;&gt;MailboxModule</title>
<path fill="none" stroke="black" d="M1626,-84.81C1626,-107.29 1626,-142.8 1626,-142.8 1626,-142.8 1000.49,-142.8 1000.49,-142.8"/>
<polygon fill="black" stroke="black" points="1000.49,-139.3 990.49,-142.8 1000.49,-146.3 1000.49,-139.3"/>
</g>
<!-- FuseScrollResetModule -->
<g id="node9" class="node">
<title>FuseScrollResetModule</title>
<polygon fill="#8dd3c7" stroke="black" points="1534.03,-84.8 1531.03,-88.8 1510.03,-88.8 1507.03,-84.8 1383.97,-84.8 1383.97,-48.8 1534.03,-48.8 1534.03,-84.8"/>
<text text-anchor="middle" x="1459" y="-62.6" font-family="Times,serif" font-size="14.00">FuseScrollResetModule</text>
</g>
<!-- FuseScrollResetModule&#45;&gt;MailboxModule -->
<g id="edge8" class="edge">
<title>FuseScrollResetModule&#45;&gt;MailboxModule</title>
<path fill="none" stroke="black" d="M1459,-84.93C1459,-105.37 1459,-135.8 1459,-135.8 1459,-135.8 1000.9,-135.8 1000.9,-135.8"/>
<polygon fill="black" stroke="black" points="1000.9,-132.3 990.9,-135.8 1000.9,-139.3 1000.9,-132.3"/>
</g>
<!-- FuseScrollbarModule -->
<g id="node10" class="node">
<title>FuseScrollbarModule</title>
<polygon fill="#8dd3c7" stroke="black" points="1365.81,-84.8 1362.81,-88.8 1341.81,-88.8 1338.81,-84.8 1228.19,-84.8 1228.19,-48.8 1365.81,-48.8 1365.81,-84.8"/>
<text text-anchor="middle" x="1297" y="-62.6" font-family="Times,serif" font-size="14.00">FuseScrollbarModule</text>
</g>
<!-- FuseScrollbarModule&#45;&gt;MailboxModule -->
<g id="edge9" class="edge">
<title>FuseScrollbarModule&#45;&gt;MailboxModule</title>
<path fill="none" stroke="black" d="M1297,-85.07C1297,-103.36 1297,-128.8 1297,-128.8 1297,-128.8 1000.51,-128.8 1000.51,-128.8"/>
<polygon fill="black" stroke="black" points="1000.51,-125.3 990.51,-128.8 1000.51,-132.3 1000.51,-125.3"/>
</g>
<!-- SharedModule -->
<g id="node11" class="node">
<title>SharedModule</title>
<polygon fill="#8dd3c7" stroke="black" points="1210.42,-84.8 1207.42,-88.8 1186.42,-88.8 1183.42,-84.8 1111.58,-84.8 1111.58,-48.8 1210.42,-48.8 1210.42,-84.8"/>
<text text-anchor="middle" x="1161" y="-62.6" font-family="Times,serif" font-size="14.00">SharedModule</text>
</g>
<!-- SharedModule&#45;&gt;MailboxModule -->
<g id="edge10" class="edge">
<title>SharedModule&#45;&gt;MailboxModule</title>
<path fill="none" stroke="black" d="M1161,-84.81C1161,-100.85 1161,-121.8 1161,-121.8 1161,-121.8 1000.65,-121.8 1000.65,-121.8"/>
<polygon fill="black" stroke="black" points="1000.65,-118.3 990.65,-121.8 1000.65,-125.3 1000.65,-118.3"/>
</g>
</g>
</svg>
