<?xml version="1.0" encoding="UTF-8" standalone="no"?>
<!DOCTYPE svg PUBLIC "-//W3C//DTD SVG 1.1//EN"
 "http://www.w3.org/Graphics/SVG/1.1/DTD/svg11.dtd">
<!-- Generated by graphviz version 2.47.3 (20210619.1520)
 -->
<!-- Title: dependencies Pages: 1 -->
<svg width="1047pt" height="174pt"
 viewBox="0.00 0.00 1047.00 173.80" xmlns="http://www.w3.org/2000/svg" xmlns:xlink="http://www.w3.org/1999/xlink">
<g id="graph0" class="graph" transform="scale(1 1) rotate(0) translate(4 169.8)">
<title>dependencies</title>
<polygon fill="white" stroke="transparent" points="-4,4 -4,-169.8 1043,-169.8 1043,4 -4,4"/>
<text text-anchor="middle" x="519.5" y="-8.2" font-family="sans-serif" font-size="14.00">dependencies</text>
<g id="clust1" class="cluster">
<title>cluster_ChatModule</title>
<polygon fill="none" stroke="black" stroke-dasharray="1,5" points="8,-32.8 8,-157.8 1031,-157.8 1031,-32.8 8,-32.8"/>
</g>
<g id="clust2" class="cluster">
<title>cluster_ChatModule_declarations</title>
<polygon fill="none" stroke="black" points="138,-40.8 138,-92.8 1023,-92.8 1023,-40.8 138,-40.8"/>
</g>
<g id="clust9" class="cluster">
<title>cluster_ChatModule_imports</title>
<polygon fill="none" stroke="black" points="16,-40.8 16,-92.8 130,-92.8 130,-40.8 16,-40.8"/>
</g>
<!-- ChatComponent -->
<g id="node1" class="node">
<title>ChatComponent</title>
<polygon fill="#ffffb3" stroke="black" points="1014.77,-84.8 907.23,-84.8 907.23,-48.8 1014.77,-48.8 1014.77,-84.8"/>
<text text-anchor="middle" x="961" y="-62.6" font-family="Times,serif" font-size="14.00">ChatComponent</text>
</g>
<!-- ChatModule -->
<g id="node7" class="node">
<title>ChatModule</title>
<polygon fill="#8dd3c7" stroke="black" points="556.99,-149.8 553.99,-153.8 532.99,-153.8 529.99,-149.8 471.01,-149.8 471.01,-113.8 556.99,-113.8 556.99,-149.8"/>
<text text-anchor="middle" x="514" y="-127.6" font-family="Times,serif" font-size="14.00">ChatModule</text>
</g>
<!-- ChatComponent&#45;&gt;ChatModule -->
<g id="edge1" class="edge">
<title>ChatComponent&#45;&gt;ChatModule</title>
<path fill="none" stroke="black" d="M961,-85.09C961,-107.01 961,-140.8 961,-140.8 961,-140.8 567.27,-140.8 567.27,-140.8"/>
<polygon fill="black" stroke="black" points="567.27,-137.3 557.27,-140.8 567.27,-144.3 567.27,-137.3"/>
</g>
<!-- ChatsComponent -->
<g id="node2" class="node">
<title>ChatsComponent</title>
<polygon fill="#ffffb3" stroke="black" points="889.72,-84.8 776.28,-84.8 776.28,-48.8 889.72,-48.8 889.72,-84.8"/>
<text text-anchor="middle" x="833" y="-62.6" font-family="Times,serif" font-size="14.00">ChatsComponent</text>
</g>
<!-- ChatsComponent&#45;&gt;ChatModule -->
<g id="edge2" class="edge">
<title>ChatsComponent&#45;&gt;ChatModule</title>
<path fill="none" stroke="black" d="M833,-84.91C833,-104.14 833,-131.8 833,-131.8 833,-131.8 567.02,-131.8 567.02,-131.8"/>
<polygon fill="black" stroke="black" points="567.02,-128.3 557.02,-131.8 567.02,-135.3 567.02,-128.3"/>
</g>
<!-- ContactInfoComponent -->
<g id="node3" class="node">
<title>ContactInfoComponent</title>
<polygon fill="#ffffb3" stroke="black" points="758.2,-84.8 609.8,-84.8 609.8,-48.8 758.2,-48.8 758.2,-84.8"/>
<text text-anchor="middle" x="684" y="-62.6" font-family="Times,serif" font-size="14.00">ContactInfoComponent</text>
</g>
<!-- ContactInfoComponent&#45;&gt;ChatModule -->
<g id="edge3" class="edge">
<title>ContactInfoComponent&#45;&gt;ChatModule</title>
<path fill="none" stroke="black" d="M684,-84.83C684,-101.2 684,-122.8 684,-122.8 684,-122.8 567.34,-122.8 567.34,-122.8"/>
<polygon fill="black" stroke="black" points="567.34,-119.3 557.34,-122.8 567.34,-126.3 567.34,-119.3"/>
</g>
<!-- ConversationComponent -->
<g id="node4" class="node">
<title>ConversationComponent</title>
<polygon fill="#ffffb3" stroke="black" points="591.98,-84.8 436.02,-84.8 436.02,-48.8 591.98,-48.8 591.98,-84.8"/>
<text text-anchor="middle" x="514" y="-62.6" font-family="Times,serif" font-size="14.00">ConversationComponent</text>
</g>
<!-- ConversationComponent&#45;&gt;ChatModule -->
<g id="edge4" class="edge">
<title>ConversationComponent&#45;&gt;ChatModule</title>
<path fill="none" stroke="black" d="M514,-84.91C514,-84.91 514,-103.79 514,-103.79"/>
<polygon fill="black" stroke="black" points="510.5,-103.79 514,-113.79 517.5,-103.79 510.5,-103.79"/>
</g>
<!-- NewChatComponent -->
<g id="node5" class="node">
<title>NewChatComponent</title>
<polygon fill="#ffffb3" stroke="black" points="418.2,-84.8 283.8,-84.8 283.8,-48.8 418.2,-48.8 418.2,-84.8"/>
<text text-anchor="middle" x="351" y="-62.6" font-family="Times,serif" font-size="14.00">NewChatComponent</text>
</g>
<!-- NewChatComponent&#45;&gt;ChatModule -->
<g id="edge5" class="edge">
<title>NewChatComponent&#45;&gt;ChatModule</title>
<path fill="none" stroke="black" d="M351,-84.83C351,-101.2 351,-122.8 351,-122.8 351,-122.8 460.75,-122.8 460.75,-122.8"/>
<polygon fill="black" stroke="black" points="460.75,-126.3 470.75,-122.8 460.75,-119.3 460.75,-126.3"/>
</g>
<!-- ProfileComponent -->
<g id="node6" class="node">
<title>ProfileComponent</title>
<polygon fill="#ffffb3" stroke="black" points="265.93,-84.8 146.07,-84.8 146.07,-48.8 265.93,-48.8 265.93,-84.8"/>
<text text-anchor="middle" x="206" y="-62.6" font-family="Times,serif" font-size="14.00">ProfileComponent</text>
</g>
<!-- ProfileComponent&#45;&gt;ChatModule -->
<g id="edge6" class="edge">
<title>ProfileComponent&#45;&gt;ChatModule</title>
<path fill="none" stroke="black" d="M206,-84.91C206,-104.14 206,-131.8 206,-131.8 206,-131.8 460.85,-131.8 460.85,-131.8"/>
<polygon fill="black" stroke="black" points="460.85,-135.3 470.85,-131.8 460.85,-128.3 460.85,-135.3"/>
</g>
<!-- SharedModule -->
<g id="node8" class="node">
<title>SharedModule</title>
<polygon fill="#8dd3c7" stroke="black" points="122.42,-84.8 119.42,-88.8 98.42,-88.8 95.42,-84.8 23.58,-84.8 23.58,-48.8 122.42,-48.8 122.42,-84.8"/>
<text text-anchor="middle" x="73" y="-62.6" font-family="Times,serif" font-size="14.00">SharedModule</text>
</g>
<!-- SharedModule&#45;&gt;ChatModule -->
<g id="edge7" class="edge">
<title>SharedModule&#45;&gt;ChatModule</title>
<path fill="none" stroke="black" d="M73,-85.09C73,-107.01 73,-140.8 73,-140.8 73,-140.8 460.91,-140.8 460.91,-140.8"/>
<polygon fill="black" stroke="black" points="460.91,-144.3 470.91,-140.8 460.91,-137.3 460.91,-144.3"/>
</g>
</g>
</svg>
