<?xml version="1.0" encoding="UTF-8" standalone="no"?>
<!DOCTYPE svg PUBLIC "-//W3C//DTD SVG 1.1//EN"
 "http://www.w3.org/Graphics/SVG/1.1/DTD/svg11.dtd">
<!-- Generated by graphviz version 2.47.3 (20210619.1520)
 -->
<!-- Title: dependencies Pages: 1 -->
<svg width="908pt" height="174pt"
 viewBox="0.00 0.00 908.00 173.80" xmlns="http://www.w3.org/2000/svg" xmlns:xlink="http://www.w3.org/1999/xlink">
<g id="graph0" class="graph" transform="scale(1 1) rotate(0) translate(4 169.8)">
<title>dependencies</title>
<polygon fill="white" stroke="transparent" points="-4,4 -4,-169.8 904,-169.8 904,4 -4,4"/>
<text text-anchor="middle" x="450" y="-8.2" font-family="sans-serif" font-size="14.00">dependencies</text>
<g id="clust1" class="cluster">
<title>cluster_FuseModule</title>
<polygon fill="none" stroke="black" stroke-dasharray="1,5" points="8,-32.8 8,-157.8 892,-157.8 892,-32.8 8,-32.8"/>
</g>
<g id="clust3" class="cluster">
<title>cluster_FuseModule_imports</title>
<polygon fill="none" stroke="black" points="16,-40.8 16,-92.8 884,-92.8 884,-40.8 16,-40.8"/>
</g>
<!-- FuseConfirmationModule -->
<g id="node1" class="node">
<title>FuseConfirmationModule</title>
<polygon fill="#8dd3c7" stroke="black" points="875.93,-84.8 872.93,-88.8 851.93,-88.8 848.93,-84.8 714.07,-84.8 714.07,-48.8 875.93,-48.8 875.93,-84.8"/>
<text text-anchor="middle" x="795" y="-62.6" font-family="Times,serif" font-size="14.00">FuseConfirmationModule</text>
</g>
<!-- FuseModule -->
<g id="node6" class="node">
<title>FuseModule</title>
<polygon fill="#8dd3c7" stroke="black" points="471.99,-149.8 468.99,-153.8 447.99,-153.8 444.99,-149.8 386.01,-149.8 386.01,-113.8 471.99,-113.8 471.99,-149.8"/>
<text text-anchor="middle" x="429" y="-127.6" font-family="Times,serif" font-size="14.00">FuseModule</text>
</g>
<!-- FuseConfirmationModule&#45;&gt;FuseModule -->
<g id="edge1" class="edge">
<title>FuseConfirmationModule&#45;&gt;FuseModule</title>
<path fill="none" stroke="black" d="M795,-85.08C795,-106.12 795,-137.8 795,-137.8 795,-137.8 482.06,-137.8 482.06,-137.8"/>
<polygon fill="black" stroke="black" points="482.06,-134.3 472.06,-137.8 482.06,-141.3 482.06,-134.3"/>
</g>
<!-- FuseMediaWatcherModule -->
<g id="node2" class="node">
<title>FuseMediaWatcherModule</title>
<polygon fill="#8dd3c7" stroke="black" points="696.67,-84.8 693.67,-88.8 672.67,-88.8 669.67,-84.8 527.33,-84.8 527.33,-48.8 696.67,-48.8 696.67,-84.8"/>
<text text-anchor="middle" x="612" y="-62.6" font-family="Times,serif" font-size="14.00">FuseMediaWatcherModule</text>
</g>
<!-- FuseMediaWatcherModule&#45;&gt;FuseModule -->
<g id="edge2" class="edge">
<title>FuseMediaWatcherModule&#45;&gt;FuseModule</title>
<path fill="none" stroke="black" d="M612,-84.82C612,-102.17 612,-125.8 612,-125.8 612,-125.8 482.37,-125.8 482.37,-125.8"/>
<polygon fill="black" stroke="black" points="482.37,-122.3 472.37,-125.8 482.37,-129.3 482.37,-122.3"/>
</g>
<!-- FuseSplashScreenModule -->
<g id="node3" class="node">
<title>FuseSplashScreenModule</title>
<polygon fill="#8dd3c7" stroke="black" points="509.91,-84.8 506.91,-88.8 485.91,-88.8 482.91,-84.8 348.09,-84.8 348.09,-48.8 509.91,-48.8 509.91,-84.8"/>
<text text-anchor="middle" x="429" y="-62.6" font-family="Times,serif" font-size="14.00">FuseSplashScreenModule</text>
</g>
<!-- FuseSplashScreenModule&#45;&gt;FuseModule -->
<g id="edge3" class="edge">
<title>FuseSplashScreenModule&#45;&gt;FuseModule</title>
<path fill="none" stroke="black" d="M429,-84.91C429,-84.91 429,-103.79 429,-103.79"/>
<polygon fill="black" stroke="black" points="425.5,-103.79 429,-113.79 432.5,-103.79 425.5,-103.79"/>
</g>
<!-- FuseTailwindConfigModule -->
<g id="node4" class="node">
<title>FuseTailwindConfigModule</title>
<polygon fill="#8dd3c7" stroke="black" points="330.93,-84.8 327.93,-88.8 306.93,-88.8 303.93,-84.8 155.07,-84.8 155.07,-48.8 330.93,-48.8 330.93,-84.8"/>
<text text-anchor="middle" x="243" y="-62.6" font-family="Times,serif" font-size="14.00">FuseTailwindConfigModule</text>
</g>
<!-- FuseTailwindConfigModule&#45;&gt;FuseModule -->
<g id="edge4" class="edge">
<title>FuseTailwindConfigModule&#45;&gt;FuseModule</title>
<path fill="none" stroke="black" d="M243,-84.82C243,-102.17 243,-125.8 243,-125.8 243,-125.8 375.86,-125.8 375.86,-125.8"/>
<polygon fill="black" stroke="black" points="375.86,-129.3 385.86,-125.8 375.86,-122.3 375.86,-129.3"/>
</g>
<!-- FuseUtilsModule -->
<g id="node5" class="node">
<title>FuseUtilsModule</title>
<polygon fill="#8dd3c7" stroke="black" points="137.71,-84.8 134.71,-88.8 113.71,-88.8 110.71,-84.8 24.29,-84.8 24.29,-48.8 137.71,-48.8 137.71,-84.8"/>
<text text-anchor="middle" x="81" y="-62.6" font-family="Times,serif" font-size="14.00">FuseUtilsModule</text>
</g>
<!-- FuseUtilsModule&#45;&gt;FuseModule -->
<g id="edge5" class="edge">
<title>FuseUtilsModule&#45;&gt;FuseModule</title>
<path fill="none" stroke="black" d="M81,-85.08C81,-106.12 81,-137.8 81,-137.8 81,-137.8 375.98,-137.8 375.98,-137.8"/>
<polygon fill="black" stroke="black" points="375.98,-141.3 385.98,-137.8 375.98,-134.3 375.98,-141.3"/>
</g>
</g>
</svg>
