<?xml version="1.0" encoding="UTF-8" standalone="no"?>
<!DOCTYPE svg PUBLIC "-//W3C//DTD SVG 1.1//EN"
 "http://www.w3.org/Graphics/SVG/1.1/DTD/svg11.dtd">
<!-- Generated by graphviz version 2.47.3 (20210619.1520)
 -->
<!-- Title: dependencies Pages: 1 -->
<svg width="1077pt" height="174pt"
 viewBox="0.00 0.00 1077.00 173.80" xmlns="http://www.w3.org/2000/svg" xmlns:xlink="http://www.w3.org/1999/xlink">
<g id="graph0" class="graph" transform="scale(1 1) rotate(0) translate(4 169.8)">
<title>dependencies</title>
<polygon fill="white" stroke="transparent" points="-4,4 -4,-169.8 1073,-169.8 1073,4 -4,4"/>
<text text-anchor="middle" x="534.5" y="-8.2" font-family="sans-serif" font-size="14.00">dependencies</text>
<g id="clust1" class="cluster">
<title>cluster_CalendarModule</title>
<polygon fill="none" stroke="black" stroke-dasharray="1,5" points="8,-32.8 8,-157.8 1061,-157.8 1061,-32.8 8,-32.8"/>
</g>
<g id="clust2" class="cluster">
<title>cluster_CalendarModule_declarations</title>
<polygon fill="none" stroke="black" points="304,-40.8 304,-92.8 1053,-92.8 1053,-40.8 304,-40.8"/>
</g>
<g id="clust7" class="cluster">
<title>cluster_CalendarModule_imports</title>
<polygon fill="none" stroke="black" points="16,-40.8 16,-92.8 296,-92.8 296,-40.8 16,-40.8"/>
</g>
<!-- CalendarComponent -->
<g id="node1" class="node">
<title>CalendarComponent</title>
<polygon fill="#ffffb3" stroke="black" points="1044.86,-84.8 913.14,-84.8 913.14,-48.8 1044.86,-48.8 1044.86,-84.8"/>
<text text-anchor="middle" x="979" y="-62.6" font-family="Times,serif" font-size="14.00">CalendarComponent</text>
</g>
<!-- CalendarModule -->
<g id="node5" class="node">
<title>CalendarModule</title>
<polygon fill="#8dd3c7" stroke="black" points="551.08,-149.8 548.08,-153.8 527.08,-153.8 524.08,-149.8 440.92,-149.8 440.92,-113.8 551.08,-113.8 551.08,-149.8"/>
<text text-anchor="middle" x="496" y="-127.6" font-family="Times,serif" font-size="14.00">CalendarModule</text>
</g>
<!-- CalendarComponent&#45;&gt;CalendarModule -->
<g id="edge1" class="edge">
<title>CalendarComponent&#45;&gt;CalendarModule</title>
<path fill="none" stroke="black" d="M979,-85.08C979,-106.12 979,-137.8 979,-137.8 979,-137.8 561.41,-137.8 561.41,-137.8"/>
<polygon fill="black" stroke="black" points="561.41,-134.3 551.41,-137.8 561.41,-141.3 561.41,-134.3"/>
</g>
<!-- CalendarRecurrenceComponent -->
<g id="node2" class="node">
<title>CalendarRecurrenceComponent</title>
<polygon fill="#ffffb3" stroke="black" points="894.6,-84.8 699.4,-84.8 699.4,-48.8 894.6,-48.8 894.6,-84.8"/>
<text text-anchor="middle" x="797" y="-62.6" font-family="Times,serif" font-size="14.00">CalendarRecurrenceComponent</text>
</g>
<!-- CalendarRecurrenceComponent&#45;&gt;CalendarModule -->
<g id="edge2" class="edge">
<title>CalendarRecurrenceComponent&#45;&gt;CalendarModule</title>
<path fill="none" stroke="black" d="M797,-84.82C797,-102.17 797,-125.8 797,-125.8 797,-125.8 561.21,-125.8 561.21,-125.8"/>
<polygon fill="black" stroke="black" points="561.21,-122.3 551.21,-125.8 561.21,-129.3 561.21,-122.3"/>
</g>
<!-- CalendarSettingsComponent -->
<g id="node3" class="node">
<title>CalendarSettingsComponent</title>
<polygon fill="#ffffb3" stroke="black" points="681.48,-84.8 504.52,-84.8 504.52,-48.8 681.48,-48.8 681.48,-84.8"/>
<text text-anchor="middle" x="593" y="-62.6" font-family="Times,serif" font-size="14.00">CalendarSettingsComponent</text>
</g>
<!-- CalendarSettingsComponent&#45;&gt;CalendarModule -->
<g id="edge3" class="edge">
<title>CalendarSettingsComponent&#45;&gt;CalendarModule</title>
<path fill="none" stroke="black" d="M527.78,-84.91C527.78,-84.91 527.78,-103.79 527.78,-103.79"/>
<polygon fill="black" stroke="black" points="524.28,-103.79 527.78,-113.79 531.28,-103.79 524.28,-103.79"/>
</g>
<!-- CalendarSidebarComponent -->
<g id="node4" class="node">
<title>CalendarSidebarComponent</title>
<polygon fill="#ffffb3" stroke="black" points="486.13,-84.8 311.87,-84.8 311.87,-48.8 486.13,-48.8 486.13,-84.8"/>
<text text-anchor="middle" x="399" y="-62.6" font-family="Times,serif" font-size="14.00">CalendarSidebarComponent</text>
</g>
<!-- CalendarSidebarComponent&#45;&gt;CalendarModule -->
<g id="edge4" class="edge">
<title>CalendarSidebarComponent&#45;&gt;CalendarModule</title>
<path fill="none" stroke="black" d="M463.64,-84.91C463.64,-84.91 463.64,-103.79 463.64,-103.79"/>
<polygon fill="black" stroke="black" points="460.14,-103.79 463.64,-113.79 467.14,-103.79 460.14,-103.79"/>
</g>
<!-- FuseDateRangeModule -->
<g id="node6" class="node">
<title>FuseDateRangeModule</title>
<polygon fill="#8dd3c7" stroke="black" points="288.18,-84.8 285.18,-88.8 264.18,-88.8 261.18,-84.8 139.82,-84.8 139.82,-48.8 288.18,-48.8 288.18,-84.8"/>
<text text-anchor="middle" x="214" y="-62.6" font-family="Times,serif" font-size="14.00">FuseDateRangeModule</text>
</g>
<!-- FuseDateRangeModule&#45;&gt;CalendarModule -->
<g id="edge5" class="edge">
<title>FuseDateRangeModule&#45;&gt;CalendarModule</title>
<path fill="none" stroke="black" d="M214,-84.82C214,-102.17 214,-125.8 214,-125.8 214,-125.8 430.96,-125.8 430.96,-125.8"/>
<polygon fill="black" stroke="black" points="430.96,-129.3 440.96,-125.8 430.96,-122.3 430.96,-129.3"/>
</g>
<!-- SharedModule -->
<g id="node7" class="node">
<title>SharedModule</title>
<polygon fill="#8dd3c7" stroke="black" points="122.42,-84.8 119.42,-88.8 98.42,-88.8 95.42,-84.8 23.58,-84.8 23.58,-48.8 122.42,-48.8 122.42,-84.8"/>
<text text-anchor="middle" x="73" y="-62.6" font-family="Times,serif" font-size="14.00">SharedModule</text>
</g>
<!-- SharedModule&#45;&gt;CalendarModule -->
<g id="edge6" class="edge">
<title>SharedModule&#45;&gt;CalendarModule</title>
<path fill="none" stroke="black" d="M73,-85.08C73,-106.12 73,-137.8 73,-137.8 73,-137.8 430.7,-137.8 430.7,-137.8"/>
<polygon fill="black" stroke="black" points="430.7,-141.3 440.7,-137.8 430.7,-134.3 430.7,-141.3"/>
</g>
</g>
</svg>
