<?xml version="1.0" encoding="UTF-8" standalone="no"?>
<!DOCTYPE svg PUBLIC "-//W3C//DTD SVG 1.1//EN"
 "http://www.w3.org/Graphics/SVG/1.1/DTD/svg11.dtd">
<!-- Generated by graphviz version 2.47.3 (20210619.1520)
 -->
<!-- Title: dependencies Pages: 1 -->
<svg width="941pt" height="174pt"
 viewBox="0.00 0.00 941.00 173.80" xmlns="http://www.w3.org/2000/svg" xmlns:xlink="http://www.w3.org/1999/xlink">
<g id="graph0" class="graph" transform="scale(1 1) rotate(0) translate(4 169.8)">
<title>dependencies</title>
<polygon fill="white" stroke="transparent" points="-4,4 -4,-169.8 937,-169.8 937,4 -4,4"/>
<text text-anchor="middle" x="466.5" y="-8.2" font-family="sans-serif" font-size="14.00">dependencies</text>
<g id="clust1" class="cluster">
<title>cluster_NotesModule</title>
<polygon fill="none" stroke="black" stroke-dasharray="1,5" points="8,-32.8 8,-157.8 925,-157.8 925,-32.8 8,-32.8"/>
</g>
<g id="clust7" class="cluster">
<title>cluster_NotesModule_imports</title>
<polygon fill="none" stroke="black" points="649,-40.8 649,-92.8 917,-92.8 917,-40.8 649,-40.8"/>
</g>
<g id="clust2" class="cluster">
<title>cluster_NotesModule_declarations</title>
<polygon fill="none" stroke="black" points="16,-40.8 16,-92.8 641,-92.8 641,-40.8 16,-40.8"/>
</g>
<!-- NotesComponent -->
<g id="node1" class="node">
<title>NotesComponent</title>
<polygon fill="#ffffb3" stroke="black" points="632.99,-84.8 519.01,-84.8 519.01,-48.8 632.99,-48.8 632.99,-84.8"/>
<text text-anchor="middle" x="576" y="-62.6" font-family="Times,serif" font-size="14.00">NotesComponent</text>
</g>
<!-- NotesModule -->
<g id="node5" class="node">
<title>NotesModule</title>
<polygon fill="#8dd3c7" stroke="black" points="546.21,-149.8 543.21,-153.8 522.21,-153.8 519.21,-149.8 453.79,-149.8 453.79,-113.8 546.21,-113.8 546.21,-149.8"/>
<text text-anchor="middle" x="500" y="-127.6" font-family="Times,serif" font-size="14.00">NotesModule</text>
</g>
<!-- NotesComponent&#45;&gt;NotesModule -->
<g id="edge1" class="edge">
<title>NotesComponent&#45;&gt;NotesModule</title>
<path fill="none" stroke="black" d="M532.55,-84.91C532.55,-84.91 532.55,-103.79 532.55,-103.79"/>
<polygon fill="black" stroke="black" points="529.05,-103.79 532.55,-113.79 536.05,-103.79 529.05,-103.79"/>
</g>
<!-- NotesDetailsComponent -->
<g id="node2" class="node">
<title>NotesDetailsComponent</title>
<polygon fill="#ffffb3" stroke="black" points="500.64,-84.8 347.36,-84.8 347.36,-48.8 500.64,-48.8 500.64,-84.8"/>
<text text-anchor="middle" x="424" y="-62.6" font-family="Times,serif" font-size="14.00">NotesDetailsComponent</text>
</g>
<!-- NotesDetailsComponent&#45;&gt;NotesModule -->
<g id="edge2" class="edge">
<title>NotesDetailsComponent&#45;&gt;NotesModule</title>
<path fill="none" stroke="black" d="M477.36,-84.91C477.36,-84.91 477.36,-103.79 477.36,-103.79"/>
<polygon fill="black" stroke="black" points="473.86,-103.79 477.36,-113.79 480.86,-103.79 473.86,-103.79"/>
</g>
<!-- NotesLabelsComponent -->
<g id="node3" class="node">
<title>NotesLabelsComponent</title>
<polygon fill="#ffffb3" stroke="black" points="329.81,-84.8 178.19,-84.8 178.19,-48.8 329.81,-48.8 329.81,-84.8"/>
<text text-anchor="middle" x="254" y="-62.6" font-family="Times,serif" font-size="14.00">NotesLabelsComponent</text>
</g>
<!-- NotesLabelsComponent&#45;&gt;NotesModule -->
<g id="edge3" class="edge">
<title>NotesLabelsComponent&#45;&gt;NotesModule</title>
<path fill="none" stroke="black" d="M254,-84.82C254,-102.17 254,-125.8 254,-125.8 254,-125.8 443.73,-125.8 443.73,-125.8"/>
<polygon fill="black" stroke="black" points="443.73,-129.3 453.73,-125.8 443.73,-122.3 443.73,-129.3"/>
</g>
<!-- NotesListComponent -->
<g id="node4" class="node">
<title>NotesListComponent</title>
<polygon fill="#ffffb3" stroke="black" points="159.77,-84.8 24.23,-84.8 24.23,-48.8 159.77,-48.8 159.77,-84.8"/>
<text text-anchor="middle" x="92" y="-62.6" font-family="Times,serif" font-size="14.00">NotesListComponent</text>
</g>
<!-- NotesListComponent&#45;&gt;NotesModule -->
<g id="edge4" class="edge">
<title>NotesListComponent&#45;&gt;NotesModule</title>
<path fill="none" stroke="black" d="M92,-85.08C92,-106.12 92,-137.8 92,-137.8 92,-137.8 443.59,-137.8 443.59,-137.8"/>
<polygon fill="black" stroke="black" points="443.59,-141.3 453.59,-137.8 443.59,-134.3 443.59,-141.3"/>
</g>
<!-- FuseMasonryModule -->
<g id="node6" class="node">
<title>FuseMasonryModule</title>
<polygon fill="#8dd3c7" stroke="black" points="908.76,-84.8 905.76,-88.8 884.76,-88.8 881.76,-84.8 773.24,-84.8 773.24,-48.8 908.76,-48.8 908.76,-84.8"/>
<text text-anchor="middle" x="841" y="-62.6" font-family="Times,serif" font-size="14.00">FuseMasonryModule</text>
</g>
<!-- FuseMasonryModule&#45;&gt;NotesModule -->
<g id="edge5" class="edge">
<title>FuseMasonryModule&#45;&gt;NotesModule</title>
<path fill="none" stroke="black" d="M841,-85.08C841,-106.12 841,-137.8 841,-137.8 841,-137.8 556.34,-137.8 556.34,-137.8"/>
<polygon fill="black" stroke="black" points="556.34,-134.3 546.34,-137.8 556.34,-141.3 556.34,-134.3"/>
</g>
<!-- SharedModule -->
<g id="node7" class="node">
<title>SharedModule</title>
<polygon fill="#8dd3c7" stroke="black" points="755.42,-84.8 752.42,-88.8 731.42,-88.8 728.42,-84.8 656.58,-84.8 656.58,-48.8 755.42,-48.8 755.42,-84.8"/>
<text text-anchor="middle" x="706" y="-62.6" font-family="Times,serif" font-size="14.00">SharedModule</text>
</g>
<!-- SharedModule&#45;&gt;NotesModule -->
<g id="edge6" class="edge">
<title>SharedModule&#45;&gt;NotesModule</title>
<path fill="none" stroke="black" d="M706,-84.82C706,-102.17 706,-125.8 706,-125.8 706,-125.8 556.23,-125.8 556.23,-125.8"/>
<polygon fill="black" stroke="black" points="556.23,-122.3 546.23,-125.8 556.23,-129.3 556.23,-122.3"/>
</g>
</g>
</svg>
