<?xml version="1.0" encoding="UTF-8" standalone="no"?>
<!DOCTYPE svg PUBLIC "-//W3C//DTD SVG 1.1//EN"
 "http://www.w3.org/Graphics/SVG/1.1/DTD/svg11.dtd">
<!-- Generated by graphviz version 2.47.3 (20210619.1520)
 -->
<!-- Title: dependencies Pages: 1 -->
<svg width="795pt" height="247pt"
 viewBox="0.00 0.00 795.00 246.80" xmlns="http://www.w3.org/2000/svg" xmlns:xlink="http://www.w3.org/1999/xlink">
<g id="graph0" class="graph" transform="scale(1 1) rotate(0) translate(4 242.8)">
<title>dependencies</title>
<polygon fill="white" stroke="transparent" points="-4,4 -4,-242.8 791,-242.8 791,4 -4,4"/>
<text text-anchor="middle" x="393.5" y="-8.2" font-family="sans-serif" font-size="14.00">dependencies</text>
<g id="clust1" class="cluster">
<title>cluster_AppModule</title>
<polygon fill="none" stroke="black" stroke-dasharray="1,5" points="8,-32.8 8,-230.8 779,-230.8 779,-32.8 8,-32.8"/>
</g>
<g id="clust2" class="cluster">
<title>cluster_AppModule_declarations</title>
<polygon fill="none" stroke="black" points="649,-40.8 649,-92.8 771,-92.8 771,-40.8 649,-40.8"/>
</g>
<g id="clust4" class="cluster">
<title>cluster_AppModule_imports</title>
<polygon fill="none" stroke="black" points="16,-40.8 16,-92.8 641,-92.8 641,-40.8 16,-40.8"/>
</g>
<g id="clust6" class="cluster">
<title>cluster_AppModule_bootstrap</title>
<polygon fill="none" stroke="black" points="329,-170.8 329,-222.8 453,-222.8 453,-170.8 329,-170.8"/>
</g>
<!-- AppComponent -->
<g id="node1" class="node">
<title>AppComponent</title>
<polygon fill="#ffffb3" stroke="black" points="762.94,-84.8 657.06,-84.8 657.06,-48.8 762.94,-48.8 762.94,-84.8"/>
<text text-anchor="middle" x="710" y="-62.6" font-family="Times,serif" font-size="14.00">AppComponent</text>
</g>
<!-- AppModule -->
<g id="node2" class="node">
<title>AppModule</title>
<polygon fill="#8dd3c7" stroke="black" points="432.66,-149.8 429.66,-153.8 408.66,-153.8 405.66,-149.8 349.34,-149.8 349.34,-113.8 432.66,-113.8 432.66,-149.8"/>
<text text-anchor="middle" x="391" y="-127.6" font-family="Times,serif" font-size="14.00">AppModule</text>
</g>
<!-- AppComponent&#45;&gt;AppModule -->
<g id="edge1" class="edge">
<title>AppComponent&#45;&gt;AppModule</title>
<path fill="none" stroke="black" d="M710,-85.08C710,-106.12 710,-137.8 710,-137.8 710,-137.8 442.7,-137.8 442.7,-137.8"/>
<polygon fill="black" stroke="black" points="442.7,-134.3 432.7,-137.8 442.7,-141.3 442.7,-134.3"/>
</g>
<!-- AppComponent  -->
<g id="node8" class="node">
<title>AppComponent </title>
<polygon fill="#80b1d3" stroke="black" points="445.44,-214.8 336.56,-214.8 336.56,-178.8 445.44,-178.8 445.44,-214.8"/>
<text text-anchor="middle" x="391" y="-192.6" font-family="Times,serif" font-size="14.00">AppComponent </text>
</g>
<!-- AppModule&#45;&gt;AppComponent  -->
<g id="edge7" class="edge">
<title>AppModule&#45;&gt;AppComponent </title>
<path fill="none" stroke="black" stroke-dasharray="1,5" d="M391,-149.91C391,-149.91 391,-168.79 391,-168.79"/>
<polygon fill="black" stroke="black" points="387.5,-168.79 391,-178.79 394.5,-168.79 387.5,-168.79"/>
</g>
<!-- CoreModule -->
<g id="node3" class="node">
<title>CoreModule</title>
<polygon fill="#8dd3c7" stroke="black" points="633.26,-84.8 630.26,-88.8 609.26,-88.8 606.26,-84.8 546.74,-84.8 546.74,-48.8 633.26,-48.8 633.26,-84.8"/>
<text text-anchor="middle" x="590" y="-62.6" font-family="Times,serif" font-size="14.00">CoreModule</text>
</g>
<!-- CoreModule&#45;&gt;AppModule -->
<g id="edge2" class="edge">
<title>CoreModule&#45;&gt;AppModule</title>
<path fill="none" stroke="black" d="M590,-84.82C590,-102.17 590,-125.8 590,-125.8 590,-125.8 442.72,-125.8 442.72,-125.8"/>
<polygon fill="black" stroke="black" points="442.72,-122.3 432.72,-125.8 442.72,-129.3 442.72,-122.3"/>
</g>
<!-- FuseConfigModule -->
<g id="node4" class="node">
<title>FuseConfigModule</title>
<polygon fill="#8dd3c7" stroke="black" points="528.38,-84.8 525.38,-88.8 504.38,-88.8 501.38,-84.8 403.62,-84.8 403.62,-48.8 528.38,-48.8 528.38,-84.8"/>
<text text-anchor="middle" x="466" y="-62.6" font-family="Times,serif" font-size="14.00">FuseConfigModule</text>
</g>
<!-- FuseConfigModule&#45;&gt;AppModule -->
<g id="edge3" class="edge">
<title>FuseConfigModule&#45;&gt;AppModule</title>
<path fill="none" stroke="black" d="M418.19,-84.91C418.19,-84.91 418.19,-103.79 418.19,-103.79"/>
<polygon fill="black" stroke="black" points="414.69,-103.79 418.19,-113.79 421.69,-103.79 414.69,-103.79"/>
</g>
<!-- FuseMockApiModule -->
<g id="node5" class="node">
<title>FuseMockApiModule</title>
<polygon fill="#8dd3c7" stroke="black" points="385.65,-84.8 382.65,-88.8 361.65,-88.8 358.65,-84.8 246.35,-84.8 246.35,-48.8 385.65,-48.8 385.65,-84.8"/>
<text text-anchor="middle" x="316" y="-62.6" font-family="Times,serif" font-size="14.00">FuseMockApiModule</text>
</g>
<!-- FuseMockApiModule&#45;&gt;AppModule -->
<g id="edge4" class="edge">
<title>FuseMockApiModule&#45;&gt;AppModule</title>
<path fill="none" stroke="black" d="M367.5,-84.91C367.5,-84.91 367.5,-103.79 367.5,-103.79"/>
<polygon fill="black" stroke="black" points="364,-103.79 367.5,-113.79 371,-103.79 364,-103.79"/>
</g>
<!-- FuseModule -->
<g id="node6" class="node">
<title>FuseModule</title>
<polygon fill="#8dd3c7" stroke="black" points="227.99,-84.8 224.99,-88.8 203.99,-88.8 200.99,-84.8 142.01,-84.8 142.01,-48.8 227.99,-48.8 227.99,-84.8"/>
<text text-anchor="middle" x="185" y="-62.6" font-family="Times,serif" font-size="14.00">FuseModule</text>
</g>
<!-- FuseModule&#45;&gt;AppModule -->
<g id="edge5" class="edge">
<title>FuseModule&#45;&gt;AppModule</title>
<path fill="none" stroke="black" d="M185,-84.82C185,-102.17 185,-125.8 185,-125.8 185,-125.8 339.31,-125.8 339.31,-125.8"/>
<polygon fill="black" stroke="black" points="339.31,-129.3 349.31,-125.8 339.31,-122.3 339.31,-129.3"/>
</g>
<!-- LayoutModule -->
<g id="node7" class="node">
<title>LayoutModule</title>
<polygon fill="#8dd3c7" stroke="black" points="123.71,-84.8 120.71,-88.8 99.71,-88.8 96.71,-84.8 24.29,-84.8 24.29,-48.8 123.71,-48.8 123.71,-84.8"/>
<text text-anchor="middle" x="74" y="-62.6" font-family="Times,serif" font-size="14.00">LayoutModule</text>
</g>
<!-- LayoutModule&#45;&gt;AppModule -->
<g id="edge6" class="edge">
<title>LayoutModule&#45;&gt;AppModule</title>
<path fill="none" stroke="black" d="M74,-85.08C74,-106.12 74,-137.8 74,-137.8 74,-137.8 339.23,-137.8 339.23,-137.8"/>
<polygon fill="black" stroke="black" points="339.23,-141.3 349.23,-137.8 339.23,-134.3 339.23,-141.3"/>
</g>
</g>
</svg>
