<?xml version="1.0" encoding="UTF-8" standalone="no"?>
<!DOCTYPE svg PUBLIC "-//W3C//DTD SVG 1.1//EN"
 "http://www.w3.org/Graphics/SVG/1.1/DTD/svg11.dtd">
<!-- Generated by graphviz version 2.47.3 (20210619.1520)
 -->
<!-- Title: dependencies Pages: 1 -->
<svg width="2109pt" height="174pt"
 viewBox="0.00 0.00 2109.00 173.80" xmlns="http://www.w3.org/2000/svg" xmlns:xlink="http://www.w3.org/1999/xlink">
<g id="graph0" class="graph" transform="scale(1 1) rotate(0) translate(4 169.8)">
<title>dependencies</title>
<polygon fill="white" stroke="transparent" points="-4,4 -4,-169.8 2105,-169.8 2105,4 -4,4"/>
<text text-anchor="middle" x="1050.5" y="-8.2" font-family="sans-serif" font-size="14.00">dependencies</text>
<g id="clust1" class="cluster">
<title>cluster_UnlockSessionModule</title>
<polygon fill="none" stroke="black" stroke-dasharray="1,5" points="8,-32.8 8,-157.8 2093,-157.8 2093,-32.8 8,-32.8"/>
</g>
<g id="clust10" class="cluster">
<title>cluster_UnlockSessionModule_imports</title>
<polygon fill="none" stroke="black" points="1838,-40.8 1838,-92.8 2085,-92.8 2085,-40.8 1838,-40.8"/>
</g>
<g id="clust2" class="cluster">
<title>cluster_UnlockSessionModule_declarations</title>
<polygon fill="none" stroke="black" points="16,-40.8 16,-92.8 1830,-92.8 1830,-40.8 16,-40.8"/>
</g>
<!-- UnlockSessionClassicComponent -->
<g id="node1" class="node">
<title>UnlockSessionClassicComponent</title>
<polygon fill="#ffffb3" stroke="black" points="1821.76,-84.8 1616.24,-84.8 1616.24,-48.8 1821.76,-48.8 1821.76,-84.8"/>
<text text-anchor="middle" x="1719" y="-62.6" font-family="Times,serif" font-size="14.00">UnlockSessionClassicComponent</text>
</g>
<!-- UnlockSessionModule -->
<g id="node8" class="node">
<title>UnlockSessionModule</title>
<polygon fill="#8dd3c7" stroke="black" points="1289.54,-149.8 1286.54,-153.8 1265.54,-153.8 1262.54,-149.8 1146.46,-149.8 1146.46,-113.8 1289.54,-113.8 1289.54,-149.8"/>
<text text-anchor="middle" x="1218" y="-127.6" font-family="Times,serif" font-size="14.00">UnlockSessionModule</text>
</g>
<!-- UnlockSessionClassicComponent&#45;&gt;UnlockSessionModule -->
<g id="edge1" class="edge">
<title>UnlockSessionClassicComponent&#45;&gt;UnlockSessionModule</title>
<path fill="none" stroke="black" d="M1719,-85.07C1719,-103.36 1719,-128.8 1719,-128.8 1719,-128.8 1299.78,-128.8 1299.78,-128.8"/>
<polygon fill="black" stroke="black" points="1299.78,-125.3 1289.78,-128.8 1299.78,-132.3 1299.78,-125.3"/>
</g>
<!-- UnlockSessionFullscreenComponent -->
<g id="node2" class="node">
<title>UnlockSessionFullscreenComponent</title>
<polygon fill="#ffffb3" stroke="black" points="1597.63,-84.8 1374.37,-84.8 1374.37,-48.8 1597.63,-48.8 1597.63,-84.8"/>
<text text-anchor="middle" x="1486" y="-62.6" font-family="Times,serif" font-size="14.00">UnlockSessionFullscreenComponent</text>
</g>
<!-- UnlockSessionFullscreenComponent&#45;&gt;UnlockSessionModule -->
<g id="edge2" class="edge">
<title>UnlockSessionFullscreenComponent&#45;&gt;UnlockSessionModule</title>
<path fill="none" stroke="black" d="M1486,-84.81C1486,-100.85 1486,-121.8 1486,-121.8 1486,-121.8 1299.82,-121.8 1299.82,-121.8"/>
<polygon fill="black" stroke="black" points="1299.82,-118.3 1289.82,-121.8 1299.82,-125.3 1299.82,-118.3"/>
</g>
<!-- UnlockSessionFullscreenReversedComponent -->
<g id="node3" class="node">
<title>UnlockSessionFullscreenReversedComponent</title>
<polygon fill="#ffffb3" stroke="black" points="1355.72,-84.8 1080.28,-84.8 1080.28,-48.8 1355.72,-48.8 1355.72,-84.8"/>
<text text-anchor="middle" x="1218" y="-62.6" font-family="Times,serif" font-size="14.00">UnlockSessionFullscreenReversedComponent</text>
</g>
<!-- UnlockSessionFullscreenReversedComponent&#45;&gt;UnlockSessionModule -->
<g id="edge3" class="edge">
<title>UnlockSessionFullscreenReversedComponent&#45;&gt;UnlockSessionModule</title>
<path fill="none" stroke="black" d="M1218,-84.91C1218,-84.91 1218,-103.79 1218,-103.79"/>
<polygon fill="black" stroke="black" points="1214.5,-103.79 1218,-113.79 1221.5,-103.79 1214.5,-103.79"/>
</g>
<!-- UnlockSessionModernComponent -->
<g id="node4" class="node">
<title>UnlockSessionModernComponent</title>
<polygon fill="#ffffb3" stroke="black" points="1061.64,-84.8 852.36,-84.8 852.36,-48.8 1061.64,-48.8 1061.64,-84.8"/>
<text text-anchor="middle" x="957" y="-62.6" font-family="Times,serif" font-size="14.00">UnlockSessionModernComponent</text>
</g>
<!-- UnlockSessionModernComponent&#45;&gt;UnlockSessionModule -->
<g id="edge4" class="edge">
<title>UnlockSessionModernComponent&#45;&gt;UnlockSessionModule</title>
<path fill="none" stroke="black" d="M957,-84.81C957,-100.85 957,-121.8 957,-121.8 957,-121.8 1136.34,-121.8 1136.34,-121.8"/>
<polygon fill="black" stroke="black" points="1136.34,-125.3 1146.34,-121.8 1136.34,-118.3 1136.34,-125.3"/>
</g>
<!-- UnlockSessionModernReversedComponent -->
<g id="node5" class="node">
<title>UnlockSessionModernReversedComponent</title>
<polygon fill="#ffffb3" stroke="black" points="833.73,-84.8 572.27,-84.8 572.27,-48.8 833.73,-48.8 833.73,-84.8"/>
<text text-anchor="middle" x="703" y="-62.6" font-family="Times,serif" font-size="14.00">UnlockSessionModernReversedComponent</text>
</g>
<!-- UnlockSessionModernReversedComponent&#45;&gt;UnlockSessionModule -->
<g id="edge5" class="edge">
<title>UnlockSessionModernReversedComponent&#45;&gt;UnlockSessionModule</title>
<path fill="none" stroke="black" d="M703,-85.07C703,-103.36 703,-128.8 703,-128.8 703,-128.8 1136.39,-128.8 1136.39,-128.8"/>
<polygon fill="black" stroke="black" points="1136.39,-132.3 1146.39,-128.8 1136.39,-125.3 1136.39,-132.3"/>
</g>
<!-- UnlockSessionSplitScreenComponent -->
<g id="node6" class="node">
<title>UnlockSessionSplitScreenComponent</title>
<polygon fill="#ffffb3" stroke="black" points="553.86,-84.8 324.14,-84.8 324.14,-48.8 553.86,-48.8 553.86,-84.8"/>
<text text-anchor="middle" x="439" y="-62.6" font-family="Times,serif" font-size="14.00">UnlockSessionSplitScreenComponent</text>
</g>
<!-- UnlockSessionSplitScreenComponent&#45;&gt;UnlockSessionModule -->
<g id="edge6" class="edge">
<title>UnlockSessionSplitScreenComponent&#45;&gt;UnlockSessionModule</title>
<path fill="none" stroke="black" d="M439,-84.93C439,-105.37 439,-135.8 439,-135.8 439,-135.8 1136.46,-135.8 1136.46,-135.8"/>
<polygon fill="black" stroke="black" points="1136.46,-139.3 1146.46,-135.8 1136.46,-132.3 1136.46,-139.3"/>
</g>
<!-- UnlockSessionSplitScreenReversedComponent -->
<g id="node7" class="node">
<title>UnlockSessionSplitScreenReversedComponent</title>
<polygon fill="#ffffb3" stroke="black" points="305.95,-84.8 24.05,-84.8 24.05,-48.8 305.95,-48.8 305.95,-84.8"/>
<text text-anchor="middle" x="165" y="-62.6" font-family="Times,serif" font-size="14.00">UnlockSessionSplitScreenReversedComponent</text>
</g>
<!-- UnlockSessionSplitScreenReversedComponent&#45;&gt;UnlockSessionModule -->
<g id="edge7" class="edge">
<title>UnlockSessionSplitScreenReversedComponent&#45;&gt;UnlockSessionModule</title>
<path fill="none" stroke="black" d="M165,-84.81C165,-107.29 165,-142.8 165,-142.8 165,-142.8 1136.45,-142.8 1136.45,-142.8"/>
<polygon fill="black" stroke="black" points="1136.45,-146.3 1146.45,-142.8 1136.45,-139.3 1136.45,-146.3"/>
</g>
<!-- FuseAlertModule -->
<g id="node9" class="node">
<title>FuseAlertModule</title>
<polygon fill="#8dd3c7" stroke="black" points="2077.25,-84.8 2074.25,-88.8 2053.25,-88.8 2050.25,-84.8 1962.75,-84.8 1962.75,-48.8 2077.25,-48.8 2077.25,-84.8"/>
<text text-anchor="middle" x="2020" y="-62.6" font-family="Times,serif" font-size="14.00">FuseAlertModule</text>
</g>
<!-- FuseAlertModule&#45;&gt;UnlockSessionModule -->
<g id="edge8" class="edge">
<title>FuseAlertModule&#45;&gt;UnlockSessionModule</title>
<path fill="none" stroke="black" d="M2020,-84.81C2020,-107.29 2020,-142.8 2020,-142.8 2020,-142.8 1299.88,-142.8 1299.88,-142.8"/>
<polygon fill="black" stroke="black" points="1299.88,-139.3 1289.88,-142.8 1299.88,-146.3 1299.88,-139.3"/>
</g>
<!-- SharedModule -->
<g id="node10" class="node">
<title>SharedModule</title>
<polygon fill="#8dd3c7" stroke="black" points="1944.42,-84.8 1941.42,-88.8 1920.42,-88.8 1917.42,-84.8 1845.58,-84.8 1845.58,-48.8 1944.42,-48.8 1944.42,-84.8"/>
<text text-anchor="middle" x="1895" y="-62.6" font-family="Times,serif" font-size="14.00">SharedModule</text>
</g>
<!-- SharedModule&#45;&gt;UnlockSessionModule -->
<g id="edge9" class="edge">
<title>SharedModule&#45;&gt;UnlockSessionModule</title>
<path fill="none" stroke="black" d="M1895,-84.93C1895,-105.37 1895,-135.8 1895,-135.8 1895,-135.8 1299.81,-135.8 1299.81,-135.8"/>
<polygon fill="black" stroke="black" points="1299.81,-132.3 1289.81,-135.8 1299.81,-139.3 1299.81,-132.3"/>
</g>
</g>
</svg>
