<?xml version="1.0" encoding="UTF-8" standalone="no"?>
<!DOCTYPE svg PUBLIC "-//W3C//DTD SVG 1.1//EN"
 "http://www.w3.org/Graphics/SVG/1.1/DTD/svg11.dtd">
<!-- Generated by graphviz version 2.47.3 (20210619.1520)
 -->
<!-- Title: dependencies Pages: 1 -->
<svg width="314pt" height="174pt"
 viewBox="0.00 0.00 314.00 173.80" xmlns="http://www.w3.org/2000/svg" xmlns:xlink="http://www.w3.org/1999/xlink">
<g id="graph0" class="graph" transform="scale(1 1) rotate(0) translate(4 169.8)">
<title>dependencies</title>
<polygon fill="white" stroke="transparent" points="-4,4 -4,-169.8 310,-169.8 310,4 -4,4"/>
<text text-anchor="middle" x="153" y="-8.2" font-family="sans-serif" font-size="14.00">dependencies</text>
<g id="clust1" class="cluster">
<title>cluster_ActivitiesModule</title>
<polygon fill="none" stroke="black" stroke-dasharray="1,5" points="8,-32.8 8,-157.8 298,-157.8 298,-32.8 8,-32.8"/>
</g>
<g id="clust2" class="cluster">
<title>cluster_ActivitiesModule_declarations</title>
<polygon fill="none" stroke="black" points="138,-40.8 138,-92.8 290,-92.8 290,-40.8 138,-40.8"/>
</g>
<g id="clust4" class="cluster">
<title>cluster_ActivitiesModule_imports</title>
<polygon fill="none" stroke="black" points="16,-40.8 16,-92.8 130,-92.8 130,-40.8 16,-40.8"/>
</g>
<!-- ActivitiesComponent -->
<g id="node1" class="node">
<title>ActivitiesComponent</title>
<polygon fill="#ffffb3" stroke="black" points="281.77,-84.8 146.23,-84.8 146.23,-48.8 281.77,-48.8 281.77,-84.8"/>
<text text-anchor="middle" x="214" y="-62.6" font-family="Times,serif" font-size="14.00">ActivitiesComponent</text>
</g>
<!-- ActivitiesModule -->
<g id="node2" class="node">
<title>ActivitiesModule</title>
<polygon fill="#8dd3c7" stroke="black" points="199.98,-149.8 196.98,-153.8 175.98,-153.8 172.98,-149.8 86.02,-149.8 86.02,-113.8 199.98,-113.8 199.98,-149.8"/>
<text text-anchor="middle" x="143" y="-127.6" font-family="Times,serif" font-size="14.00">ActivitiesModule</text>
</g>
<!-- ActivitiesComponent&#45;&gt;ActivitiesModule -->
<g id="edge1" class="edge">
<title>ActivitiesComponent&#45;&gt;ActivitiesModule</title>
<path fill="none" stroke="black" d="M173.05,-84.91C173.05,-84.91 173.05,-103.79 173.05,-103.79"/>
<polygon fill="black" stroke="black" points="169.55,-103.79 173.05,-113.79 176.55,-103.79 169.55,-103.79"/>
</g>
<!-- SharedModule -->
<g id="node3" class="node">
<title>SharedModule</title>
<polygon fill="#8dd3c7" stroke="black" points="122.42,-84.8 119.42,-88.8 98.42,-88.8 95.42,-84.8 23.58,-84.8 23.58,-48.8 122.42,-48.8 122.42,-84.8"/>
<text text-anchor="middle" x="73" y="-62.6" font-family="Times,serif" font-size="14.00">SharedModule</text>
</g>
<!-- SharedModule&#45;&gt;ActivitiesModule -->
<g id="edge2" class="edge">
<title>SharedModule&#45;&gt;ActivitiesModule</title>
<path fill="none" stroke="black" d="M104.11,-84.91C104.11,-84.91 104.11,-103.79 104.11,-103.79"/>
<polygon fill="black" stroke="black" points="100.61,-103.79 104.11,-113.79 107.61,-103.79 100.61,-103.79"/>
</g>
</g>
</svg>
