<?xml version="1.0" encoding="UTF-8" standalone="no"?>
<!DOCTYPE svg PUBLIC "-//W3C//DTD SVG 1.1//EN"
 "http://www.w3.org/Graphics/SVG/1.1/DTD/svg11.dtd">
<!-- Generated by graphviz version 2.47.3 (20210619.1520)
 -->
<!-- Title: dependencies Pages: 1 -->
<svg width="2337pt" height="247pt"
 viewBox="0.00 0.00 2337.00 246.80" xmlns="http://www.w3.org/2000/svg" xmlns:xlink="http://www.w3.org/1999/xlink">
<g id="graph0" class="graph" transform="scale(1 1) rotate(0) translate(4 242.8)">
<title>dependencies</title>
<polygon fill="white" stroke="transparent" points="-4,4 -4,-242.8 2333,-242.8 2333,4 -4,4"/>
<text text-anchor="middle" x="1164.5" y="-8.2" font-family="sans-serif" font-size="14.00">dependencies</text>
<g id="clust1" class="cluster">
<title>cluster_LayoutModule</title>
<polygon fill="none" stroke="black" stroke-dasharray="1,5" points="8,-32.8 8,-230.8 2321,-230.8 2321,-32.8 8,-32.8"/>
</g>
<g id="clust2" class="cluster">
<title>cluster_LayoutModule_declarations</title>
<polygon fill="none" stroke="black" points="2177,-40.8 2177,-92.8 2313,-92.8 2313,-40.8 2177,-40.8"/>
</g>
<g id="clust5" class="cluster">
<title>cluster_LayoutModule_exports</title>
<polygon fill="none" stroke="black" points="159,-170.8 159,-222.8 2108,-222.8 2108,-170.8 159,-170.8"/>
</g>
<g id="clust4" class="cluster">
<title>cluster_LayoutModule_imports</title>
<polygon fill="none" stroke="black" points="16,-40.8 16,-92.8 2169,-92.8 2169,-40.8 16,-40.8"/>
</g>
<!-- LayoutComponent -->
<g id="node1" class="node">
<title>LayoutComponent</title>
<polygon fill="#ffffb3" stroke="black" points="2305.49,-84.8 2184.51,-84.8 2184.51,-48.8 2305.49,-48.8 2305.49,-84.8"/>
<text text-anchor="middle" x="2245" y="-62.6" font-family="Times,serif" font-size="14.00">LayoutComponent</text>
</g>
<!-- LayoutModule -->
<g id="node2" class="node">
<title>LayoutModule</title>
<polygon fill="#8dd3c7" stroke="black" points="1177.71,-149.8 1174.71,-153.8 1153.71,-153.8 1150.71,-149.8 1078.29,-149.8 1078.29,-113.8 1177.71,-113.8 1177.71,-149.8"/>
<text text-anchor="middle" x="1128" y="-127.6" font-family="Times,serif" font-size="14.00">LayoutModule</text>
</g>
<!-- LayoutComponent&#45;&gt;LayoutModule -->
<g id="edge1" class="edge">
<title>LayoutComponent&#45;&gt;LayoutModule</title>
<path fill="none" stroke="black" d="M2245,-85.11C2245,-104.95 2245,-133.8 2245,-133.8 2245,-133.8 1187.8,-133.8 1187.8,-133.8"/>
<polygon fill="black" stroke="black" points="1187.8,-130.3 1177.8,-133.8 1187.8,-137.3 1187.8,-130.3"/>
</g>
<!-- CenteredLayoutModule  -->
<g id="node17" class="node">
<title>CenteredLayoutModule </title>
<polygon fill="#fb8072" stroke="black" points="2099.74,-214.8 1946.26,-214.8 1946.26,-178.8 2099.74,-178.8 2099.74,-214.8"/>
<text text-anchor="middle" x="2023" y="-192.6" font-family="Times,serif" font-size="14.00">CenteredLayoutModule </text>
</g>
<!-- LayoutModule&#45;&gt;CenteredLayoutModule  -->
<g id="edge16" class="edge">
<title>LayoutModule&#45;&gt;CenteredLayoutModule </title>
<path fill="none" stroke="black" stroke-dasharray="5,2" d="M1177.81,-136.8C1358.61,-136.8 1969.6,-136.8 1969.6,-136.8 1969.6,-136.8 1969.6,-168.8 1969.6,-168.8"/>
<polygon fill="black" stroke="black" points="1966.1,-168.8 1969.6,-178.8 1973.1,-168.8 1966.1,-168.8"/>
</g>
<!-- ClassicLayoutModule  -->
<g id="node18" class="node">
<title>ClassicLayoutModule </title>
<polygon fill="#fb8072" stroke="black" points="1928.64,-214.8 1785.36,-214.8 1785.36,-178.8 1928.64,-178.8 1928.64,-214.8"/>
<text text-anchor="middle" x="1857" y="-192.6" font-family="Times,serif" font-size="14.00">ClassicLayoutModule </text>
</g>
<!-- LayoutModule&#45;&gt;ClassicLayoutModule  -->
<g id="edge17" class="edge">
<title>LayoutModule&#45;&gt;ClassicLayoutModule </title>
<path fill="none" stroke="black" stroke-dasharray="5,2" d="M1177.62,-138.8C1334.64,-138.8 1810.35,-138.8 1810.35,-138.8 1810.35,-138.8 1810.35,-168.77 1810.35,-168.77"/>
<polygon fill="black" stroke="black" points="1806.85,-168.77 1810.35,-178.77 1813.85,-168.77 1806.85,-168.77"/>
</g>
<!-- ClassyLayoutModule  -->
<g id="node19" class="node">
<title>ClassyLayoutModule </title>
<polygon fill="#fb8072" stroke="black" points="1767.04,-214.8 1626.96,-214.8 1626.96,-178.8 1767.04,-178.8 1767.04,-214.8"/>
<text text-anchor="middle" x="1697" y="-192.6" font-family="Times,serif" font-size="14.00">ClassyLayoutModule </text>
</g>
<!-- LayoutModule&#45;&gt;ClassyLayoutModule  -->
<g id="edge18" class="edge">
<title>LayoutModule&#45;&gt;ClassyLayoutModule </title>
<path fill="none" stroke="black" stroke-dasharray="5,2" d="M1177.95,-141.8C1309.23,-141.8 1653.93,-141.8 1653.93,-141.8 1653.93,-141.8 1653.93,-168.79 1653.93,-168.79"/>
<polygon fill="black" stroke="black" points="1650.43,-168.79 1653.93,-178.79 1657.43,-168.79 1650.43,-168.79"/>
</g>
<!-- CompactLayoutModule  -->
<g id="node20" class="node">
<title>CompactLayoutModule </title>
<polygon fill="#fb8072" stroke="black" points="1608.75,-214.8 1455.25,-214.8 1455.25,-178.8 1608.75,-178.8 1608.75,-214.8"/>
<text text-anchor="middle" x="1532" y="-192.6" font-family="Times,serif" font-size="14.00">CompactLayoutModule </text>
</g>
<!-- LayoutModule&#45;&gt;CompactLayoutModule  -->
<g id="edge19" class="edge">
<title>LayoutModule&#45;&gt;CompactLayoutModule </title>
<path fill="none" stroke="black" stroke-dasharray="5,2" d="M1177.91,-144.8C1275.95,-144.8 1484.23,-144.8 1484.23,-144.8 1484.23,-144.8 1484.23,-168.61 1484.23,-168.61"/>
<polygon fill="black" stroke="black" points="1480.73,-168.61 1484.23,-178.61 1487.73,-168.61 1480.73,-168.61"/>
</g>
<!-- DenseLayoutModule  -->
<g id="node21" class="node">
<title>DenseLayoutModule </title>
<polygon fill="#fb8072" stroke="black" points="1437.69,-214.8 1300.31,-214.8 1300.31,-178.8 1437.69,-178.8 1437.69,-214.8"/>
<text text-anchor="middle" x="1369" y="-192.6" font-family="Times,serif" font-size="14.00">DenseLayoutModule </text>
</g>
<!-- LayoutModule&#45;&gt;DenseLayoutModule  -->
<g id="edge20" class="edge">
<title>LayoutModule&#45;&gt;DenseLayoutModule </title>
<path fill="none" stroke="black" stroke-dasharray="5,2" d="M1177.85,-147.8C1237.87,-147.8 1330.71,-147.8 1330.71,-147.8 1330.71,-147.8 1330.71,-168.55 1330.71,-168.55"/>
<polygon fill="black" stroke="black" points="1327.21,-168.55 1330.71,-178.55 1334.21,-168.55 1327.21,-168.55"/>
</g>
<!-- EmptyLayoutModule  -->
<g id="node22" class="node">
<title>EmptyLayoutModule </title>
<polygon fill="#fb8072" stroke="black" points="1282.04,-214.8 1141.96,-214.8 1141.96,-178.8 1282.04,-178.8 1282.04,-214.8"/>
<text text-anchor="middle" x="1212" y="-192.6" font-family="Times,serif" font-size="14.00">EmptyLayoutModule </text>
</g>
<!-- LayoutModule&#45;&gt;EmptyLayoutModule  -->
<g id="edge21" class="edge">
<title>LayoutModule&#45;&gt;EmptyLayoutModule </title>
<path fill="none" stroke="black" stroke-dasharray="5,2" d="M1159.79,-149.91C1159.79,-149.91 1159.79,-168.79 1159.79,-168.79"/>
<polygon fill="black" stroke="black" points="1156.29,-168.79 1159.79,-178.79 1163.29,-168.79 1156.29,-168.79"/>
</g>
<!-- EnterpriseLayoutModule  -->
<g id="node23" class="node">
<title>EnterpriseLayoutModule </title>
<polygon fill="#fb8072" stroke="black" points="1124.24,-214.8 963.76,-214.8 963.76,-178.8 1124.24,-178.8 1124.24,-214.8"/>
<text text-anchor="middle" x="1044" y="-192.6" font-family="Times,serif" font-size="14.00">EnterpriseLayoutModule </text>
</g>
<!-- LayoutModule&#45;&gt;EnterpriseLayoutModule  -->
<g id="edge22" class="edge">
<title>LayoutModule&#45;&gt;EnterpriseLayoutModule </title>
<path fill="none" stroke="black" stroke-dasharray="5,2" d="M1101.26,-149.91C1101.26,-149.91 1101.26,-168.79 1101.26,-168.79"/>
<polygon fill="black" stroke="black" points="1097.76,-168.79 1101.26,-178.79 1104.76,-168.79 1097.76,-168.79"/>
</g>
<!-- FuturisticLayoutModule  -->
<g id="node24" class="node">
<title>FuturisticLayoutModule </title>
<polygon fill="#fb8072" stroke="black" points="946.37,-214.8 789.63,-214.8 789.63,-178.8 946.37,-178.8 946.37,-214.8"/>
<text text-anchor="middle" x="868" y="-192.6" font-family="Times,serif" font-size="14.00">FuturisticLayoutModule </text>
</g>
<!-- LayoutModule&#45;&gt;FuturisticLayoutModule  -->
<g id="edge23" class="edge">
<title>LayoutModule&#45;&gt;FuturisticLayoutModule </title>
<path fill="none" stroke="black" stroke-dasharray="5,2" d="M1078.37,-147.8C1018.3,-147.8 925.1,-147.8 925.1,-147.8 925.1,-147.8 925.1,-168.55 925.1,-168.55"/>
<polygon fill="black" stroke="black" points="921.6,-168.55 925.1,-178.55 928.6,-168.55 921.6,-168.55"/>
</g>
<!-- LayoutComponent  -->
<g id="node25" class="node">
<title>LayoutComponent </title>
<polygon fill="#fb8072" stroke="black" points="772.49,-214.8 647.51,-214.8 647.51,-178.8 772.49,-178.8 772.49,-214.8"/>
<text text-anchor="middle" x="710" y="-192.6" font-family="Times,serif" font-size="14.00">LayoutComponent </text>
</g>
<!-- LayoutModule&#45;&gt;LayoutComponent  -->
<g id="edge24" class="edge">
<title>LayoutModule&#45;&gt;LayoutComponent </title>
<path fill="none" stroke="black" stroke-dasharray="5,2" d="M1078.19,-144.8C976.16,-144.8 752.9,-144.8 752.9,-144.8 752.9,-144.8 752.9,-168.61 752.9,-168.61"/>
<polygon fill="black" stroke="black" points="749.4,-168.61 752.9,-178.61 756.4,-168.61 749.4,-168.61"/>
</g>
<!-- MaterialLayoutModule  -->
<g id="node26" class="node">
<title>MaterialLayoutModule </title>
<polygon fill="#fb8072" stroke="black" points="630.13,-214.8 479.87,-214.8 479.87,-178.8 630.13,-178.8 630.13,-214.8"/>
<text text-anchor="middle" x="555" y="-192.6" font-family="Times,serif" font-size="14.00">MaterialLayoutModule </text>
</g>
<!-- LayoutModule&#45;&gt;MaterialLayoutModule  -->
<g id="edge25" class="edge">
<title>LayoutModule&#45;&gt;MaterialLayoutModule </title>
<path fill="none" stroke="black" stroke-dasharray="5,2" d="M1078.27,-141.8C946.67,-141.8 599.38,-141.8 599.38,-141.8 599.38,-141.8 599.38,-168.79 599.38,-168.79"/>
<polygon fill="black" stroke="black" points="595.88,-168.79 599.38,-178.79 602.88,-168.79 595.88,-168.79"/>
</g>
<!-- ModernLayoutModule  -->
<g id="node27" class="node">
<title>ModernLayoutModule </title>
<polygon fill="#fb8072" stroke="black" points="461.53,-214.8 314.47,-214.8 314.47,-178.8 461.53,-178.8 461.53,-214.8"/>
<text text-anchor="middle" x="388" y="-192.6" font-family="Times,serif" font-size="14.00">ModernLayoutModule </text>
</g>
<!-- LayoutModule&#45;&gt;ModernLayoutModule  -->
<g id="edge26" class="edge">
<title>LayoutModule&#45;&gt;ModernLayoutModule </title>
<path fill="none" stroke="black" stroke-dasharray="5,2" d="M1078.39,-138.8C919.64,-138.8 434.38,-138.8 434.38,-138.8 434.38,-138.8 434.38,-168.77 434.38,-168.77"/>
<polygon fill="black" stroke="black" points="430.88,-168.77 434.38,-178.77 437.88,-168.77 430.88,-168.77"/>
</g>
<!-- ThinLayoutModule  -->
<g id="node28" class="node">
<title>ThinLayoutModule </title>
<polygon fill="#fb8072" stroke="black" points="296.65,-214.8 167.35,-214.8 167.35,-178.8 296.65,-178.8 296.65,-214.8"/>
<text text-anchor="middle" x="232" y="-192.6" font-family="Times,serif" font-size="14.00">ThinLayoutModule </text>
</g>
<!-- LayoutModule&#45;&gt;ThinLayoutModule  -->
<g id="edge27" class="edge">
<title>LayoutModule&#45;&gt;ThinLayoutModule </title>
<path fill="none" stroke="black" stroke-dasharray="5,2" d="M1078.13,-136.8C897.85,-136.8 290.62,-136.8 290.62,-136.8 290.62,-136.8 290.62,-168.8 290.62,-168.8"/>
<polygon fill="black" stroke="black" points="287.12,-168.8 290.62,-178.8 294.12,-168.8 287.12,-168.8"/>
</g>
<!-- CenteredLayoutModule -->
<g id="node3" class="node">
<title>CenteredLayoutModule</title>
<polygon fill="#8dd3c7" stroke="black" points="2160.74,-84.8 2157.74,-88.8 2136.74,-88.8 2133.74,-84.8 2011.26,-84.8 2011.26,-48.8 2160.74,-48.8 2160.74,-84.8"/>
<text text-anchor="middle" x="2086" y="-62.6" font-family="Times,serif" font-size="14.00">CenteredLayoutModule</text>
</g>
<!-- CenteredLayoutModule&#45;&gt;LayoutModule -->
<g id="edge2" class="edge">
<title>CenteredLayoutModule&#45;&gt;LayoutModule</title>
<path fill="none" stroke="black" d="M2055.38,-84.97C2055.38,-103.89 2055.38,-130.8 2055.38,-130.8 2055.38,-130.8 1187.86,-130.8 1187.86,-130.8"/>
<polygon fill="black" stroke="black" points="1187.86,-127.3 1177.86,-130.8 1187.86,-134.3 1187.86,-127.3"/>
</g>
<!-- ClassicLayoutModule -->
<g id="node4" class="node">
<title>ClassicLayoutModule</title>
<polygon fill="#8dd3c7" stroke="black" points="1992.64,-84.8 1989.64,-88.8 1968.64,-88.8 1965.64,-84.8 1853.36,-84.8 1853.36,-48.8 1992.64,-48.8 1992.64,-84.8"/>
<text text-anchor="middle" x="1923" y="-62.6" font-family="Times,serif" font-size="14.00">ClassicLayoutModule</text>
</g>
<!-- ClassicLayoutModule&#45;&gt;LayoutModule -->
<g id="edge3" class="edge">
<title>ClassicLayoutModule&#45;&gt;LayoutModule</title>
<path fill="none" stroke="black" d="M1890.88,-85.1C1890.88,-103.07 1890.88,-127.8 1890.88,-127.8 1890.88,-127.8 1187.76,-127.8 1187.76,-127.8"/>
<polygon fill="black" stroke="black" points="1187.76,-124.3 1177.76,-127.8 1187.76,-131.3 1187.76,-124.3"/>
</g>
<!-- ClassyLayoutModule -->
<g id="node5" class="node">
<title>ClassyLayoutModule</title>
<polygon fill="#8dd3c7" stroke="black" points="1835.04,-84.8 1832.04,-88.8 1811.04,-88.8 1808.04,-84.8 1698.96,-84.8 1698.96,-48.8 1835.04,-48.8 1835.04,-84.8"/>
<text text-anchor="middle" x="1767" y="-62.6" font-family="Times,serif" font-size="14.00">ClassyLayoutModule</text>
</g>
<!-- ClassyLayoutModule&#45;&gt;LayoutModule -->
<g id="edge4" class="edge">
<title>ClassyLayoutModule&#45;&gt;LayoutModule</title>
<path fill="none" stroke="black" d="M1732.88,-84.82C1732.88,-102.17 1732.88,-125.8 1732.88,-125.8 1732.88,-125.8 1187.76,-125.8 1187.76,-125.8"/>
<polygon fill="black" stroke="black" points="1187.76,-122.3 1177.76,-125.8 1187.76,-129.3 1187.76,-122.3"/>
</g>
<!-- CompactLayoutModule -->
<g id="node6" class="node">
<title>CompactLayoutModule</title>
<polygon fill="#8dd3c7" stroke="black" points="1680.75,-84.8 1677.75,-88.8 1656.75,-88.8 1653.75,-84.8 1531.25,-84.8 1531.25,-48.8 1680.75,-48.8 1680.75,-84.8"/>
<text text-anchor="middle" x="1606" y="-62.6" font-family="Times,serif" font-size="14.00">CompactLayoutModule</text>
</g>
<!-- CompactLayoutModule&#45;&gt;LayoutModule -->
<g id="edge5" class="edge">
<title>CompactLayoutModule&#45;&gt;LayoutModule</title>
<path fill="none" stroke="black" d="M1569.88,-84.83C1569.88,-101.2 1569.88,-122.8 1569.88,-122.8 1569.88,-122.8 1187.83,-122.8 1187.83,-122.8"/>
<polygon fill="black" stroke="black" points="1187.83,-119.3 1177.83,-122.8 1187.83,-126.3 1187.83,-119.3"/>
</g>
<!-- DenseLayoutModule -->
<g id="node7" class="node">
<title>DenseLayoutModule</title>
<polygon fill="#8dd3c7" stroke="black" points="1513.19,-84.8 1510.19,-88.8 1489.19,-88.8 1486.19,-84.8 1378.81,-84.8 1378.81,-48.8 1513.19,-48.8 1513.19,-84.8"/>
<text text-anchor="middle" x="1446" y="-62.6" font-family="Times,serif" font-size="14.00">DenseLayoutModule</text>
</g>
<!-- DenseLayoutModule&#45;&gt;LayoutModule -->
<g id="edge6" class="edge">
<title>DenseLayoutModule&#45;&gt;LayoutModule</title>
<path fill="none" stroke="black" d="M1408.38,-85.04C1408.38,-100.37 1408.38,-119.8 1408.38,-119.8 1408.38,-119.8 1187.8,-119.8 1187.8,-119.8"/>
<polygon fill="black" stroke="black" points="1187.8,-116.3 1177.8,-119.8 1187.8,-123.3 1187.8,-116.3"/>
</g>
<!-- EmptyLayoutModule -->
<g id="node8" class="node">
<title>EmptyLayoutModule</title>
<polygon fill="#8dd3c7" stroke="black" points="1361.04,-84.8 1358.04,-88.8 1337.04,-88.8 1334.04,-84.8 1224.96,-84.8 1224.96,-48.8 1361.04,-48.8 1361.04,-84.8"/>
<text text-anchor="middle" x="1293" y="-62.6" font-family="Times,serif" font-size="14.00">EmptyLayoutModule</text>
</g>
<!-- EmptyLayoutModule&#45;&gt;LayoutModule -->
<g id="edge7" class="edge">
<title>EmptyLayoutModule&#45;&gt;LayoutModule</title>
<path fill="none" stroke="black" d="M1253.38,-84.85C1253.38,-99.17 1253.38,-116.8 1253.38,-116.8 1253.38,-116.8 1187.91,-116.8 1187.91,-116.8"/>
<polygon fill="black" stroke="black" points="1187.91,-113.3 1177.91,-116.8 1187.91,-120.3 1187.91,-113.3"/>
</g>
<!-- EnterpriseLayoutModule -->
<g id="node9" class="node">
<title>EnterpriseLayoutModule</title>
<polygon fill="#8dd3c7" stroke="black" points="1206.24,-84.8 1203.24,-88.8 1182.24,-88.8 1179.24,-84.8 1049.76,-84.8 1049.76,-48.8 1206.24,-48.8 1206.24,-84.8"/>
<text text-anchor="middle" x="1128" y="-62.6" font-family="Times,serif" font-size="14.00">EnterpriseLayoutModule</text>
</g>
<!-- EnterpriseLayoutModule&#45;&gt;LayoutModule -->
<g id="edge8" class="edge">
<title>EnterpriseLayoutModule&#45;&gt;LayoutModule</title>
<path fill="none" stroke="black" d="M1128,-84.91C1128,-84.91 1128,-103.79 1128,-103.79"/>
<polygon fill="black" stroke="black" points="1124.5,-103.79 1128,-113.79 1131.5,-103.79 1124.5,-103.79"/>
</g>
<!-- FuseDrawerModule -->
<g id="node10" class="node">
<title>FuseDrawerModule</title>
<polygon fill="#8dd3c7" stroke="black" points="1031.96,-84.8 1028.96,-88.8 1007.96,-88.8 1004.96,-84.8 904.04,-84.8 904.04,-48.8 1031.96,-48.8 1031.96,-84.8"/>
<text text-anchor="middle" x="968" y="-62.6" font-family="Times,serif" font-size="14.00">FuseDrawerModule</text>
</g>
<!-- FuseDrawerModule&#45;&gt;LayoutModule -->
<g id="edge9" class="edge">
<title>FuseDrawerModule&#45;&gt;LayoutModule</title>
<path fill="none" stroke="black" d="M997.93,-84.85C997.93,-99.17 997.93,-116.8 997.93,-116.8 997.93,-116.8 1068.08,-116.8 1068.08,-116.8"/>
<polygon fill="black" stroke="black" points="1068.08,-120.3 1078.08,-116.8 1068.08,-113.3 1068.08,-120.3"/>
</g>
<!-- FuturisticLayoutModule -->
<g id="node11" class="node">
<title>FuturisticLayoutModule</title>
<polygon fill="#8dd3c7" stroke="black" points="886.37,-84.8 883.37,-88.8 862.37,-88.8 859.37,-84.8 733.63,-84.8 733.63,-48.8 886.37,-48.8 886.37,-84.8"/>
<text text-anchor="middle" x="810" y="-62.6" font-family="Times,serif" font-size="14.00">FuturisticLayoutModule</text>
</g>
<!-- FuturisticLayoutModule&#45;&gt;LayoutModule -->
<g id="edge10" class="edge">
<title>FuturisticLayoutModule&#45;&gt;LayoutModule</title>
<path fill="none" stroke="black" d="M838.12,-85.04C838.12,-100.37 838.12,-119.8 838.12,-119.8 838.12,-119.8 1068.17,-119.8 1068.17,-119.8"/>
<polygon fill="black" stroke="black" points="1068.17,-123.3 1078.17,-119.8 1068.17,-116.3 1068.17,-123.3"/>
</g>
<!-- MaterialLayoutModule -->
<g id="node12" class="node">
<title>MaterialLayoutModule</title>
<polygon fill="#8dd3c7" stroke="black" points="715.13,-84.8 712.13,-88.8 691.13,-88.8 688.13,-84.8 568.87,-84.8 568.87,-48.8 715.13,-48.8 715.13,-84.8"/>
<text text-anchor="middle" x="642" y="-62.6" font-family="Times,serif" font-size="14.00">MaterialLayoutModule</text>
</g>
<!-- MaterialLayoutModule&#45;&gt;LayoutModule -->
<g id="edge11" class="edge">
<title>MaterialLayoutModule&#45;&gt;LayoutModule</title>
<path fill="none" stroke="black" d="M681.53,-84.83C681.53,-101.2 681.53,-122.8 681.53,-122.8 681.53,-122.8 1068.08,-122.8 1068.08,-122.8"/>
<polygon fill="black" stroke="black" points="1068.08,-126.3 1078.08,-122.8 1068.08,-119.3 1068.08,-126.3"/>
</g>
<!-- ModernLayoutModule -->
<g id="node13" class="node">
<title>ModernLayoutModule</title>
<polygon fill="#8dd3c7" stroke="black" points="550.53,-84.8 547.53,-88.8 526.53,-88.8 523.53,-84.8 407.47,-84.8 407.47,-48.8 550.53,-48.8 550.53,-84.8"/>
<text text-anchor="middle" x="479" y="-62.6" font-family="Times,serif" font-size="14.00">ModernLayoutModule</text>
</g>
<!-- ModernLayoutModule&#45;&gt;LayoutModule -->
<g id="edge12" class="edge">
<title>ModernLayoutModule&#45;&gt;LayoutModule</title>
<path fill="none" stroke="black" d="M515.35,-84.82C515.35,-102.17 515.35,-125.8 515.35,-125.8 515.35,-125.8 1068.38,-125.8 1068.38,-125.8"/>
<polygon fill="black" stroke="black" points="1068.38,-129.3 1078.38,-125.8 1068.38,-122.3 1068.38,-129.3"/>
</g>
<!-- SettingsModule -->
<g id="node14" class="node">
<title>SettingsModule</title>
<polygon fill="#8dd3c7" stroke="black" points="389.16,-84.8 386.16,-88.8 365.16,-88.8 362.16,-84.8 284.84,-84.8 284.84,-48.8 389.16,-48.8 389.16,-84.8"/>
<text text-anchor="middle" x="337" y="-62.6" font-family="Times,serif" font-size="14.00">SettingsModule</text>
</g>
<!-- SettingsModule&#45;&gt;LayoutModule -->
<g id="edge13" class="edge">
<title>SettingsModule&#45;&gt;LayoutModule</title>
<path fill="none" stroke="black" d="M351.91,-85.1C351.91,-103.07 351.91,-127.8 351.91,-127.8 351.91,-127.8 1068.27,-127.8 1068.27,-127.8"/>
<polygon fill="black" stroke="black" points="1068.27,-131.3 1078.27,-127.8 1068.27,-124.3 1068.27,-131.3"/>
</g>
<!-- SharedModule -->
<g id="node15" class="node">
<title>SharedModule</title>
<polygon fill="#8dd3c7" stroke="black" points="266.42,-84.8 263.42,-88.8 242.42,-88.8 239.42,-84.8 167.58,-84.8 167.58,-48.8 266.42,-48.8 266.42,-84.8"/>
<text text-anchor="middle" x="217" y="-62.6" font-family="Times,serif" font-size="14.00">SharedModule</text>
</g>
<!-- SharedModule&#45;&gt;LayoutModule -->
<g id="edge14" class="edge">
<title>SharedModule&#45;&gt;LayoutModule</title>
<path fill="none" stroke="black" d="M217,-84.97C217,-103.89 217,-130.8 217,-130.8 217,-130.8 1068.37,-130.8 1068.37,-130.8"/>
<polygon fill="black" stroke="black" points="1068.37,-134.3 1078.37,-130.8 1068.37,-127.3 1068.37,-134.3"/>
</g>
<!-- ThinLayoutModule -->
<g id="node16" class="node">
<title>ThinLayoutModule</title>
<polygon fill="#8dd3c7" stroke="black" points="149.65,-84.8 146.65,-88.8 125.65,-88.8 122.65,-84.8 24.35,-84.8 24.35,-48.8 149.65,-48.8 149.65,-84.8"/>
<text text-anchor="middle" x="87" y="-62.6" font-family="Times,serif" font-size="14.00">ThinLayoutModule</text>
</g>
<!-- ThinLayoutModule&#45;&gt;LayoutModule -->
<g id="edge15" class="edge">
<title>ThinLayoutModule&#45;&gt;LayoutModule</title>
<path fill="none" stroke="black" d="M87,-85.11C87,-104.95 87,-133.8 87,-133.8 87,-133.8 1068.14,-133.8 1068.14,-133.8"/>
<polygon fill="black" stroke="black" points="1068.14,-137.3 1078.14,-133.8 1068.14,-130.3 1068.14,-137.3"/>
</g>
</g>
</svg>
