<?xml version="1.0" encoding="UTF-8" standalone="no"?>
<!DOCTYPE svg PUBLIC "-//W3C//DTD SVG 1.1//EN"
 "http://www.w3.org/Graphics/SVG/1.1/DTD/svg11.dtd">
<!-- Generated by graphviz version 2.47.3 (20210619.1520)
 -->
<!-- Title: dependencies Pages: 1 -->
<svg width="342pt" height="174pt"
 viewBox="0.00 0.00 342.00 173.80" xmlns="http://www.w3.org/2000/svg" xmlns:xlink="http://www.w3.org/1999/xlink">
<g id="graph0" class="graph" transform="scale(1 1) rotate(0) translate(4 169.8)">
<title>dependencies</title>
<polygon fill="white" stroke="transparent" points="-4,4 -4,-169.8 338,-169.8 338,4 -4,4"/>
<text text-anchor="middle" x="167" y="-8.2" font-family="sans-serif" font-size="14.00">dependencies</text>
<g id="clust1" class="cluster">
<title>cluster_FormsWizardsModule</title>
<polygon fill="none" stroke="black" stroke-dasharray="1,5" points="8,-32.8 8,-157.8 326,-157.8 326,-32.8 8,-32.8"/>
</g>
<g id="clust2" class="cluster">
<title>cluster_FormsWizardsModule_declarations</title>
<polygon fill="none" stroke="black" points="138,-40.8 138,-92.8 318,-92.8 318,-40.8 138,-40.8"/>
</g>
<g id="clust4" class="cluster">
<title>cluster_FormsWizardsModule_imports</title>
<polygon fill="none" stroke="black" points="16,-40.8 16,-92.8 130,-92.8 130,-40.8 16,-40.8"/>
</g>
<!-- FormsWizardsComponent -->
<g id="node1" class="node">
<title>FormsWizardsComponent</title>
<polygon fill="#ffffb3" stroke="black" points="309.75,-84.8 146.25,-84.8 146.25,-48.8 309.75,-48.8 309.75,-84.8"/>
<text text-anchor="middle" x="228" y="-62.6" font-family="Times,serif" font-size="14.00">FormsWizardsComponent</text>
</g>
<!-- FormsWizardsModule -->
<g id="node2" class="node">
<title>FormsWizardsModule</title>
<polygon fill="#8dd3c7" stroke="black" points="227.97,-149.8 224.97,-153.8 203.97,-153.8 200.97,-149.8 86.03,-149.8 86.03,-113.8 227.97,-113.8 227.97,-149.8"/>
<text text-anchor="middle" x="157" y="-127.6" font-family="Times,serif" font-size="14.00">FormsWizardsModule</text>
</g>
<!-- FormsWizardsComponent&#45;&gt;FormsWizardsModule -->
<g id="edge1" class="edge">
<title>FormsWizardsComponent&#45;&gt;FormsWizardsModule</title>
<path fill="none" stroke="black" d="M187.05,-84.91C187.05,-84.91 187.05,-103.79 187.05,-103.79"/>
<polygon fill="black" stroke="black" points="183.55,-103.79 187.05,-113.79 190.55,-103.79 183.55,-103.79"/>
</g>
<!-- SharedModule -->
<g id="node3" class="node">
<title>SharedModule</title>
<polygon fill="#8dd3c7" stroke="black" points="122.42,-84.8 119.42,-88.8 98.42,-88.8 95.42,-84.8 23.58,-84.8 23.58,-48.8 122.42,-48.8 122.42,-84.8"/>
<text text-anchor="middle" x="73" y="-62.6" font-family="Times,serif" font-size="14.00">SharedModule</text>
</g>
<!-- SharedModule&#45;&gt;FormsWizardsModule -->
<g id="edge2" class="edge">
<title>SharedModule&#45;&gt;FormsWizardsModule</title>
<path fill="none" stroke="black" d="M104.11,-84.91C104.11,-84.91 104.11,-103.79 104.11,-103.79"/>
<polygon fill="black" stroke="black" points="100.61,-103.79 104.11,-113.79 107.61,-103.79 100.61,-103.79"/>
</g>
</g>
</svg>
