<?xml version="1.0" encoding="UTF-8" standalone="no"?>
<!DOCTYPE svg PUBLIC "-//W3C//DTD SVG 1.1//EN"
 "http://www.w3.org/Graphics/SVG/1.1/DTD/svg11.dtd">
<!-- Generated by graphviz version 2.47.3 (20210619.1520)
 -->
<!-- Title: dependencies Pages: 1 -->
<svg width="680pt" height="174pt"
 viewBox="0.00 0.00 680.00 173.80" xmlns="http://www.w3.org/2000/svg" xmlns:xlink="http://www.w3.org/1999/xlink">
<g id="graph0" class="graph" transform="scale(1 1) rotate(0) translate(4 169.8)">
<title>dependencies</title>
<polygon fill="white" stroke="transparent" points="-4,4 -4,-169.8 676,-169.8 676,4 -4,4"/>
<text text-anchor="middle" x="336" y="-8.2" font-family="sans-serif" font-size="14.00">dependencies</text>
<g id="clust1" class="cluster">
<title>cluster_AcademyModule</title>
<polygon fill="none" stroke="black" stroke-dasharray="1,5" points="8,-32.8 8,-157.8 664,-157.8 664,-32.8 8,-32.8"/>
</g>
<g id="clust2" class="cluster">
<title>cluster_AcademyModule_declarations</title>
<polygon fill="none" stroke="black" points="138,-40.8 138,-92.8 656,-92.8 656,-40.8 138,-40.8"/>
</g>
<g id="clust6" class="cluster">
<title>cluster_AcademyModule_imports</title>
<polygon fill="none" stroke="black" points="16,-40.8 16,-92.8 130,-92.8 130,-40.8 16,-40.8"/>
</g>
<!-- AcademyComponent -->
<g id="node1" class="node">
<title>AcademyComponent</title>
<polygon fill="#ffffb3" stroke="black" points="648.47,-84.8 513.53,-84.8 513.53,-48.8 648.47,-48.8 648.47,-84.8"/>
<text text-anchor="middle" x="581" y="-62.6" font-family="Times,serif" font-size="14.00">AcademyComponent</text>
</g>
<!-- AcademyModule -->
<g id="node4" class="node">
<title>AcademyModule</title>
<polygon fill="#8dd3c7" stroke="black" points="372.69,-149.8 369.69,-153.8 348.69,-153.8 345.69,-149.8 259.31,-149.8 259.31,-113.8 372.69,-113.8 372.69,-149.8"/>
<text text-anchor="middle" x="316" y="-127.6" font-family="Times,serif" font-size="14.00">AcademyModule</text>
</g>
<!-- AcademyComponent&#45;&gt;AcademyModule -->
<g id="edge1" class="edge">
<title>AcademyComponent&#45;&gt;AcademyModule</title>
<path fill="none" stroke="black" d="M581,-84.91C581,-104.14 581,-131.8 581,-131.8 581,-131.8 382.85,-131.8 382.85,-131.8"/>
<polygon fill="black" stroke="black" points="382.85,-128.3 372.85,-131.8 382.85,-135.3 382.85,-128.3"/>
</g>
<!-- AcademyDetailsComponent -->
<g id="node2" class="node">
<title>AcademyDetailsComponent</title>
<polygon fill="#ffffb3" stroke="black" points="495.13,-84.8 320.87,-84.8 320.87,-48.8 495.13,-48.8 495.13,-84.8"/>
<text text-anchor="middle" x="408" y="-62.6" font-family="Times,serif" font-size="14.00">AcademyDetailsComponent</text>
</g>
<!-- AcademyDetailsComponent&#45;&gt;AcademyModule -->
<g id="edge2" class="edge">
<title>AcademyDetailsComponent&#45;&gt;AcademyModule</title>
<path fill="none" stroke="black" d="M346.64,-84.91C346.64,-84.91 346.64,-103.79 346.64,-103.79"/>
<polygon fill="black" stroke="black" points="343.14,-103.79 346.64,-113.79 350.14,-103.79 343.14,-103.79"/>
</g>
<!-- AcademyListComponent -->
<g id="node3" class="node">
<title>AcademyListComponent</title>
<polygon fill="#ffffb3" stroke="black" points="302.25,-84.8 145.75,-84.8 145.75,-48.8 302.25,-48.8 302.25,-84.8"/>
<text text-anchor="middle" x="224" y="-62.6" font-family="Times,serif" font-size="14.00">AcademyListComponent</text>
</g>
<!-- AcademyListComponent&#45;&gt;AcademyModule -->
<g id="edge3" class="edge">
<title>AcademyListComponent&#45;&gt;AcademyModule</title>
<path fill="none" stroke="black" d="M280.89,-84.91C280.89,-84.91 280.89,-103.79 280.89,-103.79"/>
<polygon fill="black" stroke="black" points="277.39,-103.79 280.89,-113.79 284.39,-103.79 277.39,-103.79"/>
</g>
<!-- SharedModule -->
<g id="node5" class="node">
<title>SharedModule</title>
<polygon fill="#8dd3c7" stroke="black" points="122.42,-84.8 119.42,-88.8 98.42,-88.8 95.42,-84.8 23.58,-84.8 23.58,-48.8 122.42,-48.8 122.42,-84.8"/>
<text text-anchor="middle" x="73" y="-62.6" font-family="Times,serif" font-size="14.00">SharedModule</text>
</g>
<!-- SharedModule&#45;&gt;AcademyModule -->
<g id="edge4" class="edge">
<title>SharedModule&#45;&gt;AcademyModule</title>
<path fill="none" stroke="black" d="M73,-84.91C73,-104.14 73,-131.8 73,-131.8 73,-131.8 249.33,-131.8 249.33,-131.8"/>
<polygon fill="black" stroke="black" points="249.33,-135.3 259.33,-131.8 249.33,-128.3 249.33,-135.3"/>
</g>
</g>
</svg>
