<?xml version="1.0" encoding="UTF-8" standalone="no"?>
<!DOCTYPE svg PUBLIC "-//W3C//DTD SVG 1.1//EN"
 "http://www.w3.org/Graphics/SVG/1.1/DTD/svg11.dtd">
<!-- Generated by graphviz version 2.47.3 (20210619.1520)
 -->
<!-- Title: dependencies Pages: 1 -->
<svg width="454pt" height="174pt"
 viewBox="0.00 0.00 454.00 173.80" xmlns="http://www.w3.org/2000/svg" xmlns:xlink="http://www.w3.org/1999/xlink">
<g id="graph0" class="graph" transform="scale(1 1) rotate(0) translate(4 169.8)">
<title>dependencies</title>
<polygon fill="white" stroke="transparent" points="-4,4 -4,-169.8 450,-169.8 450,4 -4,4"/>
<text text-anchor="middle" x="223" y="-8.2" font-family="sans-serif" font-size="14.00">dependencies</text>
<g id="clust1" class="cluster">
<title>cluster_ColorsModule</title>
<polygon fill="none" stroke="black" stroke-dasharray="1,5" points="8,-32.8 8,-157.8 438,-157.8 438,-32.8 8,-32.8"/>
</g>
<g id="clust2" class="cluster">
<title>cluster_ColorsModule_declarations</title>
<polygon fill="none" stroke="black" points="296,-40.8 296,-92.8 430,-92.8 430,-40.8 296,-40.8"/>
</g>
<g id="clust4" class="cluster">
<title>cluster_ColorsModule_imports</title>
<polygon fill="none" stroke="black" points="16,-40.8 16,-92.8 288,-92.8 288,-40.8 16,-40.8"/>
</g>
<!-- ColorsComponent -->
<g id="node1" class="node">
<title>ColorsComponent</title>
<polygon fill="#ffffb3" stroke="black" points="422.17,-84.8 303.83,-84.8 303.83,-48.8 422.17,-48.8 422.17,-84.8"/>
<text text-anchor="middle" x="363" y="-62.6" font-family="Times,serif" font-size="14.00">ColorsComponent</text>
</g>
<!-- ColorsModule -->
<g id="node2" class="node">
<title>ColorsModule</title>
<polygon fill="#8dd3c7" stroke="black" points="258.38,-149.8 255.38,-153.8 234.38,-153.8 231.38,-149.8 161.62,-149.8 161.62,-113.8 258.38,-113.8 258.38,-149.8"/>
<text text-anchor="middle" x="210" y="-127.6" font-family="Times,serif" font-size="14.00">ColorsModule</text>
</g>
<!-- ColorsComponent&#45;&gt;ColorsModule -->
<g id="edge1" class="edge">
<title>ColorsComponent&#45;&gt;ColorsModule</title>
<path fill="none" stroke="black" d="M363,-84.91C363,-104.14 363,-131.8 363,-131.8 363,-131.8 268.41,-131.8 268.41,-131.8"/>
<polygon fill="black" stroke="black" points="268.41,-128.3 258.41,-131.8 268.41,-135.3 268.41,-128.3"/>
</g>
<!-- FuseHighlightModule -->
<g id="node3" class="node">
<title>FuseHighlightModule</title>
<polygon fill="#8dd3c7" stroke="black" points="279.66,-84.8 276.66,-88.8 255.66,-88.8 252.66,-84.8 140.34,-84.8 140.34,-48.8 279.66,-48.8 279.66,-84.8"/>
<text text-anchor="middle" x="210" y="-62.6" font-family="Times,serif" font-size="14.00">FuseHighlightModule</text>
</g>
<!-- FuseHighlightModule&#45;&gt;ColorsModule -->
<g id="edge2" class="edge">
<title>FuseHighlightModule&#45;&gt;ColorsModule</title>
<path fill="none" stroke="black" d="M210,-84.91C210,-84.91 210,-103.79 210,-103.79"/>
<polygon fill="black" stroke="black" points="206.5,-103.79 210,-113.79 213.5,-103.79 206.5,-103.79"/>
</g>
<!-- SharedModule -->
<g id="node4" class="node">
<title>SharedModule</title>
<polygon fill="#8dd3c7" stroke="black" points="122.42,-84.8 119.42,-88.8 98.42,-88.8 95.42,-84.8 23.58,-84.8 23.58,-48.8 122.42,-48.8 122.42,-84.8"/>
<text text-anchor="middle" x="73" y="-62.6" font-family="Times,serif" font-size="14.00">SharedModule</text>
</g>
<!-- SharedModule&#45;&gt;ColorsModule -->
<g id="edge3" class="edge">
<title>SharedModule&#45;&gt;ColorsModule</title>
<path fill="none" stroke="black" d="M73,-84.91C73,-104.14 73,-131.8 73,-131.8 73,-131.8 151.31,-131.8 151.31,-131.8"/>
<polygon fill="black" stroke="black" points="151.31,-135.3 161.31,-131.8 151.31,-128.3 151.31,-135.3"/>
</g>
</g>
</svg>
