<?xml version="1.0" encoding="UTF-8" standalone="no"?>
<!DOCTYPE svg PUBLIC "-//W3C//DTD SVG 1.1//EN"
 "http://www.w3.org/Graphics/SVG/1.1/DTD/svg11.dtd">
<!-- Generated by graphviz version 2.47.3 (20210619.1520)
 -->
<!-- Title: dependencies Pages: 1 -->
<svg width="1781pt" height="174pt"
 viewBox="0.00 0.00 1781.00 173.80" xmlns="http://www.w3.org/2000/svg" xmlns:xlink="http://www.w3.org/1999/xlink">
<g id="graph0" class="graph" transform="scale(1 1) rotate(0) translate(4 169.8)">
<title>dependencies</title>
<polygon fill="white" stroke="transparent" points="-4,4 -4,-169.8 1777,-169.8 1777,4 -4,4"/>
<text text-anchor="middle" x="886.5" y="-8.2" font-family="sans-serif" font-size="14.00">dependencies</text>
<g id="clust1" class="cluster">
<title>cluster_SignInModule</title>
<polygon fill="none" stroke="black" stroke-dasharray="1,5" points="8,-32.8 8,-157.8 1765,-157.8 1765,-32.8 8,-32.8"/>
</g>
<g id="clust10" class="cluster">
<title>cluster_SignInModule_imports</title>
<polygon fill="none" stroke="black" points="1510,-40.8 1510,-92.8 1757,-92.8 1757,-40.8 1510,-40.8"/>
</g>
<g id="clust2" class="cluster">
<title>cluster_SignInModule_declarations</title>
<polygon fill="none" stroke="black" points="16,-40.8 16,-92.8 1502,-92.8 1502,-40.8 16,-40.8"/>
</g>
<!-- SignInClassicComponent -->
<g id="node1" class="node">
<title>SignInClassicComponent</title>
<polygon fill="#ffffb3" stroke="black" points="1493.6,-84.8 1334.4,-84.8 1334.4,-48.8 1493.6,-48.8 1493.6,-84.8"/>
<text text-anchor="middle" x="1414" y="-62.6" font-family="Times,serif" font-size="14.00">SignInClassicComponent</text>
</g>
<!-- SignInModule -->
<g id="node8" class="node">
<title>SignInModule</title>
<polygon fill="#8dd3c7" stroke="black" points="1055.38,-149.8 1052.38,-153.8 1031.38,-153.8 1028.38,-149.8 958.62,-149.8 958.62,-113.8 1055.38,-113.8 1055.38,-149.8"/>
<text text-anchor="middle" x="1007" y="-127.6" font-family="Times,serif" font-size="14.00">SignInModule</text>
</g>
<!-- SignInClassicComponent&#45;&gt;SignInModule -->
<g id="edge1" class="edge">
<title>SignInClassicComponent&#45;&gt;SignInModule</title>
<path fill="none" stroke="black" d="M1414,-85.07C1414,-103.36 1414,-128.8 1414,-128.8 1414,-128.8 1065.69,-128.8 1065.69,-128.8"/>
<polygon fill="black" stroke="black" points="1065.69,-125.3 1055.69,-128.8 1065.69,-132.3 1065.69,-125.3"/>
</g>
<!-- SignInFullscreenComponent -->
<g id="node2" class="node">
<title>SignInFullscreenComponent</title>
<polygon fill="#ffffb3" stroke="black" points="1316.48,-84.8 1139.52,-84.8 1139.52,-48.8 1316.48,-48.8 1316.48,-84.8"/>
<text text-anchor="middle" x="1228" y="-62.6" font-family="Times,serif" font-size="14.00">SignInFullscreenComponent</text>
</g>
<!-- SignInFullscreenComponent&#45;&gt;SignInModule -->
<g id="edge2" class="edge">
<title>SignInFullscreenComponent&#45;&gt;SignInModule</title>
<path fill="none" stroke="black" d="M1228,-84.81C1228,-100.85 1228,-121.8 1228,-121.8 1228,-121.8 1065.5,-121.8 1065.5,-121.8"/>
<polygon fill="black" stroke="black" points="1065.5,-118.3 1055.5,-121.8 1065.5,-125.3 1065.5,-118.3"/>
</g>
<!-- SignInFullscreenReversedComponent -->
<g id="node3" class="node">
<title>SignInFullscreenReversedComponent</title>
<polygon fill="#ffffb3" stroke="black" points="1121.56,-84.8 892.44,-84.8 892.44,-48.8 1121.56,-48.8 1121.56,-84.8"/>
<text text-anchor="middle" x="1007" y="-62.6" font-family="Times,serif" font-size="14.00">SignInFullscreenReversedComponent</text>
</g>
<!-- SignInFullscreenReversedComponent&#45;&gt;SignInModule -->
<g id="edge3" class="edge">
<title>SignInFullscreenReversedComponent&#45;&gt;SignInModule</title>
<path fill="none" stroke="black" d="M1007,-84.91C1007,-84.91 1007,-103.79 1007,-103.79"/>
<polygon fill="black" stroke="black" points="1003.5,-103.79 1007,-113.79 1010.5,-103.79 1003.5,-103.79"/>
</g>
<!-- SignInModernComponent -->
<g id="node4" class="node">
<title>SignInModernComponent</title>
<polygon fill="#ffffb3" stroke="black" points="874.49,-84.8 711.51,-84.8 711.51,-48.8 874.49,-48.8 874.49,-84.8"/>
<text text-anchor="middle" x="793" y="-62.6" font-family="Times,serif" font-size="14.00">SignInModernComponent</text>
</g>
<!-- SignInModernComponent&#45;&gt;SignInModule -->
<g id="edge4" class="edge">
<title>SignInModernComponent&#45;&gt;SignInModule</title>
<path fill="none" stroke="black" d="M793,-84.81C793,-100.85 793,-121.8 793,-121.8 793,-121.8 948.44,-121.8 948.44,-121.8"/>
<polygon fill="black" stroke="black" points="948.44,-125.3 958.44,-121.8 948.44,-118.3 948.44,-125.3"/>
</g>
<!-- SignInModernReversedComponent -->
<g id="node5" class="node">
<title>SignInModernReversedComponent</title>
<polygon fill="#ffffb3" stroke="black" points="693.57,-84.8 478.43,-84.8 478.43,-48.8 693.57,-48.8 693.57,-84.8"/>
<text text-anchor="middle" x="586" y="-62.6" font-family="Times,serif" font-size="14.00">SignInModernReversedComponent</text>
</g>
<!-- SignInModernReversedComponent&#45;&gt;SignInModule -->
<g id="edge5" class="edge">
<title>SignInModernReversedComponent&#45;&gt;SignInModule</title>
<path fill="none" stroke="black" d="M586,-85.07C586,-103.36 586,-128.8 586,-128.8 586,-128.8 948.29,-128.8 948.29,-128.8"/>
<polygon fill="black" stroke="black" points="948.29,-132.3 958.29,-128.8 948.29,-125.3 948.29,-132.3"/>
</g>
<!-- SignInSplitScreenComponent -->
<g id="node6" class="node">
<title>SignInSplitScreenComponent</title>
<polygon fill="#ffffb3" stroke="black" points="460.71,-84.8 277.29,-84.8 277.29,-48.8 460.71,-48.8 460.71,-84.8"/>
<text text-anchor="middle" x="369" y="-62.6" font-family="Times,serif" font-size="14.00">SignInSplitScreenComponent</text>
</g>
<!-- SignInSplitScreenComponent&#45;&gt;SignInModule -->
<g id="edge6" class="edge">
<title>SignInSplitScreenComponent&#45;&gt;SignInModule</title>
<path fill="none" stroke="black" d="M369,-84.93C369,-105.37 369,-135.8 369,-135.8 369,-135.8 948.52,-135.8 948.52,-135.8"/>
<polygon fill="black" stroke="black" points="948.52,-139.3 958.52,-135.8 948.52,-132.3 948.52,-139.3"/>
</g>
<!-- SignInSplitScreenReversedComponent -->
<g id="node7" class="node">
<title>SignInSplitScreenReversedComponent</title>
<polygon fill="#ffffb3" stroke="black" points="259.79,-84.8 24.21,-84.8 24.21,-48.8 259.79,-48.8 259.79,-84.8"/>
<text text-anchor="middle" x="142" y="-62.6" font-family="Times,serif" font-size="14.00">SignInSplitScreenReversedComponent</text>
</g>
<!-- SignInSplitScreenReversedComponent&#45;&gt;SignInModule -->
<g id="edge7" class="edge">
<title>SignInSplitScreenReversedComponent&#45;&gt;SignInModule</title>
<path fill="none" stroke="black" d="M142,-84.81C142,-107.29 142,-142.8 142,-142.8 142,-142.8 948.33,-142.8 948.33,-142.8"/>
<polygon fill="black" stroke="black" points="948.33,-146.3 958.33,-142.8 948.33,-139.3 948.33,-146.3"/>
</g>
<!-- FuseAlertModule -->
<g id="node9" class="node">
<title>FuseAlertModule</title>
<polygon fill="#8dd3c7" stroke="black" points="1749.25,-84.8 1746.25,-88.8 1725.25,-88.8 1722.25,-84.8 1634.75,-84.8 1634.75,-48.8 1749.25,-48.8 1749.25,-84.8"/>
<text text-anchor="middle" x="1692" y="-62.6" font-family="Times,serif" font-size="14.00">FuseAlertModule</text>
</g>
<!-- FuseAlertModule&#45;&gt;SignInModule -->
<g id="edge8" class="edge">
<title>FuseAlertModule&#45;&gt;SignInModule</title>
<path fill="none" stroke="black" d="M1692,-84.81C1692,-107.29 1692,-142.8 1692,-142.8 1692,-142.8 1065.44,-142.8 1065.44,-142.8"/>
<polygon fill="black" stroke="black" points="1065.44,-139.3 1055.44,-142.8 1065.44,-146.3 1065.44,-139.3"/>
</g>
<!-- SharedModule -->
<g id="node10" class="node">
<title>SharedModule</title>
<polygon fill="#8dd3c7" stroke="black" points="1616.42,-84.8 1613.42,-88.8 1592.42,-88.8 1589.42,-84.8 1517.58,-84.8 1517.58,-48.8 1616.42,-48.8 1616.42,-84.8"/>
<text text-anchor="middle" x="1567" y="-62.6" font-family="Times,serif" font-size="14.00">SharedModule</text>
</g>
<!-- SharedModule&#45;&gt;SignInModule -->
<g id="edge9" class="edge">
<title>SharedModule&#45;&gt;SignInModule</title>
<path fill="none" stroke="black" d="M1567,-84.93C1567,-105.37 1567,-135.8 1567,-135.8 1567,-135.8 1065.72,-135.8 1065.72,-135.8"/>
<polygon fill="black" stroke="black" points="1065.72,-132.3 1055.72,-135.8 1065.72,-139.3 1065.72,-132.3"/>
</g>
</g>
</svg>
