<?xml version="1.0" encoding="UTF-8" standalone="no"?>
<!DOCTYPE svg PUBLIC "-//W3C//DTD SVG 1.1//EN"
 "http://www.w3.org/Graphics/SVG/1.1/DTD/svg11.dtd">
<!-- Generated by graphviz version 2.47.3 (20210619.1520)
 -->
<!-- Title: dependencies Pages: 1 -->
<svg width="490pt" height="174pt"
 viewBox="0.00 0.00 490.00 173.80" xmlns="http://www.w3.org/2000/svg" xmlns:xlink="http://www.w3.org/1999/xlink">
<g id="graph0" class="graph" transform="scale(1 1) rotate(0) translate(4 169.8)">
<title>dependencies</title>
<polygon fill="white" stroke="transparent" points="-4,4 -4,-169.8 486,-169.8 486,4 -4,4"/>
<text text-anchor="middle" x="241" y="-8.2" font-family="sans-serif" font-size="14.00">dependencies</text>
<g id="clust1" class="cluster">
<title>cluster_ECommerceModule</title>
<polygon fill="none" stroke="black" stroke-dasharray="1,5" points="8,-32.8 8,-157.8 474,-157.8 474,-32.8 8,-32.8"/>
</g>
<g id="clust2" class="cluster">
<title>cluster_ECommerceModule_declarations</title>
<polygon fill="none" stroke="black" points="138,-40.8 138,-92.8 466,-92.8 466,-40.8 138,-40.8"/>
</g>
<g id="clust5" class="cluster">
<title>cluster_ECommerceModule_imports</title>
<polygon fill="none" stroke="black" points="16,-40.8 16,-92.8 130,-92.8 130,-40.8 16,-40.8"/>
</g>
<!-- InventoryComponent -->
<g id="node1" class="node">
<title>InventoryComponent</title>
<polygon fill="#ffffb3" stroke="black" points="457.76,-84.8 322.24,-84.8 322.24,-48.8 457.76,-48.8 457.76,-84.8"/>
<text text-anchor="middle" x="390" y="-62.6" font-family="Times,serif" font-size="14.00">InventoryComponent</text>
</g>
<!-- ECommerceModule -->
<g id="node3" class="node">
<title>ECommerceModule</title>
<polygon fill="#8dd3c7" stroke="black" points="289.53,-149.8 286.53,-153.8 265.53,-153.8 262.53,-149.8 160.47,-149.8 160.47,-113.8 289.53,-113.8 289.53,-149.8"/>
<text text-anchor="middle" x="225" y="-127.6" font-family="Times,serif" font-size="14.00">ECommerceModule</text>
</g>
<!-- InventoryComponent&#45;&gt;ECommerceModule -->
<g id="edge1" class="edge">
<title>InventoryComponent&#45;&gt;ECommerceModule</title>
<path fill="none" stroke="black" d="M390,-84.91C390,-104.14 390,-131.8 390,-131.8 390,-131.8 299.74,-131.8 299.74,-131.8"/>
<polygon fill="black" stroke="black" points="299.74,-128.3 289.74,-131.8 299.74,-135.3 299.74,-128.3"/>
</g>
<!-- InventoryListComponent -->
<g id="node2" class="node">
<title>InventoryListComponent</title>
<polygon fill="#ffffb3" stroke="black" points="303.54,-84.8 146.46,-84.8 146.46,-48.8 303.54,-48.8 303.54,-84.8"/>
<text text-anchor="middle" x="225" y="-62.6" font-family="Times,serif" font-size="14.00">InventoryListComponent</text>
</g>
<!-- InventoryListComponent&#45;&gt;ECommerceModule -->
<g id="edge2" class="edge">
<title>InventoryListComponent&#45;&gt;ECommerceModule</title>
<path fill="none" stroke="black" d="M225,-84.91C225,-84.91 225,-103.79 225,-103.79"/>
<polygon fill="black" stroke="black" points="221.5,-103.79 225,-113.79 228.5,-103.79 221.5,-103.79"/>
</g>
<!-- SharedModule -->
<g id="node4" class="node">
<title>SharedModule</title>
<polygon fill="#8dd3c7" stroke="black" points="122.42,-84.8 119.42,-88.8 98.42,-88.8 95.42,-84.8 23.58,-84.8 23.58,-48.8 122.42,-48.8 122.42,-84.8"/>
<text text-anchor="middle" x="73" y="-62.6" font-family="Times,serif" font-size="14.00">SharedModule</text>
</g>
<!-- SharedModule&#45;&gt;ECommerceModule -->
<g id="edge3" class="edge">
<title>SharedModule&#45;&gt;ECommerceModule</title>
<path fill="none" stroke="black" d="M73,-84.91C73,-104.14 73,-131.8 73,-131.8 73,-131.8 150.1,-131.8 150.1,-131.8"/>
<polygon fill="black" stroke="black" points="150.1,-135.3 160.1,-131.8 150.1,-128.3 150.1,-135.3"/>
</g>
</g>
</svg>
