<?xml version="1.0" encoding="UTF-8" standalone="no"?>
<!DOCTYPE svg PUBLIC "-//W3C//DTD SVG 1.1//EN"
 "http://www.w3.org/Graphics/SVG/1.1/DTD/svg11.dtd">
<!-- Generated by graphviz version 2.47.3 (20210619.1520)
 -->
<!-- Title: dependencies Pages: 1 -->
<svg width="312pt" height="174pt"
 viewBox="0.00 0.00 312.00 173.80" xmlns="http://www.w3.org/2000/svg" xmlns:xlink="http://www.w3.org/1999/xlink">
<g id="graph0" class="graph" transform="scale(1 1) rotate(0) translate(4 169.8)">
<title>dependencies</title>
<polygon fill="white" stroke="transparent" points="-4,4 -4,-169.8 308,-169.8 308,4 -4,4"/>
<text text-anchor="middle" x="152" y="-8.2" font-family="sans-serif" font-size="14.00">dependencies</text>
<g id="clust1" class="cluster">
<title>cluster_AnalyticsModule</title>
<polygon fill="none" stroke="black" stroke-dasharray="1,5" points="8,-32.8 8,-157.8 296,-157.8 296,-32.8 8,-32.8"/>
</g>
<g id="clust2" class="cluster">
<title>cluster_AnalyticsModule_declarations</title>
<polygon fill="none" stroke="black" points="138,-40.8 138,-92.8 288,-92.8 288,-40.8 138,-40.8"/>
</g>
<g id="clust4" class="cluster">
<title>cluster_AnalyticsModule_imports</title>
<polygon fill="none" stroke="black" points="16,-40.8 16,-92.8 130,-92.8 130,-40.8 16,-40.8"/>
</g>
<!-- AnalyticsComponent -->
<g id="node1" class="node">
<title>AnalyticsComponent</title>
<polygon fill="#ffffb3" stroke="black" points="280.48,-84.8 145.52,-84.8 145.52,-48.8 280.48,-48.8 280.48,-84.8"/>
<text text-anchor="middle" x="213" y="-62.6" font-family="Times,serif" font-size="14.00">AnalyticsComponent</text>
</g>
<!-- AnalyticsModule -->
<g id="node2" class="node">
<title>AnalyticsModule</title>
<polygon fill="#8dd3c7" stroke="black" points="199.7,-149.8 196.7,-153.8 175.7,-153.8 172.7,-149.8 86.3,-149.8 86.3,-113.8 199.7,-113.8 199.7,-149.8"/>
<text text-anchor="middle" x="143" y="-127.6" font-family="Times,serif" font-size="14.00">AnalyticsModule</text>
</g>
<!-- AnalyticsComponent&#45;&gt;AnalyticsModule -->
<g id="edge1" class="edge">
<title>AnalyticsComponent&#45;&gt;AnalyticsModule</title>
<path fill="none" stroke="black" d="M172.55,-84.91C172.55,-84.91 172.55,-103.79 172.55,-103.79"/>
<polygon fill="black" stroke="black" points="169.05,-103.79 172.55,-113.79 176.05,-103.79 169.05,-103.79"/>
</g>
<!-- SharedModule -->
<g id="node3" class="node">
<title>SharedModule</title>
<polygon fill="#8dd3c7" stroke="black" points="122.42,-84.8 119.42,-88.8 98.42,-88.8 95.42,-84.8 23.58,-84.8 23.58,-48.8 122.42,-48.8 122.42,-84.8"/>
<text text-anchor="middle" x="73" y="-62.6" font-family="Times,serif" font-size="14.00">SharedModule</text>
</g>
<!-- SharedModule&#45;&gt;AnalyticsModule -->
<g id="edge2" class="edge">
<title>SharedModule&#45;&gt;AnalyticsModule</title>
<path fill="none" stroke="black" d="M104.31,-84.91C104.31,-84.91 104.31,-103.79 104.31,-103.79"/>
<polygon fill="black" stroke="black" points="100.81,-103.79 104.31,-113.79 107.81,-103.79 100.81,-103.79"/>
</g>
</g>
</svg>
