<?xml version="1.0" encoding="UTF-8" standalone="no"?>
<!DOCTYPE svg PUBLIC "-//W3C//DTD SVG 1.1//EN"
 "http://www.w3.org/Graphics/SVG/1.1/DTD/svg11.dtd">
<!-- Generated by graphviz version 2.47.3 (20210619.1520)
 -->
<!-- Title: dependencies Pages: 1 -->
<svg width="642pt" height="174pt"
 viewBox="0.00 0.00 642.00 173.80" xmlns="http://www.w3.org/2000/svg" xmlns:xlink="http://www.w3.org/1999/xlink">
<g id="graph0" class="graph" transform="scale(1 1) rotate(0) translate(4 169.8)">
<title>dependencies</title>
<polygon fill="white" stroke="transparent" points="-4,4 -4,-169.8 638,-169.8 638,4 -4,4"/>
<text text-anchor="middle" x="317" y="-8.2" font-family="sans-serif" font-size="14.00">dependencies</text>
<g id="clust1" class="cluster">
<title>cluster_AuthForgotPasswordModule</title>
<polygon fill="none" stroke="black" stroke-dasharray="1,5" points="8,-32.8 8,-157.8 626,-157.8 626,-32.8 8,-32.8"/>
</g>
<g id="clust2" class="cluster">
<title>cluster_AuthForgotPasswordModule_declarations</title>
<polygon fill="none" stroke="black" points="402,-40.8 402,-92.8 618,-92.8 618,-40.8 402,-40.8"/>
</g>
<g id="clust4" class="cluster">
<title>cluster_AuthForgotPasswordModule_imports</title>
<polygon fill="none" stroke="black" points="16,-40.8 16,-92.8 394,-92.8 394,-40.8 16,-40.8"/>
</g>
<!-- AuthForgotPasswordComponent -->
<g id="node1" class="node">
<title>AuthForgotPasswordComponent</title>
<polygon fill="#ffffb3" stroke="black" points="610.32,-84.8 409.68,-84.8 409.68,-48.8 610.32,-48.8 610.32,-84.8"/>
<text text-anchor="middle" x="510" y="-62.6" font-family="Times,serif" font-size="14.00">AuthForgotPasswordComponent</text>
</g>
<!-- AuthForgotPasswordModule -->
<g id="node2" class="node">
<title>AuthForgotPasswordModule</title>
<polygon fill="#8dd3c7" stroke="black" points="352.04,-149.8 349.04,-153.8 328.04,-153.8 325.04,-149.8 173.96,-149.8 173.96,-113.8 352.04,-113.8 352.04,-149.8"/>
<text text-anchor="middle" x="263" y="-127.6" font-family="Times,serif" font-size="14.00">AuthForgotPasswordModule</text>
</g>
<!-- AuthForgotPasswordComponent&#45;&gt;AuthForgotPasswordModule -->
<g id="edge1" class="edge">
<title>AuthForgotPasswordComponent&#45;&gt;AuthForgotPasswordModule</title>
<path fill="none" stroke="black" d="M510,-84.91C510,-104.14 510,-131.8 510,-131.8 510,-131.8 362.17,-131.8 362.17,-131.8"/>
<polygon fill="black" stroke="black" points="362.17,-128.3 352.17,-131.8 362.17,-135.3 362.17,-128.3"/>
</g>
<!-- FuseAlertModule -->
<g id="node3" class="node">
<title>FuseAlertModule</title>
<polygon fill="#8dd3c7" stroke="black" points="386.25,-84.8 383.25,-88.8 362.25,-88.8 359.25,-84.8 271.75,-84.8 271.75,-48.8 386.25,-48.8 386.25,-84.8"/>
<text text-anchor="middle" x="329" y="-62.6" font-family="Times,serif" font-size="14.00">FuseAlertModule</text>
</g>
<!-- FuseAlertModule&#45;&gt;AuthForgotPasswordModule -->
<g id="edge2" class="edge">
<title>FuseAlertModule&#45;&gt;AuthForgotPasswordModule</title>
<path fill="none" stroke="black" d="M311.94,-84.91C311.94,-84.91 311.94,-103.79 311.94,-103.79"/>
<polygon fill="black" stroke="black" points="308.45,-103.79 311.94,-113.79 315.45,-103.79 308.45,-103.79"/>
</g>
<!-- FuseCardModule -->
<g id="node4" class="node">
<title>FuseCardModule</title>
<polygon fill="#8dd3c7" stroke="black" points="253.7,-84.8 250.7,-88.8 229.7,-88.8 226.7,-84.8 140.3,-84.8 140.3,-48.8 253.7,-48.8 253.7,-84.8"/>
<text text-anchor="middle" x="197" y="-62.6" font-family="Times,serif" font-size="14.00">FuseCardModule</text>
</g>
<!-- FuseCardModule&#45;&gt;AuthForgotPasswordModule -->
<g id="edge3" class="edge">
<title>FuseCardModule&#45;&gt;AuthForgotPasswordModule</title>
<path fill="none" stroke="black" d="M213.67,-84.91C213.67,-84.91 213.67,-103.79 213.67,-103.79"/>
<polygon fill="black" stroke="black" points="210.17,-103.79 213.67,-113.79 217.17,-103.79 210.17,-103.79"/>
</g>
<!-- SharedModule -->
<g id="node5" class="node">
<title>SharedModule</title>
<polygon fill="#8dd3c7" stroke="black" points="122.42,-84.8 119.42,-88.8 98.42,-88.8 95.42,-84.8 23.58,-84.8 23.58,-48.8 122.42,-48.8 122.42,-84.8"/>
<text text-anchor="middle" x="73" y="-62.6" font-family="Times,serif" font-size="14.00">SharedModule</text>
</g>
<!-- SharedModule&#45;&gt;AuthForgotPasswordModule -->
<g id="edge4" class="edge">
<title>SharedModule&#45;&gt;AuthForgotPasswordModule</title>
<path fill="none" stroke="black" d="M73,-84.91C73,-104.14 73,-131.8 73,-131.8 73,-131.8 163.84,-131.8 163.84,-131.8"/>
<polygon fill="black" stroke="black" points="163.84,-135.3 173.84,-131.8 163.84,-128.3 163.84,-135.3"/>
</g>
</g>
</svg>
