<?xml version="1.0" encoding="UTF-8" standalone="no"?>
<!DOCTYPE svg PUBLIC "-//W3C//DTD SVG 1.1//EN"
 "http://www.w3.org/Graphics/SVG/1.1/DTD/svg11.dtd">
<!-- Generated by graphviz version 2.47.3 (20210619.1520)
 -->
<!-- Title: dependencies Pages: 1 -->
<svg width="546pt" height="174pt"
 viewBox="0.00 0.00 546.00 173.80" xmlns="http://www.w3.org/2000/svg" xmlns:xlink="http://www.w3.org/1999/xlink">
<g id="graph0" class="graph" transform="scale(1 1) rotate(0) translate(4 169.8)">
<title>dependencies</title>
<polygon fill="white" stroke="transparent" points="-4,4 -4,-169.8 542,-169.8 542,4 -4,4"/>
<text text-anchor="middle" x="269" y="-8.2" font-family="sans-serif" font-size="14.00">dependencies</text>
<g id="clust1" class="cluster">
<title>cluster_AuthConfirmationRequiredModule</title>
<polygon fill="none" stroke="black" stroke-dasharray="1,5" points="8,-32.8 8,-157.8 530,-157.8 530,-32.8 8,-32.8"/>
</g>
<g id="clust2" class="cluster">
<title>cluster_AuthConfirmationRequiredModule_declarations</title>
<polygon fill="none" stroke="black" points="270,-40.8 270,-92.8 522,-92.8 522,-40.8 270,-40.8"/>
</g>
<g id="clust4" class="cluster">
<title>cluster_AuthConfirmationRequiredModule_imports</title>
<polygon fill="none" stroke="black" points="16,-40.8 16,-92.8 262,-92.8 262,-40.8 16,-40.8"/>
</g>
<!-- AuthConfirmationRequiredComponent -->
<g id="node1" class="node">
<title>AuthConfirmationRequiredComponent</title>
<polygon fill="#ffffb3" stroke="black" points="514.08,-84.8 277.92,-84.8 277.92,-48.8 514.08,-48.8 514.08,-84.8"/>
<text text-anchor="middle" x="396" y="-62.6" font-family="Times,serif" font-size="14.00">AuthConfirmationRequiredComponent</text>
</g>
<!-- AuthConfirmationRequiredModule -->
<g id="node2" class="node">
<title>AuthConfirmationRequiredModule</title>
<polygon fill="#8dd3c7" stroke="black" points="304.3,-149.8 301.3,-153.8 280.3,-153.8 277.3,-149.8 89.7,-149.8 89.7,-113.8 304.3,-113.8 304.3,-149.8"/>
<text text-anchor="middle" x="197" y="-127.6" font-family="Times,serif" font-size="14.00">AuthConfirmationRequiredModule</text>
</g>
<!-- AuthConfirmationRequiredComponent&#45;&gt;AuthConfirmationRequiredModule -->
<g id="edge1" class="edge">
<title>AuthConfirmationRequiredComponent&#45;&gt;AuthConfirmationRequiredModule</title>
<path fill="none" stroke="black" d="M291.05,-84.91C291.05,-84.91 291.05,-103.79 291.05,-103.79"/>
<polygon fill="black" stroke="black" points="287.55,-103.79 291.05,-113.79 294.55,-103.79 287.55,-103.79"/>
</g>
<!-- FuseCardModule -->
<g id="node3" class="node">
<title>FuseCardModule</title>
<polygon fill="#8dd3c7" stroke="black" points="253.7,-84.8 250.7,-88.8 229.7,-88.8 226.7,-84.8 140.3,-84.8 140.3,-48.8 253.7,-48.8 253.7,-84.8"/>
<text text-anchor="middle" x="197" y="-62.6" font-family="Times,serif" font-size="14.00">FuseCardModule</text>
</g>
<!-- FuseCardModule&#45;&gt;AuthConfirmationRequiredModule -->
<g id="edge2" class="edge">
<title>FuseCardModule&#45;&gt;AuthConfirmationRequiredModule</title>
<path fill="none" stroke="black" d="M197,-84.91C197,-84.91 197,-103.79 197,-103.79"/>
<polygon fill="black" stroke="black" points="193.5,-103.79 197,-113.79 200.5,-103.79 193.5,-103.79"/>
</g>
<!-- SharedModule -->
<g id="node4" class="node">
<title>SharedModule</title>
<polygon fill="#8dd3c7" stroke="black" points="122.42,-84.8 119.42,-88.8 98.42,-88.8 95.42,-84.8 23.58,-84.8 23.58,-48.8 122.42,-48.8 122.42,-84.8"/>
<text text-anchor="middle" x="73" y="-62.6" font-family="Times,serif" font-size="14.00">SharedModule</text>
</g>
<!-- SharedModule&#45;&gt;AuthConfirmationRequiredModule -->
<g id="edge3" class="edge">
<title>SharedModule&#45;&gt;AuthConfirmationRequiredModule</title>
<path fill="none" stroke="black" d="M106.03,-84.91C106.03,-84.91 106.03,-103.79 106.03,-103.79"/>
<polygon fill="black" stroke="black" points="102.53,-103.79 106.03,-113.79 109.53,-103.79 102.53,-103.79"/>
</g>
</g>
</svg>
