<?xml version="1.0" encoding="UTF-8" standalone="no"?>
<!DOCTYPE svg PUBLIC "-//W3C//DTD SVG 1.1//EN"
 "http://www.w3.org/Graphics/SVG/1.1/DTD/svg11.dtd">
<!-- Generated by graphviz version 2.47.3 (20210619.1520)
 -->
<!-- Title: dependencies Pages: 1 -->
<svg width="334pt" height="174pt"
 viewBox="0.00 0.00 334.00 173.80" xmlns="http://www.w3.org/2000/svg" xmlns:xlink="http://www.w3.org/1999/xlink">
<g id="graph0" class="graph" transform="scale(1 1) rotate(0) translate(4 169.8)">
<title>dependencies</title>
<polygon fill="white" stroke="transparent" points="-4,4 -4,-169.8 330,-169.8 330,4 -4,4"/>
<text text-anchor="middle" x="163" y="-8.2" font-family="sans-serif" font-size="14.00">dependencies</text>
<g id="clust1" class="cluster">
<title>cluster_TailwindCSSModule</title>
<polygon fill="none" stroke="black" stroke-dasharray="1,5" points="8,-32.8 8,-157.8 318,-157.8 318,-32.8 8,-32.8"/>
</g>
<g id="clust2" class="cluster">
<title>cluster_TailwindCSSModule_declarations</title>
<polygon fill="none" stroke="black" points="138,-40.8 138,-92.8 310,-92.8 310,-40.8 138,-40.8"/>
</g>
<g id="clust4" class="cluster">
<title>cluster_TailwindCSSModule_imports</title>
<polygon fill="none" stroke="black" points="16,-40.8 16,-92.8 130,-92.8 130,-40.8 16,-40.8"/>
</g>
<!-- TailwindCSSComponent -->
<g id="node1" class="node">
<title>TailwindCSSComponent</title>
<polygon fill="#ffffb3" stroke="black" points="302.28,-84.8 145.72,-84.8 145.72,-48.8 302.28,-48.8 302.28,-84.8"/>
<text text-anchor="middle" x="224" y="-62.6" font-family="Times,serif" font-size="14.00">TailwindCSSComponent</text>
</g>
<!-- TailwindCSSModule -->
<g id="node2" class="node">
<title>TailwindCSSModule</title>
<polygon fill="#8dd3c7" stroke="black" points="220.5,-149.8 217.5,-153.8 196.5,-153.8 193.5,-149.8 85.5,-149.8 85.5,-113.8 220.5,-113.8 220.5,-149.8"/>
<text text-anchor="middle" x="153" y="-127.6" font-family="Times,serif" font-size="14.00">TailwindCSSModule</text>
</g>
<!-- TailwindCSSComponent&#45;&gt;TailwindCSSModule -->
<g id="edge1" class="edge">
<title>TailwindCSSComponent&#45;&gt;TailwindCSSModule</title>
<path fill="none" stroke="black" d="M183.05,-84.91C183.05,-84.91 183.05,-103.79 183.05,-103.79"/>
<polygon fill="black" stroke="black" points="179.55,-103.79 183.05,-113.79 186.55,-103.79 179.55,-103.79"/>
</g>
<!-- SharedModule -->
<g id="node3" class="node">
<title>SharedModule</title>
<polygon fill="#8dd3c7" stroke="black" points="122.42,-84.8 119.42,-88.8 98.42,-88.8 95.42,-84.8 23.58,-84.8 23.58,-48.8 122.42,-48.8 122.42,-84.8"/>
<text text-anchor="middle" x="73" y="-62.6" font-family="Times,serif" font-size="14.00">SharedModule</text>
</g>
<!-- SharedModule&#45;&gt;TailwindCSSModule -->
<g id="edge2" class="edge">
<title>SharedModule&#45;&gt;TailwindCSSModule</title>
<path fill="none" stroke="black" d="M103.86,-84.91C103.86,-84.91 103.86,-103.79 103.86,-103.79"/>
<polygon fill="black" stroke="black" points="100.36,-103.79 103.86,-113.79 107.36,-103.79 100.36,-103.79"/>
</g>
</g>
</svg>
