<?xml version="1.0" encoding="UTF-8" standalone="no"?>
<!DOCTYPE svg PUBLIC "-//W3C//DTD SVG 1.1//EN"
 "http://www.w3.org/Graphics/SVG/1.1/DTD/svg11.dtd">
<!-- Generated by graphviz version 2.47.3 (20210619.1520)
 -->
<!-- Title: dependencies Pages: 1 -->
<svg width="666pt" height="174pt"
 viewBox="0.00 0.00 666.00 173.80" xmlns="http://www.w3.org/2000/svg" xmlns:xlink="http://www.w3.org/1999/xlink">
<g id="graph0" class="graph" transform="scale(1 1) rotate(0) translate(4 169.8)">
<title>dependencies</title>
<polygon fill="white" stroke="transparent" points="-4,4 -4,-169.8 662,-169.8 662,4 -4,4"/>
<text text-anchor="middle" x="329" y="-8.2" font-family="sans-serif" font-size="14.00">dependencies</text>
<g id="clust1" class="cluster">
<title>cluster_ContactsModule</title>
<polygon fill="none" stroke="black" stroke-dasharray="1,5" points="8,-32.8 8,-157.8 650,-157.8 650,-32.8 8,-32.8"/>
</g>
<g id="clust2" class="cluster">
<title>cluster_ContactsModule_declarations</title>
<polygon fill="none" stroke="black" points="138,-40.8 138,-92.8 642,-92.8 642,-40.8 138,-40.8"/>
</g>
<g id="clust6" class="cluster">
<title>cluster_ContactsModule_imports</title>
<polygon fill="none" stroke="black" points="16,-40.8 16,-92.8 130,-92.8 130,-40.8 16,-40.8"/>
</g>
<!-- ContactsComponent -->
<g id="node1" class="node">
<title>ContactsComponent</title>
<polygon fill="#ffffb3" stroke="black" points="634.32,-84.8 503.68,-84.8 503.68,-48.8 634.32,-48.8 634.32,-84.8"/>
<text text-anchor="middle" x="569" y="-62.6" font-family="Times,serif" font-size="14.00">ContactsComponent</text>
</g>
<!-- ContactsModule -->
<g id="node4" class="node">
<title>ContactsModule</title>
<polygon fill="#8dd3c7" stroke="black" points="365.04,-149.8 362.04,-153.8 341.04,-153.8 338.04,-149.8 256.96,-149.8 256.96,-113.8 365.04,-113.8 365.04,-149.8"/>
<text text-anchor="middle" x="311" y="-127.6" font-family="Times,serif" font-size="14.00">ContactsModule</text>
</g>
<!-- ContactsComponent&#45;&gt;ContactsModule -->
<g id="edge1" class="edge">
<title>ContactsComponent&#45;&gt;ContactsModule</title>
<path fill="none" stroke="black" d="M569,-84.91C569,-104.14 569,-131.8 569,-131.8 569,-131.8 375.09,-131.8 375.09,-131.8"/>
<polygon fill="black" stroke="black" points="375.09,-128.3 365.09,-131.8 375.09,-135.3 375.09,-128.3"/>
</g>
<!-- ContactsDetailsComponent -->
<g id="node2" class="node">
<title>ContactsDetailsComponent</title>
<polygon fill="#ffffb3" stroke="black" points="485.98,-84.8 316.02,-84.8 316.02,-48.8 485.98,-48.8 485.98,-84.8"/>
<text text-anchor="middle" x="401" y="-62.6" font-family="Times,serif" font-size="14.00">ContactsDetailsComponent</text>
</g>
<!-- ContactsDetailsComponent&#45;&gt;ContactsModule -->
<g id="edge2" class="edge">
<title>ContactsDetailsComponent&#45;&gt;ContactsModule</title>
<path fill="none" stroke="black" d="M340.64,-84.91C340.64,-84.91 340.64,-103.79 340.64,-103.79"/>
<polygon fill="black" stroke="black" points="337.14,-103.79 340.64,-113.79 344.14,-103.79 337.14,-103.79"/>
</g>
<!-- ContactsListComponent -->
<g id="node3" class="node">
<title>ContactsListComponent</title>
<polygon fill="#ffffb3" stroke="black" points="298.1,-84.8 145.9,-84.8 145.9,-48.8 298.1,-48.8 298.1,-84.8"/>
<text text-anchor="middle" x="222" y="-62.6" font-family="Times,serif" font-size="14.00">ContactsListComponent</text>
</g>
<!-- ContactsListComponent&#45;&gt;ContactsModule -->
<g id="edge3" class="edge">
<title>ContactsListComponent&#45;&gt;ContactsModule</title>
<path fill="none" stroke="black" d="M277.39,-84.91C277.39,-84.91 277.39,-103.79 277.39,-103.79"/>
<polygon fill="black" stroke="black" points="273.89,-103.79 277.39,-113.79 280.89,-103.79 273.89,-103.79"/>
</g>
<!-- SharedModule -->
<g id="node5" class="node">
<title>SharedModule</title>
<polygon fill="#8dd3c7" stroke="black" points="122.42,-84.8 119.42,-88.8 98.42,-88.8 95.42,-84.8 23.58,-84.8 23.58,-48.8 122.42,-48.8 122.42,-84.8"/>
<text text-anchor="middle" x="73" y="-62.6" font-family="Times,serif" font-size="14.00">SharedModule</text>
</g>
<!-- SharedModule&#45;&gt;ContactsModule -->
<g id="edge4" class="edge">
<title>SharedModule&#45;&gt;ContactsModule</title>
<path fill="none" stroke="black" d="M73,-84.91C73,-104.14 73,-131.8 73,-131.8 73,-131.8 246.7,-131.8 246.7,-131.8"/>
<polygon fill="black" stroke="black" points="246.7,-135.3 256.7,-131.8 246.7,-128.3 246.7,-135.3"/>
</g>
</g>
</svg>
