<?xml version="1.0" encoding="UTF-8" standalone="no"?>
<!DOCTYPE svg PUBLIC "-//W3C//DTD SVG 1.1//EN"
 "http://www.w3.org/Graphics/SVG/1.1/DTD/svg11.dtd">
<!-- Generated by graphviz version 2.47.3 (20210619.1520)
 -->
<!-- Title: dependencies Pages: 1 -->
<svg width="314pt" height="247pt"
 viewBox="0.00 0.00 314.00 246.80" xmlns="http://www.w3.org/2000/svg" xmlns:xlink="http://www.w3.org/1999/xlink">
<g id="graph0" class="graph" transform="scale(1 1) rotate(0) translate(4 242.8)">
<title>dependencies</title>
<polygon fill="white" stroke="transparent" points="-4,4 -4,-242.8 310,-242.8 310,4 -4,4"/>
<text text-anchor="middle" x="153" y="-8.2" font-family="sans-serif" font-size="14.00">dependencies</text>
<g id="clust1" class="cluster">
<title>cluster_MessagesModule</title>
<polygon fill="none" stroke="black" stroke-dasharray="1,5" points="8,-32.8 8,-230.8 298,-230.8 298,-32.8 8,-32.8"/>
</g>
<g id="clust2" class="cluster">
<title>cluster_MessagesModule_declarations</title>
<polygon fill="none" stroke="black" points="138,-40.8 138,-92.8 290,-92.8 290,-40.8 138,-40.8"/>
</g>
<g id="clust4" class="cluster">
<title>cluster_MessagesModule_imports</title>
<polygon fill="none" stroke="black" points="16,-40.8 16,-92.8 130,-92.8 130,-40.8 16,-40.8"/>
</g>
<g id="clust5" class="cluster">
<title>cluster_MessagesModule_exports</title>
<polygon fill="none" stroke="black" points="75,-170.8 75,-222.8 231,-222.8 231,-170.8 75,-170.8"/>
</g>
<!-- MessagesComponent -->
<g id="node1" class="node">
<title>MessagesComponent</title>
<polygon fill="#ffffb3" stroke="black" points="281.75,-84.8 146.25,-84.8 146.25,-48.8 281.75,-48.8 281.75,-84.8"/>
<text text-anchor="middle" x="214" y="-62.6" font-family="Times,serif" font-size="14.00">MessagesComponent</text>
</g>
<!-- MessagesModule -->
<g id="node2" class="node">
<title>MessagesModule</title>
<polygon fill="#8dd3c7" stroke="black" points="209.97,-149.8 206.97,-153.8 185.97,-153.8 182.97,-149.8 96.03,-149.8 96.03,-113.8 209.97,-113.8 209.97,-149.8"/>
<text text-anchor="middle" x="153" y="-127.6" font-family="Times,serif" font-size="14.00">MessagesModule</text>
</g>
<!-- MessagesComponent&#45;&gt;MessagesModule -->
<g id="edge1" class="edge">
<title>MessagesComponent&#45;&gt;MessagesModule</title>
<path fill="none" stroke="black" d="M178.05,-84.91C178.05,-84.91 178.05,-103.79 178.05,-103.79"/>
<polygon fill="black" stroke="black" points="174.55,-103.79 178.05,-113.79 181.55,-103.79 174.55,-103.79"/>
</g>
<!-- MessagesComponent  -->
<g id="node4" class="node">
<title>MessagesComponent </title>
<polygon fill="#fb8072" stroke="black" points="222.75,-214.8 83.25,-214.8 83.25,-178.8 222.75,-178.8 222.75,-214.8"/>
<text text-anchor="middle" x="153" y="-192.6" font-family="Times,serif" font-size="14.00">MessagesComponent </text>
</g>
<!-- MessagesModule&#45;&gt;MessagesComponent  -->
<g id="edge3" class="edge">
<title>MessagesModule&#45;&gt;MessagesComponent </title>
<path fill="none" stroke="black" stroke-dasharray="5,2" d="M153,-149.91C153,-149.91 153,-168.79 153,-168.79"/>
<polygon fill="black" stroke="black" points="149.5,-168.79 153,-178.79 156.5,-168.79 149.5,-168.79"/>
</g>
<!-- SharedModule -->
<g id="node3" class="node">
<title>SharedModule</title>
<polygon fill="#8dd3c7" stroke="black" points="122.42,-84.8 119.42,-88.8 98.42,-88.8 95.42,-84.8 23.58,-84.8 23.58,-48.8 122.42,-48.8 122.42,-84.8"/>
<text text-anchor="middle" x="73" y="-62.6" font-family="Times,serif" font-size="14.00">SharedModule</text>
</g>
<!-- SharedModule&#45;&gt;MessagesModule -->
<g id="edge2" class="edge">
<title>SharedModule&#45;&gt;MessagesModule</title>
<path fill="none" stroke="black" d="M109.11,-84.91C109.11,-84.91 109.11,-103.79 109.11,-103.79"/>
<polygon fill="black" stroke="black" points="105.61,-103.79 109.11,-113.79 112.61,-103.79 105.61,-103.79"/>
</g>
</g>
</svg>
