<?xml version="1.0" encoding="UTF-8" standalone="no"?>
<!DOCTYPE svg PUBLIC "-//W3C//DTD SVG 1.1//EN"
 "http://www.w3.org/Graphics/SVG/1.1/DTD/svg11.dtd">
<!-- Generated by graphviz version 2.47.3 (20210619.1520)
 -->
<!-- Title: dependencies Pages: 1 -->
<svg width="1444pt" height="247pt"
 viewBox="0.00 0.00 1444.00 246.80" xmlns="http://www.w3.org/2000/svg" xmlns:xlink="http://www.w3.org/1999/xlink">
<g id="graph0" class="graph" transform="scale(1 1) rotate(0) translate(4 242.8)">
<title>dependencies</title>
<polygon fill="white" stroke="transparent" points="-4,4 -4,-242.8 1440,-242.8 1440,4 -4,4"/>
<text text-anchor="middle" x="718" y="-8.2" font-family="sans-serif" font-size="14.00">dependencies</text>
<g id="clust1" class="cluster">
<title>cluster_MaterialLayoutModule</title>
<polygon fill="none" stroke="black" stroke-dasharray="1,5" points="8,-32.8 8,-230.8 1428,-230.8 1428,-32.8 8,-32.8"/>
</g>
<g id="clust4" class="cluster">
<title>cluster_MaterialLayoutModule_imports</title>
<polygon fill="none" stroke="black" points="208,-40.8 208,-92.8 1420,-92.8 1420,-40.8 208,-40.8"/>
</g>
<g id="clust5" class="cluster">
<title>cluster_MaterialLayoutModule_exports</title>
<polygon fill="none" stroke="black" points="587,-170.8 587,-222.8 775,-222.8 775,-170.8 587,-170.8"/>
</g>
<g id="clust2" class="cluster">
<title>cluster_MaterialLayoutModule_declarations</title>
<polygon fill="none" stroke="black" points="16,-40.8 16,-92.8 200,-92.8 200,-40.8 16,-40.8"/>
</g>
<!-- MaterialLayoutComponent -->
<g id="node1" class="node">
<title>MaterialLayoutComponent</title>
<polygon fill="#ffffb3" stroke="black" points="192.41,-84.8 23.59,-84.8 23.59,-48.8 192.41,-48.8 192.41,-84.8"/>
<text text-anchor="middle" x="108" y="-62.6" font-family="Times,serif" font-size="14.00">MaterialLayoutComponent</text>
</g>
<!-- MaterialLayoutModule -->
<g id="node2" class="node">
<title>MaterialLayoutModule</title>
<polygon fill="#8dd3c7" stroke="black" points="754.13,-149.8 751.13,-153.8 730.13,-153.8 727.13,-149.8 607.87,-149.8 607.87,-113.8 754.13,-113.8 754.13,-149.8"/>
<text text-anchor="middle" x="681" y="-127.6" font-family="Times,serif" font-size="14.00">MaterialLayoutModule</text>
</g>
<!-- MaterialLayoutComponent&#45;&gt;MaterialLayoutModule -->
<g id="edge1" class="edge">
<title>MaterialLayoutComponent&#45;&gt;MaterialLayoutModule</title>
<path fill="none" stroke="black" d="M108,-84.81C108,-107.29 108,-142.8 108,-142.8 108,-142.8 597.85,-142.8 597.85,-142.8"/>
<polygon fill="black" stroke="black" points="597.85,-146.3 607.85,-142.8 597.85,-139.3 597.85,-146.3"/>
</g>
<!-- MaterialLayoutComponent  -->
<g id="node12" class="node">
<title>MaterialLayoutComponent </title>
<polygon fill="#fb8072" stroke="black" points="766.91,-214.8 595.09,-214.8 595.09,-178.8 766.91,-178.8 766.91,-214.8"/>
<text text-anchor="middle" x="681" y="-192.6" font-family="Times,serif" font-size="14.00">MaterialLayoutComponent </text>
</g>
<!-- MaterialLayoutModule&#45;&gt;MaterialLayoutComponent  -->
<g id="edge11" class="edge">
<title>MaterialLayoutModule&#45;&gt;MaterialLayoutComponent </title>
<path fill="none" stroke="black" stroke-dasharray="5,2" d="M681,-149.91C681,-149.91 681,-168.79 681,-168.79"/>
<polygon fill="black" stroke="black" points="677.5,-168.79 681,-178.79 684.5,-168.79 677.5,-168.79"/>
</g>
<!-- FuseFullscreenModule -->
<g id="node3" class="node">
<title>FuseFullscreenModule</title>
<polygon fill="#8dd3c7" stroke="black" points="1412.3,-84.8 1409.3,-88.8 1388.3,-88.8 1385.3,-84.8 1267.7,-84.8 1267.7,-48.8 1412.3,-48.8 1412.3,-84.8"/>
<text text-anchor="middle" x="1340" y="-62.6" font-family="Times,serif" font-size="14.00">FuseFullscreenModule</text>
</g>
<!-- FuseFullscreenModule&#45;&gt;MaterialLayoutModule -->
<g id="edge2" class="edge">
<title>FuseFullscreenModule&#45;&gt;MaterialLayoutModule</title>
<path fill="none" stroke="black" d="M1340,-84.81C1340,-107.29 1340,-142.8 1340,-142.8 1340,-142.8 764.36,-142.8 764.36,-142.8"/>
<polygon fill="black" stroke="black" points="764.36,-139.3 754.36,-142.8 764.36,-146.3 764.36,-139.3"/>
</g>
<!-- FuseNavigationModule -->
<g id="node4" class="node">
<title>FuseNavigationModule</title>
<polygon fill="#8dd3c7" stroke="black" points="1250.2,-84.8 1247.2,-88.8 1226.2,-88.8 1223.2,-84.8 1101.8,-84.8 1101.8,-48.8 1250.2,-48.8 1250.2,-84.8"/>
<text text-anchor="middle" x="1176" y="-62.6" font-family="Times,serif" font-size="14.00">FuseNavigationModule</text>
</g>
<!-- FuseNavigationModule&#45;&gt;MaterialLayoutModule -->
<g id="edge3" class="edge">
<title>FuseNavigationModule&#45;&gt;MaterialLayoutModule</title>
<path fill="none" stroke="black" d="M1176,-84.93C1176,-105.37 1176,-135.8 1176,-135.8 1176,-135.8 764.31,-135.8 764.31,-135.8"/>
<polygon fill="black" stroke="black" points="764.31,-132.3 754.31,-135.8 764.31,-139.3 764.31,-132.3"/>
</g>
<!-- LanguagesModule -->
<g id="node5" class="node">
<title>LanguagesModule</title>
<polygon fill="#8dd3c7" stroke="black" points="1084.19,-84.8 1081.19,-88.8 1060.19,-88.8 1057.19,-84.8 963.81,-84.8 963.81,-48.8 1084.19,-48.8 1084.19,-84.8"/>
<text text-anchor="middle" x="1024" y="-62.6" font-family="Times,serif" font-size="14.00">LanguagesModule</text>
</g>
<!-- LanguagesModule&#45;&gt;MaterialLayoutModule -->
<g id="edge4" class="edge">
<title>LanguagesModule&#45;&gt;MaterialLayoutModule</title>
<path fill="none" stroke="black" d="M1024,-85.07C1024,-103.36 1024,-128.8 1024,-128.8 1024,-128.8 764.16,-128.8 764.16,-128.8"/>
<polygon fill="black" stroke="black" points="764.16,-125.3 754.16,-128.8 764.16,-132.3 764.16,-125.3"/>
</g>
<!-- MessagesModule -->
<g id="node6" class="node">
<title>MessagesModule</title>
<polygon fill="#8dd3c7" stroke="black" points="945.97,-84.8 942.97,-88.8 921.97,-88.8 918.97,-84.8 832.03,-84.8 832.03,-48.8 945.97,-48.8 945.97,-84.8"/>
<text text-anchor="middle" x="889" y="-62.6" font-family="Times,serif" font-size="14.00">MessagesModule</text>
</g>
<!-- MessagesModule&#45;&gt;MaterialLayoutModule -->
<g id="edge5" class="edge">
<title>MessagesModule&#45;&gt;MaterialLayoutModule</title>
<path fill="none" stroke="black" d="M889,-84.81C889,-100.85 889,-121.8 889,-121.8 889,-121.8 764.33,-121.8 764.33,-121.8"/>
<polygon fill="black" stroke="black" points="764.33,-118.3 754.33,-121.8 764.33,-125.3 764.33,-118.3"/>
</g>
<!-- NotificationsModule -->
<g id="node7" class="node">
<title>NotificationsModule</title>
<polygon fill="#8dd3c7" stroke="black" points="814.14,-84.8 811.14,-88.8 790.14,-88.8 787.14,-84.8 681.86,-84.8 681.86,-48.8 814.14,-48.8 814.14,-84.8"/>
<text text-anchor="middle" x="748" y="-62.6" font-family="Times,serif" font-size="14.00">NotificationsModule</text>
</g>
<!-- NotificationsModule&#45;&gt;MaterialLayoutModule -->
<g id="edge6" class="edge">
<title>NotificationsModule&#45;&gt;MaterialLayoutModule</title>
<path fill="none" stroke="black" d="M718,-84.91C718,-84.91 718,-103.79 718,-103.79"/>
<polygon fill="black" stroke="black" points="714.5,-103.79 718,-113.79 721.5,-103.79 714.5,-103.79"/>
</g>
<!-- SearchModule -->
<g id="node8" class="node">
<title>SearchModule</title>
<polygon fill="#8dd3c7" stroke="black" points="663.64,-84.8 660.64,-88.8 639.64,-88.8 636.64,-84.8 566.36,-84.8 566.36,-48.8 663.64,-48.8 663.64,-84.8"/>
<text text-anchor="middle" x="615" y="-62.6" font-family="Times,serif" font-size="14.00">SearchModule</text>
</g>
<!-- SearchModule&#45;&gt;MaterialLayoutModule -->
<g id="edge7" class="edge">
<title>SearchModule&#45;&gt;MaterialLayoutModule</title>
<path fill="none" stroke="black" d="M635.75,-84.91C635.75,-84.91 635.75,-103.79 635.75,-103.79"/>
<polygon fill="black" stroke="black" points="632.25,-103.79 635.75,-113.79 639.25,-103.79 632.25,-103.79"/>
</g>
<!-- SharedModule -->
<g id="node9" class="node">
<title>SharedModule</title>
<polygon fill="#8dd3c7" stroke="black" points="548.42,-84.8 545.42,-88.8 524.42,-88.8 521.42,-84.8 449.58,-84.8 449.58,-48.8 548.42,-48.8 548.42,-84.8"/>
<text text-anchor="middle" x="499" y="-62.6" font-family="Times,serif" font-size="14.00">SharedModule</text>
</g>
<!-- SharedModule&#45;&gt;MaterialLayoutModule -->
<g id="edge8" class="edge">
<title>SharedModule&#45;&gt;MaterialLayoutModule</title>
<path fill="none" stroke="black" d="M499,-84.81C499,-100.85 499,-121.8 499,-121.8 499,-121.8 597.76,-121.8 597.76,-121.8"/>
<polygon fill="black" stroke="black" points="597.76,-125.3 607.76,-121.8 597.76,-118.3 597.76,-125.3"/>
</g>
<!-- ShortcutsModule -->
<g id="node10" class="node">
<title>ShortcutsModule</title>
<polygon fill="#8dd3c7" stroke="black" points="432.43,-84.8 429.43,-88.8 408.43,-88.8 405.43,-84.8 319.57,-84.8 319.57,-48.8 432.43,-48.8 432.43,-84.8"/>
<text text-anchor="middle" x="376" y="-62.6" font-family="Times,serif" font-size="14.00">ShortcutsModule</text>
</g>
<!-- ShortcutsModule&#45;&gt;MaterialLayoutModule -->
<g id="edge9" class="edge">
<title>ShortcutsModule&#45;&gt;MaterialLayoutModule</title>
<path fill="none" stroke="black" d="M376,-85.07C376,-103.36 376,-128.8 376,-128.8 376,-128.8 597.56,-128.8 597.56,-128.8"/>
<polygon fill="black" stroke="black" points="597.56,-132.3 607.56,-128.8 597.56,-125.3 597.56,-132.3"/>
</g>
<!-- UserModule -->
<g id="node11" class="node">
<title>UserModule</title>
<polygon fill="#8dd3c7" stroke="black" points="301.98,-84.8 298.98,-88.8 277.98,-88.8 274.98,-84.8 216.02,-84.8 216.02,-48.8 301.98,-48.8 301.98,-84.8"/>
<text text-anchor="middle" x="259" y="-62.6" font-family="Times,serif" font-size="14.00">UserModule</text>
</g>
<!-- UserModule&#45;&gt;MaterialLayoutModule -->
<g id="edge10" class="edge">
<title>UserModule&#45;&gt;MaterialLayoutModule</title>
<path fill="none" stroke="black" d="M259,-84.93C259,-105.37 259,-135.8 259,-135.8 259,-135.8 597.49,-135.8 597.49,-135.8"/>
<polygon fill="black" stroke="black" points="597.49,-139.3 607.49,-135.8 597.49,-132.3 597.49,-139.3"/>
</g>
</g>
</svg>
