<?xml version="1.0" encoding="UTF-8" standalone="no"?>
<!DOCTYPE svg PUBLIC "-//W3C//DTD SVG 1.1//EN"
 "http://www.w3.org/Graphics/SVG/1.1/DTD/svg11.dtd">
<!-- Generated by graphviz version 2.47.3 (20210619.1520)
 -->
<!-- Title: dependencies Pages: 1 -->
<svg width="2170pt" height="174pt"
 viewBox="0.00 0.00 2170.00 173.80" xmlns="http://www.w3.org/2000/svg" xmlns:xlink="http://www.w3.org/1999/xlink">
<g id="graph0" class="graph" transform="scale(1 1) rotate(0) translate(4 169.8)">
<title>dependencies</title>
<polygon fill="white" stroke="transparent" points="-4,4 -4,-169.8 2166,-169.8 2166,4 -4,4"/>
<text text-anchor="middle" x="1081" y="-8.2" font-family="sans-serif" font-size="14.00">dependencies</text>
<g id="clust1" class="cluster">
<title>cluster_ComingSoonModule</title>
<polygon fill="none" stroke="black" stroke-dasharray="1,5" points="8,-32.8 8,-157.8 2154,-157.8 2154,-32.8 8,-32.8"/>
</g>
<g id="clust2" class="cluster">
<title>cluster_ComingSoonModule_declarations</title>
<polygon fill="none" stroke="black" points="402,-40.8 402,-92.8 2146,-92.8 2146,-40.8 402,-40.8"/>
</g>
<g id="clust10" class="cluster">
<title>cluster_ComingSoonModule_imports</title>
<polygon fill="none" stroke="black" points="16,-40.8 16,-92.8 394,-92.8 394,-40.8 16,-40.8"/>
</g>
<!-- ComingSoonClassicComponent -->
<g id="node1" class="node">
<title>ComingSoonClassicComponent</title>
<polygon fill="#ffffb3" stroke="black" points="2137.67,-84.8 1942.33,-84.8 1942.33,-48.8 2137.67,-48.8 2137.67,-84.8"/>
<text text-anchor="middle" x="2040" y="-62.6" font-family="Times,serif" font-size="14.00">ComingSoonClassicComponent</text>
</g>
<!-- ComingSoonModule -->
<g id="node8" class="node">
<title>ComingSoonModule</title>
<polygon fill="#8dd3c7" stroke="black" points="1003.95,-149.8 1000.95,-153.8 979.95,-153.8 976.95,-149.8 870.05,-149.8 870.05,-113.8 1003.95,-113.8 1003.95,-149.8"/>
<text text-anchor="middle" x="937" y="-127.6" font-family="Times,serif" font-size="14.00">ComingSoonModule</text>
</g>
<!-- ComingSoonClassicComponent&#45;&gt;ComingSoonModule -->
<g id="edge1" class="edge">
<title>ComingSoonClassicComponent&#45;&gt;ComingSoonModule</title>
<path fill="none" stroke="black" d="M2040,-84.81C2040,-107.29 2040,-142.8 2040,-142.8 2040,-142.8 1013.92,-142.8 1013.92,-142.8"/>
<polygon fill="black" stroke="black" points="1013.92,-139.3 1003.92,-142.8 1013.92,-146.3 1013.92,-139.3"/>
</g>
<!-- ComingSoonFullscreenComponent -->
<g id="node2" class="node">
<title>ComingSoonFullscreenComponent</title>
<polygon fill="#ffffb3" stroke="black" points="1923.55,-84.8 1710.45,-84.8 1710.45,-48.8 1923.55,-48.8 1923.55,-84.8"/>
<text text-anchor="middle" x="1817" y="-62.6" font-family="Times,serif" font-size="14.00">ComingSoonFullscreenComponent</text>
</g>
<!-- ComingSoonFullscreenComponent&#45;&gt;ComingSoonModule -->
<g id="edge2" class="edge">
<title>ComingSoonFullscreenComponent&#45;&gt;ComingSoonModule</title>
<path fill="none" stroke="black" d="M1817,-84.93C1817,-105.37 1817,-135.8 1817,-135.8 1817,-135.8 1013.87,-135.8 1013.87,-135.8"/>
<polygon fill="black" stroke="black" points="1013.87,-132.3 1003.87,-135.8 1013.87,-139.3 1013.87,-132.3"/>
</g>
<!-- ComingSoonFullscreenReversedComponent -->
<g id="node3" class="node">
<title>ComingSoonFullscreenReversedComponent</title>
<polygon fill="#ffffb3" stroke="black" points="1691.63,-84.8 1426.37,-84.8 1426.37,-48.8 1691.63,-48.8 1691.63,-84.8"/>
<text text-anchor="middle" x="1559" y="-62.6" font-family="Times,serif" font-size="14.00">ComingSoonFullscreenReversedComponent</text>
</g>
<!-- ComingSoonFullscreenReversedComponent&#45;&gt;ComingSoonModule -->
<g id="edge3" class="edge">
<title>ComingSoonFullscreenReversedComponent&#45;&gt;ComingSoonModule</title>
<path fill="none" stroke="black" d="M1559,-85.07C1559,-103.36 1559,-128.8 1559,-128.8 1559,-128.8 1013.86,-128.8 1013.86,-128.8"/>
<polygon fill="black" stroke="black" points="1013.86,-125.3 1003.86,-128.8 1013.86,-132.3 1013.86,-125.3"/>
</g>
<!-- ComingSoonModernComponent -->
<g id="node4" class="node">
<title>ComingSoonModernComponent</title>
<polygon fill="#ffffb3" stroke="black" points="1407.55,-84.8 1208.45,-84.8 1208.45,-48.8 1407.55,-48.8 1407.55,-84.8"/>
<text text-anchor="middle" x="1308" y="-62.6" font-family="Times,serif" font-size="14.00">ComingSoonModernComponent</text>
</g>
<!-- ComingSoonModernComponent&#45;&gt;ComingSoonModule -->
<g id="edge4" class="edge">
<title>ComingSoonModernComponent&#45;&gt;ComingSoonModule</title>
<path fill="none" stroke="black" d="M1308,-84.81C1308,-100.85 1308,-121.8 1308,-121.8 1308,-121.8 1013.76,-121.8 1013.76,-121.8"/>
<polygon fill="black" stroke="black" points="1013.76,-118.3 1003.76,-121.8 1013.76,-125.3 1013.76,-118.3"/>
</g>
<!-- ComingSoonModernReversedComponent -->
<g id="node5" class="node">
<title>ComingSoonModernReversedComponent</title>
<polygon fill="#ffffb3" stroke="black" points="1189.64,-84.8 938.36,-84.8 938.36,-48.8 1189.64,-48.8 1189.64,-84.8"/>
<text text-anchor="middle" x="1064" y="-62.6" font-family="Times,serif" font-size="14.00">ComingSoonModernReversedComponent</text>
</g>
<!-- ComingSoonModernReversedComponent&#45;&gt;ComingSoonModule -->
<g id="edge5" class="edge">
<title>ComingSoonModernReversedComponent&#45;&gt;ComingSoonModule</title>
<path fill="none" stroke="black" d="M970.95,-84.91C970.95,-84.91 970.95,-103.79 970.95,-103.79"/>
<polygon fill="black" stroke="black" points="967.45,-103.79 970.95,-113.79 974.45,-103.79 967.45,-103.79"/>
</g>
<!-- ComingSoonSplitScreenComponent -->
<g id="node6" class="node">
<title>ComingSoonSplitScreenComponent</title>
<polygon fill="#ffffb3" stroke="black" points="919.77,-84.8 700.23,-84.8 700.23,-48.8 919.77,-48.8 919.77,-84.8"/>
<text text-anchor="middle" x="810" y="-62.6" font-family="Times,serif" font-size="14.00">ComingSoonSplitScreenComponent</text>
</g>
<!-- ComingSoonSplitScreenComponent&#45;&gt;ComingSoonModule -->
<g id="edge6" class="edge">
<title>ComingSoonSplitScreenComponent&#45;&gt;ComingSoonModule</title>
<path fill="none" stroke="black" d="M895.08,-84.91C895.08,-84.91 895.08,-103.79 895.08,-103.79"/>
<polygon fill="black" stroke="black" points="891.58,-103.79 895.08,-113.79 898.58,-103.79 891.58,-103.79"/>
</g>
<!-- ComingSoonSplitScreenReversedComponent -->
<g id="node7" class="node">
<title>ComingSoonSplitScreenReversedComponent</title>
<polygon fill="#ffffb3" stroke="black" points="681.86,-84.8 410.14,-84.8 410.14,-48.8 681.86,-48.8 681.86,-84.8"/>
<text text-anchor="middle" x="546" y="-62.6" font-family="Times,serif" font-size="14.00">ComingSoonSplitScreenReversedComponent</text>
</g>
<!-- ComingSoonSplitScreenReversedComponent&#45;&gt;ComingSoonModule -->
<g id="edge7" class="edge">
<title>ComingSoonSplitScreenReversedComponent&#45;&gt;ComingSoonModule</title>
<path fill="none" stroke="black" d="M546,-84.81C546,-100.85 546,-121.8 546,-121.8 546,-121.8 860.23,-121.8 860.23,-121.8"/>
<polygon fill="black" stroke="black" points="860.23,-125.3 870.23,-121.8 860.23,-118.3 860.23,-125.3"/>
</g>
<!-- FuseAlertModule -->
<g id="node9" class="node">
<title>FuseAlertModule</title>
<polygon fill="#8dd3c7" stroke="black" points="386.25,-84.8 383.25,-88.8 362.25,-88.8 359.25,-84.8 271.75,-84.8 271.75,-48.8 386.25,-48.8 386.25,-84.8"/>
<text text-anchor="middle" x="329" y="-62.6" font-family="Times,serif" font-size="14.00">FuseAlertModule</text>
</g>
<!-- FuseAlertModule&#45;&gt;ComingSoonModule -->
<g id="edge8" class="edge">
<title>FuseAlertModule&#45;&gt;ComingSoonModule</title>
<path fill="none" stroke="black" d="M329,-85.07C329,-103.36 329,-128.8 329,-128.8 329,-128.8 860.19,-128.8 860.19,-128.8"/>
<polygon fill="black" stroke="black" points="860.19,-132.3 870.19,-128.8 860.19,-125.3 860.19,-132.3"/>
</g>
<!-- FuseCardModule -->
<g id="node10" class="node">
<title>FuseCardModule</title>
<polygon fill="#8dd3c7" stroke="black" points="253.7,-84.8 250.7,-88.8 229.7,-88.8 226.7,-84.8 140.3,-84.8 140.3,-48.8 253.7,-48.8 253.7,-84.8"/>
<text text-anchor="middle" x="197" y="-62.6" font-family="Times,serif" font-size="14.00">FuseCardModule</text>
</g>
<!-- FuseCardModule&#45;&gt;ComingSoonModule -->
<g id="edge9" class="edge">
<title>FuseCardModule&#45;&gt;ComingSoonModule</title>
<path fill="none" stroke="black" d="M197,-84.93C197,-105.37 197,-135.8 197,-135.8 197,-135.8 860.02,-135.8 860.02,-135.8"/>
<polygon fill="black" stroke="black" points="860.02,-139.3 870.02,-135.8 860.02,-132.3 860.02,-139.3"/>
</g>
<!-- SharedModule -->
<g id="node11" class="node">
<title>SharedModule</title>
<polygon fill="#8dd3c7" stroke="black" points="122.42,-84.8 119.42,-88.8 98.42,-88.8 95.42,-84.8 23.58,-84.8 23.58,-48.8 122.42,-48.8 122.42,-84.8"/>
<text text-anchor="middle" x="73" y="-62.6" font-family="Times,serif" font-size="14.00">SharedModule</text>
</g>
<!-- SharedModule&#45;&gt;ComingSoonModule -->
<g id="edge10" class="edge">
<title>SharedModule&#45;&gt;ComingSoonModule</title>
<path fill="none" stroke="black" d="M73,-84.81C73,-107.29 73,-142.8 73,-142.8 73,-142.8 859.92,-142.8 859.92,-142.8"/>
<polygon fill="black" stroke="black" points="859.92,-146.3 869.92,-142.8 859.92,-139.3 859.92,-146.3"/>
</g>
</g>
</svg>
