<?xml version="1.0" encoding="UTF-8" standalone="no"?>
<!DOCTYPE svg PUBLIC "-//W3C//DTD SVG 1.1//EN"
 "http://www.w3.org/Graphics/SVG/1.1/DTD/svg11.dtd">
<!-- Generated by graphviz version 2.47.3 (20210619.1520)
 -->
<!-- Title: dependencies Pages: 1 -->
<svg width="226pt" height="247pt"
 viewBox="0.00 0.00 226.00 246.80" xmlns="http://www.w3.org/2000/svg" xmlns:xlink="http://www.w3.org/1999/xlink">
<g id="graph0" class="graph" transform="scale(1 1) rotate(0) translate(4 242.8)">
<title>dependencies</title>
<polygon fill="white" stroke="transparent" points="-4,4 -4,-242.8 222,-242.8 222,4 -4,4"/>
<text text-anchor="middle" x="109" y="-8.2" font-family="sans-serif" font-size="14.00">dependencies</text>
<g id="clust1" class="cluster">
<title>cluster_FuseFullscreenModule</title>
<polygon fill="none" stroke="black" stroke-dasharray="1,5" points="8,-32.8 8,-230.8 210,-230.8 210,-32.8 8,-32.8"/>
</g>
<g id="clust2" class="cluster">
<title>cluster_FuseFullscreenModule_declarations</title>
<polygon fill="none" stroke="black" points="18,-40.8 18,-92.8 200,-92.8 200,-40.8 18,-40.8"/>
</g>
<g id="clust5" class="cluster">
<title>cluster_FuseFullscreenModule_exports</title>
<polygon fill="none" stroke="black" points="16,-170.8 16,-222.8 202,-222.8 202,-170.8 16,-170.8"/>
</g>
<!-- FuseFullscreenComponent -->
<g id="node1" class="node">
<title>FuseFullscreenComponent</title>
<polygon fill="#ffffb3" stroke="black" points="192.09,-84.8 25.91,-84.8 25.91,-48.8 192.09,-48.8 192.09,-84.8"/>
<text text-anchor="middle" x="109" y="-62.6" font-family="Times,serif" font-size="14.00">FuseFullscreenComponent</text>
</g>
<!-- FuseFullscreenModule -->
<g id="node2" class="node">
<title>FuseFullscreenModule</title>
<polygon fill="#8dd3c7" stroke="black" points="181.3,-149.8 178.3,-153.8 157.3,-153.8 154.3,-149.8 36.7,-149.8 36.7,-113.8 181.3,-113.8 181.3,-149.8"/>
<text text-anchor="middle" x="109" y="-127.6" font-family="Times,serif" font-size="14.00">FuseFullscreenModule</text>
</g>
<!-- FuseFullscreenComponent&#45;&gt;FuseFullscreenModule -->
<g id="edge1" class="edge">
<title>FuseFullscreenComponent&#45;&gt;FuseFullscreenModule</title>
<path fill="none" stroke="black" d="M109,-84.91C109,-84.91 109,-103.79 109,-103.79"/>
<polygon fill="black" stroke="black" points="105.5,-103.79 109,-113.79 112.5,-103.79 105.5,-103.79"/>
</g>
<!-- FuseFullscreenComponent  -->
<g id="node3" class="node">
<title>FuseFullscreenComponent </title>
<polygon fill="#fb8072" stroke="black" points="193.59,-214.8 24.41,-214.8 24.41,-178.8 193.59,-178.8 193.59,-214.8"/>
<text text-anchor="middle" x="109" y="-192.6" font-family="Times,serif" font-size="14.00">FuseFullscreenComponent </text>
</g>
<!-- FuseFullscreenModule&#45;&gt;FuseFullscreenComponent  -->
<g id="edge2" class="edge">
<title>FuseFullscreenModule&#45;&gt;FuseFullscreenComponent </title>
<path fill="none" stroke="black" stroke-dasharray="5,2" d="M109,-149.91C109,-149.91 109,-168.79 109,-168.79"/>
<polygon fill="black" stroke="black" points="105.5,-168.79 109,-178.79 112.5,-168.79 105.5,-168.79"/>
</g>
</g>
</svg>
