<?xml version="1.0" encoding="UTF-8" standalone="no"?>
<!DOCTYPE svg PUBLIC "-//W3C//DTD SVG 1.1//EN"
 "http://www.w3.org/Graphics/SVG/1.1/DTD/svg11.dtd">
<!-- Generated by graphviz version 2.47.3 (20210619.1520)
 -->
<!-- Title: dependencies Pages: 1 -->
<svg width="2405pt" height="174pt"
 viewBox="0.00 0.00 2405.00 173.80" xmlns="http://www.w3.org/2000/svg" xmlns:xlink="http://www.w3.org/1999/xlink">
<g id="graph0" class="graph" transform="scale(1 1) rotate(0) translate(4 169.8)">
<title>dependencies</title>
<polygon fill="white" stroke="transparent" points="-4,4 -4,-169.8 2401,-169.8 2401,4 -4,4"/>
<text text-anchor="middle" x="1198.5" y="-8.2" font-family="sans-serif" font-size="14.00">dependencies</text>
<g id="clust1" class="cluster">
<title>cluster_ConfirmationRequiredModule</title>
<polygon fill="none" stroke="black" stroke-dasharray="1,5" points="8,-32.8 8,-157.8 2389,-157.8 2389,-32.8 8,-32.8"/>
</g>
<g id="clust2" class="cluster">
<title>cluster_ConfirmationRequiredModule_declarations</title>
<polygon fill="none" stroke="black" points="271,-40.8 271,-92.8 2381,-92.8 2381,-40.8 271,-40.8"/>
</g>
<g id="clust10" class="cluster">
<title>cluster_ConfirmationRequiredModule_imports</title>
<polygon fill="none" stroke="black" points="16,-40.8 16,-92.8 263,-92.8 263,-40.8 16,-40.8"/>
</g>
<!-- ConfirmationRequiredClassicComponent -->
<g id="node1" class="node">
<title>ConfirmationRequiredClassicComponent</title>
<polygon fill="#ffffb3" stroke="black" points="2373.02,-84.8 2124.98,-84.8 2124.98,-48.8 2373.02,-48.8 2373.02,-84.8"/>
<text text-anchor="middle" x="2249" y="-62.6" font-family="Times,serif" font-size="14.00">ConfirmationRequiredClassicComponent</text>
</g>
<!-- ConfirmationRequiredModule -->
<g id="node8" class="node">
<title>ConfirmationRequiredModule</title>
<polygon fill="#8dd3c7" stroke="black" points="1158.3,-149.8 1155.3,-153.8 1134.3,-153.8 1131.3,-149.8 971.7,-149.8 971.7,-113.8 1158.3,-113.8 1158.3,-149.8"/>
<text text-anchor="middle" x="1065" y="-127.6" font-family="Times,serif" font-size="14.00">ConfirmationRequiredModule</text>
</g>
<!-- ConfirmationRequiredClassicComponent&#45;&gt;ConfirmationRequiredModule -->
<g id="edge1" class="edge">
<title>ConfirmationRequiredClassicComponent&#45;&gt;ConfirmationRequiredModule</title>
<path fill="none" stroke="black" d="M2249,-84.81C2249,-107.29 2249,-142.8 2249,-142.8 2249,-142.8 1168.4,-142.8 1168.4,-142.8"/>
<polygon fill="black" stroke="black" points="1168.4,-139.3 1158.4,-142.8 1168.4,-146.3 1168.4,-139.3"/>
</g>
<!-- ConfirmationRequiredFullscreenComponent -->
<g id="node2" class="node">
<title>ConfirmationRequiredFullscreenComponent</title>
<polygon fill="#ffffb3" stroke="black" points="2107.4,-84.8 1840.6,-84.8 1840.6,-48.8 2107.4,-48.8 2107.4,-84.8"/>
<text text-anchor="middle" x="1974" y="-62.6" font-family="Times,serif" font-size="14.00">ConfirmationRequiredFullscreenComponent</text>
</g>
<!-- ConfirmationRequiredFullscreenComponent&#45;&gt;ConfirmationRequiredModule -->
<g id="edge2" class="edge">
<title>ConfirmationRequiredFullscreenComponent&#45;&gt;ConfirmationRequiredModule</title>
<path fill="none" stroke="black" d="M1974,-84.93C1974,-105.37 1974,-135.8 1974,-135.8 1974,-135.8 1168.43,-135.8 1168.43,-135.8"/>
<polygon fill="black" stroke="black" points="1168.43,-132.3 1158.43,-135.8 1168.43,-139.3 1168.43,-132.3"/>
</g>
<!-- ConfirmationRequiredFullscreenReversedComponent -->
<g id="node3" class="node">
<title>ConfirmationRequiredFullscreenReversedComponent</title>
<polygon fill="#ffffb3" stroke="black" points="1823.48,-84.8 1504.52,-84.8 1504.52,-48.8 1823.48,-48.8 1823.48,-84.8"/>
<text text-anchor="middle" x="1664" y="-62.6" font-family="Times,serif" font-size="14.00">ConfirmationRequiredFullscreenReversedComponent</text>
</g>
<!-- ConfirmationRequiredFullscreenReversedComponent&#45;&gt;ConfirmationRequiredModule -->
<g id="edge3" class="edge">
<title>ConfirmationRequiredFullscreenReversedComponent&#45;&gt;ConfirmationRequiredModule</title>
<path fill="none" stroke="black" d="M1664,-85.07C1664,-103.36 1664,-128.8 1664,-128.8 1664,-128.8 1168.26,-128.8 1168.26,-128.8"/>
<polygon fill="black" stroke="black" points="1168.26,-125.3 1158.26,-128.8 1168.26,-132.3 1168.26,-125.3"/>
</g>
<!-- ConfirmationRequiredModernComponent -->
<g id="node4" class="node">
<title>ConfirmationRequiredModernComponent</title>
<polygon fill="#ffffb3" stroke="black" points="1487.4,-84.8 1234.6,-84.8 1234.6,-48.8 1487.4,-48.8 1487.4,-84.8"/>
<text text-anchor="middle" x="1361" y="-62.6" font-family="Times,serif" font-size="14.00">ConfirmationRequiredModernComponent</text>
</g>
<!-- ConfirmationRequiredModernComponent&#45;&gt;ConfirmationRequiredModule -->
<g id="edge4" class="edge">
<title>ConfirmationRequiredModernComponent&#45;&gt;ConfirmationRequiredModule</title>
<path fill="none" stroke="black" d="M1361,-84.81C1361,-100.85 1361,-121.8 1361,-121.8 1361,-121.8 1168.25,-121.8 1168.25,-121.8"/>
<polygon fill="black" stroke="black" points="1168.25,-118.3 1158.25,-121.8 1168.25,-125.3 1168.25,-118.3"/>
</g>
<!-- ConfirmationRequiredModernReversedComponent -->
<g id="node5" class="node">
<title>ConfirmationRequiredModernReversedComponent</title>
<polygon fill="#ffffb3" stroke="black" points="1217.49,-84.8 912.51,-84.8 912.51,-48.8 1217.49,-48.8 1217.49,-84.8"/>
<text text-anchor="middle" x="1065" y="-62.6" font-family="Times,serif" font-size="14.00">ConfirmationRequiredModernReversedComponent</text>
</g>
<!-- ConfirmationRequiredModernReversedComponent&#45;&gt;ConfirmationRequiredModule -->
<g id="edge5" class="edge">
<title>ConfirmationRequiredModernReversedComponent&#45;&gt;ConfirmationRequiredModule</title>
<path fill="none" stroke="black" d="M1065,-84.91C1065,-84.91 1065,-103.79 1065,-103.79"/>
<polygon fill="black" stroke="black" points="1061.5,-103.79 1065,-113.79 1068.5,-103.79 1061.5,-103.79"/>
</g>
<!-- ConfirmationRequiredSplitScreenComponent -->
<g id="node6" class="node">
<title>ConfirmationRequiredSplitScreenComponent</title>
<polygon fill="#ffffb3" stroke="black" points="894.13,-84.8 621.87,-84.8 621.87,-48.8 894.13,-48.8 894.13,-84.8"/>
<text text-anchor="middle" x="758" y="-62.6" font-family="Times,serif" font-size="14.00">ConfirmationRequiredSplitScreenComponent</text>
</g>
<!-- ConfirmationRequiredSplitScreenComponent&#45;&gt;ConfirmationRequiredModule -->
<g id="edge6" class="edge">
<title>ConfirmationRequiredSplitScreenComponent&#45;&gt;ConfirmationRequiredModule</title>
<path fill="none" stroke="black" d="M758,-84.81C758,-100.85 758,-121.8 758,-121.8 758,-121.8 961.64,-121.8 961.64,-121.8"/>
<polygon fill="black" stroke="black" points="961.64,-125.3 971.64,-121.8 961.64,-118.3 961.64,-125.3"/>
</g>
<!-- ConfirmationRequiredSplitScreenReversedComponent -->
<g id="node7" class="node">
<title>ConfirmationRequiredSplitScreenReversedComponent</title>
<polygon fill="#ffffb3" stroke="black" points="603.21,-84.8 278.79,-84.8 278.79,-48.8 603.21,-48.8 603.21,-84.8"/>
<text text-anchor="middle" x="441" y="-62.6" font-family="Times,serif" font-size="14.00">ConfirmationRequiredSplitScreenReversedComponent</text>
</g>
<!-- ConfirmationRequiredSplitScreenReversedComponent&#45;&gt;ConfirmationRequiredModule -->
<g id="edge7" class="edge">
<title>ConfirmationRequiredSplitScreenReversedComponent&#45;&gt;ConfirmationRequiredModule</title>
<path fill="none" stroke="black" d="M441,-85.07C441,-103.36 441,-128.8 441,-128.8 441,-128.8 961.58,-128.8 961.58,-128.8"/>
<polygon fill="black" stroke="black" points="961.58,-132.3 971.58,-128.8 961.58,-125.3 961.58,-132.3"/>
</g>
<!-- FuseAlertModule -->
<g id="node9" class="node">
<title>FuseAlertModule</title>
<polygon fill="#8dd3c7" stroke="black" points="255.25,-84.8 252.25,-88.8 231.25,-88.8 228.25,-84.8 140.75,-84.8 140.75,-48.8 255.25,-48.8 255.25,-84.8"/>
<text text-anchor="middle" x="198" y="-62.6" font-family="Times,serif" font-size="14.00">FuseAlertModule</text>
</g>
<!-- FuseAlertModule&#45;&gt;ConfirmationRequiredModule -->
<g id="edge8" class="edge">
<title>FuseAlertModule&#45;&gt;ConfirmationRequiredModule</title>
<path fill="none" stroke="black" d="M198,-84.93C198,-105.37 198,-135.8 198,-135.8 198,-135.8 961.8,-135.8 961.8,-135.8"/>
<polygon fill="black" stroke="black" points="961.8,-139.3 971.8,-135.8 961.8,-132.3 961.8,-139.3"/>
</g>
<!-- SharedModule -->
<g id="node10" class="node">
<title>SharedModule</title>
<polygon fill="#8dd3c7" stroke="black" points="122.42,-84.8 119.42,-88.8 98.42,-88.8 95.42,-84.8 23.58,-84.8 23.58,-48.8 122.42,-48.8 122.42,-84.8"/>
<text text-anchor="middle" x="73" y="-62.6" font-family="Times,serif" font-size="14.00">SharedModule</text>
</g>
<!-- SharedModule&#45;&gt;ConfirmationRequiredModule -->
<g id="edge9" class="edge">
<title>SharedModule&#45;&gt;ConfirmationRequiredModule</title>
<path fill="none" stroke="black" d="M73,-84.81C73,-107.29 73,-142.8 73,-142.8 73,-142.8 961.68,-142.8 961.68,-142.8"/>
<polygon fill="black" stroke="black" points="961.68,-146.3 971.68,-142.8 961.68,-139.3 961.68,-146.3"/>
</g>
</g>
</svg>
