<?xml version="1.0" encoding="UTF-8" standalone="no"?>
<!DOCTYPE svg PUBLIC "-//W3C//DTD SVG 1.1//EN"
 "http://www.w3.org/Graphics/SVG/1.1/DTD/svg11.dtd">
<!-- Generated by graphviz version 2.47.3 (20210619.1520)
 -->
<!-- Title: dependencies Pages: 1 -->
<svg width="588pt" height="174pt"
 viewBox="0.00 0.00 588.00 173.80" xmlns="http://www.w3.org/2000/svg" xmlns:xlink="http://www.w3.org/1999/xlink">
<g id="graph0" class="graph" transform="scale(1 1) rotate(0) translate(4 169.8)">
<title>dependencies</title>
<polygon fill="white" stroke="transparent" points="-4,4 -4,-169.8 584,-169.8 584,4 -4,4"/>
<text text-anchor="middle" x="290" y="-8.2" font-family="sans-serif" font-size="14.00">dependencies</text>
<g id="clust1" class="cluster">
<title>cluster_AuthSignInModule</title>
<polygon fill="none" stroke="black" stroke-dasharray="1,5" points="8,-32.8 8,-157.8 572,-157.8 572,-32.8 8,-32.8"/>
</g>
<g id="clust2" class="cluster">
<title>cluster_AuthSignInModule_declarations</title>
<polygon fill="none" stroke="black" points="402,-40.8 402,-92.8 564,-92.8 564,-40.8 402,-40.8"/>
</g>
<g id="clust4" class="cluster">
<title>cluster_AuthSignInModule_imports</title>
<polygon fill="none" stroke="black" points="16,-40.8 16,-92.8 394,-92.8 394,-40.8 16,-40.8"/>
</g>
<!-- AuthSignInComponent -->
<g id="node1" class="node">
<title>AuthSignInComponent</title>
<polygon fill="#ffffb3" stroke="black" points="556.16,-84.8 409.84,-84.8 409.84,-48.8 556.16,-48.8 556.16,-84.8"/>
<text text-anchor="middle" x="483" y="-62.6" font-family="Times,serif" font-size="14.00">AuthSignInComponent</text>
</g>
<!-- AuthSignInModule -->
<g id="node2" class="node">
<title>AuthSignInModule</title>
<polygon fill="#8dd3c7" stroke="black" points="325.38,-149.8 322.38,-153.8 301.38,-153.8 298.38,-149.8 200.62,-149.8 200.62,-113.8 325.38,-113.8 325.38,-149.8"/>
<text text-anchor="middle" x="263" y="-127.6" font-family="Times,serif" font-size="14.00">AuthSignInModule</text>
</g>
<!-- AuthSignInComponent&#45;&gt;AuthSignInModule -->
<g id="edge1" class="edge">
<title>AuthSignInComponent&#45;&gt;AuthSignInModule</title>
<path fill="none" stroke="black" d="M483,-84.91C483,-104.14 483,-131.8 483,-131.8 483,-131.8 335.45,-131.8 335.45,-131.8"/>
<polygon fill="black" stroke="black" points="335.45,-128.3 325.45,-131.8 335.45,-135.3 335.45,-128.3"/>
</g>
<!-- FuseAlertModule -->
<g id="node3" class="node">
<title>FuseAlertModule</title>
<polygon fill="#8dd3c7" stroke="black" points="386.25,-84.8 383.25,-88.8 362.25,-88.8 359.25,-84.8 271.75,-84.8 271.75,-48.8 386.25,-48.8 386.25,-84.8"/>
<text text-anchor="middle" x="329" y="-62.6" font-family="Times,serif" font-size="14.00">FuseAlertModule</text>
</g>
<!-- FuseAlertModule&#45;&gt;AuthSignInModule -->
<g id="edge2" class="edge">
<title>FuseAlertModule&#45;&gt;AuthSignInModule</title>
<path fill="none" stroke="black" d="M298.53,-84.91C298.53,-84.91 298.53,-103.79 298.53,-103.79"/>
<polygon fill="black" stroke="black" points="295.03,-103.79 298.53,-113.79 302.03,-103.79 295.03,-103.79"/>
</g>
<!-- FuseCardModule -->
<g id="node4" class="node">
<title>FuseCardModule</title>
<polygon fill="#8dd3c7" stroke="black" points="253.7,-84.8 250.7,-88.8 229.7,-88.8 226.7,-84.8 140.3,-84.8 140.3,-48.8 253.7,-48.8 253.7,-84.8"/>
<text text-anchor="middle" x="197" y="-62.6" font-family="Times,serif" font-size="14.00">FuseCardModule</text>
</g>
<!-- FuseCardModule&#45;&gt;AuthSignInModule -->
<g id="edge3" class="edge">
<title>FuseCardModule&#45;&gt;AuthSignInModule</title>
<path fill="none" stroke="black" d="M227.08,-84.91C227.08,-84.91 227.08,-103.79 227.08,-103.79"/>
<polygon fill="black" stroke="black" points="223.58,-103.79 227.08,-113.79 230.58,-103.79 223.58,-103.79"/>
</g>
<!-- SharedModule -->
<g id="node5" class="node">
<title>SharedModule</title>
<polygon fill="#8dd3c7" stroke="black" points="122.42,-84.8 119.42,-88.8 98.42,-88.8 95.42,-84.8 23.58,-84.8 23.58,-48.8 122.42,-48.8 122.42,-84.8"/>
<text text-anchor="middle" x="73" y="-62.6" font-family="Times,serif" font-size="14.00">SharedModule</text>
</g>
<!-- SharedModule&#45;&gt;AuthSignInModule -->
<g id="edge4" class="edge">
<title>SharedModule&#45;&gt;AuthSignInModule</title>
<path fill="none" stroke="black" d="M73,-84.91C73,-104.14 73,-131.8 73,-131.8 73,-131.8 190.52,-131.8 190.52,-131.8"/>
<polygon fill="black" stroke="black" points="190.52,-135.3 200.52,-131.8 190.52,-128.3 190.52,-135.3"/>
</g>
</g>
</svg>
