<?xml version="1.0" encoding="UTF-8" standalone="no"?>
<!DOCTYPE svg PUBLIC "-//W3C//DTD SVG 1.1//EN"
 "http://www.w3.org/Graphics/SVG/1.1/DTD/svg11.dtd">
<!-- Generated by graphviz version 2.47.3 (20210619.1520)
 -->
<!-- Title: dependencies Pages: 1 -->
<svg width="2157pt" height="174pt"
 viewBox="0.00 0.00 2157.00 173.80" xmlns="http://www.w3.org/2000/svg" xmlns:xlink="http://www.w3.org/1999/xlink">
<g id="graph0" class="graph" transform="scale(1 1) rotate(0) translate(4 169.8)">
<title>dependencies</title>
<polygon fill="white" stroke="transparent" points="-4,4 -4,-169.8 2153,-169.8 2153,4 -4,4"/>
<text text-anchor="middle" x="1074.5" y="-8.2" font-family="sans-serif" font-size="14.00">dependencies</text>
<g id="clust1" class="cluster">
<title>cluster_ForgotPasswordModule</title>
<polygon fill="none" stroke="black" stroke-dasharray="1,5" points="8,-32.8 8,-157.8 2141,-157.8 2141,-32.8 8,-32.8"/>
</g>
<g id="clust2" class="cluster">
<title>cluster_ForgotPasswordModule_declarations</title>
<polygon fill="none" stroke="black" points="271,-40.8 271,-92.8 2133,-92.8 2133,-40.8 271,-40.8"/>
</g>
<g id="clust10" class="cluster">
<title>cluster_ForgotPasswordModule_imports</title>
<polygon fill="none" stroke="black" points="16,-40.8 16,-92.8 263,-92.8 263,-40.8 16,-40.8"/>
</g>
<!-- ForgotPasswordClassicComponent -->
<g id="node1" class="node">
<title>ForgotPasswordClassicComponent</title>
<polygon fill="#ffffb3" stroke="black" points="2125.26,-84.8 1912.74,-84.8 1912.74,-48.8 2125.26,-48.8 2125.26,-84.8"/>
<text text-anchor="middle" x="2019" y="-62.6" font-family="Times,serif" font-size="14.00">ForgotPasswordClassicComponent</text>
</g>
<!-- ForgotPasswordModule -->
<g id="node8" class="node">
<title>ForgotPasswordModule</title>
<polygon fill="#8dd3c7" stroke="black" points="1050.04,-149.8 1047.04,-153.8 1026.04,-153.8 1023.04,-149.8 899.96,-149.8 899.96,-113.8 1050.04,-113.8 1050.04,-149.8"/>
<text text-anchor="middle" x="975" y="-127.6" font-family="Times,serif" font-size="14.00">ForgotPasswordModule</text>
</g>
<!-- ForgotPasswordClassicComponent&#45;&gt;ForgotPasswordModule -->
<g id="edge1" class="edge">
<title>ForgotPasswordClassicComponent&#45;&gt;ForgotPasswordModule</title>
<path fill="none" stroke="black" d="M2019,-84.81C2019,-107.29 2019,-142.8 2019,-142.8 2019,-142.8 1060.08,-142.8 1060.08,-142.8"/>
<polygon fill="black" stroke="black" points="1060.08,-139.3 1050.08,-142.8 1060.08,-146.3 1060.08,-139.3"/>
</g>
<!-- ForgotPasswordFullscreenComponent -->
<g id="node2" class="node">
<title>ForgotPasswordFullscreenComponent</title>
<polygon fill="#ffffb3" stroke="black" points="1894.13,-84.8 1663.87,-84.8 1663.87,-48.8 1894.13,-48.8 1894.13,-84.8"/>
<text text-anchor="middle" x="1779" y="-62.6" font-family="Times,serif" font-size="14.00">ForgotPasswordFullscreenComponent</text>
</g>
<!-- ForgotPasswordFullscreenComponent&#45;&gt;ForgotPasswordModule -->
<g id="edge2" class="edge">
<title>ForgotPasswordFullscreenComponent&#45;&gt;ForgotPasswordModule</title>
<path fill="none" stroke="black" d="M1779,-84.93C1779,-105.37 1779,-135.8 1779,-135.8 1779,-135.8 1060.28,-135.8 1060.28,-135.8"/>
<polygon fill="black" stroke="black" points="1060.28,-132.3 1050.28,-135.8 1060.28,-139.3 1060.28,-132.3"/>
</g>
<!-- ForgotPasswordFullscreenReversedComponent -->
<g id="node3" class="node">
<title>ForgotPasswordFullscreenReversedComponent</title>
<polygon fill="#ffffb3" stroke="black" points="1645.22,-84.8 1362.78,-84.8 1362.78,-48.8 1645.22,-48.8 1645.22,-84.8"/>
<text text-anchor="middle" x="1504" y="-62.6" font-family="Times,serif" font-size="14.00">ForgotPasswordFullscreenReversedComponent</text>
</g>
<!-- ForgotPasswordFullscreenReversedComponent&#45;&gt;ForgotPasswordModule -->
<g id="edge3" class="edge">
<title>ForgotPasswordFullscreenReversedComponent&#45;&gt;ForgotPasswordModule</title>
<path fill="none" stroke="black" d="M1504,-85.07C1504,-103.36 1504,-128.8 1504,-128.8 1504,-128.8 1060.23,-128.8 1060.23,-128.8"/>
<polygon fill="black" stroke="black" points="1060.23,-125.3 1050.23,-128.8 1060.23,-132.3 1060.23,-125.3"/>
</g>
<!-- ForgotPasswordModernComponent -->
<g id="node4" class="node">
<title>ForgotPasswordModernComponent</title>
<polygon fill="#ffffb3" stroke="black" points="1344.14,-84.8 1127.86,-84.8 1127.86,-48.8 1344.14,-48.8 1344.14,-84.8"/>
<text text-anchor="middle" x="1236" y="-62.6" font-family="Times,serif" font-size="14.00">ForgotPasswordModernComponent</text>
</g>
<!-- ForgotPasswordModernComponent&#45;&gt;ForgotPasswordModule -->
<g id="edge4" class="edge">
<title>ForgotPasswordModernComponent&#45;&gt;ForgotPasswordModule</title>
<path fill="none" stroke="black" d="M1236,-84.81C1236,-100.85 1236,-121.8 1236,-121.8 1236,-121.8 1060.14,-121.8 1060.14,-121.8"/>
<polygon fill="black" stroke="black" points="1060.14,-118.3 1050.14,-121.8 1060.14,-125.3 1060.14,-118.3"/>
</g>
<!-- ForgotPasswordModernReversedComponent -->
<g id="node5" class="node">
<title>ForgotPasswordModernReversedComponent</title>
<polygon fill="#ffffb3" stroke="black" points="1109.23,-84.8 840.77,-84.8 840.77,-48.8 1109.23,-48.8 1109.23,-84.8"/>
<text text-anchor="middle" x="975" y="-62.6" font-family="Times,serif" font-size="14.00">ForgotPasswordModernReversedComponent</text>
</g>
<!-- ForgotPasswordModernReversedComponent&#45;&gt;ForgotPasswordModule -->
<g id="edge5" class="edge">
<title>ForgotPasswordModernReversedComponent&#45;&gt;ForgotPasswordModule</title>
<path fill="none" stroke="black" d="M975,-84.91C975,-84.91 975,-103.79 975,-103.79"/>
<polygon fill="black" stroke="black" points="971.5,-103.79 975,-113.79 978.5,-103.79 971.5,-103.79"/>
</g>
<!-- ForgotPasswordSplitScreenComponent -->
<g id="node6" class="node">
<title>ForgotPasswordSplitScreenComponent</title>
<polygon fill="#ffffb3" stroke="black" points="822.36,-84.8 585.64,-84.8 585.64,-48.8 822.36,-48.8 822.36,-84.8"/>
<text text-anchor="middle" x="704" y="-62.6" font-family="Times,serif" font-size="14.00">ForgotPasswordSplitScreenComponent</text>
</g>
<!-- ForgotPasswordSplitScreenComponent&#45;&gt;ForgotPasswordModule -->
<g id="edge6" class="edge">
<title>ForgotPasswordSplitScreenComponent&#45;&gt;ForgotPasswordModule</title>
<path fill="none" stroke="black" d="M704,-84.81C704,-100.85 704,-121.8 704,-121.8 704,-121.8 889.87,-121.8 889.87,-121.8"/>
<polygon fill="black" stroke="black" points="889.87,-125.3 899.87,-121.8 889.87,-118.3 889.87,-125.3"/>
</g>
<!-- ForgotPasswordSplitScreenReversedComponent -->
<g id="node7" class="node">
<title>ForgotPasswordSplitScreenReversedComponent</title>
<polygon fill="#ffffb3" stroke="black" points="567.45,-84.8 278.55,-84.8 278.55,-48.8 567.45,-48.8 567.45,-84.8"/>
<text text-anchor="middle" x="423" y="-62.6" font-family="Times,serif" font-size="14.00">ForgotPasswordSplitScreenReversedComponent</text>
</g>
<!-- ForgotPasswordSplitScreenReversedComponent&#45;&gt;ForgotPasswordModule -->
<g id="edge7" class="edge">
<title>ForgotPasswordSplitScreenReversedComponent&#45;&gt;ForgotPasswordModule</title>
<path fill="none" stroke="black" d="M423,-85.07C423,-103.36 423,-128.8 423,-128.8 423,-128.8 889.69,-128.8 889.69,-128.8"/>
<polygon fill="black" stroke="black" points="889.69,-132.3 899.69,-128.8 889.69,-125.3 889.69,-132.3"/>
</g>
<!-- FuseAlertModule -->
<g id="node9" class="node">
<title>FuseAlertModule</title>
<polygon fill="#8dd3c7" stroke="black" points="255.25,-84.8 252.25,-88.8 231.25,-88.8 228.25,-84.8 140.75,-84.8 140.75,-48.8 255.25,-48.8 255.25,-84.8"/>
<text text-anchor="middle" x="198" y="-62.6" font-family="Times,serif" font-size="14.00">FuseAlertModule</text>
</g>
<!-- FuseAlertModule&#45;&gt;ForgotPasswordModule -->
<g id="edge8" class="edge">
<title>FuseAlertModule&#45;&gt;ForgotPasswordModule</title>
<path fill="none" stroke="black" d="M198,-84.93C198,-105.37 198,-135.8 198,-135.8 198,-135.8 889.79,-135.8 889.79,-135.8"/>
<polygon fill="black" stroke="black" points="889.79,-139.3 899.79,-135.8 889.79,-132.3 889.79,-139.3"/>
</g>
<!-- SharedModule -->
<g id="node10" class="node">
<title>SharedModule</title>
<polygon fill="#8dd3c7" stroke="black" points="122.42,-84.8 119.42,-88.8 98.42,-88.8 95.42,-84.8 23.58,-84.8 23.58,-48.8 122.42,-48.8 122.42,-84.8"/>
<text text-anchor="middle" x="73" y="-62.6" font-family="Times,serif" font-size="14.00">SharedModule</text>
</g>
<!-- SharedModule&#45;&gt;ForgotPasswordModule -->
<g id="edge9" class="edge">
<title>SharedModule&#45;&gt;ForgotPasswordModule</title>
<path fill="none" stroke="black" d="M73,-84.81C73,-107.29 73,-142.8 73,-142.8 73,-142.8 889.65,-142.8 889.65,-142.8"/>
<polygon fill="black" stroke="black" points="889.65,-146.3 899.65,-142.8 889.65,-139.3 889.65,-146.3"/>
</g>
</g>
</svg>
